<?xml version="1.0" encoding="utf-8"?>
<!-- Generator: Adobe Illustrator 22.1.0, SVG Export Plug-In . SVG Version: 6.00 Build 0)  -->
<svg version="1.1" id="Layer_1" xmlns="http://www.w3.org/2000/svg" xmlns:xlink="http://www.w3.org/1999/xlink" x="0px" y="0px"
	 viewBox="0 0 512 512" style="enable-background:new 0 0 512 512;" xml:space="preserve">
<style type="text/css">
	.st0{fill:#FFFFFF;}
</style>
<path class="st0" d="M392.4,115c15.7-17.5,24.8-35.7,28-54.5C376.1,23.4,319.2,0,257,0c-32.1,0-62.7,6.2-91,17.1
	c47.4,47.5,87.1,103.7,118.1,164.5C329.8,165,367.8,142.4,392.4,115z"/>
<path class="st0" d="M414.8,135c-27.5,30.7-68.4,55.6-117.3,73.7c6.1,13.3,11.7,26.9,16.9,40.7c25.1-5.4,51.1-8.5,77.6-8.5
	c41.8,0,82.3,7.1,119.7,20.1c0-1.7,0.3-3.4,0.3-5.1c0-66-25.4-126.1-66.8-171.4C439.1,102.1,429,119.1,414.8,135z"/>
<path class="st0" d="M5.8,202.1c31.9,5.6,67.2,8.9,101.2,8.9c52.6,0,103.1-7.5,148.2-20.3c-31-59.6-70.9-114.5-118.6-160.4
	C71.8,65.2,21.8,128.2,5.8,202.1z"/>
<path class="st0" d="M509.2,292c-36.2-13.6-76-21-117.2-21c-23.1,0-45.7,2.4-67.6,6.8c22.2,66.5,35,138.4,37.2,211.5
	C439.7,454,496.7,379.7,509.2,292z"/>
<path class="st0" d="M0,256c0,78.9,38,150.5,94.5,197.3c6-39.8,23.9-78.9,53.1-111.7c34.8-39,83-68.1,137.6-84.8
	c-5.1-13.1-10.6-26-16.5-38.6C219.9,232.7,164.9,241,107,241c-35.4,0-72.3-3.4-105.8-9.3C0.5,239.7,0,247.8,0,256z"/>
<path class="st0" d="M170,361.6c-29.5,33.1-45.5,71.9-47.6,111.6C161.6,497.6,207.6,512,257,512c26,0,51-4,74.7-11.2
	c-1.1-74.7-13.7-148.1-36.5-215.7C245.3,300,201.4,326.4,170,361.6z"/>
</svg>
