<?xml version="1.0" encoding="utf-8"?>
<!-- Generator: Adobe Illustrator 24.3.0, SVG Export Plug-In . SVG Version: 6.00 Build 0)  -->
<svg version="1.1" id="Layer_1" xmlns="http://www.w3.org/2000/svg" xmlns:xlink="http://www.w3.org/1999/xlink" x="0px" y="0px"
	 viewBox="0 0 28.2 32" style="enable-background:new 0 0 28.2 32;" xml:space="preserve">
<style type="text/css">
	.st0{fill:#423542;}
</style>
<path class="st0" d="M10.2,6.6C10.1,6.1,10,5.7,10,5.2C9.8,2.6,10.9-0.1,13.9,0c2.2,0.1,4.1,1.8,4.3,4.1c0.2,2.5-1,5-1.6,7.3
	c-0.9,3.3-1.4,6.6-1.5,10c0.2,1.2,0.2,2.4-0.1,3.6c0.7-1.7,1.2-3.5,2-5.2c0.9-2.1,2-4.1,3.4-6c1.5-1.9,4.3-2.3,6.2-0.8
	c0.2,0.1,0.4,0.3,0.5,0.5c1.6,2.1,1.2,5.2-0.9,6.8c-0.1,0-0.1,0.1-0.2,0.1c-0.6,0.4-1.3,0.8-1.9,1.1c-5.7,3.2-7.1,4-10.3,10.4
	c-1.2-5.6-5.9-8.6-10.4-11c-1.4-0.7-2.4-1.8-3.1-3.2c-0.9-1.9-0.2-4.1,1.7-5.2c1.9-1.2,4.4-0.7,5.8,1.1c1.5,2.3,2.7,4.7,3.8,7.1
	c0.6,1.3,1,2.7,1.6,4c-0.2-0.7-0.3-1.5-0.2-2.3c0-1.1,0-2.2-0.1-3.2C12.5,15,10.8,10.9,10.2,6.6z"/>
</svg>
