<svg id="Layer_1" data-name="Layer 1" xmlns="http://www.w3.org/2000/svg" xmlns:xlink="http://www.w3.org/1999/xlink" viewBox="0 0 43 26.71"><defs><style>.cls-1{fill:none;}.cls-2{clip-path:url(#clip-path);}</style><clipPath id="clip-path"><rect class="cls-1" y="-2.29" width="43" height="29"/></clipPath></defs><g class="cls-2"><path d="M16.17,28a18.63,18.63,0,0,1,1-6.15,9.92,9.92,0,0,1,1.18-2.25,5.41,5.41,0,0,1,1.45-1.32,3.54,3.54,0,0,1,1.82-.46,4.58,4.58,0,0,1,.64,0c-.21,0,.23.06.29.08a2.21,2.21,0,0,1,.93.39,4.61,4.61,0,0,1,1.35,1.36,8.68,8.68,0,0,1,1,2.28,24.07,24.07,0,0,1,.91,7,1.5,1.5,0,0,0,3,0c0-4.39-.52-10.29-4.48-13a6.65,6.65,0,0,0-6-.7,8.31,8.31,0,0,0-4.42,4.38A20.35,20.35,0,0,0,13.17,28c0,1.93,3,1.93,3,0Z"/><path d="M9.94,27.5c.28-5.33,1.22-12.13,6.32-15.07a11.17,11.17,0,0,1,8-1.23c2.82.79,4.83,3.22,6.15,5.72A24.33,24.33,0,0,1,33,29C32.9,31,35.9,31,36,29c.21-7.36-2.25-17.25-9.82-20.35a13.43,13.43,0,0,0-9.85.43,13.11,13.11,0,0,0-6.6,6.16C7.74,19,7.16,23.33,6.94,27.5c-.1,1.93,2.9,1.92,3,0Z"/><path d="M4.54,26.94c.25-8.28,3-19.09,11.67-22.28a15.85,15.85,0,0,1,12,.41,15.63,15.63,0,0,1,7.28,8c2.2,4.95,2.75,10.56,2.83,15.91,0,1.93,3,1.94,3,0-.13-9.21-1.86-21-10.66-26A18.77,18.77,0,0,0,16.85,1.31,18.26,18.26,0,0,0,6,9.83C2.89,14.93,1.72,21,1.54,26.94c-.06,1.93,2.94,1.93,3,0Z"/></g></svg>