<svg width="37" height="33" viewBox="0 0 37 33" fill="none" xmlns="http://www.w3.org/2000/svg">
<g clip-path="url(#clip0)">
<path d="M32.4228 0.429674C22.478 3.41015 15.2306 6.09526 2.28874 12.8886C1.52585 13.2913 0.817457 14.0969 0.953687 14.9293C1.06267 15.4931 3.76002 16.6477 4.27769 16.9431C6.18491 18.0977 8.58255 18.581 9.94485 20.3532C11.4979 22.3939 10.9802 25.2669 10.5715 27.7909C10.4898 28.328 10.4353 28.9455 10.7622 29.402C11.3071 30.1538 12.506 29.939 13.2689 29.402C14.0317 28.865 14.6039 28.0595 15.4758 27.7104C17.3013 26.9586 19.5899 28.5159 21.2792 27.5224C21.9058 27.1465 22.2873 26.5021 22.6415 25.9114C27.0826 18.3394 31.3602 10.6599 35.4471 2.89997C35.4198 2.89997 38.1717 -1.31565 32.4228 0.429674Z" fill="#F7B3A4"/>
<path d="M27.137 10.3377C23.8675 12.7543 20.598 15.1977 17.3285 17.6143C16.5383 18.205 15.7482 18.7958 14.9581 19.3865C14.3042 19.8698 13.5685 20.3263 12.7784 20.4874C11.852 20.6753 10.9529 20.2457 10.1355 19.8967C9.20917 19.4939 8.25556 19.0911 7.3292 18.7152C5.17677 17.8023 3.10608 16.9162 1.00814 16.0301C0.953649 16.4329 0.899157 16.8356 0.844665 17.2384C10.081 13.4524 19.3447 9.7738 28.6628 6.2026C31.2784 5.20911 33.894 4.21562 36.5369 3.24898C36.2916 2.92677 36.0464 2.60456 35.774 2.28234C31.9323 9.37103 28.0906 16.4597 24.2762 23.5484C23.1863 25.5622 22.0965 27.5492 21.0339 29.5631C21.3881 29.5094 21.7423 29.4825 22.0693 29.4288C20.2983 27.5761 18.1186 26.153 15.7482 25.1863C14.5221 24.703 13.2416 24.4614 12.0155 25.0789C10.9802 25.5891 10.2445 26.5826 9.86307 27.6298C9.29091 29.1334 9.48163 30.7714 9.67235 32.3287C9.72684 32.7583 10.2173 33.2417 10.6805 32.8926C12.5332 31.4695 14.4131 30.0732 16.2659 28.6501C16.5656 28.4353 16.7018 28.0863 16.5111 27.764C16.3476 27.4955 15.8844 27.3076 15.612 27.5224C13.7592 28.9455 11.8793 30.3417 10.0265 31.7649C10.3535 31.9528 10.6805 32.1408 11.0346 32.3287C10.8712 30.8788 10.626 29.2408 11.2254 27.8446C11.6886 26.7705 12.6967 25.8845 13.95 26.0187C14.6856 26.0993 15.4212 26.4215 16.0752 26.7437C16.7018 27.0391 17.3012 27.3613 17.9006 27.7103C19.0995 28.4622 20.1893 29.3483 21.1701 30.3686C21.4698 30.664 22.0148 30.6103 22.2055 30.2343C26.0472 23.1456 29.8888 16.057 33.7033 8.96827C34.7931 6.95444 35.883 4.96745 36.9456 2.95362C37.1908 2.49715 36.7821 1.77217 36.1827 1.98698C26.8373 5.47762 17.5192 9.07567 8.28281 12.808C5.69444 13.8552 3.07883 14.9024 0.490467 15.9764C0.0272861 16.1644 -0.272419 16.9162 0.326992 17.1579C2.2887 17.9902 4.25041 18.8226 6.21212 19.655C7.16573 20.0578 8.14658 20.4605 9.10019 20.8902C10.0266 21.2929 10.9529 21.7225 11.961 21.8299C13.8955 22.0179 15.503 20.6216 16.947 19.5476C18.6363 18.2856 20.3255 17.0236 22.042 15.7884C23.9765 14.3653 25.9109 12.9154 27.8454 11.4923C28.1451 11.2775 28.2813 10.9284 28.0906 10.6062C27.8999 10.3108 27.4367 10.1229 27.137 10.3377Z" fill="#083618"/>
</g>
<defs>
<clipPath id="clip0">
<rect width="37" height="33" fill="white"/>
</clipPath>
</defs>
</svg>
