<?xml version="1.0" encoding="utf-8"?>
<!-- Generator: Adobe Illustrator 22.1.0, SVG Export Plug-In . SVG Version: 6.00 Build 0)  -->
<svg version="1.1" id="Layer_1" xmlns="http://www.w3.org/2000/svg" xmlns:xlink="http://www.w3.org/1999/xlink" x="0px" y="0px"
	 viewBox="0 0 63 113" style="enable-background:new 0 0 63 113;" xml:space="preserve">
<style type="text/css">
	.st0{fill:#FFFFFF;filter:url(#Adobe_OpacityMaskFilter);}
	.st1{mask:url(#mask0_1_);}
	.st2{
		fill:red;
	}

	.st2:hover {
	fill: yellow;
	}
</style>
<defs>
	<filter id="Adobe_OpacityMaskFilter" filterUnits="userSpaceOnUse" x="-0.3" y="9.4" width="49.4" height="94.1">
		<feColorMatrix  type="matrix" values="1 0 0 0 0  0 1 0 0 0  0 0 1 0 0  0 0 0 1 0"/>
	</filter>
</defs>
<mask maskUnits="userSpaceOnUse" x="-0.3" y="9.4" width="49.4" height="94.1" id="mask0_1_">
	<rect class="st0" width="53.6" height="113"/>
</mask>
<g id="scroll" class="st1">
	<g id="arrow">
		<path class="st2" d="M-0.2,61.5l3.4,4.2l3.2-4.2H-0.2z"/>
		<rect x="2.9" y="43.7" class="st2" width="1" height="21"/>
	</g>
	<g id="words_1_">
		<path d="M5,10.5c-1.6-0.1-2.4,0.5-2.5,1.7c0,0.7,0.1,1.1,0.5,1.4c0.4,0.3,1.1,0.5,2.2,0.8c1.1,0.3,1.9,0.7,2.4,1.1
			c0.5,0.4,0.7,1.1,0.6,2c-0.1,2.3-1.3,3.4-3.7,3.3c-0.8,0-1.7-0.2-2.9-0.4l-0.6-0.1l0.2-1c1.4,0.3,2.5,0.4,3.3,0.4
			c1.6,0.1,2.4-0.6,2.5-2.1c0-0.6-0.1-1-0.5-1.3c-0.3-0.3-1-0.5-1.9-0.8c-1.2-0.3-2.1-0.7-2.6-1.1c-0.5-0.4-0.7-1.2-0.7-2.2
			c0.1-2,1.3-2.9,3.7-2.8c0.8,0,1.7,0.2,2.8,0.4l0.5,0.1l-0.2,1C6.7,10.7,5.7,10.5,5,10.5z"/>
		<path d="M18.2,23.8c-1.1-0.1-2.1-0.4-2.9-0.6c-0.8-0.3-1.5-0.6-1.9-1c-0.4-0.4-0.7-0.9-0.8-1.5c-0.1-0.6-0.1-1.2,0-1.8
			c0.1-0.7,0.3-1.5,0.7-2.4c0.3-0.9,0.6-1.7,1-2.3c0.3-0.6,0.7-1.1,1.2-1.5c0.4-0.4,1-0.6,1.5-0.7c0.6,0,1.3,0.1,2.1,0.3
			c0.8,0.3,1.7,0.7,2.7,1.3l-0.4,1c-1-0.5-1.8-0.9-2.6-1.2c-1.1-0.4-2-0.3-2.6,0.2c-0.6,0.5-1.1,1.6-1.7,3.2c-0.3,0.8-0.5,1.4-0.6,2
			c-0.1,0.5-0.1,1-0.1,1.5c0.1,0.4,0.2,0.8,0.5,1.1c0.3,0.3,0.8,0.6,1.5,0.8c0.7,0.2,1.6,0.4,2.6,0.6L18.2,23.8z"/>
		<path d="M24.8,23.2l-2.5,3.4l-1-0.7l6.5-8.9l3.3,2.4c0.9,0.7,1.5,1.4,1.6,2.2c0.2,0.8-0.1,1.7-0.8,2.6c-1,1.4-2.2,1.8-3.5,1.4
			l-0.9,4.9l-1.1-0.8l0.9-4.6L24.8,23.2z M27.7,24c1.2,0.9,2.3,0.7,3.2-0.5c0.9-1.3,0.8-2.3-0.5-3.2l-2.3-1.7l-2.7,3.8L27.7,24z"/>
		<path d="M34.6,30.5c-1.3,0.9-2.1,1.8-2.5,2.6c-0.3,0.8-0.1,1.6,0.6,2.6c0.7,1,1.5,1.5,2.3,1.4c0.8-0.1,1.9-0.6,3.2-1.5
			c1.3-0.9,2.2-1.8,2.5-2.6c0.4-0.8,0.2-1.7-0.5-2.7c-0.7-1-1.5-1.4-2.3-1.3C37,29,35.9,29.5,34.6,30.5z M38.9,36.6
			c-1.6,1.1-3,1.7-4,1.7c-1.1,0-2.1-0.7-3.1-2c-1-1.3-1.3-2.5-0.9-3.6c0.4-1,1.3-2.1,2.9-3.2c1.6-1.1,3-1.7,4.1-1.7
			c1.1,0,2.2,0.6,3.1,1.9c0.9,1.3,1.2,2.5,0.8,3.6C41.5,34.3,40.5,35.5,38.9,36.6z"/>
		<path d="M37.7,49.1l-1.9-5.8l10.5-3.5l0.4,1.2l-9.5,3.1l1.5,4.6L37.7,49.1z"/>
		<path d="M38.3,58.7L38,52.6L49.1,52l0.1,1.2l-10,0.5l0.3,4.9L38.3,58.7z"/>
		<path d="M34.5,72.1l1.7-3.6l10,4.7l-1.7,3.6c-0.8,1.6-1.9,2.4-3.5,2.4c-0.9,0-1.9-0.3-3.1-0.9c-2.5-1.2-3.8-2.5-3.9-4.1
			C34.1,73.5,34.2,72.8,34.5,72.1z M38.5,77.1c1.9,0.9,3.3,1,4.2,0.4c0.4-0.3,0.6-0.6,0.9-1.1l1.1-2.5l-8.1-3.7l-1.1,2.5
			C34.7,74.3,35.7,75.8,38.5,77.1z"/>
		<path d="M33.8,83.2c-1.2-1.1-2.2-1.8-3-2c-0.8-0.2-1.6,0.2-2.5,1c-0.8,0.9-1.2,1.7-1,2.5c0.2,0.8,0.9,1.7,2.1,2.9
			c1.2,1.1,2.2,1.8,3,2c0.8,0.2,1.7-0.1,2.5-1c0.8-0.9,1.1-1.7,0.9-2.5C35.7,85.3,35,84.4,33.8,83.2z M28.6,88.6
			c-1.4-1.4-2.2-2.6-2.4-3.6c-0.2-1.1,0.3-2.2,1.4-3.4c1.1-1.2,2.3-1.7,3.4-1.5c1.1,0.2,2.3,0.9,3.7,2.3c1.4,1.4,2.2,2.6,2.5,3.7
			c0.2,1.1-0.2,2.3-1.3,3.4c-1.1,1.2-2.3,1.7-3.4,1.5C31.3,90.8,30,90,28.6,88.6z"/>
		<path d="M27.3,96.5L26.1,97l-5.9-8.3L19.8,89l2.1,9.9l-1.3,0.6l-6.2-8L14,91.7l2.5,9.8l-1.1,0.5l-2.6-11l2-1l5.9,7.7l-2.1-9.5l2-1
			L27.3,96.5z"/>
		<path d="M7.8,91.9L8.5,103l-2.3,0.1l-4.9-9.7l-0.3,0l0.6,10l-1.2,0.1l-0.7-11.1L2,92.3l4.9,9.7l0.3,0L6.6,92L7.8,91.9z"/>
	</g>
</g>
</svg>
