<?xml version="1.0" encoding="utf-8"?>
<!-- Generator: Adobe Illustrator 22.1.0, SVG Export Plug-In . SVG Version: 6.00 Build 0)  -->
<svg version="1.1" id="Layer_1_1_" xmlns="http://www.w3.org/2000/svg" xmlns:xlink="http://www.w3.org/1999/xlink" x="0px" y="0px"
	 viewBox="0 0 19.3 7.1" style="enable-background:new 0 0 19.3 7.1;" xml:space="preserve">
<style type="text/css">
	.st0{fill:#F7B3A4;}
</style>
<path class="st0" d="M0,4.8C1.3,5.8,2.7,7,5.5,7S9.7,5.8,11,4.8c1.1-1,2.1-1.8,4.2-1.8s3,0.8,4.2,1.8c1.3,1,2.7,2.2,5.5,2.2
	s4.2-1.2,5.5-2.2l0-3.3c-1.3,1.4-3.5,2.7-5.6,2.7s-3-0.8-4.2-1.8c-1.2-1-2.7-2.2-5.4-2.2c-2.8,0-4.2,1.2-5.5,2.2
	c-1.2,1-2.1,1.8-4.2,1.8C2.9,4.2,1.2,2.5,0,1.5L0,4.8z"/>
</svg>
