<svg id="Layer_1" data-name="Layer 1" xmlns="http://www.w3.org/2000/svg" viewBox="0 0 26.19 27.06"><defs><style>.cls-1{fill:none;stroke:#000;stroke-miterlimit:10;stroke-width:2.5px;}</style></defs><path class="cls-1" d="M16,14.49c.29,2-1.27,4.82-3.32,5.08C4.8,20.58,5.09,9.5,10.57,8.51c3.1-.56,4.94,2.71,5.35,5.29.25,1.56.45,3.58,1.58,4.8,1.53,1.65,4,1.12,5.49-.32s1.91-3.71,2-5.66a11.28,11.28,0,0,0-5.69-10C14.78.17,8.7,1.17,4.87,4.43c-3.35,2.86-4,7.84-3.42,12,.56,3.83,2.42,6.78,6.1,8.26a17.89,17.89,0,0,0,15.74-1.54"/></svg>