<svg width="250" height="99" viewBox="0 0 250 99" fill="none" xmlns="http://www.w3.org/2000/svg">
<path fill-rule="evenodd" clip-rule="evenodd" d="M127.454 89.0203C118.415 81.1284 110.933 72.4159 110.713 60.3687C110.422 44.4572 120.993 23.9003 140.636 25.7902C152.362 26.918 159.671 35.7202 164.991 44.7718C172.949 58.3079 183.81 77.9332 196.718 87.433" fill="#F7B3A4"/>
<path fill-rule="evenodd" clip-rule="evenodd" d="M132.515 59.9923C137.548 60.2463 142.851 61.1399 147.078 63.9181C149.888 65.7644 151.9 68.4492 152.951 71.5304C153.426 72.9198 153.729 74.3684 153.898 75.8129C153.98 76.519 154.035 77.2265 154.068 77.9367C154.101 78.6186 154.044 79.3349 154.211 80.0027C154.536 81.3082 155.718 82.0647 156.979 82.4745C158.518 82.9751 160.189 83.0886 161.795 83.2512C163.412 83.4138 165.075 83.5556 166.617 84.0776C167.884 84.5056 168.895 85.2608 169.143 86.5467C169.173 86.706 169.188 86.8652 169.196 87.0292C169.199 87.1152 169.194 87.2025 169.199 87.2885C169.206 87.3839 169.206 87.826 169.273 87.5122C169.355 87.4108 169.437 87.308 169.519 87.2065C169.496 87.22 169.472 87.2334 169.448 87.2468C168.858 87.5875 169.398 88.473 169.991 88.131C170.314 87.9449 170.352 87.7104 170.299 87.3805C170.267 87.1743 170.272 86.9586 170.249 86.7456C170.208 86.3674 170.133 85.9951 169.99 85.6397C169.713 84.9531 169.247 84.3847 168.633 83.9412C167.386 83.0376 165.751 82.7218 164.234 82.5088C162.498 82.2636 160.739 82.1796 159.01 81.8934C158.315 81.7771 157.528 81.6098 156.924 81.3686C156.622 81.2484 156.325 81.0965 156.061 80.9111C155.941 80.8257 155.659 80.5577 155.576 80.4421C155.204 79.9214 155.19 79.4498 155.174 78.792C155.155 78.0738 155.119 77.3549 155.056 76.638C154.924 75.1182 154.682 73.5998 154.26 72.1263C153.336 68.9034 151.5 65.9639 148.758 63.8468C144.876 60.8496 139.861 59.6275 134.977 59.1484C134.157 59.0685 133.337 59.0107 132.515 58.9697C131.824 58.9348 131.825 59.9574 132.515 59.9923Z" fill="white"/>
<mask id="mask0" mask-type="alpha" maskUnits="userSpaceOnUse" x="84" y="0" width="48" height="28">
<path fill-rule="evenodd" clip-rule="evenodd" d="M84.7937 0H131.651V27.8079H84.7937V0Z" fill="white"/>
</mask>
<g mask="url(#mask0)">
<path fill-rule="evenodd" clip-rule="evenodd" d="M129.024 27.7153C130.829 27.0727 131.925 23.7818 131.591 21.9909C131.258 20.2 130.08 18.6656 128.936 17.2019C128.182 16.2381 127.298 15.1962 126.042 15.017C124.718 14.828 123.511 15.6623 122.333 16.2619C121.156 16.8615 119.49 17.1715 118.636 16.1997C118.244 15.7528 118.141 15.1479 118.041 14.5761C117.214 9.82876 115.461 4.97832 111.667 1.76077C109.931 0.289179 107.151 -0.743449 105.369 0.677903C104.142 1.65566 103.982 3.33881 103.522 4.78925C103.089 6.1544 102.317 7.42238 101.287 8.46294C100.86 8.89398 100.36 9.30121 99.748 9.42682C99.1056 9.55838 98.4457 9.36005 97.8117 9.19742C94.6011 8.37436 91.1408 8.43848 87.9674 9.37922C86.2015 9.90281 84.2006 11.424 84.9587 13.0152C85.4742 14.0968 86.961 14.3804 87.8706 15.1995C89.452 16.6235 88.8664 19.0761 89.3581 21.0845C90.3392 25.0921 95.564 26.7898 99.9114 26.4381C104.259 26.0864 108.472 24.4191 112.83 24.6439C114.469 24.7285 116.107 25.0822 117.739 24.911C119.536 24.7232 121.184 23.9147 122.901 23.3805C124.619 22.847 126.612 22.615 128.15 23.5114C129.689 24.4079 130.236 26.7951 128.78 27.8079" fill="#083618"/>
</g>
<path fill-rule="evenodd" clip-rule="evenodd" d="M127.784 21.7735C127.655 21.6571 127.557 21.5062 127.453 21.3668C126.506 20.1022 124.876 19.611 123.307 19.8208C122.53 19.9257 121.773 20.1895 121.109 20.5901C120.078 21.2126 119.344 21.9534 118.074 22.105C116.157 22.335 115.775 20.3452 114.285 19.4385C113.003 18.6584 109.961 18.9094 108.436 19.3593C106.418 19.9548 104.595 22.4893 102.527 22.9602C100.138 23.5042 97.0742 23.4156 95.6814 20.9534C95.181 20.0691 95.981 18.1949 95.7364 17.2382C95.3029 15.5392 94.393 14.7124 93.4774 13.3112C92.927 12.4681 92.2383 11.1109 93.6959 10.6339C94.2231 10.4607 94.8032 10.5547 95.3403 10.6981C97.3949 11.2469 99.2112 12.4918 101.302 12.8937C102.14 13.0548 103.032 13.071 103.826 12.7679C104.847 12.3775 105.588 11.508 106.126 10.5879C106.727 9.5601 107.129 8.43491 107.427 7.29145C107.621 6.54921 107.776 5.78533 108.152 5.11075C108.528 4.43551 109.176 3.84754 109.968 3.75281C110.893 3.6432 111.757 4.21967 112.397 4.87124C113.516 6.01064 114.257 7.44977 114.78 8.93356C115.663 11.4356 115.961 14.0872 116.241 16.7145C116.262 16.9114 116.273 17.1387 116.125 17.2774C115.917 17.4736 115.572 17.3505 115.31 17.2274C113.058 16.1752 110.383 15.9148 108.002 16.659C106.738 17.0542 105.579 17.7145 104.321 18.1266C103.064 18.5386 101.61 18.6773 100.455 18.0454C99.7173 17.6428 99.1647 16.9378 98.9645 16.1448C98.9222 15.975 98.8997 15.7801 99.0082 15.6401C99.1633 15.4405 99.4769 15.4675 99.7335 15.5047C102.026 15.841 104.445 15.3051 106.353 14.0385C108.26 12.7726 109.636 10.7895 110.118 8.6115C110.186 8.30365 110.345 7.90716 110.672 7.9376C110.833 7.95181 110.957 8.07698 111.061 8.19674C112.313 9.6352 112.962 11.5425 112.838 13.4134C112.82 13.6738 112.731 13.9973 112.463 14.0419C112.355 14.0602 112.246 14.0243 112.143 13.9891C111.72 13.8457 111.298 13.7016 110.876 13.5581C110.685 13.4932 110.487 13.4242 110.346 13.2855C110.205 13.1461 110.14 12.9154 110.253 12.755C110.529 12.366 111.181 12.8897 111.644 12.7327C112.069 12.5886 112.05 12.006 111.919 11.5926C111.582 10.5378 111.04 9.54386 110.328 8.67848C110.571 8.61015 110.814 8.54181 111.057 8.47415C110.581 10.9803 109.032 13.2828 106.846 14.7287C104.66 16.1739 101.866 16.7436 99.2577 16.2774C99.4353 16.1069 99.6137 15.9371 99.792 15.7666C99.8011 16.3478 99.8322 16.9845 100.237 17.4168C100.722 17.9337 101.558 17.9574 102.271 17.8322C104.063 17.5169 105.641 16.5298 107.363 15.9601C110.176 15.0298 113.387 15.2754 116.01 16.6225C115.968 16.7537 115.925 16.8843 115.882 17.0156C115.699 14.9526 115.508 12.8592 114.745 10.9221C114.211 9.5628 113.408 8.3165 112.788 6.99171C112.506 6.39021 112.254 5.75962 111.805 5.25961C111.356 4.76027 110.649 4.40912 109.983 4.57218C109.022 4.80696 108.644 5.89291 108.394 6.81444C107.987 8.31312 107.508 9.79556 106.961 11.253C106.719 11.8991 106.455 12.5527 106.004 13.0852C105.487 13.6948 104.753 14.1048 103.987 14.3829C103.193 14.6718 102.324 14.8315 101.493 14.6664C99.362 14.2449 98.0588 11.8673 95.9027 11.5858C95.4185 11.5229 94.8885 11.5865 94.5135 11.889C93.851 12.4228 93.944 13.4127 94.393 14.0406C94.9505 14.8193 96.0338 15.1962 96.3482 16.1448C97.0932 18.3844 97.182 20.7207 100.268 21.0015C102.116 21.1699 104.626 20.1902 106.326 19.5535C108.822 18.6178 111.247 17.5007 113.929 18.4033C115.508 18.9338 115.911 21.2315 117.624 21.4318C119.607 21.6639 121.797 19.4331 123.674 19.2335C125.643 19.0244 127.246 19.6036 128.39 21.1361C128.538 21.333 128.673 21.6036 128.53 21.8046C128.4 21.9873 128.101 21.9846 127.906 21.8662C127.862 21.8391 127.822 21.808 127.784 21.7735Z" fill="white"/>
<mask id="mask1" mask-type="alpha" maskUnits="userSpaceOnUse" x="48" y="91" width="8" height="8">
<path fill-rule="evenodd" clip-rule="evenodd" d="M48.2227 91.9811H55.6582V98.7667H48.2227V91.9811Z" fill="white"/>
</mask>
<g mask="url(#mask1)">
<path fill-rule="evenodd" clip-rule="evenodd" d="M54.124 92.9036C54.7514 93.4572 55.2432 94.1808 55.5001 94.8454C55.9621 96.0382 55.3652 97.1606 54.3171 97.8842C52.9339 98.8398 50.6495 99.1747 49.2231 98.0975C46.7379 96.2209 49.3104 91.6463 52.2775 92.0005C52.951 92.0803 53.5875 92.4292 54.124 92.9036Z" fill="#DD452C"/>
</g>
<path fill-rule="evenodd" clip-rule="evenodd" d="M64.0181 94.3354C64.3055 94.6001 64.5305 94.9469 64.6488 95.265C64.8601 95.8358 64.587 96.3734 64.1066 96.7196C63.4733 97.1771 62.4265 97.338 61.773 96.822C60.6345 95.9236 61.8133 93.7335 63.1722 93.9027C63.4804 93.9409 63.7724 94.1089 64.0181 94.3354Z" fill="#DD452C"/>
<mask id="mask2" mask-type="alpha" maskUnits="userSpaceOnUse" x="0" y="51" width="11" height="11">
<path fill-rule="evenodd" clip-rule="evenodd" d="M0 51.6628H10.591V61.3561H0V51.6628Z" fill="white"/>
</mask>
<g mask="url(#mask2)">
<path fill-rule="evenodd" clip-rule="evenodd" d="M8.40542 52.9809C9.29869 53.7717 9.99891 54.8061 10.3656 55.7547C11.0236 57.4584 10.174 59.062 8.6808 60.0951C6.71091 61.4596 3.45611 61.9391 1.42533 60.4011C-2.11523 57.7196 1.54918 51.1856 5.77543 51.6905C6.73443 51.8049 7.64085 52.3039 8.40542 52.9809Z" fill="#DD452C"/>
</g>
<path fill-rule="evenodd" clip-rule="evenodd" d="M20.2354 34.4534C20.6666 34.8506 21.0038 35.3707 21.1813 35.8477C21.4984 36.7042 21.0885 37.5111 20.3682 38.0305C19.4176 38.7159 17.8475 38.9569 16.8681 38.184C15.1598 36.8355 16.9275 33.5505 18.9663 33.8046C19.429 33.8621 19.8662 34.113 20.2354 34.4534Z" fill="#DD452C"/>
<path fill-rule="evenodd" clip-rule="evenodd" d="M47.4865 7.65062C47.9177 8.04784 48.2549 8.56789 48.4324 9.04482C48.7495 9.90133 48.339 10.7082 47.6193 11.2276C46.6687 11.9129 45.0985 12.1547 44.1191 11.3811C42.4108 10.0326 44.1786 6.74772 46.2174 7.00187C46.68 7.05936 47.1173 7.31024 47.4865 7.65062Z" fill="#DD452C"/>
<path fill-rule="evenodd" clip-rule="evenodd" d="M14.2741 10.8993C14.7054 11.2965 15.0432 11.8166 15.2202 12.2942C15.5373 13.15 15.1274 13.9569 14.407 14.4763C13.4563 15.1616 11.8867 15.4033 10.9066 14.6298C9.19878 13.2813 10.9667 9.99709 13.0056 10.2506C13.4676 10.3087 13.9056 10.5589 14.2741 10.8993Z" fill="#DD452C"/>
<path fill-rule="evenodd" clip-rule="evenodd" d="M54.5966 83.8679C56.6592 79.4354 58.4282 76.2613 61.3072 72.2518C63.6071 69.0473 66.3128 65.9928 69.6413 63.7081C72.6086 61.6707 75.9678 60.421 79.6178 60.0873C83.821 59.7013 87.5302 59.5929 91.4057 61.2054C95.2011 62.7849 99.213 65.394 101.248 68.8622C101.499 69.2918 101.729 69.7326 101.94 70.1813C102.217 70.7721 103.523 72.1388 102.855 70.334C101.421 66.4679 97.8866 63.6348 94.0946 61.7355C90.2275 59.7971 85.7988 58.8752 81.4348 58.9763C77.5238 59.0675 72.6824 59.351 69.3539 61.3237C65.8681 63.3896 63.0114 66.2802 60.5716 69.3909C57.5131 73.292 56.1568 78.273 54.0099 82.6783C53.7093 83.2955 53.1213 84.9926 52.8318 85.6152C52.5583 86.2014 54.0698 84.9913 54.3454 84.3999L54.5966 83.8679Z" fill="#EAA524"/>
<path fill-rule="evenodd" clip-rule="evenodd" d="M93.3655 65.4231C83.0243 61.3547 73.3069 57.7882 62.6367 54.5733C52.1348 51.4102 41.3088 49.0247 30.2984 48.3832C24.1473 48.0255 16.9505 48.9878 10.8546 49.8601C10.9482 50.1882 12.0645 49.7722 12.1581 50.1003C15.1076 49.0965 18.6313 48.3033 21.7344 47.9973C25.5606 47.6202 29.2337 47.1545 31.1423 47.2881C32.2481 47.3652 49.0596 48.5925 57.0941 49.534C60.7093 49.9574 65.4171 50.048 68.9366 50.9492C70.041 51.2317 68.8856 50.5365 68.4252 50.1808C63.3639 46.2721 53.2204 41.7085 51.5592 41.1429C49.9818 40.6054 39.6951 38.0367 33.6034 37.2771C30.0909 36.8383 26.5644 36.5222 23.0366 36.231C22.3498 36.174 22.5678 36.7685 23.2384 36.8376C26.424 37.1691 29.4216 37.7737 32.6163 38.0092C36.2301 38.2763 39.8418 38.5984 43.4283 39.1097C47.6003 39.7042 51.7338 40.5403 55.7905 41.6481C60.6723 42.9815 65.4359 44.6952 70.0494 46.7237C75.7191 49.2159 82.0176 53.4776 87.2598 56.7159C87.9947 57.1702 88.7248 57.6305 89.4513 58.0949C90.0234 58.4606 89.7056 56.2583 89.1376 55.8953C83.7669 52.4603 78.1866 49.3179 72.3645 46.6405C67.6512 44.4738 62.7827 42.6104 57.7836 41.1469C53.6305 39.931 49.3915 38.9983 45.1056 38.332C41.4143 37.7576 37.695 37.3798 33.9688 37.0899C30.7022 36.8349 27.4293 36.6484 24.1669 36.3424C23.7903 36.3068 23.4131 36.2699 23.0366 36.231V36.796C29.1513 37.3013 35.2744 38.3353 41.2955 39.5089C47.2356 40.6658 53.057 42.4279 58.448 45.1153C61.7139 46.7445 64.752 48.0826 67.6197 50.2983C67.7923 50.0131 68.0179 50.3345 68.1905 50.05C61.097 48.8891 53.9351 48.0611 46.7641 47.4974C38.7317 46.866 24.4687 46.5956 23.4976 46.6962C21.1469 46.9398 13.2067 48.0389 10.3327 49.9782C9.76269 50.364 11.4889 50.1963 12.1581 50.1003C22.9772 48.5523 44.486 51.7812 47.3656 52.314C49.7331 52.7522 66.0745 56.516 76.3856 60.2408C82.2139 62.3471 89.4632 64.791 95.2251 67.0584C95.858 67.3073 94.3484 66.0505 94.0291 65.8787L93.3655 65.4231Z" fill="#EAA524"/>
<path fill-rule="evenodd" clip-rule="evenodd" d="M86.8052 50.5773C82.7806 47.0432 74.9168 39.8393 74.2175 39.1682C72.1196 37.1548 63.5718 32.3489 59.5319 29.7724C55.6794 27.3161 52.6269 26.447 48.5282 24.3907C44.2896 22.2645 39.9336 20.3626 35.5076 18.625C30.5488 16.6774 25.5018 14.9385 20.4178 13.3171C19.7269 13.097 17.8849 12.4245 17.8835 12.7708C17.8814 13.203 21.8178 14.8043 22.4682 15.0077C27.6131 16.615 28.3159 16.9694 33.346 18.8841C37.8293 20.5907 42.2441 22.4639 46.5449 24.5591C50.6331 26.5503 54.6136 28.7436 58.4647 31.1308C62.4578 33.6072 66.3111 36.2864 70.0433 39.1118C74.2161 42.2715 78.2449 45.6029 82.1876 49.023C82.7282 49.4914 83.2666 49.9612 83.8037 50.433C84.3086 50.876 87.3122 51.0223 86.8052 50.5773Z" fill="#EAA524"/>
<path fill-rule="evenodd" clip-rule="evenodd" d="M49.6251 15.2527C56.0696 19.5704 62.0449 24.5118 67.4388 29.9755C68.9733 31.5295 69.6662 32.6611 71.2692 34.1513C72.0257 34.8544 74.4704 34.6428 74.0378 34.1513C68.92 28.3321 61.7847 22.9157 55.5277 18.205C53.7759 16.8856 51.9846 15.6134 50.1573 14.3886C49.6022 14.0167 49.0748 14.8834 49.6251 15.2527Z" fill="#EAA524"/>
<path fill-rule="evenodd" clip-rule="evenodd" d="M86.472 38.7366C87.6439 38.422 88.0961 39.3424 88.739 40.066C89.5676 40.9976 89.6358 42.3656 89.6703 43.5234C89.7582 46.476 89.678 49.4346 89.4698 52.3813C89.4241 53.033 90.489 53.0264 90.541 52.3813C90.6128 51.4962 90.8892 50.5612 91.5898 49.9334C92.1539 49.4273 93.0739 49.3136 93.7625 49.8536C94.3414 50.3071 94.3259 50.8697 94.297 51.5155C94.2492 52.62 94.5594 54.238 94.1064 55.2369C93.6942 56.1466 94.169 56.1532 95.0032 55.8892C95.8845 55.6093 96.4472 55.31 96.9537 55.1285C97.6964 54.8638 97.9018 54.8266 98.4012 54.766C99.9437 54.5805 100.468 55.5614 101.049 56.8249C101.715 58.27 101.884 60.0396 101.567 61.5831C101.436 62.2201 102.469 62.4928 102.6 61.8524C103.162 59.1066 103.826 54.0558 100.183 53.557C99.1292 53.4127 96.7068 53.8935 95.8269 54.4475C95.5976 54.5918 95.3507 54.7833 95.0806 54.8525C94.9927 54.8758 94.5066 54.8512 94.5088 54.8472C94.4954 54.8824 94.6712 55.0813 94.648 55.0919C94.6656 55.0839 94.7085 54.9549 94.7212 54.929C94.8485 54.6623 94.9793 54.3989 95.094 54.1276C95.5469 53.0556 95.8079 51.8586 95.6735 50.7015C95.5737 49.8483 95.2487 48.9259 94.3899 48.5023C93.268 47.9483 91.7529 48.4212 90.873 49.1819C89.9319 49.9959 89.5641 51.2162 89.4698 52.3813H90.541C90.662 50.6649 90.7373 48.9472 90.7633 47.2275C90.7865 45.6268 91.1769 43.3225 91.0074 41.7285C90.8667 40.4084 90.4559 39.0452 89.2876 38.2126C88.305 37.5123 86.5649 37.9299 85.5021 38.6222C84.938 38.9893 84.9485 39.2886 86.472 38.7366Z" fill="#EAA524"/>
<path fill-rule="evenodd" clip-rule="evenodd" d="M79.1724 89.0195C87.0327 88.5514 164.812 88.1797 172.683 87.9129C180.18 87.6579 187.68 87.4992 195.181 87.4455C199.249 87.4166 245.265 87.4192 249.333 87.4533C250.018 87.4592 248.62 85.8058 247.935 85.7999C240.618 85.7363 191.353 85.7803 184.037 85.9193C176.381 86.0654 168.727 86.3165 161.078 86.6627C156.613 86.8653 82.236 87.1 77.7741 87.3661C77.0932 87.4061 77.7881 89.0602 78.4733 89.0195H79.1724Z" fill="#EAA524"/>
<path fill-rule="evenodd" clip-rule="evenodd" d="M224.655 92.7769C218.834 92.093 213.64 88.6603 210.012 84.2684C206.385 79.8758 204.164 74.5785 202.476 69.2261C202.062 67.9134 201.673 66.5416 201.89 65.1858C202.107 63.8306 203.095 62.492 204.513 62.2565C206.231 61.972 207.731 63.3046 208.912 64.5264C212.877 68.6271 216.865 72.7543 220.012 77.4553C223.159 82.1563 225.452 87.5101 225.672 93.0813" fill="#083618"/>
<path fill-rule="evenodd" clip-rule="evenodd" d="M223.622 93.0813C217.231 82.2352 213.371 67.6927 219.102 56.0319C220.29 53.6157 221.544 51.1855 223.192 49.0152C224.727 46.994 228.775 43.7886 229.451 48.1527C230.492 54.8738 231.546 61.6957 231.631 68.4995C231.703 74.2379 230.081 79.854 228.62 85.3721C227.979 87.793 226.448 90.7109 223.828 90.4973" fill="#083618"/>
<mask id="mask3" mask-type="alpha" maskUnits="userSpaceOnUse" x="221" y="65" width="29" height="29">
<path fill-rule="evenodd" clip-rule="evenodd" d="M221.786 65.2451H250V93.3064H221.786V65.2451Z" fill="white"/>
</mask>
<g mask="url(#mask3)">
<path fill-rule="evenodd" clip-rule="evenodd" d="M222.376 92.6505C226.374 94.238 231.015 92.7149 234.676 90.5233C242.747 85.6935 248.442 77.4931 249.904 68.5997C249.992 68.0627 250.065 67.5052 249.907 66.9829C249.576 65.889 248.288 65.2484 247.08 65.2451C245.872 65.2418 244.731 65.7355 243.657 66.2565C234.183 70.8524 226.378 78.4275 221.786 87.4784" fill="#083618"/>
</g>
<path fill-rule="evenodd" clip-rule="evenodd" d="M227.376 93.0813C224.244 93.0873 216.599 92.0201 210.843 90.7366C208.111 90.1274 203.32 87.7414 200.889 86.3953C198.457 85.0498 196.379 82.8542 195.916 80.1926C195.838 79.7452 195.82 79.2426 196.11 78.8857C196.55 78.3438 197.409 78.427 198.11 78.5622C207.757 80.4289 217.749 82.4388 225.666 88.0616" fill="#083618"/>
<path fill-rule="evenodd" clip-rule="evenodd" d="M226.065 87.2102C225.456 78.2802 224.1 74.5374 225.399 65.6778C225.765 63.1844 226.493 56.1308 226.523 53.612C226.546 51.7476 226.054 52.388 225.805 53.959C224.391 62.8728 223.058 71.8296 223.12 80.8507C223.137 83.4004 223.233 85.948 223.407 88.4917C223.455 89.1938 224.572 89.1991 224.523 88.4917L226.065 87.2102Z" fill="white"/>
<path fill-rule="evenodd" clip-rule="evenodd" d="M223.724 85.5524C222.16 84.4645 220.595 83.3759 219.031 82.2873C217.518 81.2348 215.964 80.2169 214.528 79.0707C211.999 77.0508 210.05 74.4633 208.926 71.5187C208.679 70.8724 207.576 71.151 207.825 71.8044C208.723 74.1553 211.272 78.5968 212.057 79.5589C213.279 81.0598 216.569 82.6917 219.447 84.2613C221.022 85.1199 221.684 85.4626 223.148 86.4811C223.739 86.8927 224.309 85.9594 223.724 85.5524Z" fill="white"/>
<path fill-rule="evenodd" clip-rule="evenodd" d="M223.044 87.7145C217.361 87.2438 211.768 85.7956 206.591 83.4511C205.938 83.1553 205.906 83.4827 206.564 83.7819C215.019 87.6284 223.11 89.0316 223.788 89.0202C224.252 89.0135 223.762 87.7737 223.044 87.7145Z" fill="white"/>
<path fill-rule="evenodd" clip-rule="evenodd" d="M223.567 89.0203C226.698 87.8277 229.993 85.8049 232.589 83.751C235.122 81.747 235.281 82.1369 237.356 79.7073C238.527 78.3353 241.096 74.3483 242.226 72.946C242.419 72.7072 242.878 72.1804 242.635 72.0408C242.338 71.8708 242.032 72.0037 241.842 72.2398C237.996 77.0112 235.861 81.2249 230.464 84.4835C228.89 85.4352 225.39 86.9084 223.659 87.568C222.975 87.8277 223.055 88.1043 223.272 88.6918L223.567 89.0203Z" fill="white"/>
<path fill-rule="evenodd" clip-rule="evenodd" d="M233.754 82.4491C234.369 80.5571 234.202 81.9667 234.841 78.7048C234.898 78.411 235.225 76.112 234.894 76.0284C234.595 75.9536 234.226 77.1806 234.161 77.4744C233.734 79.4076 233.126 81.1379 232.511 83.0286C232.29 83.7132 233.533 83.131 233.754 82.4491Z" fill="white"/>
<path fill-rule="evenodd" clip-rule="evenodd" d="M223.938 78.6478C223.343 76.6278 222.757 74.6038 222.305 72.543C221.86 70.517 220.85 67.8858 221.002 65.7995C221.054 65.0931 220.647 65.6253 220.595 66.3276C220.439 68.4562 220.886 73.1917 221.108 74.4953C221.47 76.6251 222.263 78.05 222.922 78.94C223.336 79.4982 224.138 79.3267 223.938 78.6478Z" fill="white"/>
<path fill-rule="evenodd" clip-rule="evenodd" d="M217.833 81.5978C216.827 80.486 215.715 78.7262 215.618 78.3095C215.515 77.8691 214.893 76.5847 214.558 75.5861C214.333 74.9155 214.172 74.3342 213.876 74.4069C213.525 74.4936 214.012 75.936 214.065 76.2283C214.537 78.8479 215.073 80.281 216.959 82.3649C217.169 82.5964 217.613 82.5534 217.833 82.3649C218.093 82.1407 218.039 81.8259 217.833 81.5978Z" fill="white"/>
<path fill-rule="evenodd" clip-rule="evenodd" d="M107.301 88.3974C107.261 83.5231 111.325 79.3284 116.003 77.3456C121.324 75.0887 128.543 75.5434 131.822 80.127C133.289 82.1788 133.751 84.7246 133.985 87.1966C135.405 85.5862 137.633 84.8082 139.822 84.5274C141.833 84.2698 143.958 84.3933 145.761 85.2755C147.565 86.1584 148.983 87.9022 149.029 89.8326" fill="white"/>
<path fill-rule="evenodd" clip-rule="evenodd" d="M107.836 88.3867C107.831 83.3635 112.24 79.2216 116.928 77.5039C121.128 75.9647 126.689 75.9061 130.215 78.9139C132.683 81.0185 133.361 84.1788 133.652 87.1812C133.69 87.5761 134.235 87.9038 134.566 87.5402C136.527 85.3729 139.943 84.6976 142.832 84.9287C145.636 85.1518 149.228 88.3507 149.344 91.2939C149.37 91.9446 149.906 90.4806 149.88 89.8259C149.783 87.4016 147.939 85.4149 145.639 84.5218C143.115 83.5414 140.015 83.7145 137.472 84.5591C136.076 85.0226 134.778 85.7512 133.809 86.8222C134.113 86.9421 134.417 87.062 134.722 87.1812C134.437 84.2367 133.719 80.2972 131.591 78.0094C129.927 76.2205 127.85 74.981 125.395 74.5967C120.039 73.7569 113.819 75.667 110.07 79.3588C107.885 81.5107 107.298 87.1359 107.301 90.1643C107.302 90.8163 107.837 89.04 107.836 88.3867Z" fill="#EAA524"/>
</svg>
