<svg width="250" height="204" viewBox="0 0 250 204" fill="none" xmlns="http://www.w3.org/2000/svg">
<mask id="mask0" mask-type="alpha" maskUnits="userSpaceOnUse" x="68" y="167" width="182" height="37">
<path fill-rule="evenodd" clip-rule="evenodd" d="M68.1596 167.854H250V203.165H68.1596V167.854Z" fill="white"/>
</mask>
<g mask="url(#mask0)">
<path fill-rule="evenodd" clip-rule="evenodd" d="M123.078 171.02C105.291 168.123 86.6146 170.486 70.2009 177.644C68.8418 178.236 69.0277 180.128 70.475 180.481C78.3912 182.412 86.7035 182.857 94.7933 181.763C86.0042 183.355 76.8515 185.112 69.2489 189.384C67.3457 190.453 68.0897 193.258 70.2955 193.33C83.0148 193.749 95.8039 192.189 108 188.712L93.5405 195.287C92.5195 195.751 92.9888 197.224 94.108 197.069C101.397 196.061 108.556 194.198 115.372 191.531L109.839 197.098C108.541 198.404 109.861 200.518 111.679 200.043C116.276 198.842 120.752 197.217 125.024 195.196L123.603 197.836C122.477 199.932 126.727 201.992 128.186 202.537C132.202 204.035 136.925 202.471 140.959 201.8C142.894 201.477 144.906 200.993 146.432 199.757C147.537 198.86 149.443 196.635 147.63 195.479L143.687 192.968C149.888 195.923 156.293 198.487 162.846 200.637C163.74 200.93 164.482 199.922 163.895 199.212L161.642 196.482C167.211 200.024 174.078 201.639 180.731 201.039C182.147 200.912 182.798 199.318 181.852 198.302C180.547 196.899 178.948 195.745 177.174 194.941C189.344 195.588 201.634 194.101 213.258 190.591C214.736 190.144 214.744 188.154 213.281 187.664C210.331 186.678 207.258 186.032 204.148 185.751C219.496 185.854 234.854 184.51 249.928 181.746C250.538 179.509 247.131 178.469 244.716 178.523C233.001 178.781 221.285 179.04 209.57 179.298C222.35 178.739 235.007 175.777 246.627 170.658C248.14 169.991 247.603 167.815 245.938 167.855L126.027 170.711" fill="#EAA524"/>
</g>
<path fill-rule="evenodd" clip-rule="evenodd" d="M11.7973 185.349C12.2759 185.79 12.6512 186.367 12.8478 186.897C13.2003 187.848 12.7447 188.744 11.9452 189.32C10.8895 190.082 9.14619 190.35 8.05845 189.491C6.1615 187.994 8.12493 184.347 10.3887 184.628C10.9022 184.692 11.3876 184.971 11.7973 185.349Z" fill="#DD452C"/>
<path fill-rule="evenodd" clip-rule="evenodd" d="M46.6504 185.349C47.129 185.79 47.5038 186.367 47.7004 186.897C48.0528 187.848 47.5972 188.744 46.7983 189.32C45.7426 190.082 43.9992 190.35 42.9108 189.491C41.0143 187.994 42.9773 184.347 45.2411 184.628C45.7552 184.692 46.2406 184.971 46.6504 185.349Z" fill="#DD452C"/>
<path fill-rule="evenodd" clip-rule="evenodd" d="M21.6915 189.881C22.1017 190.26 22.4228 190.755 22.5913 191.209C22.8935 192.024 22.5028 192.791 21.8178 193.286C20.9131 193.939 19.4187 194.168 18.4859 193.432C16.8603 192.149 18.5433 189.023 20.4834 189.264C20.9241 189.319 21.3404 189.557 21.6915 189.881Z" fill="#DD452C"/>
<path fill-rule="evenodd" clip-rule="evenodd" d="M26.0783 184.155C26.3521 184.345 26.5663 184.592 26.6783 184.819C26.88 185.227 26.6193 185.61 26.1628 185.857C25.5596 186.184 24.5634 186.298 23.9412 185.93C22.8579 185.289 23.9798 183.726 25.2734 183.846C25.5674 183.874 25.8445 183.993 26.0783 184.155Z" fill="#DD452C"/>
<mask id="mask1" mask-type="alpha" maskUnits="userSpaceOnUse" x="0" y="190" width="4" height="4">
<path fill-rule="evenodd" clip-rule="evenodd" d="M0 190.99H3.2097V193.476H0V190.99Z" fill="white"/>
</mask>
<g mask="url(#mask1)">
<path fill-rule="evenodd" clip-rule="evenodd" d="M2.54735 191.328C2.8184 191.531 3.03043 191.796 3.14131 192.039C3.34102 192.476 3.08295 192.888 2.631 193.153C2.03381 193.503 1.04756 193.626 0.431557 193.231C-0.640931 192.543 0.469814 190.867 1.75045 190.997C2.04094 191.026 2.31587 191.154 2.54735 191.328Z" fill="#DD452C"/>
</g>
<path fill-rule="evenodd" clip-rule="evenodd" d="M58.4994 190.34C58.7731 190.529 58.9873 190.776 59.0993 191.003C59.301 191.411 59.041 191.794 58.5838 192.041C57.9806 192.368 56.9845 192.483 56.3623 192.114C55.279 191.473 56.4009 189.91 57.6944 190.031C57.9885 190.059 58.2655 190.178 58.4994 190.34Z" fill="#DD452C"/>
<path fill-rule="evenodd" clip-rule="evenodd" d="M32.5625 191.885C32.8363 192.075 33.0505 192.322 33.1625 192.549C33.3642 192.957 33.1035 193.34 32.647 193.587C32.0438 193.914 31.0476 194.028 30.4254 193.66C29.3421 193.019 30.4641 191.456 31.7576 191.577C32.051 191.604 32.3287 191.723 32.5625 191.885Z" fill="#DD452C"/>
<path fill-rule="evenodd" clip-rule="evenodd" d="M144.438 57.4727C144.792 58.0232 145.013 58.6833 145.073 59.2532C145.18 60.2766 144.522 61.0513 143.609 61.4296C142.405 61.9282 140.658 61.7747 139.818 60.6663C138.355 58.7335 141.14 55.6026 143.255 56.4236C143.736 56.6101 144.136 57.0015 144.438 57.4727Z" fill="#EAA524"/>
<path fill-rule="evenodd" clip-rule="evenodd" d="M95.8065 123.18C96.1603 123.731 96.3812 124.39 96.4411 124.96C96.5487 125.984 95.8903 126.759 94.9784 127.137C93.7737 127.636 92.0263 127.482 91.1867 126.373C89.7235 124.441 92.5087 121.31 94.6241 122.131C95.1043 122.317 95.5041 122.709 95.8065 123.18Z" fill="#F7B3A4"/>
<path fill-rule="evenodd" clip-rule="evenodd" d="M79.5967 21.913C79.9498 22.4635 80.1708 23.1236 80.2306 23.6935C80.3383 24.717 79.6798 25.4917 78.7679 25.8699C77.5633 26.3685 75.8158 26.215 74.9762 25.1066C73.513 23.1738 76.2988 20.043 78.4136 20.8639C78.8938 21.0505 79.2936 21.4418 79.5967 21.913Z" fill="#F7B3A4"/>
<path fill-rule="evenodd" clip-rule="evenodd" d="M96.894 99.3131C97.0965 99.5488 97.2221 99.832 97.2566 100.076C97.3178 100.515 96.9415 100.847 96.4202 101.009C95.7321 101.223 94.7343 101.157 94.2539 100.682C93.4182 99.8535 95.009 98.5117 96.2184 98.8638C96.4924 98.9435 96.7209 99.1112 96.894 99.3131Z" fill="#F7B3A4"/>
<path fill-rule="evenodd" clip-rule="evenodd" d="M141.473 68.3917C141.675 68.6275 141.801 68.9106 141.836 69.1551C141.896 69.5938 141.521 69.9259 140.999 70.0877C140.312 70.3014 139.313 70.2359 138.833 69.7606C137.997 68.9321 139.588 67.5902 140.797 67.9423C141.072 68.022 141.299 68.1898 141.473 68.3917Z" fill="#EAA524"/>
<path fill-rule="evenodd" clip-rule="evenodd" d="M22.2335 98.1052C22.4859 98.4985 22.6439 98.9695 22.6865 99.3766C22.7635 100.108 22.2933 100.661 21.6419 100.932C20.7813 101.288 19.5333 101.178 18.9337 100.386C17.888 99.0058 19.8776 96.7694 21.3884 97.3561C21.7316 97.4891 22.0173 97.7684 22.2335 98.1052Z" fill="#EAA524"/>
<path fill-rule="evenodd" clip-rule="evenodd" d="M20.8892 92.9597C20.9906 93.1169 21.0533 93.3055 21.0704 93.4682C21.1013 93.7611 20.9129 93.9823 20.6519 94.0904C20.3082 94.2327 19.8087 94.1891 19.5692 93.872C19.1512 93.3198 19.9469 92.4257 20.5511 92.6602C20.6882 92.7131 20.8028 92.8251 20.8892 92.9597Z" fill="#EAA524"/>
<path fill-rule="evenodd" clip-rule="evenodd" d="M87.1677 8.86828C87.3701 9.10398 87.4964 9.38713 87.5303 9.63164C87.5914 10.0703 87.2152 10.4023 86.6938 10.5642C86.0065 10.7779 85.0079 10.7124 84.5276 10.237C83.6918 9.40864 85.2833 8.06677 86.492 8.41886C86.7661 8.49857 86.9946 8.66631 87.1677 8.86828Z" fill="#F7B3A4"/>
<path fill-rule="evenodd" clip-rule="evenodd" d="M92.3339 29.2944C92.439 29.6751 92.4944 30.079 92.5236 30.4519C93.4854 42.9033 99.6119 55.5871 96.2798 67.6629C93.6157 77.3151 88.9386 86.3632 81.4556 93.4243C74.5547 99.936 65.5808 103.68 57.6469 108.836C48.1813 114.987 42.7048 122.796 39.2722 133.115C37.1541 139.483 35.8764 174.685 35.9424 181.304C35.9581 182.879 36.0586 184.453 36.2507 186.018C36.3605 186.916 35.3864 187.697 34.5099 187.705C33.4762 187.714 32.8485 186.95 32.7381 186.049C31.9217 179.401 32.7556 143.801 34.3942 137.321C38.1223 122.581 45.759 111.472 58.8949 103.02C70.0079 95.8692 81.4556 93.4243 88.771 77.6746C89.0087 77.1639 89.2616 76.6599 89.4957 76.1476C89.6061 75.9065 89.7147 75.6648 89.8216 75.4225C89.859 75.3386 90.0441 74.908 89.8887 75.2703C89.9512 75.1253 90.0365 74.9875 90.0744 74.8352C94.6382 56.3133 91.4077 48.3787 89.4887 34.0875C89.2627 32.4088 89.2072 27.3569 90.9475 27.7042C91.7189 27.8587 92.1242 28.5304 92.3339 29.2944Z" fill="#083618"/>
<path fill-rule="evenodd" clip-rule="evenodd" d="M88.1517 133.746C75.2413 133.23 65.2468 134.652 54.8674 141.829C50.4308 144.896 41.4374 154.577 40.5263 159.876C45.4542 156.61 50.951 154.715 59.3273 155.606C64.6087 156.167 69.5307 158.363 74.9016 158.058C80.4652 157.743 85.8291 155.251 89.8541 151.774C93.8785 148.297 99.4276 137.372 101.316 132.82C101.316 132.82 95.9455 134.057 88.1517 133.746Z" fill="#083618"/>
<path fill-rule="evenodd" clip-rule="evenodd" d="M94.6781 135.959C91.8455 138.76 88.5897 141.303 84.8367 143.156C81.6581 144.725 78.1757 145.76 74.6169 146.258C72.281 146.585 69.9353 146.546 67.5971 146.591C65.3041 146.636 63.0048 146.804 60.7286 147.18C56.4023 147.896 52.1595 149.298 48.545 151.602C45.4684 153.563 42.8671 156.178 41.3409 159.175C41.1526 159.543 40.9862 159.919 40.8326 160.296C40.5915 160.89 39.5082 160.676 39.751 160.079C41.0407 156.909 43.4345 154.08 46.4311 151.865C49.8016 149.373 53.8508 147.689 58.0774 146.727C60.3611 146.208 62.6953 145.888 65.0253 145.734C67.3467 145.581 69.6594 145.649 71.9796 145.536C75.6822 145.357 79.4271 144.484 82.8104 143.027C86.5518 141.416 89.8243 139.105 92.6772 136.473C93.0911 136.091 93.4956 135.702 93.8932 135.309C94.383 134.825 95.1644 135.478 94.6781 135.959Z" fill="white"/>
<path fill-rule="evenodd" clip-rule="evenodd" d="M74.5321 153.627C71.7465 152.279 68.8757 151.039 65.9319 149.912C65.2856 149.664 65.8782 148.853 66.521 149.099C69.4654 150.226 72.3356 151.466 75.1218 152.815C75.7313 153.11 75.144 153.924 74.5321 153.627Z" fill="white"/>
<path fill-rule="evenodd" clip-rule="evenodd" d="M56.0274 153.673C55.1162 153.4 54.1971 153.147 53.2621 152.943C52.3906 152.753 51.5107 152.593 50.6358 152.415C49.9504 152.276 50.2642 151.246 50.9512 151.385C51.8255 151.563 52.7061 151.723 53.577 151.913C54.512 152.117 55.4305 152.37 56.3428 152.643C56.6214 152.727 56.8035 152.986 56.7139 153.278C56.6333 153.542 56.3076 153.757 56.0274 153.673Z" fill="white"/>
<path fill-rule="evenodd" clip-rule="evenodd" d="M84.5472 149.826C82.4768 149.722 80.4065 149.617 78.3372 149.513C78.0458 149.498 77.8023 149.266 77.8107 148.916C77.8185 148.602 78.0759 148.265 78.3684 148.281C80.4388 148.385 82.5086 148.489 84.579 148.594C84.8698 148.609 85.1139 148.841 85.105 149.191C85.0966 149.505 84.8392 149.841 84.5472 149.826Z" fill="white"/>
<path fill-rule="evenodd" clip-rule="evenodd" d="M94.6616 141.351C92.6764 142.736 90.4459 143.845 88.3501 145.096C87.7387 145.461 87.1944 144.648 87.8023 144.286C88.8806 143.642 89.9814 143.028 91.0735 142.403C92.0198 141.861 93.0072 141.31 93.879 140.701C94.1208 140.532 94.4464 140.481 94.6749 140.671C94.8664 140.831 94.9052 141.18 94.6616 141.351Z" fill="white"/>
<path fill-rule="evenodd" clip-rule="evenodd" d="M73.3327 136.878C70.8002 137.455 68.2559 138.032 65.8006 138.865C63.4638 139.659 61.2615 140.727 59.2373 142.041C57.8357 142.949 56.5308 143.968 55.2837 145.033C54.7424 145.494 53.9441 144.825 54.4859 144.363C56.6163 142.545 58.9366 140.868 61.5251 139.573C63.7416 138.464 66.1202 137.663 68.5401 137.02C70.0372 136.622 71.549 136.276 73.0603 135.931C73.782 135.766 74.0573 136.712 73.3327 136.878Z" fill="white"/>
<path fill-rule="evenodd" clip-rule="evenodd" d="M58.1581 88.5196C59.8705 74.4128 50.3523 61.7707 38.2621 57.0842C37.0667 56.621 35.1219 63.68 35.0458 64.23C34.6026 67.4435 34.9401 70.7405 35.873 73.8517C37.4466 79.1015 41.1624 83.3579 44.0371 87.9855C47.2319 93.1281 48.292 98.2816 47.8523 104.217C47.8871 103.742 50.5527 102.007 50.9425 101.634C53.1463 99.528 55.08 97.1144 56.4195 94.4246C57.3524 92.5505 57.91 90.5582 58.1581 88.5196Z" fill="#083618"/>
<path fill-rule="evenodd" clip-rule="evenodd" d="M43.4825 64.6598C43.3753 67.5502 43.6597 70.4277 44.6553 73.1712C45.4376 75.327 46.6402 77.3136 47.7401 79.3293C49.1018 81.8239 50.3032 84.4195 51.0435 87.1508C51.8491 90.1249 52.0647 93.258 51.7063 96.3103C51.2971 99.8023 50.1551 103.194 48.3213 106.24C47.8975 106.943 46.7888 106.265 47.2108 105.564C50.3819 100.3 51.3483 93.8893 49.9021 87.9747C49.2429 85.2814 48.0934 82.7276 46.7725 80.2771C45.6737 78.2391 44.4624 76.2486 43.6178 74.0956C42.4234 71.0462 42.0486 67.8415 42.1686 64.5973C42.199 63.7879 43.5123 63.8476 43.4825 64.6598Z" fill="white"/>
<path fill-rule="evenodd" clip-rule="evenodd" d="M56.4221 83.0315C57.1104 86.0456 56.6082 89.3753 55.512 92.2247C55.2312 92.9545 54.0662 92.5885 54.3492 91.8522C55.3719 89.1944 55.8729 86.1073 55.2312 83.2974C55.0559 82.5313 56.2468 82.2643 56.4221 83.0315Z" fill="white"/>
<path fill-rule="evenodd" clip-rule="evenodd" d="M68.1567 112.756C62.3141 114.67 53.0567 118.911 50.2527 129.727C52.404 128.586 55.524 127.925 57.2345 127.539C61.0628 126.674 64.9951 127.477 68.8684 127.372C73.7631 127.238 79.3371 126.255 83.1284 123.04C87.688 119.174 87.2051 112.326 85.5396 107.196C85.0446 105.672 84.3935 104.183 83.5259 102.82C83.3629 102.564 82.9551 102.658 82.9239 102.956C82.6501 105.595 80.2423 108.244 78.1142 109.519C75.2777 111.218 71.3178 111.72 68.1567 112.756Z" fill="#083618"/>
<path fill-rule="evenodd" clip-rule="evenodd" d="M81.0213 112.704C80.4103 114.616 79.054 116.382 77.6375 117.83C75.9612 119.543 73.8284 120.742 71.5266 121.541C69.2156 122.344 66.7784 122.736 64.3881 123.262C61.8485 123.822 59.3934 124.598 57.0523 125.693C54.4178 126.926 51.9558 128.48 49.7495 130.32C49.4851 130.54 49.0916 130.577 48.826 130.33C48.5888 130.11 48.5494 129.676 48.8156 129.455C52.7202 126.198 57.3868 123.739 62.4144 122.453C67.0116 121.277 72.1834 120.942 75.8698 117.752C76.7724 116.97 77.5715 116.073 78.2607 115.116C78.8659 114.274 79.4463 113.366 79.7599 112.385C80.0029 111.624 81.2661 111.938 81.0213 112.704Z" fill="white"/>
<path fill-rule="evenodd" clip-rule="evenodd" d="M66.9656 116.196C65.4185 116.885 63.8071 117.521 62.3842 118.443C61.0086 119.334 59.8141 120.596 58.6464 121.803C58.0757 122.391 57.1575 121.511 57.7265 120.924C58.9477 119.663 60.1861 118.373 61.6682 117.4C63.1048 116.457 64.7407 115.814 66.3077 115.116C66.6227 114.975 66.9975 115.019 67.1889 115.334C67.3506 115.601 67.2834 116.054 66.9656 116.196Z" fill="white"/>
<path fill-rule="evenodd" clip-rule="evenodd" d="M25.0376 108.985C23.3226 110.064 22.2848 111.666 22.8496 113.8C23.325 115.595 24.9761 116.973 26.83 117.638C30.474 118.944 35.0044 117.576 37.1315 114.529C37.704 113.71 38.1191 112.76 38.0937 111.783C38.0446 109.877 36.3013 108.3 34.361 107.688C31.8885 106.908 27.6668 107.331 25.0376 108.985Z" fill="#F7B3A4"/>
<path fill-rule="evenodd" clip-rule="evenodd" d="M34.7811 110.598C35.1865 112.338 33.7989 113.814 32.3798 114.5C30.986 115.174 29.2558 115.238 27.8429 114.57C27.2426 114.286 26.7142 113.747 26.749 113.022C26.781 112.371 27.1932 111.798 27.6228 111.351C28.1737 110.778 28.8599 110.266 29.5748 109.937C30.1655 109.666 30.9489 109.458 31.5459 109.83C32.2742 110.283 31.9777 111.16 31.4852 111.663C30.872 112.288 30.0184 112.721 29.2317 113.058C29.0194 113.148 28.7695 112.959 28.7122 112.754C28.6426 112.505 28.7981 112.309 29.0076 112.22C29.5568 111.984 30.0965 111.671 30.58 111.312C30.7715 111.17 30.9983 110.994 31.1039 110.77C31.1511 110.671 31.1792 110.635 31.1196 110.581C31.0012 110.47 30.7468 110.495 30.6058 110.511C30.2908 110.547 29.987 110.682 29.7096 110.834C29.1912 111.118 28.6976 111.484 28.2776 111.907C27.9917 112.194 27.6458 112.577 27.5941 113.005C27.5425 113.436 27.9709 113.689 28.3011 113.834C29.3591 114.297 30.6648 114.275 31.7261 113.85C32.8481 113.4 34.2959 112.242 33.9668 110.829C33.8399 110.286 34.6541 110.054 34.7811 110.598Z" fill="white"/>
<path fill-rule="evenodd" clip-rule="evenodd" d="M32.4141 116.217C34.9984 119.889 37.1475 123.815 38.8613 127.917C39.0332 128.329 38.6733 128.815 38.2577 128.924C37.7667 129.051 37.3659 128.765 37.1935 128.352C35.5365 124.385 33.4191 120.593 30.9204 117.042C30.6617 116.675 30.8451 116.137 31.2309 115.923C31.6546 115.689 32.1542 115.848 32.4141 116.217Z" fill="#083618"/>
<path fill-rule="evenodd" clip-rule="evenodd" d="M35.3128 122.749C36.3502 122.152 37.1443 121.15 37.5985 120.122C38.1351 118.905 38.4031 117.585 38.5347 116.354C38.6985 114.818 38.7313 113.276 38.5229 111.742C38.2859 109.997 37.7728 108.283 37.2268 106.598C36.5785 104.598 35.8886 102.608 35.216 100.615C34.8655 99.5765 36.6666 99.133 37.0153 100.168C37.6369 102.011 38.2685 103.852 38.8778 105.699C39.4802 107.523 40.0305 109.365 40.3177 111.254C40.5721 112.921 40.582 114.581 40.4114 116.255C40.2663 117.67 40.0175 119.101 39.4554 120.435C38.812 121.961 37.8013 123.312 36.2546 124.201C35.8296 124.445 35.2247 124.28 34.9778 123.899C34.7141 123.493 34.8866 122.993 35.3128 122.749Z" fill="#083618"/>
<path fill-rule="evenodd" clip-rule="evenodd" d="M30.3412 96.3774C28.8972 97.302 28.0233 98.6753 28.4987 100.504C28.8989 102.043 30.2901 103.224 31.8511 103.794C34.919 104.913 38.7342 103.742 40.5257 101.13C41.0079 100.427 41.3572 99.6134 41.3359 98.7752C41.2947 97.1412 39.8266 95.7896 38.1917 95.2649C36.1107 94.5967 32.5558 94.959 30.3412 96.3774Z" fill="#F7B3A4"/>
<path fill-rule="evenodd" clip-rule="evenodd" d="M38.8404 98.1117C39.2054 99.5927 37.9689 100.854 36.6859 101.44C35.4322 102.012 33.8805 102.067 32.609 101.498C32.0589 101.252 31.581 100.78 31.612 100.155C31.6401 99.595 32.0114 99.1014 32.4027 98.7171C32.8944 98.2342 33.5063 97.802 34.1447 97.5251C34.6873 97.289 35.399 97.1141 35.9479 97.4354C36.6269 97.8331 36.3679 98.6102 35.9049 99.0558C35.3543 99.5866 34.5899 99.952 33.8839 100.238C33.6673 100.325 33.4118 100.143 33.3539 99.9453C33.2829 99.7047 33.4404 99.5164 33.6542 99.4301C34.1366 99.2351 34.6105 98.9739 35.0339 98.677C35.1978 98.5617 35.3869 98.4219 35.4786 98.242C35.5101 98.1807 35.4946 98.1846 35.513 98.135C35.4906 98.1952 35.5668 98.1635 35.5124 98.1584C35.3714 98.1467 35.2534 98.091 35.0941 98.1078C34.8219 98.1356 34.5589 98.2481 34.3206 98.3718C33.865 98.6074 33.4324 98.9098 33.0628 99.2608C32.8187 99.4925 32.5116 99.8066 32.4726 100.155C32.436 100.477 32.7981 100.673 33.0657 100.784C33.9917 101.168 35.1354 101.147 36.0631 100.795C37.0263 100.43 38.2926 99.483 38.0095 98.3339C37.88 97.8103 38.7103 97.587 38.8404 98.1117Z" fill="white"/>
<path fill-rule="evenodd" clip-rule="evenodd" d="M16.561 132.577C18.2233 132.457 19.5559 131.155 20.0151 129.718C20.4748 128.281 20.2247 126.741 19.839 125.286C19.0466 124.84 17.9379 125.204 17.3611 125.864C16.7843 126.525 16.6111 127.391 16.4798 128.221C16.2392 129.746 16.0786 131.3 16.3592 132.82" fill="#083618"/>
<path fill-rule="evenodd" clip-rule="evenodd" d="M23.1052 161.712C24.6465 160.701 25.2769 159.835 26.3369 158.375C27.3969 156.917 27.9217 155.012 27.2749 153.354C24.8713 153.926 22.6726 155.233 21.0919 157.028C22.1279 155.362 22.5599 153.372 22.3005 151.458C20.8495 151.45 19.4103 152.097 18.5064 153.162C20.5983 150.592 22.2623 147.715 23.4174 144.667C23.654 144.043 23.5407 143.333 23.0617 142.848C22.3562 142.134 21.4335 142.456 20.6617 142.789C18.9138 143.542 17.2046 144.375 15.5423 145.284C16.4104 144.598 17.3202 143.856 17.6583 142.839C17.9958 141.822 17.4675 140.478 16.3488 140.303C18.4559 139.571 19.479 136.895 18.3479 135.072C20.5167 134.303 22.2952 132.637 23.1639 130.622C23.3529 130.183 22.9179 129.739 22.4337 129.872C20.3946 130.435 18.4741 131.376 16.8195 132.629C17.4123 132.248 16.8741 131.393 16.3312 130.951C15.2424 130.067 14.153 129.181 13.0648 128.297C12.7126 128.011 12.1756 128.294 12.2478 128.726C12.5054 130.275 13.1382 131.768 14.0908 133.056C13.2826 132.043 11.3386 132.888 11.1378 134.139C10.9383 135.389 11.8563 136.551 12.8576 137.397C13.8595 138.242 15.034 138.981 15.6403 140.11C13.7779 140.513 11.9167 140.916 10.0549 141.319C9.728 141.39 9.36526 141.485 9.19974 141.758C9.02953 142.039 9.13811 142.391 9.26255 142.692C10.1072 144.737 11.5299 146.568 13.3454 147.948C11.9602 148.239 10.4951 147.591 9.11229 148.173C8.56642 148.402 8.15321 148.87 8.10919 149.431C8.05284 150.139 8.60692 150.529 9.13753 150.849C12.4784 152.869 13.5391 154.64 17.5109 154.54C16.1134 155.362 17.6512 155.462 16.2537 156.284C15.3733 156.803 14.4201 157.403 14.4435 158.533C14.4588 159.252 14.889 159.901 15.5136 160.316C16.7732 161.153 18.3256 161.053 19.7912 160.939C18.5528 161.981 19.0546 164.128 20.502 164.896C21.95 165.664 23.8688 165.23 25.1219 164.203" fill="#083618"/>
<path fill-rule="evenodd" clip-rule="evenodd" d="M18.018 130.352C17.6045 132.234 17.1869 134.115 16.7781 135.998C16.1826 138.742 15.6352 141.519 15.6974 144.33C15.8137 149.616 18.2477 154.544 21.6114 158.704C23.5349 161.081 25.7779 163.223 28.1837 165.174C28.7217 165.611 27.9658 166.364 27.4295 165.929C23.0826 162.404 19.1809 158.179 16.8181 153.231C15.6534 150.791 14.8775 148.202 14.6549 145.533C14.4176 142.68 14.8593 139.822 15.4355 137.026C15.9106 134.717 16.4381 132.416 16.9444 130.112C17.0877 129.46 18.1613 129.701 18.018 130.352Z" fill="white"/>
<path fill-rule="evenodd" clip-rule="evenodd" d="M128.874 14.764C127.76 15.4624 127.052 16.5296 127.303 18.2432C127.798 21.6136 131.207 22.7533 134.328 22.9646C137.602 23.1861 141.593 23.0728 144.458 21.3536C145.805 20.5458 146.888 19.2424 147.323 17.7673C147.633 16.7149 147.624 15.3571 146.88 14.4564C145.642 12.9587 142.703 13.1377 140.908 13.0521C138.389 12.9332 135.796 12.9983 133.308 13.4192C131.833 13.669 130.106 13.9919 128.874 14.764Z" fill="#EAA524"/>
<mask id="mask2" mask-type="alpha" maskUnits="userSpaceOnUse" x="132" y="0" width="13" height="18">
<path fill-rule="evenodd" clip-rule="evenodd" d="M132.169 0H144.05V17.3284H132.169V0Z" fill="white"/>
</mask>
<g mask="url(#mask2)">
<path fill-rule="evenodd" clip-rule="evenodd" d="M137.303 15.2451C140.349 14.0772 142.506 11.2357 143.049 8.16985C143.182 7.4131 143.205 6.6358 143.126 5.87238C143.109 5.71681 143.087 5.56179 143.06 5.40678C143.04 5.29621 143.028 4.94784 142.92 4.8845C142.815 4.82282 142.56 4.99729 142.483 5.04952C142.272 5.19397 142.101 5.39789 141.931 5.58291C140.636 6.98583 139.673 8.64157 138.865 10.3384C137.894 12.377 137.115 14.5005 136.287 16.5941C136.153 16.9325 135.52 17.0458 135.447 16.5941C135.066 14.2483 136.078 11.9269 136.543 9.65501C136.79 8.44599 136.978 7.22586 137.104 5.99962C137.22 4.86338 137.33 3.69826 137.289 2.55536C137.257 1.68638 136.908 0.633486 135.772 0.854621C134.742 1.05464 134.144 2.14587 133.765 2.99041C132.894 4.93172 132.919 7.14585 133.236 9.20107C133.634 11.7825 134.433 14.3055 135.169 16.8113C135.321 17.3297 134.482 17.5514 134.33 17.0336C133.615 14.6022 132.847 12.1569 132.434 9.65723C132.066 7.4331 131.979 5.05952 132.856 2.92873C133.254 1.96307 133.816 0.929629 134.758 0.359012C135.695 -0.207715 136.99 -0.128818 137.657 0.77739C138.287 1.63193 138.178 2.81316 138.135 3.80049C138.078 5.10674 137.95 6.40855 137.762 7.70313C137.552 9.15773 137.253 10.5996 136.878 12.0236C136.504 13.4354 136.048 14.9017 136.287 16.3718H135.447C137.035 12.3592 138.427 7.92927 141.561 4.73281C142.149 4.13219 143.399 3.60547 143.791 4.7017C144.076 5.50067 144.077 6.488 144.021 7.32087C143.902 9.08828 143.284 10.8207 142.269 12.2986C141.115 13.9794 139.485 15.3028 137.534 16.0507C137.014 16.2502 136.787 15.4423 137.303 15.2451Z" fill="#F7B3A4"/>
</g>
<path fill-rule="evenodd" clip-rule="evenodd" d="M143.447 8.24939C143.036 7.85406 142.65 7.4433 142.258 7.03613C142.15 6.92406 142.042 6.81199 141.934 6.70043C141.885 6.65005 141.837 6.60018 141.789 6.5498C141.78 6.54158 141.691 6.44955 141.732 6.49171C141.773 6.53335 141.685 6.4439 141.678 6.43567C141.511 6.265 141.343 6.09432 141.17 5.92724C141.008 5.77198 140.964 5.53087 141.17 5.38076C141.349 5.25018 141.685 5.21419 141.858 5.38076C142.269 5.77558 142.656 6.18685 143.048 6.59401C143.156 6.70609 143.263 6.81765 143.371 6.92972L143.517 7.08035C143.524 7.08857 143.614 7.18059 143.573 7.13844C143.533 7.09628 143.62 7.18625 143.627 7.19448C143.794 7.36515 143.962 7.53583 144.135 7.70291C144.297 7.85817 144.341 8.09928 144.135 8.24939C143.956 8.37997 143.621 8.41596 143.447 8.24939Z" fill="#F7B3A4"/>
<path fill-rule="evenodd" clip-rule="evenodd" d="M142.668 11.3235C142.138 10.7491 141.601 10.18 141.031 9.64326C140.553 9.19424 140.051 8.77091 139.546 8.35055C139.355 8.19232 139.376 7.87885 139.546 7.71584C139.736 7.53433 140.016 7.55702 140.208 7.71584C140.713 8.1362 141.216 8.55894 141.694 9.00855C142.264 9.54533 142.801 10.1144 143.33 10.6888C143.498 10.8703 143.517 11.1443 143.33 11.3235C143.159 11.4871 142.837 11.5056 142.668 11.3235Z" fill="#F7B3A4"/>
<path fill-rule="evenodd" clip-rule="evenodd" d="M140.92 12.019C140.877 11.9689 140.833 11.9188 140.789 11.8686C140.769 11.8467 140.749 11.8241 140.729 11.8022C140.68 11.7464 140.768 11.8439 140.717 11.7887C140.627 11.6901 140.536 11.5909 140.445 11.4929C140.267 11.3031 140.085 11.1155 139.899 10.9302C139.527 10.5607 139.141 10.2019 138.741 9.85435C138.561 9.69663 138.545 9.41104 138.741 9.25558C138.937 9.10067 139.244 9.08716 139.437 9.25558C140.278 9.98672 141.053 10.7691 141.771 11.5915C141.926 11.7695 141.811 12.0726 141.594 12.1711C141.335 12.2889 141.086 12.2089 140.92 12.019Z" fill="#F7B3A4"/>
<path fill-rule="evenodd" clip-rule="evenodd" d="M139.481 14.3321C139.361 14.1365 139.239 13.9433 139.113 13.753C139.08 13.7041 139.047 13.6558 139.014 13.6069C138.999 13.5859 138.984 13.5644 138.969 13.5428C138.952 13.5178 138.94 13.4998 138.964 13.5353C138.897 13.4392 138.829 13.3444 138.759 13.2506C138.489 12.8851 138.203 12.5341 137.904 12.1971C137.758 12.0336 137.745 11.739 137.904 11.5784C138.061 11.4195 138.309 11.4038 138.465 11.5784C139.096 12.2879 139.665 13.0644 140.166 13.8903C140.282 14.0812 140.205 14.3833 140.023 14.4893C139.823 14.6057 139.604 14.5358 139.481 14.3321Z" fill="#F7B3A4"/>
<path fill-rule="evenodd" clip-rule="evenodd" d="M137.92 3.65785C136.862 2.95199 135.771 2.31207 134.771 1.51578C134.577 1.36129 134.474 1.10947 134.608 0.870203C134.72 0.670502 135.032 0.544904 135.228 0.700646C136.228 1.49631 137.319 2.13686 138.377 2.84272C138.583 2.97962 138.667 3.26222 138.54 3.4883C138.42 3.70244 138.127 3.79601 137.92 3.65785Z" fill="#F7B3A4"/>
<path fill-rule="evenodd" clip-rule="evenodd" d="M137.166 5.97607C135.862 5.16355 134.509 4.41128 133.132 3.73334C132.928 3.63255 132.872 3.34088 132.981 3.15393C133.103 2.94447 133.352 2.90111 133.558 3.0019C134.935 3.68041 136.287 4.43268 137.591 5.2452C138.051 5.53181 137.628 6.26437 137.166 5.97607Z" fill="#F7B3A4"/>
<path fill-rule="evenodd" clip-rule="evenodd" d="M137.163 8.30249C135.883 7.43729 134.535 6.68017 133.129 6.03833C132.925 5.94466 132.874 5.64868 132.98 5.468C133.103 5.25793 133.344 5.22467 133.55 5.3189C134.955 5.96018 136.304 6.71786 137.584 7.58306C137.771 7.70888 137.853 7.94998 137.734 8.15284C137.626 8.33741 137.351 8.42942 137.163 8.30249Z" fill="#F7B3A4"/>
<path fill-rule="evenodd" clip-rule="evenodd" d="M136.378 10.6334C135.287 10.1209 134.202 9.59825 133.122 9.0655C132.93 8.97047 132.873 8.71673 132.978 8.54538C133.093 8.36089 133.335 8.31389 133.527 8.40942C134.608 8.94166 135.692 9.4643 136.783 9.97683C136.977 10.0683 137.031 10.3281 136.927 10.4969C136.811 10.6845 136.572 10.7249 136.378 10.6334Z" fill="#F7B3A4"/>
<path fill-rule="evenodd" clip-rule="evenodd" d="M136.316 13.7109C135.539 13.2091 134.759 12.7254 133.955 12.2679C133.755 12.1543 133.67 11.8658 133.797 11.6688C133.928 11.4671 134.185 11.3896 134.399 11.5114C135.203 11.9683 135.984 12.4527 136.76 12.9545C136.953 13.0786 137.051 13.3484 136.917 13.5536C136.793 13.7459 136.522 13.8444 136.316 13.7109Z" fill="#F7B3A4"/>
<path fill-rule="evenodd" clip-rule="evenodd" d="M135.404 15.1777C135.079 15.5069 136.542 19.6789 137.315 21.8379C137.36 21.9652 137.41 22.0985 137.504 22.1777C137.604 22.2618 137.734 22.2673 137.856 22.2695C139.383 22.2977 141.034 22.2784 142.25 21.164C142.416 21.0113 142.578 20.8265 142.632 20.5825C142.688 20.329 142.618 20.0607 142.545 19.8128C142.061 18.1612 141.448 16.5649 140.715 15.0532C140.66 14.9398 140.601 14.8219 140.508 14.755C140.417 14.6897 140.308 14.6814 140.203 14.6753C140.203 14.6753 136.408 14.1618 135.404 15.1777Z" fill="white"/>
<path fill-rule="evenodd" clip-rule="evenodd" d="M89.3011 33.5266C83.8453 35.2017 77.5733 34.1023 74.142 38.0732C70.7118 42.044 69.2018 47.1625 67.778 52.1188C66.5615 56.3531 65.3451 60.5875 64.1287 64.8224C63.9085 65.5881 64.0594 66.4317 64.6146 67.0246C65.9516 68.4506 68.0593 67.0717 69.2647 65.7436C74.636 59.828 79.0927 53.1634 82.4466 46.0299C84.2257 42.2467 84.4867 41.0786 87.1642 38.0671C87.2499 37.9713 87.4078 38.0726 87.3472 38.1844C84.1535 44.1061 83.2272 47.7676 82.1978 54.4228C81.5587 58.5531 81.2237 62.7271 81.2558 66.9017C81.2803 70.1468 80.9476 73.7164 82.4035 76.7589C83.561 79.178 86.1704 81.1781 88.9475 80.8632C91.1205 80.6163 92.9166 79.0131 93.8825 77.1469C94.8478 75.2808 93.5854 64.5047 93.5551 62.4254C93.3751 50.1718 93.2987 45.9103 94.2035 38.4186C94.2128 38.3439 94.3299 38.345 94.3276 38.4203C93.9023 50.8505 96.5792 66.8397 100.666 80.3483C101.315 82.4935 102.229 84.777 103.977 86.1682C104.606 86.6692 105.587 86.4427 105.902 85.7225C106.422 84.5318 106.412 83.0897 106.361 81.7622C106.122 75.6683 106.024 69.5678 105.646 63.48C105.19 56.15 102.653 42.8561 102.838 40.2095C102.843 40.132 102.957 40.122 102.977 40.1973L112.965 75.0095C113.071 75.7126 113.273 76.404 113.614 77.0362C114.98 79.565 117.095 79.1277 118.914 78.5613C121.114 77.8771 124.006 78.3881 126.05 77.3551C128.85 75.9407 129.63 73.4003 130.196 70.4989C131.377 64.4499 124.705 54.7477 120.775 50.4209C116.681 45.9119 108.471 38.5055 108.888 38.1368C109.43 37.6868 119.361 46.8613 124.39 48.5764C128.877 50.1059 133.911 50.634 138.427 49.2999C139.203 49.0707 139.405 48.0981 138.79 47.5937C132.914 42.782 123.035 38.5343 116.818 37.4537C116.694 37.4321 116.713 37.2605 116.839 37.2638C121.097 37.3773 127.642 37.7095 132.318 38.6406C134.58 39.0912 140.084 39.7998 140.217 39.0453C140.416 37.9215 133.337 35.5472 132.351 35.1951C126.342 33.0483 113.787 32.8789 107.865 33.257" fill="#F7B3A4"/>
<path fill-rule="evenodd" clip-rule="evenodd" d="M89.1579 33.8711C82.274 34.6211 75.3045 33.1019 68.9326 35.6703C64.4279 37.4865 57.8682 44.3658 59.3937 46.1385C59.4765 46.2342 59.6229 46.2584 59.7488 46.2265C69.4895 43.7538 77.9373 37.7048 87.7741 35.585" fill="#F7B3A4"/>
<path fill-rule="evenodd" clip-rule="evenodd" d="M107.196 34.4696C109.211 33.2879 108.766 26.3579 107.754 22.3889C107.337 20.753 106.677 19.1023 105.394 17.9508C104.678 17.3086 103.797 16.8505 102.87 16.5443C98.4001 15.0679 93.189 17.3581 90.6253 21.166C88.2165 24.7445 87.8752 29.3173 88.8699 33.4848C88.9886 33.9819 89.3615 34.386 89.8669 34.5461C92.5522 35.3967 101.487 37.8184 107.196 34.4696Z" fill="#DD452C"/>
<path fill-rule="evenodd" clip-rule="evenodd" d="M92.5953 26.0601C92.6949 26.1392 92.8379 26.1657 93.0386 26.1147C93.594 25.9745 93.7701 25.5564 93.8575 25.1882C93.981 24.6686 94.0532 24.1398 94.007 23.6131C93.9752 23.2505 93.5506 22.8023 93.1152 23.2118C92.8509 23.4591 92.7462 23.814 92.653 24.1113C92.5779 24.3499 92.1598 25.7124 92.5953 26.0601Z" fill="white"/>
<path fill-rule="evenodd" clip-rule="evenodd" d="M100.787 32.2783C100.852 32.3403 100.932 32.3448 101.03 32.2667C101.3 32.0493 101.326 31.6196 101.313 31.2504C101.295 30.7294 101.249 30.2085 101.14 29.7051C101.065 29.3592 100.77 28.988 100.605 29.4474C100.506 29.7253 100.507 30.0839 100.505 30.385C100.504 30.6271 100.502 32.0054 100.787 32.2783Z" fill="white"/>
<path fill-rule="evenodd" clip-rule="evenodd" d="M105.406 32.9488C105.45 33.0513 105.537 33.1083 105.682 33.0967C106.084 33.0655 106.309 32.6689 106.462 32.3063C106.679 31.7936 106.865 31.2622 106.972 30.7073C107.046 30.3261 106.884 29.7755 106.491 30.1091C106.253 30.3113 106.091 30.6569 105.952 30.9451C105.841 31.1768 105.21 32.5002 105.406 32.9488Z" fill="white"/>
<path fill-rule="evenodd" clip-rule="evenodd" d="M104.126 26.9032C104.225 26.934 104.323 26.9005 104.412 26.774C104.661 26.4255 104.545 25.9813 104.403 25.6165C104.203 25.102 103.969 24.601 103.667 24.1476C103.459 23.8364 102.979 23.6056 102.94 24.1471C102.916 24.4741 103.04 24.834 103.142 25.1371C103.223 25.3809 103.692 26.767 104.126 26.9032Z" fill="white"/>
<path fill-rule="evenodd" clip-rule="evenodd" d="M91.8473 32.3065C91.9549 32.3468 92.0675 32.3243 92.1818 32.2116C92.4968 31.9019 92.4122 31.4606 92.29 31.0937C92.118 30.5764 91.9061 30.0681 91.6136 29.5995C91.4119 29.2772 90.8963 29.0047 90.7966 29.523C90.7372 29.8364 90.8397 30.1965 90.9221 30.4994C90.9882 30.7431 91.3732 32.1298 91.8473 32.3065Z" fill="white"/>
<path fill-rule="evenodd" clip-rule="evenodd" d="M98.3554 19.9098C98.4204 19.9718 98.4998 19.9764 98.5979 19.8982C98.8681 19.6808 98.8942 19.2511 98.8817 18.882C98.8634 18.361 98.8171 17.84 98.7081 17.3367C98.6333 16.9907 98.3382 16.619 98.174 17.079C98.0743 17.3569 98.0759 17.7155 98.0739 18.0165C98.0723 18.2586 98.0704 19.637 98.3554 19.9098Z" fill="white"/>
<path fill-rule="evenodd" clip-rule="evenodd" d="M96.7366 23.0136C96.8013 23.0601 96.8812 23.0638 96.9791 23.0052C97.2486 22.8436 97.274 22.5208 97.2601 22.2441C97.2413 21.8533 97.1942 21.4625 97.0848 21.0843C97.0094 20.8249 96.7137 20.5455 96.5506 20.8897C96.4519 21.0979 96.454 21.3673 96.4527 21.5928C96.4515 21.7743 96.4515 22.808 96.7366 23.0136Z" fill="white"/>
<path fill-rule="evenodd" clip-rule="evenodd" d="M97.5757 28.4574C97.6801 28.4709 97.785 28.4337 97.8894 28.3252C98.1748 28.0242 98.0756 27.6882 97.9453 27.4176C97.7596 27.0358 97.5382 26.6682 97.2401 26.3457C97.0355 26.1243 96.5344 25.9955 96.4623 26.4247C96.4185 26.684 96.531 26.9522 96.6226 27.1793C96.6953 27.3617 97.1185 28.3981 97.5757 28.4574Z" fill="white"/>
<path fill-rule="evenodd" clip-rule="evenodd" d="M103.25 20.7271C103.353 20.7401 103.459 20.7033 103.563 20.5944C103.849 20.2939 103.749 19.9579 103.619 19.6874C103.433 19.3056 103.212 18.9379 102.914 18.6155C102.71 18.3941 102.209 18.2653 102.136 18.694C102.092 18.9532 102.205 19.222 102.296 19.449C102.369 19.6314 102.793 20.6678 103.25 20.7271Z" fill="white"/>
<path fill-rule="evenodd" clip-rule="evenodd" d="M99.8011 26.0293C99.8523 26.1056 99.926 26.1482 100.028 26.1398C100.309 26.1166 100.394 25.8198 100.435 25.5469C100.492 25.1629 100.523 24.7639 100.494 24.3482C100.474 24.0618 100.253 23.6486 100.035 23.8995C99.9035 24.0508 99.8535 24.3101 99.8095 24.526C99.7734 24.6999 99.5753 25.6924 99.8011 26.0293Z" fill="white"/>
<path fill-rule="evenodd" clip-rule="evenodd" d="M98.1432 34.6355C98.2616 34.6599 98.3945 34.6355 98.5428 34.5423C98.9514 34.2852 98.9159 33.9521 98.8275 33.6784C98.7029 33.2925 98.531 32.9151 98.2588 32.574C98.0708 32.3387 97.5147 32.1616 97.3253 32.5648C97.2112 32.8087 97.2794 33.079 97.3309 33.3057C97.3733 33.4888 97.6205 34.5284 98.1432 34.6355Z" fill="white"/>
<path fill-rule="evenodd" clip-rule="evenodd" d="M106.285 27.5753C106.336 27.6516 106.41 27.6949 106.512 27.6859C106.794 27.6626 106.879 27.3658 106.919 27.0929C106.977 26.7088 107.007 26.3099 106.978 25.8941C106.958 25.6083 106.737 25.1944 106.519 25.4453C106.388 25.5966 106.338 25.8559 106.294 26.0719C106.258 26.2459 106.059 27.2384 106.285 27.5753Z" fill="white"/>
<path fill-rule="evenodd" clip-rule="evenodd" d="M90.2282 26.8719C90.2932 26.9224 90.3741 26.9307 90.4749 26.8783C90.7525 26.7331 90.7855 26.4127 90.778 26.1358C90.7675 25.7456 90.7279 25.3523 90.6254 24.9692C90.5545 24.7057 90.2603 24.4096 90.0864 24.7435C89.9814 24.9449 89.9772 25.2135 89.971 25.438C89.966 25.6196 89.9422 26.6499 90.2282 26.8719Z" fill="white"/>
<path fill-rule="evenodd" clip-rule="evenodd" d="M105.475 21.391C105.526 21.4679 105.6 21.5106 105.701 21.5016C105.983 21.4783 106.068 21.1815 106.109 20.9086C106.166 20.5245 106.197 20.1255 106.168 19.7097C106.148 19.4238 105.927 19.0106 105.709 19.2609C105.577 19.4122 105.528 19.6715 105.483 19.8875C105.447 20.0614 105.249 21.0541 105.475 21.391Z" fill="white"/>
<path fill-rule="evenodd" clip-rule="evenodd" d="M94.938 32.2133C94.9893 32.2903 95.0625 32.3329 95.1642 32.3239C95.4461 32.3006 95.531 32.0038 95.5718 31.7309C95.6295 31.3469 95.6603 30.9479 95.6307 30.5321C95.611 30.2463 95.3896 29.8331 95.1718 30.0834C95.0401 30.2347 94.9905 30.494 94.946 30.7099C94.9104 30.8839 94.7122 31.8764 94.938 32.2133Z" fill="white"/>
<path fill-rule="evenodd" clip-rule="evenodd" d="M109.461 56.2753C111.408 61.5007 113.058 66.8217 114.397 72.2129C114.558 72.8653 114.716 73.5183 114.869 74.1724C115.011 74.7833 115.086 75.4711 115.568 75.9444C116.427 76.7892 117.818 76.291 118.574 75.5856C118.968 75.2173 119.229 74.743 119.561 74.3277C119.81 74.0154 120.115 73.6997 120.554 73.6676C121.012 73.6339 121.474 73.8898 121.87 74.0729C122.35 74.294 122.842 74.5235 123.375 74.6031C124.884 74.8275 126.053 73.818 126.82 72.7116C127.627 71.5495 128.045 70.1672 128.063 68.785C128.073 67.9822 126.745 67.9817 126.735 68.785C126.72 69.8792 126.406 70.9468 125.805 71.8856C125.354 72.5889 124.582 73.5482 123.58 73.3757C122.577 73.2032 121.791 72.4883 120.745 72.4241C119.598 72.3539 118.828 73.1241 118.232 73.9413C117.98 74.2879 117.757 74.6622 117.38 74.905C117.168 75.041 116.759 75.2571 116.539 75.094C116.369 74.968 116.343 74.6788 116.3 74.4953C116.229 74.1901 116.159 73.8843 116.088 73.5791C115.939 72.9472 115.785 72.3163 115.629 71.686C115.005 69.187 114.314 66.7023 113.558 64.2358C112.703 61.4476 111.762 58.6826 110.743 55.9436C110.462 55.1911 109.179 55.5151 109.461 56.2753Z" fill="white"/>
<path fill-rule="evenodd" clip-rule="evenodd" d="M100.531 74.8291C100.845 75.9152 101.217 76.9908 101.667 78.0358C101.874 78.5159 102.093 78.9949 102.353 79.4536C102.607 79.9031 102.954 80.2879 103.56 80.2507C104.626 80.1855 104.56 79.1312 104.556 78.4103C104.553 77.743 104.527 77.0757 104.492 76.4089C104.318 73.0336 103.969 69.6643 103.611 66.3015C103.47 64.9735 103.32 63.646 103.178 62.318C103.143 61.9862 102.895 61.7005 102.507 61.7005C102.172 61.7005 101.8 61.9841 101.836 62.318C102.108 64.8591 102.394 67.3985 102.639 69.9423C102.919 72.8447 103.237 75.7756 103.213 78.6922C103.212 78.8307 103.21 78.9686 103.205 79.1066C103.204 79.1268 103.197 79.1602 103.202 79.1794C103.228 79.2626 103.163 79.2171 103.21 79.21C103.277 79.1996 103.331 79.0628 103.42 79.0387C103.525 79.0102 103.58 79.094 103.651 79.0907C103.663 79.1011 103.675 79.112 103.686 79.123C103.664 79.088 103.642 79.0529 103.621 79.0173C103.594 78.967 103.562 78.9183 103.533 78.869C103.472 78.7623 103.414 78.6539 103.357 78.5455C103.239 78.3194 103.129 78.09 103.027 77.8579C102.546 76.7664 102.155 75.6387 101.825 74.5006C101.603 73.7337 100.308 74.0594 100.531 74.8291Z" fill="white"/>
<path fill-rule="evenodd" clip-rule="evenodd" d="M83.6128 59.2073C83.4157 62.6659 83.4674 66.1135 83.6191 69.5732C83.6708 70.7523 83.7702 71.9359 84.0173 73.0936C84.2229 74.0609 84.5177 75.0724 85.0864 75.9047C85.6135 76.6774 86.3798 77.4969 87.3001 77.8085C88.2578 78.1323 89.2701 77.7959 90.0188 77.1886C91.7872 75.7536 91.6668 73.232 91.502 71.2211C91.4747 70.8864 91.2271 70.599 90.8612 70.599C90.5363 70.599 90.1932 70.8842 90.2205 71.2211C90.3449 72.7351 90.5795 74.7101 89.4746 75.9654C89.0344 76.4656 88.3283 76.8732 87.6409 76.609C87.2632 76.4639 86.9689 76.1523 86.6945 75.8727C86.423 75.5964 86.1901 75.3019 85.9992 74.9676C85.5306 74.1453 85.3147 73.1735 85.1545 72.2552C84.9762 71.2344 84.9262 70.1986 84.883 69.1656C84.8109 67.42 84.7501 65.6733 84.7478 63.9261C84.7455 62.3515 84.8046 60.7791 84.8944 59.2073C84.9398 58.4076 83.6583 58.4098 83.6128 59.2073Z" fill="white"/>
<path fill-rule="evenodd" clip-rule="evenodd" d="M81.6733 36.2639C78.0429 37.7699 74.5423 39.8307 72.6691 43.2161C72.1423 44.1684 71.7897 45.1803 71.4246 46.1928C71.0862 47.1319 70.7472 48.07 70.4124 49.0096C69.9472 50.3155 69.4909 51.6241 69.0642 52.9415C68.4532 54.8253 67.8819 56.7201 67.3024 58.6127C67.0665 59.3836 68.3554 59.7128 68.5913 58.943C69.498 55.9817 70.4006 53.0215 71.4335 50.0954C71.7245 49.2705 72.0208 48.4472 72.3171 47.6238C72.6792 46.6169 72.9968 45.5818 73.4389 44.6024C74.1684 42.9883 75.3116 41.5849 76.7315 40.4433C78.3855 39.1132 80.3618 38.162 82.3483 37.3381C82.6778 37.2013 82.756 36.7547 82.5877 36.4872C82.3892 36.1712 82.0046 36.1266 81.6733 36.2639Z" fill="white"/>
<path fill-rule="evenodd" clip-rule="evenodd" d="M115.58 39.7264C119.494 41.1637 123.43 42.5291 127.214 44.2522C128.536 44.8542 129.839 45.4911 131.125 46.1568C131.868 46.5424 132.534 45.4802 131.791 45.0952C127.697 42.9741 123.416 41.2466 119.053 39.6702C118.012 39.2945 116.97 38.9216 115.931 38.5404C115.6 38.4188 115.207 38.674 115.119 38.9701C115.016 39.3191 115.247 39.6043 115.58 39.7264Z" fill="white"/>
<path fill-rule="evenodd" clip-rule="evenodd" d="M68.3154 38.4196C69.815 37.5062 71.4789 36.9234 73.2511 36.678C73.6227 36.6268 73.827 36.1888 73.7366 35.8808C73.6271 35.5094 73.2542 35.3767 72.8825 35.4278C71.01 35.6871 69.1996 36.3348 67.6145 37.2999C67.3013 37.4907 67.1702 37.8741 67.3659 38.1868C67.548 38.4782 67.9997 38.6115 68.3154 38.4196Z" fill="white"/>
<path fill-rule="evenodd" clip-rule="evenodd" d="M206.703 161.031C206.473 159.597 208.43 157.585 209.854 157.101C211.277 156.617 212.839 156.786 214.338 156.961C215.325 157.077 216.418 157.248 217.031 158C217.678 158.794 217.539 159.912 217.559 160.92C217.578 161.928 217.995 163.141 219.027 163.32C219.5 163.401 219.977 163.231 220.429 163.071C224.18 161.749 228.361 160.994 232.148 162.218C233.88 162.778 235.697 164.195 235.355 165.92C235.12 167.108 233.965 167.875 233.093 168.747C232.273 169.565 231.653 170.569 231.297 171.654C231.15 172.102 231.047 172.59 231.192 173.041C231.344 173.513 231.742 173.868 232.104 174.22C233.934 176.001 235.22 178.294 235.761 180.745C236.062 182.107 235.732 184.016 234.29 184.144C233.309 184.231 232.532 183.368 231.589 183.093C229.952 182.616 228.404 183.962 226.762 184.429C223.488 185.36 220.249 182.601 218.83 179.614C217.412 176.625 216.996 173.209 215.156 170.441C214.463 169.4 213.578 168.465 213.073 167.328C212.518 166.075 212.468 164.678 212.193 163.343C211.918 162.008 211.318 160.61 210.079 159.953C208.838 159.297 206.901 159.877 206.73 161.228" fill="#083618"/>
<path fill-rule="evenodd" clip-rule="evenodd" d="M211.067 159.738C211.197 159.776 211.339 159.782 211.476 159.796C212.72 159.926 213.682 160.784 214.129 161.867C214.351 162.403 214.454 162.988 214.425 163.564C214.381 164.457 214.141 165.207 214.516 166.077C215.082 167.389 216.619 166.885 217.818 167.497C218.85 168.024 219.828 170.065 220.092 171.211C220.441 172.727 219.359 174.847 219.814 176.349C220.339 178.082 221.563 180.01 223.813 179.974C224.621 179.961 225.629 178.743 226.391 178.54C227.743 178.179 228.667 178.449 229.994 178.507C230.793 178.543 232.003 178.472 231.785 177.36C231.706 176.957 231.42 176.621 231.116 176.331C229.952 175.223 228.393 174.529 227.319 173.342C226.889 172.867 226.539 172.302 226.45 171.68C226.336 170.88 226.663 170.077 227.103 169.387C227.594 168.615 228.229 167.934 228.915 167.313C229.362 166.91 229.837 166.523 230.166 166.029C230.495 165.533 230.661 164.898 230.427 164.356C230.154 163.722 229.423 163.385 228.724 163.221C227.502 162.934 226.215 163.002 224.979 163.226C222.894 163.603 220.926 164.411 218.982 165.22C218.836 165.281 218.674 165.36 218.632 165.506C218.575 165.713 218.791 165.888 218.976 166.009C220.567 167.054 221.763 168.667 222.145 170.473C222.348 171.43 222.325 172.42 222.514 173.38C222.703 174.341 223.158 175.323 224.037 175.824C224.599 176.145 225.301 176.233 225.931 176.062C226.067 176.026 226.212 175.967 226.269 175.844C226.349 175.67 226.211 175.48 226.087 175.329C224.983 173.989 224.441 172.239 224.603 170.541C224.765 168.844 225.631 167.217 226.971 166.088C227.161 165.928 227.378 165.678 227.233 165.48C227.162 165.383 227.028 165.35 226.904 165.328C225.424 165.069 223.843 165.371 222.582 166.155C222.406 166.265 222.214 166.444 222.284 166.632C222.313 166.708 222.379 166.764 222.442 166.816L223.224 167.466C223.342 167.563 223.465 167.663 223.616 167.702C223.767 167.74 223.953 167.695 224.022 167.562C224.19 167.239 223.576 167.018 223.511 166.663C223.45 166.337 223.865 166.129 224.204 166.058C225.07 165.876 225.97 165.849 226.846 165.979C226.802 165.798 226.756 165.617 226.712 165.436C225.139 166.683 224.117 168.543 223.934 170.485C223.752 172.428 224.412 174.431 225.728 175.925C225.78 175.746 225.831 175.569 225.883 175.391C225.472 175.603 225.016 175.823 224.56 175.727C224.014 175.611 223.681 175.085 223.498 174.581C223.039 173.317 223.131 171.934 222.876 170.618C222.46 168.468 221.071 166.505 219.134 165.333C219.058 165.41 218.983 165.486 218.908 165.564C220.421 164.905 221.957 164.238 223.601 163.997C224.755 163.827 225.93 163.872 227.092 163.77C227.62 163.724 228.157 163.647 228.677 163.747C229.197 163.846 229.71 164.166 229.849 164.654C230.048 165.357 229.432 166.009 228.883 166.515C227.989 167.34 227.134 168.204 226.321 169.103C225.961 169.502 225.604 169.916 225.403 170.405C225.172 170.966 225.164 171.59 225.26 172.184C225.359 172.801 225.577 173.418 226.007 173.888C227.11 175.093 229.267 175.032 230.281 176.306C230.51 176.592 230.666 176.955 230.597 177.309C230.474 177.933 229.747 178.247 229.137 178.196C228.381 178.132 227.707 177.581 226.924 177.737C225.075 178.103 223.407 178.926 222.039 177.057C221.221 175.938 220.955 173.962 220.756 172.634C220.464 170.685 220.326 168.712 218.677 167.335C217.708 166.525 215.947 167.132 215.158 166.111C214.243 164.929 214.973 162.687 214.401 161.412C213.801 160.072 212.788 159.265 211.283 159.11C211.089 159.089 210.848 159.105 210.762 159.271C210.684 159.424 210.798 159.613 210.956 159.694C210.991 159.712 211.029 159.726 211.067 159.738Z" fill="white"/>
<path fill-rule="evenodd" clip-rule="evenodd" d="M136.426 147.042C137.445 156.189 142.281 161.461 143.24 170.554C143.458 172.624 143.512 174.728 144.112 176.727C145.149 180.179 147.204 180.379 149.728 182.222C150.601 182.86 151.138 184.15 150.433 184.954C149.938 185.518 149.632 185.375 148.863 185.356C131.481 184.935 123.687 185.147 102.937 184.812C103.992 182.941 103.039 183.274 105.617 182.734C113.652 181.052 110.076 174.292 111.787 168.019C113.214 162.799 110.703 158.444 111.671 153.517C113.002 146.741 123.745 144.964 125.51 138.278C126.456 134.696 123.293 129.951 123.954 127.274C124.645 124.477 128.438 120.146 132.169 118.186C133.418 117.529 138.441 123.048 139.479 123.983C139.479 123.983 135.139 135.489 136.426 147.042Z" fill="#083618"/>
<path fill-rule="evenodd" clip-rule="evenodd" d="M134.723 125.466C134.84 124.532 134.039 123.811 133.134 123.612C132.116 123.388 131.134 124.016 130.574 124.786C129.108 126.8 129.935 129.477 130.2 131.716C130.662 135.613 130.728 141.841 128.633 145.358C127.589 147.111 126.038 148.346 124.22 149.33C122.428 150.3 120.328 149.323 119.361 151.174C118.793 152.261 118.713 153.515 118.698 154.707C118.683 155.984 118.702 157.258 118.653 158.534C118.551 161.139 118.283 163.737 117.859 166.312C117.014 171.452 115.526 176.497 113.428 181.3C113.167 181.897 112.898 182.49 112.62 183.08C112.537 182.885 112.453 182.691 112.371 182.496C116.015 183.383 119.815 183.002 123.515 182.724C127.419 182.431 131.325 182.137 135.229 181.843C136.217 181.769 137.204 181.695 138.192 181.62C138.674 181.584 139.157 181.548 139.639 181.512C139.977 181.486 140.33 181.467 140.647 181.337C140.899 181.235 141.067 181.088 140.979 180.816C140.858 180.443 140.534 180.091 140.33 179.752C139.911 179.055 139.534 178.335 139.194 177.601C137.805 174.601 137.303 173.516 136.689 170.302C136.362 168.594 136.918 164.758 136.598 163.05C136.262 161.26 134.792 159.476 134.459 157.687C133.804 154.156 133.31 150.61 133.088 147.03C132.788 142.21 133.001 137.41 133.576 132.617C133.718 131.439 133.927 130.24 133.909 129.05C133.908 128.96 133.905 128.87 133.898 128.779C133.894 128.734 133.89 128.688 133.886 128.643C133.873 128.518 133.899 128.7 133.879 128.599C133.865 128.527 133.851 128.455 133.83 128.384C133.82 128.351 133.807 128.319 133.796 128.285C133.768 128.199 133.851 128.365 133.788 128.267C133.758 128.22 133.649 128.094 133.753 128.198C133.7 128.145 133.608 128.064 133.7 128.137C133.635 128.086 133.539 128.074 133.645 128.101C133.588 128.086 133.396 128.06 133.553 128.071C133.487 128.067 133.423 128.063 133.357 128.065C133.321 128.067 133.285 128.071 133.248 128.073C133.144 128.08 133.337 128.057 133.196 128.08C133.279 128.02 133.362 127.959 133.445 127.898C132.986 128.756 132.798 129.884 132.645 130.875C132.424 132.319 132.318 133.78 132.229 135.237C132.043 138.292 132.016 141.355 131.789 144.408C131.694 145.701 131.551 147.004 131.173 148.254C130.885 149.204 130.415 150.122 129.613 150.773C128.81 151.426 127.825 151.794 126.924 152.298C121.811 155.157 123.39 158.182 123.652 162.501C123.787 164.737 123.91 167.066 123.118 169.214C122.758 170.189 122.231 171.097 121.785 172.036C121.384 172.88 120.979 173.84 121.101 174.786C121.232 175.793 122.027 176.442 122.913 176.899C123.768 177.341 124.677 177.715 125.599 178.015C127.208 178.539 129.258 178.971 130.778 177.992C131.648 177.431 132.06 176.489 132.279 175.546C132.531 174.462 132.627 173.334 132.696 172.227C132.841 169.909 132.724 167.572 132.333 165.28C132.139 164.135 131.88 163.002 131.556 161.884C131.392 161.316 131.21 160.751 131.013 160.193C130.858 159.755 130.656 159.325 130.523 158.881C130.153 157.647 130.246 157.166 129.705 155.97C129.582 155.7 128.889 156.497 128.85 156.55C128.592 156.904 128.411 157.304 128.238 157.699C127.68 158.98 127.337 159.541 127.075 160.902C126.605 163.356 126.133 165.811 125.663 168.266C125.453 169.36 125.157 170.47 125.05 171.579C124.979 172.318 125.011 173.092 125.275 173.797C125.486 174.36 125.893 174.799 126.554 174.793C126.434 174.858 127.983 174.658 127.863 174.724C130.235 171.049 129.537 166.922 128.944 162.647C128.914 162.432 129.157 162.252 129.361 162.249C129.611 162.248 129.749 162.435 129.779 162.647C130.351 166.779 131.045 168.772 129.843 174.704C129.791 174.957 129.584 175.187 129.418 175.391C129.262 175.581 126.569 175.601 126.326 175.58C125.978 175.551 125.646 175.444 125.363 175.247C124.785 174.844 124.479 174.183 124.329 173.533C124.162 172.804 124.149 172.043 124.247 171.305C124.398 170.195 124.659 169.09 124.87 167.99L126.233 160.884C126.491 159.541 126.812 158.217 127.331 156.94C127.574 156.341 127.848 155.73 128.247 155.208C128.555 154.807 128.969 153.604 129.524 153.575C130.091 153.545 130.412 154.691 130.603 155.156C130.844 155.749 130.935 156.4 131.037 157.025C131.125 157.568 131.169 158.139 131.328 158.67C131.455 159.094 131.649 159.506 131.797 159.924C131.989 160.463 132.166 161.007 132.327 161.556C132.957 163.704 133.352 165.917 133.511 168.143C133.67 170.365 133.585 172.6 133.259 174.805C133.117 175.762 132.899 178.605 132.338 179.427C131.853 180.138 131.19 180.821 130.312 180.955C129.712 181.046 124.754 179.243 123.14 178.685C122.237 178.372 121.615 178.002 120.773 177.56C119.9 177.102 118.869 176.482 118.506 175.576C117.788 173.78 120.966 171.832 121.752 170.257C122.226 169.304 122.586 168.336 122.758 167.29C122.936 166.208 122.101 164.572 122.061 163.479C121.927 159.87 122.11 156.249 124.62 153.172C125.198 152.464 125.922 151.914 126.743 151.481C127.634 151.012 128.629 150.643 129.341 149.925C130.425 148.831 130.681 147.087 130.842 145.661C131.151 142.906 131.158 140.118 131.284 137.352C131.353 135.837 131.434 134.321 131.579 132.811C131.699 131.555 131.846 130.286 132.155 129.056C132.273 128.586 132.422 128.124 132.631 127.683C132.752 127.426 132.902 127.316 133.191 127.284C133.29 127.273 133.388 127.266 133.487 127.271C133.934 127.292 134.319 127.501 134.52 127.889C134.749 128.328 134.754 128.857 134.742 129.337C134.722 130.075 134.628 130.813 134.541 131.546C134.248 134.006 133.97 136.464 133.854 138.939C133.67 142.847 133.815 146.766 134.228 150.658C134.734 155.401 138.877 160.058 139.698 164.756C140.428 168.929 138.081 173.189 139.867 177.095C140.316 178.077 140.832 179.032 141.422 179.944C141.677 180.341 141.933 180.753 141.81 181.235C141.713 181.615 141.389 181.885 141.028 182.04C140.632 182.212 140.207 182.264 139.777 182.297C139.134 182.346 138.49 182.393 137.848 182.441C136.584 182.537 135.32 182.632 134.058 182.727C131.531 182.917 129.005 183.107 126.478 183.296C124.013 183.482 121.545 183.714 119.075 183.809C116.752 183.899 114.41 183.813 112.149 183.263C111.865 183.194 111.793 182.905 111.899 182.679C114.217 177.758 115.044 172.56 116.02 167.248C116.508 164.59 116.819 161.902 116.954 159.207C117.019 157.897 117.03 156.589 117.027 155.278C117.024 154.046 117.883 152.772 118.289 151.589C119.023 149.453 120.957 148.289 122.917 147.256C123.875 146.751 124.86 146.257 125.712 145.595C126.506 144.978 127.185 144.239 127.723 143.408C130.008 139.872 129.823 135.303 129.319 131.336C129.02 128.982 128.338 126.297 129.97 124.23C130.613 123.416 131.597 122.767 132.702 122.77C133.713 122.772 134.744 123.311 135.258 124.145C135.503 124.543 135.615 125.008 135.558 125.466C135.495 125.967 134.66 125.973 134.723 125.466Z" fill="white"/>
<path fill-rule="evenodd" clip-rule="evenodd" d="M174.463 161.511C176.881 161.62 179.071 160.345 181.229 159.302C188.481 155.794 197.496 155.79 204.751 159.293C207.803 160.767 210.623 162.915 212.13 165.835C213.636 168.757 213.59 178.102 211.419 180.618C209.185 183.206 205.432 184.218 201.918 184.46C176.275 186.224 154.799 184.494 131.075 185.028C126.569 185.13 126.569 185.13 117.771 185.284C115.085 185.331 112.873 185.946 113.621 183.487C114.056 182.056 115.745 180.958 117.311 181.016C135.275 181.672 135.838 166.446 135.219 159.724C134.926 156.552 134.788 153.369 134.744 150.184C134.649 143.045 134.252 137.461 132.574 130.892C130.514 122.829 126.529 115.293 124.564 107.208C122.598 99.1237 120.225 92.4692 126.013 86.2541C126.911 85.2891 128.004 84.3795 129.342 84.1671C130.548 83.9756 131.766 84.3806 132.884 84.8515C136.756 86.4815 139.643 89.2059 141.033 92.8742C144.715 102.593 153.967 106.609 158.521 111.034C162.862 115.253 162.232 115.68 165.099 120.901C170.999 131.645 174.422 144.688 170.569 156.588C170.569 156.588 169.055 161.267 174.463 161.511Z" fill="#F7B3A4"/>
<path fill-rule="evenodd" clip-rule="evenodd" d="M134.819 159.691C138.983 161.405 141.645 162.081 146.099 163.013C150.419 163.917 154.69 164.387 159.091 164.434C159.435 164.438 159.807 164.619 160.081 164.422C160.27 164.286 160.344 164.051 160.405 163.832C160.702 162.793 160.998 161.752 161.295 160.712C150.99 161.157 143.569 159.76 134.547 156.011L134.819 159.691Z" fill="#DD452C"/>
<path fill-rule="evenodd" clip-rule="evenodd" d="M141.77 165.088C141.136 165.459 140.624 166.005 140.38 166.717C139.618 168.926 141.73 170.816 143.921 170.692C145.617 170.597 147.374 169.343 147.508 167.614C147.632 166.012 146.177 164.836 144.646 164.572C143.699 164.409 142.623 164.59 141.77 165.088Z" fill="#D69C36"/>
<path fill-rule="evenodd" clip-rule="evenodd" d="M143.522 164.511C143.562 164.346 143.609 164.184 143.667 164.024C143.695 163.948 143.718 163.856 143.761 163.787C143.651 163.964 143.792 163.727 143.811 163.69C143.879 163.557 143.954 163.428 144.036 163.301C144.083 163.229 144.131 163.158 144.182 163.089C144.204 163.058 144.377 162.833 144.248 162.996C144.353 162.863 144.476 162.738 144.601 162.621C144.648 162.577 144.696 162.536 144.745 162.494C144.778 162.468 144.812 162.441 144.846 162.415C144.759 162.477 144.754 162.483 144.832 162.43C144.905 162.389 144.982 162.347 145.055 162.305C145.142 162.267 145.132 162.269 145.025 162.313C145.064 162.298 145.104 162.286 145.145 162.274C145.184 162.263 145.226 162.254 145.266 162.247C145.141 162.259 145.127 162.262 145.224 162.254C145.266 162.253 145.308 162.253 145.349 162.255C145.238 162.238 145.214 162.235 145.277 162.247C145.305 162.252 145.333 162.258 145.361 162.266C145.45 162.294 145.435 162.287 145.318 162.243C145.332 162.235 145.512 162.336 145.516 162.352C145.42 162.28 145.407 162.273 145.477 162.33C145.506 162.355 145.533 162.381 145.56 162.407C145.62 162.473 145.612 162.462 145.539 162.374C145.562 162.403 145.584 162.433 145.606 162.465C145.628 162.498 145.729 162.622 145.72 162.661C145.706 162.631 145.693 162.601 145.68 162.571C145.694 162.606 145.707 162.641 145.719 162.676C145.748 162.76 145.765 162.847 145.786 162.933C145.802 163.026 145.802 163.024 145.785 162.926C145.791 162.972 145.795 163.018 145.797 163.065C145.838 163.789 145.694 164.536 145.618 165.257C145.573 165.676 146.044 166.077 146.477 166.059C146.98 166.038 147.288 165.705 147.336 165.257C147.478 163.923 147.859 162.332 146.755 161.252C146.209 160.719 145.349 160.501 144.598 160.754C143.84 161.01 143.285 161.53 142.816 162.124C142.36 162.702 142.035 163.385 141.865 164.084C141.765 164.492 141.999 164.972 142.465 165.071C142.902 165.165 143.415 164.948 143.522 164.511Z" fill="#D69C36"/>
<path fill-rule="evenodd" clip-rule="evenodd" d="M161.843 147.714C160.824 156.83 155.989 162.084 155.031 171.145C154.813 173.207 154.759 175.304 154.159 177.296C153.123 180.737 151.069 180.936 148.546 182.772C147.673 183.408 147.135 184.693 147.841 185.495C148.335 186.057 149.199 186.131 149.968 186.162C167.492 186.854 186.923 187.967 204.253 184.822C203.197 182.957 195.499 183.82 192.921 183.282C184.888 181.606 188.184 174.869 186.474 168.619C185.048 163.417 187.557 159.076 186.59 154.167C185.26 147.415 174.52 145.643 172.756 138.981C171.81 135.412 174.972 130.684 174.312 128.015C173.62 125.228 169.828 120.912 166.099 118.959C164.85 118.304 159.829 123.804 158.792 124.736C158.792 124.736 163.13 136.202 161.843 147.714Z" fill="#083618"/>
<path fill-rule="evenodd" clip-rule="evenodd" d="M163.55 126.239C163.433 125.305 164.235 124.584 165.139 124.385C166.158 124.162 167.14 124.789 167.7 125.559C169.166 127.573 168.338 130.251 168.073 132.489C167.612 136.387 167.546 142.614 169.641 146.131C170.684 147.884 172.235 149.119 174.053 150.103C175.846 151.072 177.946 150.096 178.913 151.947C179.481 153.033 179.561 154.288 179.575 155.48C179.591 156.756 179.571 158.031 179.621 159.308C179.722 161.912 179.992 164.51 180.414 167.085C181.26 172.225 182.748 177.269 184.846 182.072C185.107 182.669 185.376 183.263 185.654 183.853C185.737 183.658 185.82 183.464 185.903 183.269C182.259 184.155 178.459 183.775 174.759 183.496C170.854 183.203 166.949 182.909 163.045 182.615C162.058 182.542 161.07 182.467 160.083 182.393C159.599 182.357 159.117 182.32 158.635 182.284C158.296 182.259 157.944 182.239 157.627 182.11C157.375 182.008 157.207 181.861 157.295 181.589C157.416 181.215 157.74 180.863 157.943 180.524C158.362 179.828 158.739 179.108 159.08 178.373C160.468 175.373 160.971 174.289 161.585 171.075C161.912 169.367 161.356 165.531 161.676 163.823C162.012 162.033 163.482 160.249 163.814 158.459C164.47 154.929 164.964 151.383 165.186 147.803C165.485 142.983 165.273 138.183 164.697 133.39C164.555 132.213 164.346 131.013 164.364 129.824C164.366 129.733 164.369 129.643 164.376 129.553C164.379 129.507 164.384 129.461 164.389 129.416C164.401 129.291 164.375 129.474 164.394 129.372C164.409 129.301 164.422 129.229 164.444 129.158C164.454 129.125 164.466 129.092 164.477 129.059C164.505 128.973 164.422 129.139 164.486 129.04C164.516 128.994 164.625 128.867 164.521 128.971C164.574 128.918 164.666 128.838 164.574 128.91C164.639 128.859 164.735 128.847 164.629 128.875C164.686 128.86 164.878 128.833 164.721 128.844C164.786 128.84 164.851 128.836 164.917 128.839C164.954 128.84 164.989 128.844 165.025 128.846C165.13 128.853 164.936 128.83 165.078 128.854C164.995 128.793 164.912 128.733 164.828 128.671C165.288 129.529 165.476 130.657 165.628 131.648C165.85 133.092 165.956 134.554 166.045 136.01C166.231 139.065 166.258 142.129 166.484 145.181C166.58 146.475 166.723 147.777 167.101 149.027C167.388 149.977 167.859 150.894 168.66 151.546C169.463 152.199 170.449 152.567 171.35 153.072C176.462 155.93 174.884 158.955 174.622 163.275C174.486 165.51 174.364 167.839 175.156 169.987C175.516 170.962 176.043 171.869 176.489 172.808C176.889 173.653 177.294 174.613 177.172 175.558C177.042 176.566 176.247 177.215 175.361 177.672C174.505 178.114 173.596 178.488 172.675 178.788C171.066 179.311 169.015 179.744 167.495 178.765C166.626 178.204 166.214 177.262 165.995 176.319C165.742 175.235 165.647 174.107 165.578 173C165.433 170.682 165.55 168.345 165.94 166.053C166.135 164.908 166.394 163.775 166.717 162.657C166.881 162.089 167.063 161.524 167.26 160.966C167.415 160.528 167.618 160.097 167.75 159.654C168.121 158.42 168.027 157.939 168.569 156.743C168.692 156.473 169.385 157.271 169.424 157.324C169.682 157.676 169.863 158.076 170.035 158.472C170.594 159.753 170.938 160.313 171.199 161.675C171.669 164.129 172.14 166.584 172.611 169.039C172.821 170.133 173.117 171.243 173.223 172.351C173.295 173.091 173.262 173.865 172.999 174.57C172.788 175.133 172.381 175.571 171.72 175.565C171.84 175.631 170.291 175.431 170.411 175.497C168.039 171.822 168.737 167.695 169.33 163.42C169.36 163.205 169.117 163.024 168.913 163.023C168.663 163.02 168.525 163.208 168.495 163.42C167.923 167.552 167.229 169.545 168.431 175.477C168.482 175.73 168.689 175.96 168.855 176.164C169.012 176.354 171.705 176.373 171.947 176.353C172.295 176.324 172.628 176.216 172.911 176.019C173.489 175.616 173.795 174.956 173.944 174.306C174.112 173.577 174.125 172.816 174.026 172.077C173.876 170.967 173.615 169.864 173.403 168.763C172.949 166.394 172.495 164.025 172.041 161.657C171.783 160.314 171.462 158.99 170.943 157.713C170.7 157.113 170.427 156.503 170.026 155.98C169.719 155.579 169.305 154.377 168.75 154.348C168.182 154.318 167.862 155.464 167.671 155.929C167.43 156.521 167.339 157.173 167.236 157.798C167.148 158.342 167.105 158.912 166.946 159.442C166.819 159.866 166.625 160.278 166.476 160.697C166.285 161.236 166.108 161.78 165.947 162.328C165.317 164.477 164.922 166.69 164.763 168.915C164.603 171.138 164.689 173.373 165.015 175.578C165.157 176.535 165.375 179.378 165.935 180.2C166.422 180.911 167.084 181.594 167.961 181.727C168.562 181.818 173.519 180.016 175.134 179.457C176.036 179.144 176.659 178.774 177.5 178.333C178.374 177.875 179.405 177.254 179.768 176.349C180.486 174.552 177.308 172.605 176.522 171.029C176.048 170.076 175.688 169.108 175.516 168.063C175.337 166.981 176.172 165.344 176.213 164.253C176.347 160.643 176.164 157.023 173.653 153.945C173.076 153.237 172.352 152.687 171.531 152.254C170.641 151.785 169.645 151.416 168.932 150.698C167.85 149.604 167.593 147.861 167.432 146.434C167.122 143.679 167.115 140.892 166.99 138.125C166.921 136.611 166.839 135.094 166.695 133.585C166.575 132.328 166.428 131.059 166.119 129.83C166 129.36 165.852 128.897 165.643 128.456C165.521 128.199 165.372 128.089 165.082 128.057C164.984 128.047 164.886 128.04 164.786 128.044C164.34 128.065 163.955 128.275 163.754 128.662C163.526 129.102 163.52 129.63 163.532 130.11C163.552 130.849 163.646 131.586 163.733 132.319C164.026 134.779 164.303 137.237 164.42 139.712C164.604 143.62 164.459 147.539 164.045 151.43C163.539 156.174 159.396 160.832 158.576 165.529C157.846 169.702 160.193 173.961 158.407 177.867C157.957 178.85 157.442 179.804 156.852 180.717C156.597 181.113 156.34 181.526 156.463 182.008C156.561 182.388 156.885 182.657 157.246 182.813C157.642 182.984 158.067 183.036 158.497 183.069C159.14 183.119 159.783 183.166 160.427 183.214L164.216 183.499C166.743 183.689 169.269 183.879 171.796 184.069C174.261 184.254 176.728 184.487 179.199 184.582C181.521 184.672 183.864 184.585 186.125 184.036C186.408 183.967 186.481 183.678 186.375 183.451C184.056 178.531 183.23 173.333 182.254 168.021C181.765 165.362 181.455 162.676 181.32 159.98C181.254 158.67 181.244 157.362 181.247 156.051C181.25 154.818 180.39 153.545 179.984 152.362C179.25 150.226 177.317 149.062 175.357 148.029C174.399 147.525 173.414 147.03 172.562 146.368C171.768 145.75 171.089 145.012 170.551 144.181C168.266 140.645 168.451 136.076 168.954 132.11C169.254 129.755 169.936 127.07 168.303 125.003C167.661 124.189 166.676 123.54 165.572 123.543C164.561 123.546 163.53 124.084 163.016 124.919C162.772 125.316 162.658 125.781 162.716 126.239C162.779 126.741 163.614 126.747 163.55 126.239Z" fill="white"/>
<path fill-rule="evenodd" clip-rule="evenodd" d="M136.771 87.4997C135.187 86.1595 133.588 84.9902 132.815 84.4727C131.421 83.5371 129.593 83.0343 127.977 83.5551C126.681 83.9727 125.696 84.9738 124.873 86.0105C124.311 86.7191 123.775 87.623 124.118 88.4479C124.308 88.9059 124.734 89.2312 125.142 89.5347C126.183 90.3077 127.222 91.0807 128.262 91.8537C130.884 93.802 133.82 95.8523 137.146 95.7066C139.014 95.6247 141.095 94.4172 141.03 92.6414C140.983 91.3908 138.89 89.2929 136.771 87.4997Z" fill="#083618"/>
<path fill-rule="evenodd" clip-rule="evenodd" d="M150.275 106.858C149.512 106.547 148.638 106.405 147.866 106.692C147.094 106.977 146.492 107.882 146.777 108.675C146.878 108.953 147.357 110.199 147.554 110.415C148.467 111.415 149.953 111.522 151.085 110.163C152.011 109.049 151.533 107.37 150.275 106.858Z" fill="#083618"/>
<path fill-rule="evenodd" clip-rule="evenodd" d="M151.733 115.201C151.35 115.045 150.914 114.974 150.528 115.117C150.141 115.261 149.841 115.713 149.983 116.109C150.033 116.248 150.273 116.871 150.371 116.979C150.829 117.48 151.572 117.532 152.137 116.853C152.6 116.296 152.361 115.456 151.733 115.201Z" fill="#083618"/>
<path fill-rule="evenodd" clip-rule="evenodd" d="M151.226 104.154C152.765 104.536 154.141 105.269 155.364 106.366C156.068 106.998 156.859 105.713 156.16 105.086C154.856 103.916 153.342 103.1 151.701 102.693C150.826 102.476 150.343 103.936 151.226 104.154Z" fill="#083618"/>
<path fill-rule="evenodd" clip-rule="evenodd" d="M157.504 118.027C157.53 119.104 157.224 120.048 156.59 120.86C156.015 121.597 157.144 122.448 157.713 121.718C158.479 120.738 158.892 119.456 158.862 118.155C158.838 117.187 157.482 117.051 157.504 118.027Z" fill="#083618"/>
<path fill-rule="evenodd" clip-rule="evenodd" d="M192.886 202.141C188.137 201.575 183.899 198.739 180.94 195.107C177.981 191.477 176.169 187.1 174.792 182.675C174.454 181.59 174.136 180.456 174.314 179.336C174.492 178.216 175.297 177.109 176.453 176.915C177.855 176.679 179.078 177.781 180.042 178.79C183.278 182.18 186.53 185.592 189.098 189.477C191.665 193.362 193.535 197.787 193.716 202.392" fill="#083618"/>
<path fill-rule="evenodd" clip-rule="evenodd" d="M193.035 202.392C187.966 193.493 184.905 181.56 189.45 171.993C190.392 170.011 191.387 168.017 192.694 166.236C193.912 164.578 197.122 161.948 197.658 165.529C198.483 171.043 199.32 176.641 199.388 182.223C199.445 186.931 198.158 191.539 196.999 196.067C196.491 198.053 195.276 200.447 193.198 200.272" fill="#083618"/>
<path fill-rule="evenodd" clip-rule="evenodd" d="M191.759 201.85C194.974 203.162 198.708 201.904 201.653 200.092C208.144 196.101 212.726 189.324 213.902 181.974C213.973 181.53 214.031 181.069 213.904 180.638C213.638 179.734 212.602 179.204 211.63 179.201C210.658 179.199 209.74 179.608 208.877 180.038C201.256 183.835 194.977 190.095 191.284 197.575" fill="#083618"/>
<path fill-rule="evenodd" clip-rule="evenodd" d="M195.337 202.392C192.759 202.397 186.466 201.495 181.728 200.408C179.478 199.893 175.535 197.875 173.534 196.736C171.532 195.597 169.822 193.739 169.441 191.488C169.376 191.11 169.362 190.685 169.6 190.382C169.962 189.925 170.67 189.995 171.246 190.109C179.188 191.688 187.413 193.388 193.93 198.145" fill="#083618"/>
<path fill-rule="evenodd" clip-rule="evenodd" d="M192.851 202.133C187.904 201.55 183.491 198.627 180.408 194.887C177.325 191.146 175.438 186.636 174.004 182.077C173.652 180.959 173.321 179.792 173.506 178.637C173.691 177.483 174.53 176.342 175.735 176.142C177.194 175.9 178.469 177.035 179.473 178.076C182.842 181.567 186.23 185.082 188.905 189.085C191.579 193.089 193.528 197.647 193.716 202.392" fill="#083618"/>
<path fill-rule="evenodd" clip-rule="evenodd" d="M192.611 203.166C187.204 193.91 183.939 181.501 188.788 171.551C189.792 169.489 190.853 167.415 192.248 165.563C193.547 163.838 196.971 161.104 197.542 164.827C198.423 170.562 199.315 176.384 199.387 182.189C199.449 187.086 198.076 191.877 196.84 196.587C196.298 198.653 195.002 201.143 192.785 200.96" fill="#083618"/>
<path fill-rule="evenodd" clip-rule="evenodd" d="M190.965 201.832C194.296 203.188 198.162 201.887 201.213 200.016C207.936 195.892 212.681 188.888 213.899 181.293C213.972 180.835 214.033 180.359 213.901 179.912C213.626 178.979 212.552 178.431 211.546 178.429C210.54 178.426 209.588 178.848 208.695 179.292C200.802 183.218 194.298 189.686 190.474 197.415" fill="#083618"/>
<path fill-rule="evenodd" clip-rule="evenodd" d="M194.526 202.392C191.868 202.397 185.378 201.494 180.492 200.409C178.172 199.893 174.106 197.874 172.042 196.736C169.978 195.597 168.214 193.74 167.821 191.488C167.755 191.11 167.74 190.685 167.986 190.382C168.359 189.925 169.089 189.995 169.683 190.109C177.872 191.688 186.355 193.388 193.076 198.145" fill="#083618"/>
<path fill-rule="evenodd" clip-rule="evenodd" d="M194.089 197.769C193.511 190.214 192.219 187.048 193.456 179.553C193.804 177.442 194.498 171.476 194.526 169.344C194.547 167.767 194.079 168.309 193.842 169.637C192.496 177.179 191.227 184.757 191.286 192.389C191.303 194.545 191.395 196.701 191.56 198.853C191.605 199.447 192.669 199.452 192.623 198.853L194.089 197.769Z" fill="white"/>
<path fill-rule="evenodd" clip-rule="evenodd" d="M191.886 196.876L187.889 194.096C186.602 193.199 185.278 192.332 184.055 191.356C181.901 189.636 180.242 187.432 179.284 184.925C179.073 184.375 178.134 184.612 178.347 185.169C179.111 187.17 181.282 190.952 181.95 191.773C182.991 193.05 185.792 194.439 188.244 195.776C189.585 196.508 190.149 196.8 191.396 197.667C191.899 198.018 192.384 197.223 191.886 196.876Z" fill="white"/>
<path fill-rule="evenodd" clip-rule="evenodd" d="M191.298 198.235C186.405 197.851 181.589 196.67 177.131 194.757C176.567 194.515 176.54 194.783 177.107 195.027C184.388 198.165 191.355 199.309 191.938 199.3C192.338 199.294 191.916 198.283 191.298 198.235Z" fill="white"/>
<path fill-rule="evenodd" clip-rule="evenodd" d="M192.467 199.3C195.058 198.274 197.785 196.532 199.934 194.763C202.029 193.037 202.161 193.373 203.879 191.281C204.849 190.1 206.974 186.666 207.91 185.458C208.069 185.253 208.45 184.799 208.247 184.679C208.002 184.532 207.749 184.647 207.592 184.85C204.409 188.959 202.643 192.588 198.176 195.394C196.872 196.213 193.975 197.482 192.543 198.049C191.977 198.274 192.043 198.511 192.222 199.017L192.467 199.3Z" fill="white"/>
<path fill-rule="evenodd" clip-rule="evenodd" d="M200.597 193.913C201.182 192.313 201.024 193.504 201.631 190.745C201.686 190.496 201.997 188.551 201.682 188.481C201.397 188.418 201.046 189.455 200.985 189.704C200.578 191.34 199.999 192.803 199.414 194.403C199.204 194.982 200.387 194.489 200.597 193.913Z" fill="white"/>
<path fill-rule="evenodd" clip-rule="evenodd" d="M192.065 190.271C191.499 188.575 190.941 186.874 190.511 185.144C190.088 183.443 189.125 181.233 189.271 179.481C189.32 178.888 188.932 179.335 188.883 179.925C188.735 181.712 189.16 185.689 189.371 186.784C189.716 188.572 190.471 189.769 191.098 190.516C191.491 190.985 192.255 190.841 192.065 190.271Z" fill="white"/>
<path fill-rule="evenodd" clip-rule="evenodd" d="M187.098 193.097C186.332 192.145 185.485 190.637 185.412 190.28C185.334 189.904 184.86 188.802 184.605 187.947C184.433 187.373 184.311 186.875 184.085 186.937C183.819 187.011 184.19 188.248 184.229 188.497C184.589 190.741 184.997 191.968 186.433 193.754C186.593 193.952 186.931 193.915 187.098 193.754C187.296 193.562 187.255 193.292 187.098 193.097Z" fill="white"/>
</svg>
