<?xml version="1.0" encoding="utf-8"?>
<!-- Generator: Adobe Illustrator 24.3.0, SVG Export Plug-In . SVG Version: 6.00 Build 0)  -->
<svg version="1.1" id="Layer_1" xmlns="http://www.w3.org/2000/svg" xmlns:xlink="http://www.w3.org/1999/xlink" x="0px" y="0px"
	 viewBox="0 0 986.9 669" style="enable-background:new 0 0 986.9 669;" xml:space="preserve">
<style type="text/css">
	.st0{fill:#EFCCB9;}
	.st1{fill:#F4E8DD;}
	.st2{fill:#003A30;}
	.st3{fill:#FFFFFF;}
	.st4{fill:#0D020C;}
	.st5{fill:#0D222D;}
	.st6{fill:#C4491E;}
	.st7{fill:#004C3A;}
	.st8{fill:#111111;}
	.st9{fill:#EAA524;}
	.st10{fill:#F7DCE7;}
	.st11{fill:#083618;}
	.st12{fill:#A33319;}
	.st13{fill:none;stroke:#FEF8F0;stroke-width:2;}
</style>
<path class="st0" d="M0.8,33.2l-1.6,596.5c115.2,6.7,159.4,1.2,274.7,5.4c88.5,3.2,224.7,1.4,309.3,1.4c146.4,0,273.8,0.2,398.7,2.5
	c6.7-202.9,6.7-401.2,0.1-604.1C981.9,35,272.4,46.9,0.8,33.2z"/>
<path class="st1" d="M337.8,658.1c-1,1.9-1.3,4.1-1,6.2c3.2-1.7,6.3-3.4,9.5-5.2c0.3-0.2,0.7-0.4,1.1-0.2c0.3,0.2,0.4,0.6,0.4,1
	l0.1,0.9c0.1,1.3,1.6,2.1,2.7,1.4c0.3-0.2,0.5-0.3,0.8-0.4c0.7-0.2,1.5-0.2,2.1,0.1c1.4,0.7,1.3,2.3,1.7,3.6
	c0.3,1.1,1.4,2.2,2.4,1.7c0.3-0.2,0.5-0.4,0.7-0.7c1.3-1.7,2.5-3.5,3.8-5.2c1.4,0.9,2.6,2.2,3.4,3.7c0.5,1,1.9,1.2,2.7,0.4
	c2.2-2,4.6-3.7,7.3-4.9c0.6-0.3,1.3-0.6,2,0.2c0.5,0.5,0.7,1.2,0.8,1.9c0.1,2.3,0.8,4.6,1.8,6.6c0.2,0.3,0.4,0.6,0.7,0.7
	c0.4,0.1,0.7-0.1,1.1-0.2c3.5-2,5.5-6,8.9-8c0.4-0.2,0.8-0.4,1.3-0.4c0.7,0.1,1.1,0.9,1.3,1.5l0.4,1c0.7,1.7,2.9,2.2,4.3,1
	c1.2-1,2.3-2,3.5-3.2c0.8-0.9,2.3-0.7,2.8,0.4c0.4,0.8,0.9,1.7,1.5,2.6c0.3,0.4,0.9,1.3,1.3,1.7c0.7,0.7,1-1.1,1.7-2.5l0,0
	c0.6-1.2,2.2-1.3,3-0.2l2.7,3.8c0.7,1.1,2.3,1,3-0.1l3.6-6c0.5-0.8,1.2-1.6,2-1.3c0.5,0.2,0.7,0.7,0.9,1.2l0.3,0.8
	c0.6,1.3,2.3,1.5,3.1,0.3l1.5-2.2c1.4-2.1,4.6-1.4,5.1,1.1v0.1c0.2,1.4,2,2,3,0.9c0.9-1,1.8-2,2.6-3.1c0.9-1.2,2.8-0.8,3.1,0.6
	c0.1,0.3,0.2,0.7,0.3,0.9c0.6,1.5,2.5,3.5,3.9,2c0,0,0.2-0.4,0.7-1.6c1.2-3.4,2.1-6.8,2.5-10.4L337.8,658.1z"/>
<path class="st2" d="M358.1,605.8c-4.5-1.9-10-1.5-14.1-4.2c-2-1.4-3.6-3.3-5.1-5.3c-2.1-2.8-5.4-8.6-7-12.5
	c-0.3-0.7-1.2-0.8-1.7-0.1c-1.6,2.3-2.2,6.7-3.4,8.8c-0.3,0.5-0.5,1.2-0.2,1.7c0.7,1.2,3-0.3,4,0.7c0.5,0.5,0.3,1.4,0,2.1
	c-0.7,1.9-1.4,3.7-2,5.6c-0.9,2.5-1.7,5.6,0.7,7.2c0.7,0.5,1.7,0.7,2.5,0.5c2.1-0.3,3.6-1.9,4.7-3.5c-0.5,4.8,0.1,9.7,1.8,14.2
	c1.9,4.8,3.4-4.6,4.7-7.2c-0.4,2.9-0.6,5.8-0.5,8.7c0,2,0.4,4.2,2.3,5.1c1.1,0.5,2.5,0.3,3.5-0.3c2.1-1.2,3-3.5,3.9-5.7
	c1.8-4.7,3.6-9.4,5.4-14.2"/>
<path class="st1" d="M462.5,527.3c14.3-5,29.8,2.5,44.1,7.5c15.1,5.3,30.5,9.8,46.1,13.3c1.2,0.3,2.5,0.6,3.2,1.6
	c1.9,2.6-2.1,5.4-5.2,6.2c-30,7.5-60.9,11.5-91.9,11.9C458.7,567.9,431.6,538.3,462.5,527.3z"/>
<path class="st1" d="M355.3,605.6c32.2-13.5,64.7-26.1,97.6-37.7c3.8,25.3,2.9,59.4-2.6,84.3c-43.5,8.2-71.6,8.2-112.5,5.9
	L355.3,605.6z"/>
<path class="st3" d="M339.4,662.8c2.1-8.8,2.9-14.2,5.3-22.8c2.2-8,4.6-12.6,8.1-22.3c1-2.8,5.2-12,7.3-14.1l-4.5,1.5
	c-1.9,1.9-3.2,4.5-4.4,6.9c-1.6,3.4-3,7-4.2,10.6c-3,8.8-5.4,17.8-7.7,26.8c-1.2,4.8-3,11.1-3.6,15.6L339.4,662.8z"/>
<path class="st3" d="M352.2,661.5c0.4-2.5,0.8-2.7,2.5-6.7c1.8-4.3,3.6-8.6,5.4-13c3.6-8.6,7.1-17.2,10.7-25.8
	c2-4.9,7.8-16,9.9-20.8l-6.1,2.5c-7.2,17.4-14.5,37.9-21.7,55.3c-1.9,4.6-3.9,9.1-3.7,9.2C350.2,662.8,351.6,661.5,352.2,661.5z"/>
<path class="st3" d="M370.1,663.7c10.2-20,13.5-30.3,19.8-51.9c1.5-5.2,8.2-21,12.1-25.1l-5,2c-3.2,5.1-4.2,8.4-5.6,13
	c-1.6,5.5-3.3,11-5.1,16.4c-3.6,10.7-7.7,21.3-12.3,31.6c-2.6,5.8-6.8,13.6-6.9,16C367.2,665.7,368.1,666,370.1,663.7z"/>
<path class="st3" d="M381.7,669.7c-1.2-5.7-0.3-12.7,1.6-18c2-5.6,5.9-11.8,8.2-17.3c4.6-11.1,10.3-21,15.2-31.9
	c2.6-5.7,9.2-17.6,13.2-22.5l-8.9,3.4c-3.7,4.5-5.4,10.4-7.8,15.6c-2.6,5.5-5.1,11.1-7.5,16.7c-5,11.3-9.9,22.8-14.3,34.3
	c-2.3,6.1-4.2,7.5-2.8,14.1C378.9,665.5,380,670.7,381.7,669.7z"/>
<path class="st3" d="M398.3,664.8c1.3-11.2,2.6-21.9,6.6-32.4c4.1-10.9,8.7-21.6,13.2-32.4c2.6-6.3,7.1-16.7,9.6-23l-4.3,1.6
	c-4.6,11.2-9.1,24.2-13.7,35.5c-4.4,10.6-9.4,18-12.6,29c-1.8,6.1-3.8,18.1-3.4,19.6C394.1,664.7,395.9,666.6,398.3,664.8z"/>
<path class="st3" d="M417.8,667.2c7.9-23.6,16.6-64.3,23-88.3c1.8-6.7,0.7,2.8,2.4-4c0.4-1.5-2-2.2-2.3-0.6
	c-5.9,24.2-12.6,48.2-20.1,72c-2.1,6.6-4.2,13.2-6.4,19.8C413.9,667.6,416.7,669.3,417.8,667.2z"/>
<path class="st3" d="M440.1,658.9c3.1-34.1,5.1-40.4,8.1-61.9c0.9-6.2-0.4-12.5-1.2-18.8c-0.1-0.7-0.5-1.2-1.2-1.2
	c-0.6,0-1.3,0.6-1.2,1.2c2.9,22-3.8,36.1-7.9,57.8c-1.2,6.1-2.7,20.8-2.6,23.9C434.1,662.7,437,664.5,440.1,658.9z"/>
<path class="st2" d="M463.1,611.7c4.9-18.6,7.2-50.4,6-75.8c-0.1-2.5-0.4-5.3-2.4-6.9c-1.2-1-2.8-1.3-4.3-1.2
	c-4.4,0.2-10,4.4-12.7,8c-2.6,3.6-3.9,8.7-5.8,12.8c-3.3,7.2-8,23.6-14.5,42.3c-1.3,3.9-5,17.4,0.8,20.1
	C440.7,615.6,460.3,622.2,463.1,611.7z"/>
<path class="st1" d="M463.2,530.9c-7.1-0.9-9,2.7-11,6c-2.4,4-3.9,8.7-5.6,13.1c-3.8,10-7.2,20.1-10.2,30.3
	c-1.5,5.2-3,10.4-4.3,15.6c-0.3,1.2-0.6,2.5-0.9,3.7c-0.3,1.3-0.7,2.6-0.5,3.9c0.3,2.3,2.3,3.6,4.1,4.8c4,2.6,8.5,4.1,13.2,4.6
	c2.2,0.2,6.9,1.1,9,0.2c2.1-1,2-3.7,2.7-5.7c6-19.7-0.4-40.8,3.9-60.8c0.5-2.2,1.4-5-0.8-6.5c-0.8-0.6-1.8-0.8-2.7-0.4
	c-1.1,0.4-1.6,1.4-2.2,2.4c-2.6,4.3-4.9,8.8-6.9,13.4c-3.9,9.1-6.7,18.6-8.2,28.4c-0.4,2.5-0.7,4.9-0.9,7.4
	c-0.2,2.4-0.5,4.8-0.3,7.2c0.2,2.1,1,4.2,2.8,5.5c1.5,1.2,3.6,1.6,5.4,0.8c1.1-0.5,1.3-1.4,1.7-2.5c0.5-1.3,0.9-2.6,1.3-3.9
	c0.8-2.4,0.8-5.8,1-8.3c0.6-7.8,0.9-8.9,0.8-14c0-2.6,0-9.8-0.3-12.4c-0.2-1.7-1,2.6-1.7,4.2c-3.4,8.3-5.3,17.1-5.4,26
	c0,1.9,0.9,4.9,1.4,0.6c1.7-14.1,2.6-20.5,5.9-28.5c-1-0.1-0.9,2.4-1.9,2.3c1.4,11.7-0.1,23.6-4.5,34.5c0.2-0.3,0.5-0.6,0.7-0.9
	c-1.1,0.7-2.5,0.1-3.2-0.9c-1-1.4-1-3.3-1-5c0.1-3.8,0.5-7.7,1.1-11.4c1.2-7.6,1.1-13.9,3.8-21.1c1.4-3.7,2.9-7.3,4.7-10.8
	c0.8-1.7,3.7-4.6,4.7-6.3c0.4-0.8,0.9-1.5,1.3-2.3c0.2-0.4,0.5-0.8,0.7-1.1c0-0.1,0.2-0.3,0.3-0.5c0.2-0.2,0.5-0.7,0.5,0
	c0,0.9,0.3,2.2,0.1,3.1c-0.2,1-0.4,2.1-0.6,3.1c-0.3,1.9-0.6,3.8-0.8,5.8c-0.4,3.9-0.6,7.8-0.7,11.8c-0.2,7.9-1,15.8-1.5,23.6
	c-0.3,3.9-0.8,7.8-1.6,11.6c-0.4,1.9-0.9,3.8-1.5,5.6c-0.2,0.7-0.9,3.5-1.5,4s-1.5,0.7-2.2,0.7c-3.6,0.2-7.4-1.3-10.8-2.6
	c-1.7-0.7-3.4-1.5-4.9-2.6c-0.7-0.5-1.5-0.9-2-1.5c-0.7-0.7-0.5-1.6-0.3-2.5c1.9-8.1,4.5-22.6,6.9-30.6c2.4-7.9,5.4-13.1,8.3-20.8
	c1.4-3.8,2.3-7.6,3.8-11.4c1.1-2.7,2.1-3.8,4.3-5.7c1-0.8,7.4-1.5,8.8-1.6C467.3,532.5,466.1,531.4,463.2,530.9z"/>
<path class="st2" d="M492.5,538.4c-1.4,0.3-2.7,1.4-3,2.9s0.4,3,1.6,3.8c1.1,0.7,2.7,0.7,3.9,0c1.1-0.8,1.7-2.3,1.3-3.6
	C496.4,541.5,495.4,537.7,492.5,538.4z"/>
<path class="st2" d="M502.4,532.3c-0.9,0.2-1.7,0.9-1.8,1.8c-0.2,0.9,0.2,1.8,1,2.3c0.7,0.4,1.7,0.4,2.4,0c0.7-0.5,1-1.4,0.8-2.2
	C504.8,534.1,504.2,531.9,502.4,532.3z"/>
<path class="st2" d="M477.1,544.2c0-2.5,0-4.9,0-7.4c-0.4,0.3-0.8,0.6-1.1,0.9c1.1,0.4,2.2,1,3.3,1.7c0.5,0.3,1.2,0,1.3-0.5
	c0.2-0.9,0.1-1.7-0.1-2.6c-0.1-0.8-0.3-1.6,0-2.3c-0.4,0.2-0.9,0.4-1.3,0.5c1.2,0.6,2.3,1.3,3.3,2.1c0.7,0.6,1.6,0,1.5-0.9
	c-0.1-0.5-0.1-0.9-0.2-1.4c0-0.3-0.2-0.9-0.1-1.1c-0.1,0.1-0.1,0.3-0.2,0.4c-0.1,0-0.3,0.1-0.4,0.1h0.1c0.1,0.1,0.2,0.1,0.3,0.1
	c0.2,0.1,0.5,0.1,0.7,0.1c1.2,0.1,1.2-1.7,0-1.8c-0.4,0-0.7-0.3-1.1-0.3c-0.5,0-1,0.3-1.2,0.8s0,1,0,1.6c0.1,0.6,0.2,1.2,0.3,1.9
	c0.5-0.3,1-0.6,1.5-0.9c-1.1-0.9-2.4-1.7-3.7-2.4c-0.5-0.3-1.1,0-1.3,0.5c-0.3,0.8-0.2,1.7-0.1,2.5s0.3,1.6,0.2,2.4
	c0.4-0.2,0.9-0.4,1.3-0.5c-1.2-0.8-2.4-1.4-3.7-1.9c-0.6-0.2-1.1,0.3-1.1,0.9c0,2.5,0,4.9,0,7.4
	C475.3,545.3,477.1,545.3,477.1,544.2z"/>
<path class="st2" d="M493.3,530.6c0-0.7,0-1.3,0-2c-0.4,0.3-0.8,0.6-1.1,0.9c0.9,0.4,1.8,0.7,2.7,1.1c0.3,0.1,0.6,0,0.8-0.2
	c0.2-0.2,0.3-0.4,0.3-0.7c0-0.1,0-0.2,0-0.3c0,0.1,0,0.2,0,0.1v-0.1c0-0.2,0.1-0.4,0.2-0.5c0-0.1-0.1,0.2,0,0.1c0,0,0-0.1,0.1-0.1
	l0.1-0.1c0.1-0.1-0.1,0.1,0,0.1c0,0,0,0,0.1-0.1s-0.2,0.1,0,0c0,0,0.1,0,0.1-0.1c0,0-0.2,0.1,0,0c0.5-0.1,0.8-0.6,0.6-1.1
	c-0.2-0.5-0.6-0.8-1.1-0.6c-1.2,0.4-1.6,1.7-1.7,2.8c0.4-0.3,0.8-0.6,1.1-0.9c-0.9-0.4-1.8-0.7-2.6-1.1c-0.3-0.1-0.6,0-0.8,0.2
	c-0.2,0.2-0.3,0.4-0.3,0.7c0,0.7,0,1.3,0,2c0,0.5,0.4,0.9,0.9,0.9C492.9,531.5,493.3,531.1,493.3,530.6z"/>
<path class="st2" d="M550.3,541.4c-6.6-0.3-6.7,8.5-2.9,9.9c7.6,2.9,11.2-1.4,9.3-7.2C556.2,542.7,552.9,541.5,550.3,541.4z"/>
<path class="st3" d="M256.6,566.9c0,0-5.1,3-7,1c-2-2-3.1-4-1.6-7c1.3-2.5,5-3.8,8-3.1c0.5,0.1,1.1,0.3,1.6,0.6c0.2,0.1,1.4,1,1.4,1
	c7.6-4.3,14.4-9.1,20.6-15.3c-1.8,0.2-3.1-2.1-2.6-3.8c0.5-1.8,2.1-2.9,3.8-3.8c1.2-0.6,2.4-1.1,3.7-1.1c1.9,0,3.8,1.3,4.5,3
	c0.7,1.8,0.3,4-1,5.4c1.9-2.1,5.7-2,7.6,0.2c1.8,2.2,1.5,5.8-0.7,7.7s-5.7,1.8-7.9,0c-6.7,5-13.4,10-20.1,15c1.2,1.5,1.7,3.9,1,5.7
	c-0.7,1.9-2.9,3.8-4.9,3.9c-1.3,0.1-2.7-0.4-3.9-0.9c-1.1-0.4-2-1.2-2.5-2.3C255.5,570.4,255.8,568.9,256.6,566.9z"/>
<path class="st3" d="M381.7,82.6c0,0-5.5-2-5.2-4.8s1.1-5,4.3-5.7c2.8-0.6,6.1,1.5,7.5,4.2c0.2,0.5,0.4,1,0.5,1.6
	c0,0.2,0.1,1.7,0.2,1.7c8.2,3.1,16.2,5.3,24.9,6.2c-1.3-1.3-0.4-3.7,1.3-4.5s3.6-0.2,5.3,0.5c1.2,0.5,2.3,1.2,3.2,2.2
	c1.2,1.5,1.5,3.7,0.5,5.4c-0.9,1.7-2.9,2.8-4.8,2.7c2.9,0.1,5.2,3.1,4.7,6c-0.5,2.8-3.5,4.9-6.4,4.4s-5-3.2-5-6.1
	c-8.1-2-16.2-4-24.3-6c-0.4,1.8-2,3.8-3.7,4.4c-1.9,0.7-4.8,0.2-6.2-1.3c-0.9-1-1.4-2.3-1.8-3.6c-0.4-1.1-0.4-2.3,0.2-3.4
	C378.2,84,379.6,83.2,381.7,82.6z"/>
<path class="st3" d="M655.4,542.1c0,0-5.5-2-5.2-4.8s1.1-5,4.3-5.7c2.8-0.6,6.1,1.5,7.4,4.2c0.2,0.5,0.4,1,0.6,1.6
	c0,0.2,0.1,1.7,0.2,1.7c8.2,3.1,16.2,5.3,24.9,6.2c-1.3-1.3-0.4-3.7,1.3-4.4s3.6-0.2,5.3,0.5c1.2,0.5,2.3,1.2,3.2,2.2
	c1.2,1.5,1.5,3.7,0.6,5.4s-2.9,2.8-4.8,2.7c2.9,0.1,5.2,3.1,4.7,6s-3.6,4.8-6.4,4.4c-2.8-0.5-5-3.2-5-6.1c-8.1-2-16.2-4-24.3-6
	c-0.4,1.8-2,3.8-3.7,4.4c-1.9,0.7-4.8,0.2-6.2-1.3c-0.9-1-1.4-2.3-1.8-3.6c-0.4-1.1-0.4-2.3,0.2-3.4
	C651.9,543.5,653.3,542.8,655.4,542.1z"/>
<path class="st3" d="M117.8,177.1c0,0-4.7-3.4-3.8-6c1-2.6,2.4-4.5,5.7-4.3c2.8,0.2,5.5,3.1,6,6c0.1,0.5,0.1,1.1,0.1,1.7
	c0,0.2-0.3,1.7-0.3,1.7c7,5.2,14.1,9.5,22.3,12.7c-0.9-1.6,0.7-3.7,2.5-3.9s3.5,0.8,5,1.9c1,0.8,1.9,1.8,2.5,2.9
	c0.8,1.8,0.4,4-1,5.4c-1.3,1.4-3.5,1.9-5.3,1.3c2.7,0.9,4.1,4.4,2.9,7c-1.2,2.6-4.7,3.7-7.3,2.5s-3.9-4.5-3.1-7.2
	c-7.3-4.1-14.5-8.2-21.8-12.4c-0.9,1.6-2.9,3.1-4.8,3.2c-2,0.1-4.7-1.1-5.6-3c-0.6-1.2-0.7-2.6-0.8-4c-0.1-1.2,0.3-2.3,1.2-3.2
	C114,177.5,115.6,177.2,117.8,177.1z"/>
<path class="st2" d="M615.5,591.9c-2.8-3.7-2.2-9,0.2-12.9c2.5-3.9,6.4-6.5,10.5-8.7c2.5,0.7,3.7,3.7,3.2,6.3
	c-0.5,2.5-2.1,4.6-3.8,6.6c-3.1,3.6-6.3,7.1-10.3,9.6"/>
<path class="st2" d="M538.2,635c-0.6-5.2,0.1-8.2,1.4-13.3c1.3-5.1,4.5-10,9.4-11.9c3.2,6.2,4.4,13.3,3.3,20.2
	c1.8-5.5,5.4-10.3,10.1-13.5c2.7,3,3.9,7.3,3.3,11.3c1.8-9.4,5.1-18.6,9.8-27.1c0.9-1.7,2.7-2.9,4.7-2.9c2.9,0.1,3.9,2.6,4.6,4.9
	c1.6,5.1,2.9,10.4,4,15.6c-0.1-3.2-0.1-6.5,1.5-9.2s5.6-4.3,8.1-2.3c-2.3-5.8,1.8-13.3,7.9-14.5c-2.3-6-1.9-13.1,0.9-18.8
	c0.6-1.3,2.4-1.2,3,0c2.5,5.4,4,11.2,4.3,17.2c-0.3-2,2.6-2.6,4.6-2.3c4,0.5,8,1,12,1.6c1.3,0.2,1.7,1.8,0.6,2.6
	c-3.9,2.5-8.4,4.2-13,4.7c3.7-0.3,5.5,5.4,3.1,8.3c-2.4,2.9-6.7,3.3-10.4,2.9c-3.7-0.4-7.6-1.4-11.2-0.4c2.6,4.7,5.1,9.4,7.7,14.1
	c0.5,0.8,0.9,1.8,0.6,2.7c-0.3,0.9-1.3,1.4-2.2,1.7c-6.1,2.3-12.8,2.9-19.3,1.9c1.9,3.5,6.1,5.2,7.4,9.3c0.5,1.6,0.2,3.4-0.9,4.6
	c-1.5,1.5-3.4,1.1-5.1,0.7c-10.7-3-16.6-1.7-23.8-10.2c0.8,4.5-2.3,1.5-1.5,6.1c0.5,2.9,0.9,6-1.6,8.2c-1.6,1.4-3.9,1.8-6,1.3
	c-4.2-1-6.9-4.4-9.3-7.7c0,4.6-5.7,7.8-10.1,6.3c-4.4-1.5-7-6.4-7-11"/>
<path class="st4" d="M524.5,637.6c9.6-3,19.7-2.2,29.6-3.3c10.1-1.1,19.6-4.7,28.2-10c17.7-10.9,30.2-27.9,41.5-44.9
	c0.3-0.5-0.5-1.1-0.8-0.5c-11.4,17.2-24.1,34.5-42.2,45.2c-8.8,5.2-18.4,8.5-28.6,9.4c-9.4,0.8-18.8,0.3-27.9,3.1
	C523.7,636.9,523.9,637.8,524.5,637.6z"/>
<g>
	<path class="st2" d="M888.8,553.2c-3.6,1.7-8,0.2-10.9-2.6c-2.8-2.8-4.3-6.6-5.4-10.4c1.1-2,3.8-2.4,5.9-1.6c2,0.9,3.5,2.7,4.9,4.4
		c2.5,3.2,4.8,6.6,6.2,10.5"/>
	<path class="st2" d="M911,626.3c-4.5-0.4-6.9-1.6-11-3.6s-7.6-5.7-8.3-10.1c5.8-1.6,12-1.2,17.6,0.9c-4.3-2.5-7.7-6.4-9.6-11
		c3-1.7,6.9-2,10.1-0.7c-7.6-3.3-14.8-7.7-21-13.2c-1.3-1.1-1.9-2.8-1.5-4.5c0.6-2.4,2.9-2.8,5-3c4.6-0.4,9.3-0.5,13.9-0.5
		c-2.7-0.5-5.5-1.1-7.5-3s-2.6-5.5-0.4-7.2c-5.4,0.9-10.9-3.9-10.8-9.3c-5.5,0.9-11.4-0.8-15.7-4.2c-1-0.8-0.6-2.3,0.6-2.5
		c5-1.2,10.2-1.3,15.3-0.5c-1.7-0.2-1.7-2.7-1.1-4.3c1.2-3.3,2.3-6.5,3.5-9.8c0.4-1.1,1.9-1.1,2.3,0c1.4,3.8,2,7.9,1.6,11.9
		c0.4-3.2,5.6-3.6,7.6-1.1c2,2.6,1.5,6.3,0.5,9.3c-1,3.1-2.6,6.1-2.4,9.4c4.4-1.3,8.8-2.6,13.3-3.9c0.8-0.2,1.7-0.5,2.4,0
		c0.7,0.4,0.9,1.3,1,2.2c0.8,5.6,0.1,11.4-1.9,16.6c3.3-1,5.5-4.2,9.2-4.5c1.4-0.1,2.9,0.4,3.7,1.6c1,1.5,0.3,3-0.4,4.4
		c-4.5,8.5-4.5,13.7-12.9,18.2c4,0.2,0.9,2.2,4.8,2.4c2.5,0.1,5.3,0.3,6.6,2.9c0.9,1.6,0.8,3.6,0,5.3c-1.6,3.4-5,5-8.2,6.5
		c3.9,0.9,5.6,6.3,3.5,9.7s-6.7,4.7-10.6,3.9"/>
	<path class="st4" d="M910.7,638.4c-0.8-8.6,1.7-17,2.6-25.5c0.9-8.7-0.3-17.4-3.2-25.6c-6-16.9-18-30.6-30.3-43.2
		c-0.4-0.4-1,0.2-0.6,0.6c12.4,12.8,24.7,26.6,30.4,43.8c2.8,8.4,3.8,17.1,2.7,25.9c-1,8-3.2,15.9-2.5,24.1
		C909.9,639,910.8,639,910.7,638.4z"/>
</g>
<g>
	<path class="st2" d="M51.6,175.4c1.7-3.7,4.3-6.9,7-9.9c1.5-1.6,3.1-3.3,5.2-4s4.8,0,5.7,2c-1.4,3.7-3.2,7.4-6.2,10
		c-3,2.5-7.6,3.6-11,1.7"/>
	<path class="st2" d="M24.9,254.2c-4,0.5-8.4-1.2-10.2-4.7c-1.8-3.6,0.3-8.8,4.2-9.4c-3.1-1.7-6.3-3.6-7.7-7.1
		c-0.7-1.7-0.6-3.7,0.4-5.2c1.6-2.4,4.3-2.4,6.8-2.4c4,0.1,1-2.2,5-2c-8.1-5.1-7.7-10.3-11.5-19.1c-0.6-1.4-1.2-3,0-4.4
		c0.9-1.1,2.4-1.6,3.8-1.3c3.6,0.6,5.6,4,8.8,5.2c-1.7-5.4-1.9-11.2-0.6-16.7c0.2-0.8,0.5-1.7,1.2-2.1c0.7-0.4,1.6-0.1,2.3,0.2
		c4.3,1.7,8.6,3.3,12.9,4.9c0.4-3.2-0.9-6.4-1.7-9.5c-0.8-3.2-1-6.9,1.2-9.3c2.2-2.4,7.3-1.6,7.5,1.7c-0.1-4,0.8-8.1,2.5-11.7
		c0.5-1,2-0.9,2.3,0.2c0.9,3.4,1.8,6.7,2.7,10.1c0.5,1.7,0.3,4.2-1.4,4.2c5.1-0.4,10.3,0.1,15.2,1.7c1.2,0.4,1.4,1.9,0.4,2.6
		c-4.6,3.1-10.6,4.3-16,3c-0.3,5.4-6.2,9.7-11.5,8.5c2,1.9,1.1,5.5-1,7.2s-5,2.1-7.7,2.4c4.6,0.3,9.2,0.8,13.8,1.6
		c2,0.3,4.3,0.9,4.7,3.4c0.3,1.7-0.5,3.3-1.9,4.4c-6.7,4.9-14.1,8.8-22,11.5c3.3-1.1,7.1-0.5,10,1.5c-2.2,4.4-5.9,8.1-10.4,10.2
		c5.7-1.7,12-1.5,17.6,0.5c-1.1,4.4-4.9,7.8-9.1,9.4c-4.2,1.7-6.7,2.7-11.2,2.8"/>
	<path class="st4" d="M24.6,258.4c1.4-8.1-0.2-16.1-0.6-24.2c-0.4-8.8,1.3-17.5,4.7-25.6c7.1-16.7,20.4-29.6,33.8-41.3
		c0.4-0.4-0.1-1-0.6-0.6c-13.3,11.7-26.3,24.3-33.6,40.8c-3.5,8-5.5,16.6-5.2,25.3c0.3,8.6,2.1,17.1,0.6,25.7
		C23.7,258.8,24.5,258.9,24.6,258.4z"/>
</g>
<path class="st2" d="M687.1,40.3c-2.3,3.2-6.9,4.2-10.7,3.2s-7-3.6-9.9-6.3c-0.1-2.2,2.1-4,4.3-4.3s4.4,0.5,6.4,1.4
	c3.8,1.6,7.5,3.3,10.6,6"/>
<path class="st2" d="M742.9,92.5c-4.1,1.9-6.8,2-11.3,2.3s-9.4-1.1-12.3-4.6c4.2-4.2,9.8-7.1,15.7-8c-5,0-9.9-1.7-13.8-4.8
	c1.8-3,5-5.2,8.4-5.6c-8.3,1-16.7,0.7-24.8-0.9c-1.7-0.3-3.1-1.5-3.6-3.1c-0.7-2.4,1.1-3.9,2.8-5.1c3.8-2.6,7.8-5.1,11.8-7.4
	c-2.6,0.9-5.3,1.8-8,1.2s-5-3.5-4-6c-4.2,3.4-11.4,2-14-2.7c-4.4,3.5-10.2,5-15.8,4.2c-1.2-0.2-1.7-1.7-0.8-2.5
	c3.7-3.5,8.2-6.3,13-8c-1.6,0.7-2.8-1.5-3.1-3.2c-0.6-3.4-1.2-6.8-1.9-10.3c-0.2-1.1,1.1-1.8,2-1.1c3.1,2.6,5.6,5.8,7.3,9.5
	c-1.2-3,3-5.9,6-4.7c3,1.2,4.5,4.6,5.1,7.8s0.8,6.6,2.6,9.3c3.2-3.3,6.4-6.7,9.5-10c0.6-0.6,1.2-1.2,2-1.2s1.5,0.7,2,1.3
	c3.5,4.4,5.8,9.8,6.6,15.4c2.3-2.5,2.7-6.4,5.7-8.5c1.2-0.8,2.7-1.1,4-0.4c1.6,0.8,1.8,2.5,1.9,4c0.4,9.6,3,14.1-2.1,22.2
	c3.5-1.8,1.9,1.5,5.4-0.3c2.2-1.1,4.7-2.3,7.2-0.8c1.6,1,2.5,2.7,2.6,4.6c0.3,3.7-1.8,6.8-3.9,9.7c3.8-1.2,8,2.6,7.9,6.7
	c-0.1,4-3.4,7.4-7.2,8.7"/>
<path class="st4" d="M748.7,103.1c-5-7.1-7-15.6-10.5-23.4c-3.5-8-9-14.9-15.6-20.6c-13.6-11.7-30.9-17.5-47.9-22.3
	c-0.5-0.1-0.7,0.7-0.2,0.8c17.2,4.9,34.7,10.8,48.3,22.8c6.6,5.9,11.9,12.9,15.3,21.1c3.1,7.5,5.2,15.4,9.9,22.1
	C748.2,104,749,103.6,748.7,103.1z"/>
<g>
	<path class="st1" d="M827.1,68.4c0.3-10.7-0.6-21.8,3.6-31.6c4.3-9.8,13.9-18,24.6-17.4c13.5,0.8,22.5,14.5,26.4,27.5
		s5.4,27.3,13.9,37.8c7.3,9,18.6,13.8,27.1,21.7c13.6,12.7,18.2,33.9,11.9,51.3c-0.5,1.5-2.6,1.4-3.1,0c-3.4-10-6.5-19.8-19-20.6
		c-13.9-0.9-30.5,6.2-38.7-2c-0.3-0.2-0.7,0.2-0.6,0.6c1,6,6.4,18.2,5.3,23c-0.4,1.6-2.6,1.8-3.3,0.3c-1.5-3.2-7-15-9.3-17.7
		c-1.7-2-4.9-1.1-5.4,1.4l2.3,16c-0.2,1.1-1.5,1.4-2.2,0.5c-12.4-16.6-24.3-44.9-27.7-65.3c-0.9-5.5-2.3-10.8-4.1-16.1
		C827.9,75,827,71.6,827.1,68.4z"/>
	<path class="st2" d="M833.2,31.8c-2.2-2.2-4.4-4.4-6.7-6.6c-0.7-0.7-1.5-1.5-2.5-1.4c-0.9,0-1.6,0.7-2.3,1.3
		c-2,1.9-3.9,3.8-5.9,5.7c-1.5,1.4-3,2.9-3.9,4.8c-1.5,3.5-0.3,7.6-0.5,11.4c-0.7,12.6-16.3,20-18,32.5c-0.4,2.8,0,5.7,0,8.6
		c-0.1,6.6-2.4,13-2.2,19.6c0.2,8.3,4.1,15.9,6.2,23.9c3,11.2,2.9,24.5,11.7,32.1c3.1,2.7,8,4.2,11.2,1.6c1.4-1.2,2.1-2.9,2.7-4.6
		c3.3-9.8,1.9-20.6,4-30.8c2.5-12,9.8-23.4,8.4-35.6c-0.6-6-3.3-11.5-4.8-17.4c-3.3-12.6-0.9-25.8,1.9-38.5"/>
	<path class="st2" d="M870.7,37.2c-0.1-4.1,1.1-8.2,3.3-11.5c0.5-0.7,1.1-1.5,1.9-1.8c1.3-0.5,2.8-0.1,3.8,0.8
		c7.4,6.3,16,8.9,19.7,16.8c1.4,3.1,4.5,5.6,0.4,9.9c-1.1,1.2-1.9,2.5-2.8,3.9c-3.1,4.5-2.5,10.6-0.6,15.7s7,10.9,9.1,15.9
		c4.4,10.5,5.4,29.1,4.6,36.9c-0.4,3.7-4.4,7.6-9.6,9.5c-5.3,1.9-10.5-2.8-14.2-7.1c-4-4.7-8-9.5-10.6-15.1
		c-4.8-10-4.8-21.6-4.8-32.7c0-11.6,0.1-23.1,0.1-34.6"/>
	<path class="st3" d="M875.6,33c0-3.4,2.3-3.4,4.8-0.9c0.7,0.6,1.5,1.2,2.2,1.8s1.5,1.2,2.2,1.8c1.7,1.4,3.6,2.8,5.1,4.3
		c4.4,4.3,0.7,9.4,0,14.4c-0.9,6.7,0.6,13.5,3.5,19.6c1.6,3.4,3.9,6.3,6,9.4s3.5,6.7,4.5,10.3c2.1,7.7,2.5,15.7,2.3,23.6
		c-0.1,3.2-0.9,5.9-3.6,7.9c-0.9,0.6-2.4,1.6-3.5,1.9c-4,1.4-4.3,0.9-6.5-1.6c-5.7-6.4-12.4-13.8-15.7-21.9c-1.9-4.7-0.4-9.2,0.1-14
		c0.6-5,0.3-10-0.2-14.9c-0.9-9.1-2.6-18.3-0.9-27.4c0.4-2.2,1-5.2,2.2-7.2c1.7-2.8,3.5-0.8,5.1,1.7c2.7,4.1,2.7,9,2.6,13.8
		c-0.1,4.2-0.1,8.3,0.9,12.4c1.1,4.4,2.8,8.7,4.4,12.9c3.5,9.3,5.4,18.9,6.1,28.7c0.2,2.2,0.8,5,0.4,7.1c-0.3,1.6,1.4,3.5-2.8,3.3
		c-0.9,0-2.4-1.7-3.1-2.3c-3.3-2.8-5.9-6.3-7.7-10.3c-4.3-9.3-2.9-21.2-3.3-31.3c-0.2-4.8-0.4-9.6-0.6-14.5
		c-0.1-1.9-0.2-3.9-0.2-5.8c0-1-0.5-2.8-0.2-3.8c0.2-0.5,0.1-0.6,1-0.8c2.2-0.7,1.7,3.4,1.8,5c0.6,4.9,1.2,9.8,2,14.6
		c1.6,10.2,3.5,20.3,6.2,30.2c0.6,2.2,2,5,2.1,7.2c0.1,0.2,0.1,0.4,0.2,0.6c-1.4,2.9-2.6,3.1-3.6,0.6c-0.7-1.1-1.3-2.2-1.8-3.4
		c-1.4-3-2.2-6.3-2.4-9.6c-0.1-1,0.3-4.7,0.2-4.8c1,1.3,1,4.8,1.4,6.3c0.4,1.9,0.8,3.9,1.3,5.8c0.1,0.6,1,0.3,0.9-0.2
		c-0.5-2.4-1.1-4.8-1.6-7.3c-0.4-1.6-0.3-4.6-1.7-5.7c-0.2-0.2-0.5-0.2-0.6,0c-1.7,1.6-0.8,5.8-0.5,7.9c0.6,4,1.9,8,4.2,11.4
		c0.8,1.3,2.4,3.6,4.3,3c2.3-0.7,1.2-3.5,0.8-5c-5.8-18.8-8.8-38.4-10.9-57.9c0-0.3-0.2-0.4-0.5-0.5c-2-0.1-3.4,1.3-3.5,3
		c-0.2,3.3,0.3,6.8,0.4,10.1c0.3,8,0.8,16,0.9,24c0.1,6.3-0.2,12.5,1.9,18.5c2.1,6,5.8,13.2,11,16.9c6.5,4.7,6.4-8.1,6.1-12.3
		c-0.5-8.8-1.2-16.9-3.8-25.3c-1.5-4.8-4.6-9-6.1-13.8c-1.7-5.4-2.7-9.6-2.6-15.2c0.1-6.9-0.5-15.1-7.7-18.3
		c-0.2-0.1-0.5-0.1-0.6,0.2c-4.3,7.8-4.7,16.7-3.9,25.4c0.9,10.7,2.5,20.8,0.8,31.5c-1.4,8.8,3.2,14.8,8.2,21.6
		c2.5,3.4,5.2,6.7,8,9.9c1.7,1.9,3.9,5.1,6.8,5.3c2,0.1,4.5-1.8,6.1-2.9c2.4-1.5,2.2-2.7,2.3-5.5c0.4-8,1.5-15.7,0.1-23.6
		c-1.3-7.7-5.4-13.7-9.7-20.1c-5.1-7.6-8.2-17.5-6.1-26.6c0.8-3.5,4.7-7.2,2.8-10.7c-0.9-1.6-3.2-4.2-4.6-5.4
		c-2.2-1.8-5-2.3-7.2-4.1c-1.6-1.3-4.4-4.1-6.8-2.6c-1.5,1-1.7,3-0.3,4C875.6,34.1,876,33.3,875.6,33z"/>
	<path class="st2" d="M929.2,113.8c-0.9-1.9,0.9-5.5,2.6-6.7c1.7-1.2,3.9-1.6,6-2c1.4-0.2,2.9-0.4,4,0.4c1.2,0.8,1.5,2.5,1.9,3.9
		s1.5,2.9,2.9,2.8c0.7-0.1,1.2-0.5,1.8-0.9c4.5-3.3,9.8-6,15.4-5.8c2.5,0.1,5.6,1.4,5.8,3.9c0.2,1.7-1.1,3.3-1.9,4.8
		c-0.8,1.5-1.2,3.1-1.2,4.8c0,0.7,0.1,1.4,0.4,2c0.4,0.6,1.1,0.9,1.7,1.3c3.2,1.8,5.8,4.4,7.6,7.7c1,1.8,1.3,4.6-0.6,5.3
		c-1.3,0.5-2.7-0.4-4-0.4c-2.4,0-3.9,2.5-5.9,3.8c-4,2.6-9.5,0-12.6-3.6s-5.1-8.2-8.7-11.3c-1.4-1.2-2.9-2.1-4.1-3.5
		c-1.3-1.5-1.9-3.5-2.8-5.2c-0.9-1.7-2.3-3.5-4.2-3.9s-4.3,1.1-4,3.1"/>
	<path class="st3" d="M831.8,35.1c-1-7.7-10.6-6.5-14-1.3c-2.8,4.3-2.5,9.5-2.8,14.4c-0.4,6.4-2.8,11.9-6.2,17.3
		c-6,9.5-11.7,17.8-12.6,29.4c-1,11.9,1.8,24.1,4.4,35.6c2.6,11.4,4.1,22.9,13,30.9c0.3,0.3,2.9,0.4,3.1,0
		c3.8-10.8,0.8-22.4,2.9-33.4c2-10.6,11.4-18,12.6-28.8c0.5-4.3-0.9-8-3.3-11.6c-3.6-5.2-7.1-9.3-6.6-16c0.4-5.8,2.7-11.3,3.5-17
		c0.8-5.6,0.5-11.3-0.6-16.9c-0.1-0.4-0.7-0.5-1-0.3c-2.8,2.6-2.6,6.8-3.2,10.3c-0.8,5-2.2,10-3.9,14.8c-1.8,5.2-4.1,10.2-6.9,14.9
		c-2.6,4.4-6,8.4-8.1,13.1c-4,8.7-1.5,18.5,0.9,27.3c1.6,5.7,3.2,11.5,4.8,17.2c0.7,2.4,1,7,4.1,7.5c0.3,0.1,3.3-0.9,3.3-1.2
		c1-7,0.4-13.7,1.5-20.7c0.6-3.7,0.3-7,2.2-10.4c1.4-2.6,3.3-4.8,4.8-7.3c4.5-7.7,1.7-17.6-7.2-20.4c-0.2-0.1-0.4,0-0.6,0.2
		c-9.5,10.2-7.9,24.5-6,37.2c0.1,0.6,0.9,0.5,1.1,0c2-5.1,4-10.3,6-15.4c1.3-3.2,4.7-8.5,3.5-12.1c-0.6-1.8-2.6-3.3-4.5-2.3
		c-2.5,1.4-2.5,7.1-3,9.5c-0.1,0.7,1,1,1.1,0.3c0.3-1.3,0.5-2.5,0.7-3.8c0.1-0.6,0.3-1.3,0.4-1.9c0.1-1.8,1.5-1.9,4.2-0.4
		c0.7,2.1-2.3,7.1-3.1,9c-2.2,5.6-4.4,11.2-6.6,16.8c0.4,0,0.7,0,1.1,0c-1.2-7.8-2.4-15.9-0.7-23.7c0.7-3.1,1.8-6.1,3.5-8.8
		c1.2-1.8,2-3.5,4.5-2.6c1.6,0.5,3,2.2,3.9,3.4c4.6,6.1,2,12.3-1.8,17.9c-3.5,5.1-5.4,10-6.3,16.2c-0.5,3.2-0.9,6.5-1.3,9.8
		c-0.2,1.7-0.5,3.4-0.7,5c-0.2,1.5,0,4.9-1.8,2.9c-0.9-1-1.1-3.7-1.5-5c-0.5-1.7-0.9-3.2-1.4-4.8c-1-3.6-0.5-7.1-1.5-10.7
		c-2-7.3-3.8-13.8-2.3-21.4c1.3-6.7,3.8-13.5,7.1-19.2c3.5-6,6.3-12.3,8.4-18.9c1.1-3.4,1.9-6.8,2.6-10.3c0.7-3.5,0.4-8.6,3.1-11.1
		c-0.3-0.1-0.6-0.2-1-0.3c1.3,6.6,1.4,13.2,0,19.8c-1.1,5-2.9,9.9-2.9,15.1c-0.1,11,9.5,15.8,7.1,27.2c-2.2,10.3-8.3,18.2-9.9,28.8
		c-1.6,10.7,1,21.6-2.6,32c0.3-0.1,0.6-0.2,1-0.3c-9.1-8.2-12.6-20.1-15.1-31.6c-2.8-12.7-5.9-26.2-3.5-39.2
		c2.3-11.9,12.4-18.7,17.1-29.5c2.1-4.8,2.8-12.4,3.1-17.6c0.2-3.4-1.2-5.3,0.7-8.2c2.6-4,11-6,11.8,0.7
		C830.7,35.8,831.9,35.8,831.8,35.1z"/>
	<path class="st2" d="M854.4,53.6c-3,0-5.8,0.2-7.2,0.4c-2.4,0.3-4.8,1.4-6,3.5c-0.9,1.7-1,3.7-0.8,5.6c0.1,1.3,0.4,2.8,1.6,3.4
		c0.7,0.3,1.4,0.3,2.2,0.2c1.9-0.1,3.7-0.2,5.6-0.4c4.7-0.3,9.8-0.8,13.2-4.1c1.9-1.8,2.9-5.1,1.1-7C862.6,54,858.4,53.6,854.4,53.6
		z"/>
	<path class="st2" d="M844,42.3c-0.6,1-1,2.1-0.8,3.2c0.2,1.1,1.2,2.2,2.4,2c0.4-0.1,2.2-0.4,2.5-0.6c1.6-1,2.1-3,0.6-4.9
		C847.4,40.5,845,40.7,844,42.3z"/>
	<path class="st2" d="M855.9,43.3c-0.3,0.5-0.5,1.1-0.4,1.7s0.6,1.1,1.2,1c0.2,0,1.1-0.2,1.3-0.3c0.8-0.5,1.1-1.6,0.3-2.5
		C857.6,42.3,856.4,42.4,855.9,43.3z"/>
	<path class="st2" d="M839.9,40.2C839.8,40.3,839.9,40.3,839.9,40.2s0.1-0.1,0.1-0.2c0.1-0.1,0.1-0.3,0.2-0.4
		c0.1-0.3,0.3-0.5,0.4-0.8c0.3-0.5,0.6-1,1-1.5c0-0.1,0.1-0.1,0.1-0.2c-0.1,0.1-0.1,0.1,0,0s0.2-0.2,0.3-0.3
		c0.2-0.2,0.4-0.4,0.6-0.6c0.4-0.4,0.9-0.8,1.3-1.2c0.5-0.4,0.4-1.3,0-1.7c-0.5-0.5-1.2-0.4-1.7,0c-2,1.7-3.5,3.8-4.5,6.3
		c-0.2,0.6,0.3,1.3,0.8,1.5C839.1,41.2,839.6,40.8,839.9,40.2z"/>
	<path class="st2" d="M860.7,35.8c0.4,0.1,0.7,0.1,1.1,0.3c0.1,0,0.2,0.1,0.3,0.1c0.2,0.1,0,0-0.1,0c0,0,0.1,0,0.1,0.1
		c0.2,0.1,0.4,0.2,0.5,0.3c0.2,0.1,0.3,0.2,0.5,0.3l0.1,0.1c0.2,0.1,0,0-0.1-0.1c0.1,0,0.2,0.1,0.2,0.2c0.1,0.1,0.3,0.3,0.4,0.4
		c0.1,0.1,0.1,0.1,0.2,0.2c0.1,0.1,0.3,0.4,0.1,0.1c0.2,0.3,0.4,0.5,0.7,0.5c0.3,0.1,0.7,0,0.9-0.1c0.3-0.2,0.5-0.4,0.5-0.7
		c0.1-0.3,0.1-0.7-0.1-0.9c-0.6-0.8-1.3-1.5-2.2-2c-0.8-0.5-1.7-0.8-2.6-0.9c-0.3-0.1-0.6-0.1-0.9,0.1c-0.2,0.1-0.5,0.4-0.5,0.7
		c-0.1,0.3-0.1,0.6,0.1,0.9C860.1,35.5,860.4,35.7,860.7,35.8z"/>
</g>
<g>
	<path class="st1" d="M37.2,462.3c11-16.4,9.3-33.8,10.4-53.5c1.1-19.8-1-39.5-2-59.3c-0.3-5.9-0.5-11.9,0.8-17.7
		c4-17.7,29.1-32.7,47.2-31.4c18.1,1.3,34.2,14.4,41.7,30.9c14.2,31.6-0.8,70,11.1,102.5c3.4,9.4,9.1,18.1,10.4,28
		c-2.4,0.8-5.3,0.3-7.3-1.2c-3.7,3.9-10,5-14.8,2.5c-0.7,4.6-6.4,6.8-11.1,6.3c-4.7-0.5-9.1-2.6-13.8-2.4c-4.9,0.2-9.5,2.9-14.4,3.2
		c-3.5,0.2-7-0.9-10.4-1.4s-6.9-0.3-10.4-0.2c-15.9,0.7-31.7,1.3-47.6,2c1.4-3.4,4.8-6,8.5-6.4"/>
	<path class="st5" d="M81.8,343.6c-0.4,0.6-0.7,1.4-0.6,2.2c0.1,0.7,0.8,1.4,1.6,1.3c0.3,0,1.4-0.3,1.7-0.4c1-0.7,1.4-2,0.4-3.2
		C84,342.4,82.5,342.6,81.8,343.6z"/>
	<path class="st5" d="M95.4,342.1c-0.4,0.6-0.7,1.4-0.6,2.2c0.1,0.7,0.8,1.4,1.6,1.3c0.3,0,1.4-0.3,1.7-0.4c1-0.7,1.4-2,0.4-3.2
		C97.6,340.9,96.1,341,95.4,342.1z"/>
	<path class="st6" d="M65.6,472.8c6-8,5.9-18.8,5.6-28.8c-0.5-15.2-1.1-30.4-1.6-45.6c-0.3-9.1-0.6-18.6,2.7-27.1
		c3.3-8.5,11.1-16,20.3-15.9c8.8,0.1,16.3,7.1,19.7,15.2c3.4,8.1,3.7,17.1,4.1,25.9c1,24.4,2.3,44.3,13.3,66.1
		c0.7,1.3,2.8,3.3,2.6,4.7c-0.4,2.9-6.6,3.2-9.5,3.7C104.2,474.5,84.5,473.7,65.6,472.8z"/>
	<path class="st5" d="M89.3,365.7c0.4,0.8,0.9,1.6,1.9,1.6c0.6,0,1.2-0.2,1.8-0.5c4.2-2.1,7-6.7,6.3-11.4c-0.1-0.7-0.4-1.5-0.9-2
		c-0.8-0.7-1.9-0.7-2.9-0.6c-4.4,0.3-8.9,1.1-13.1,2.3c-0.6,0.2-1.3,0.4-1.8,0.8c-1.4,1.2-0.8,3.7,0.6,4.9c2.1,1.6,5.6,0.6,7.2,3
		C88.8,364.3,89,365,89.3,365.7z"/>
	<path class="st1" d="M76.5,305.3c1.9-4.7,0-14.2-2.6-18.6s-6.5-7.8-10.3-11.2c-5.7-5.1-11.4-10.1-17.1-15.2
		c-0.6-0.5-0.2-1.5,0.6-1.5c4.5,0.1,8.8,1.7,13,3.5c10.9,4.8,20.8,11.9,28.9,20.6c0.1,0.1,0.2,0,0.2-0.1c-1.1-3.5-1.9-7.1-2.3-10.8
		c-0.1-0.5,0.6-0.7,0.8-0.2c1.5,3.9,2.7,7.9,3.4,12c0.1,0.4,0.6,0.5,0.8,0.1l2.9-5.8c0.3-0.6,1-0.7,1.5-0.3c1.3,1.2,2.3,2.8,2.9,4.5
		c0.1,0.3,0.5,0.3,0.6,0.1c4.3-7.8,11.7-13.8,20.2-16.5c2-0.6,4,0.8,4,2.8c0,1.9-0.6,3.9-1.4,5.6c-7.7,16.1-31.1,20.1-30.2,44"/>
	<path class="st7" d="M77.5,302c7.1,0.3,14.2-0.1,21.2-1.1c0.1-0.6,0.2-1.3,0.4-1.9c-7.7,0.1-15.4,0.3-23.2,0.4
		c0.2,0.3,0.4,0.7,0.6,1"/>
	<path class="st5" d="M87.5,377.1c7.4,2.7,5.6-9.6,5.2-11.7c-0.1-0.5-1-0.5-1,0c-0.4,2.7,1.8,14.7,8.9,11.1c0.5-0.3,0-0.9-0.5-0.6
		c-5.9,2.9-7.6-8.5-7.3-10.5c-0.3,0-0.7,0-1,0c0.2,1.4,1.6,12.9-3.7,11C87.4,376.2,86.9,376.8,87.5,377.1z"/>
	<path class="st3" d="M111.8,312c5.8,0.9,9,6.2,11.4,11c2.5,5,4.5,10.2,6.1,15.5c3.1,10.3,4.6,21,5.4,31.7c1.7,21,0.4,42.2,3.7,63
		c1.8,11.6,5.7,22.9,11,33.3c0.3,0.6,1.2,0.1,0.9-0.5c-20.6-40.7-4.8-88.4-18.9-130.8c-1.8-5.4-5.4-10.9-8.3-15.9
		c-2.4-4-6.2-7.6-11-8.3C111.5,310.9,111.2,311.9,111.8,312z"/>
	<path class="st3" d="M120.2,349.3c3.8,39.6-4.2,82.3,15.7,118.6c0.3,0.6,3.3,0.1,3-0.5c-19.8-36.1-13.8-78.7-17.6-118
		C121.2,348.6,120.2,348.6,120.2,349.3z"/>
	<path class="st3" d="M60.9,470.9c5.1-25.9,5.2-51.6,3.7-77.8c-0.7-12.2-4.6-25.2-4.1-37.4c0.5-11.2,2.8-22.6,10.6-31.1
		c0.5-0.5-0.3-1.2-0.7-0.7c-15.2,16.5-11.1,42.8-9.9,63.1c1.6,27.9,3.4,56-2,83.6c-0.1,0.6,0.9,0.9,1,0.3L60.9,470.9L60.9,470.9z"/>
	<path class="st3" d="M76.7,304.5c-8.1,6.1-15.3,13.5-20.4,22.4c-5.5,9.5-7.9,20.3-8.5,31.2c-0.7,12.3,0.7,24.7,0.9,37
		c0.2,12.7-0.8,25.4-3.2,37.9c-2.7,14.1-7,27.9-12.8,41.1c-0.2,0.4,0.2,1,0.7,0.7c2.4-1.5,4.8-2,7.6-1.7c0.7,0.1,0.7-0.9,0-1
		c-3-0.4-5.6,0.2-8.1,1.8c0.2,0.2,0.5,0.5,0.7,0.7c9.4-21.3,14.9-44.3,16-67.6c1.1-23.5-5-48.7,3.6-71.3c4.7-12.3,13.6-22.4,24-30.2
		C77.8,305,77.3,304.1,76.7,304.5z"/>
	<path class="st3" d="M51.5,471c5.2-37,4.6-74.5,2.4-111.8c0-0.7-1.1-0.7-1,0c2.3,37.2,0.1,74.6-5.1,111.5c-0.1,0.7,1.6,0.9,1.7,0.3
		H51.5z"/>
	<path class="st3" d="M93.6,305.5c-0.7,10.7,7.2,16.5,14.5,22.2c8.9,7,15.2,17.1,17.1,28c2,11.5,1.9,23.3,3,34.8
		c1.1,12.5,2.9,25,5.2,37.3c2.7,14.5,6.3,28.7,10.6,42.8c0.2,0.6,1.2,0.4,1-0.3c-7.6-24.9-12.8-50.6-15.4-76.5
		c-1.1-11.2-1.3-22.5-2.6-33.6c-1.1-9.3-3.4-18.7-9-26.3c-7-9.4-24.1-14.6-23.2-28.5C94.7,304.8,93.7,304.8,93.6,305.5z"/>
	<path class="st3" d="M67.5,375.1c-0.8-11.9-1.7-24.5,2.7-35.9c2.3-5.9,6.2-10.9,8.9-16.5c2.3-4.8,3.6-9.9,4.2-15.2
		c0.1-0.7-1-0.7-1,0c-0.7,6.8-2.9,13.1-6.4,19c-2.8,4.8-5.8,9.4-7.5,14.7c-3.5,10.9-2.7,22.7-1.9,34
		C66.5,375.7,67.5,375.7,67.5,375.1z"/>
</g>
<path class="st1" d="M262.4,80.9c-3.1-5.7,1.1-9-4.3-19.2c-1.8-3.3-3.5-6.7-5.4-9.9c-4.9-8.2-5.1-18-4.2-27.4c0.6-6,7.6-9,12.3-5.3
	c2.7,2.2,5.1,4.9,7.3,7.6c4.8,6.1,8.6,14.9,16.3,15.5c7.3,0.6,15.8-6.7,20.8-12c3.2-3.4,5.3-6.2,8.2-8.4c2.9-2.3,7.1-0.9,8.1,2.6
	c2.4,8.9,2.7,17.4-1.7,25.9c-2.2,4.2-5.1,8.3-5.5,13c-0.5,6.3,0.6,13-1.9,18.7c-1,2.2,0.2,3.8-1.7,5.5c-5.2,4.8-10.6,9.6-17,12.7
	c-2,1-4.2,1.8-5.9,3.2c-1.7,1.4-3,3.4-4.4,5c-6.9,7.8-18.6,9-29.1,9.3c-12.2,0.4-25.6,0.1-35.1-7.5c-10.6-8.4-13.5-23.2-14.9-36.4
	c-0.2-1.6,0-3.3,0.7-4.7c2.6-5.8,9.2-4.2,13-1c3.1,2.6,5.6,6.2,9.2,8.1c4.2,2.2,9.2,1.7,13.9,1.2c6.6-0.7,13.3-1.5,19.9-2.2"/>
<path class="st1" d="M212.5,96c-1,5.2,0.4,10.5,1.9,15.6c2.1,7.6,4.5,15.5,9.8,21.3c5.3,5.8,14.8,8.7,21.4,4.4
	c0.9-0.6,1.8-1.4,2.1-2.4c0.7-1.9-0.8-4.1-2.7-4.9c-1.9-0.8-4-0.6-6.1-0.5c0-8.5,0-17-0.1-25.5c0-0.8,0-1.6-0.5-2.1
	c-0.5-0.6-1.3-0.7-2.1-0.8c-4.5-0.4-9.1-0.9-13.6-1.3"/>
<path class="st5" d="M206.3,66.4c2.8-4.2,8.6-1.8,11.7,0.6c2.5,2,4.6,4.5,7.3,6.3c5.5,3.8,12.7,4.2,19.3,3.6c6.7-0.7,13.3-2.3,20-2
	c0.7,0,1.4,0.1,2,0.5c0.6,0.5,0.8,1.4,1,2.3c0.3,1.9,0.6,3.8,0.2,5.7s-1.5,3.7-3.3,4.3c-1.9,0.6-4-0.1-5.8,0.6
	c-2.3,0.9-3,3.5-3.7,6.1c-1,3.4-3.7,6.1-7.2,6.9c-7.6,1.6-8.8-8-14.5-8.7c-3.1-0.3-5.7,2.3-8.6,3.6c-6.2,2.9-13.9-0.9-17.4-6.8
	c-2.9-4.9-3.5-10.8-3.2-16.5c0.1-2.2,0.9-4.3,2.1-6.1L206.3,66.4z"/>
<path class="st1" d="M260.3,99c-0.7,11-0.4,22,0.9,33c0.2,1.4,0.4,2.9,1.5,3.8c1,0.8,2.5,0.7,3.8,0.6c3.1-0.2,6.2-0.5,9.3-0.8
	c2.5-0.2,5.6-0.8,6.3-3.2c0.6-1.9-0.7-3.9-2.4-4.9c-1.7-0.9-3.8-1-5.8-1.1c1.3-8.4,2.6-16.8,3.8-25.2c-3.2-0.1-6.3-0.2-9.5-0.3"/>
<path class="st1" d="M271.1,106.2c0.9,2.5,1.7,5,2.6,7.5c1.4,4,5.6,8.1,8.5,11.1s7.8,4.5,11.5,2.4c1.8-1.1,3.1-3.3,2.3-5.2
	c-0.3-0.8-0.9-1.3-1.6-1.8c-2.5-1.9-5.8-2.6-8.8-1.8c0.1-5.2,0.3-10.4,0.5-15.7c0-0.6,0-1.2-0.3-1.7c-0.5-0.7-1.5-0.7-2.3-0.6
	c-6.6,0.3-13.2,0.6-19.9,0.9"/>
<path class="st6" d="M259.3,75.8c0.8,4,1.9,8.3,4.9,11c2,1.8,4.7,2.8,7.1,3.9c5.9,2.8,11.1,7,16.2,11.2c0.7,0.6,1.6,1.5,1.2,2.4
	c-0.1,0.3-0.4,0.6-0.7,0.8c-1.5,1.1-3.6,1.2-5.5,0.7c-1.8-0.5-3.4-1.6-5-2.7c-3.3-2.3-6.6-4.5-10-6.8c-4.8-3.2-9.8-6.8-11.9-12.1
	c-1.4-3.5-0.8-8.5,2.7-10"/>
<path class="st5" d="M279,88.5c-7.2-0.2-15.8-1.7-18.6-8.2c-1.5-3.5-0.9-7.5-1.1-11.3c-0.5-8.1-7.2-15.4-10-23
	c-3.2-8.8-3.3-18.3-2.3-27.6c0.1-0.7,1.1-1.5,1.7-2.1c0.8-0.8,1.8-1.2,2.9-1.3c5.9-0.4,11.9,2.1,15.8,6.5
	c5.1,5.7,7.1,14.6,14.1,17.7c7.5,3.3,15.9-2.3,21.3-8.5c3.8-4.4,7.4-9.5,12-12.9c3-2.2,7.3-0.7,8.3,2.9c2.3,8.3,1.8,17.5-1.5,25.5
	c-2.1,5-5.2,9.7-6,15c-0.6,3.6-0.1,7.4-1,11c-2.1,7.5-10.1,11.7-17.5,14.1c-5.5,1.8-11.1,3.1-16.8,3.9"/>
<path class="st1" d="M293.3,60c1.1,6.1,5.7,12,11.9,11.9c4.5-0.1,10-2.3,12.9,1.2c1.5,1.8,1.4,4.5,1.1,6.9
	c-0.9,5.8-3.9,12.3-9.7,13.2c-1.4,0.2-2.9,0-4.2,0.6c-1.1,0.5-1.9,1.5-2.9,2.3c-5.3,4.2-12.9-0.3-19.7-0.3c-3.1,0-6.1,0.9-9.3,1.2
	c-3.1,0.2-6.6-0.5-8.4-3c-2.3-3.2-1-7.9,1.8-10.7s6.5-4.5,9.8-6.6c7-4.5,12.4-11.5,14.9-19.5C291.4,57.2,292.6,56.1,293.3,60z"/>
<path class="st5" d="M299.8,69.3c-3.3-0.1-6.6-0.1-9.9,0.1c-1,0.1-2.2,0.2-2.9,0.9c-0.4,0.4-0.6,1.1-0.8,1.7
	c-0.8,2.5-1.4,5.5,0.4,7.4c1.1,1.1,2.7,1.4,4.2,1.5c2.8,0.2,5.7-0.2,8.4-0.9c3.6-0.9,7.8-3.1,7.9-6.9c0.1-2.3-1.5-3.2-4.5-3.6
	L299.8,69.3z"/>
<path class="st1" d="M278.3,60.9c-0.5,0.8-0.9,1.8-0.7,2.7c0.1,0.9,1,1.8,2,1.7c0.3-0.1,1.8-0.3,2.1-0.5c1.3-0.8,1.7-2.5,0.5-4.1
	C281.1,59.4,279.1,59.6,278.3,60.9z"/>
<path class="st1" d="M299,60.2c-0.5,0.8-0.8,1.8-0.7,2.7c0.1,0.9,1,1.8,2,1.6c0.3-0.1,1.8-0.3,2.1-0.5c1.3-0.8,1.7-2.5,0.5-4.1
	C301.7,58.6,299.8,58.8,299,60.2z"/>
<path class="st5" d="M307,79.9c-0.3,0.2-0.8-0.1-0.9-0.4c-0.1-0.4,0.4-0.6,0.7-0.5c0.4,0.1,0.7,0.5,0.4,0.9
	c-0.2,0.4-0.7,0.5-1.1,0.3c0,0.1,0.1,0.1,0.1,0.2c0-0.2,0.1-0.5,0.4-0.4c0.3,0,0.4-0.4,0.1-0.4c-0.4-0.1-0.7,0.1-0.9,0.4
	c-0.2,0.3-0.1,0.6,0.3,0.7c0.6,0.2,1.4-0.2,1.5-0.8c0.2-0.6-0.3-1.2-0.9-1.3c-0.6-0.1-1.2,0.3-1.1,0.9c0.1,0.7,0.9,1.2,1.5,0.8
	C307.4,80.1,307.2,79.7,307,79.9z"/>
<path class="st5" d="M312.6,86.6c-0.3-0.2,0.1-0.9,0.4-0.6c0.2,0.2,0.1,0.7-0.2,0.7c-0.3,0-0.3,0.4,0,0.4c0.7,0,1.1-1.1,0.4-1.5
	c-0.8-0.4-1.5,0.8-0.9,1.3C312.5,87.1,312.8,86.8,312.6,86.6z"/>
<path class="st5" d="M306.7,84.6c-0.1,0-0.2,0-0.1-0.1C306.6,84.4,306.7,84.5,306.7,84.6c0,0.2,0.5,0.2,0.4-0.1
	c0-0.4-0.6-0.6-0.9-0.3c-0.3,0.4,0.1,1,0.6,0.8C307,84.9,306.9,84.5,306.7,84.6z"/>
<path class="st5" d="M283,79.9c0.3,0.2,0.8-0.1,0.9-0.4c0.1-0.4-0.4-0.6-0.7-0.5c-0.4,0.1-0.7,0.5-0.4,0.9c0.2,0.4,0.7,0.5,1.1,0.3
	c0,0.1-0.1,0.1-0.1,0.2c0-0.2-0.1-0.5-0.4-0.4c-0.3,0-0.4-0.4-0.1-0.4c0.4-0.1,0.7,0.1,0.9,0.4c0.2,0.3,0.1,0.6-0.3,0.7
	c-0.6,0.2-1.4-0.2-1.5-0.8c-0.2-0.6,0.3-1.2,0.9-1.3c0.6-0.1,1.2,0.3,1.1,0.9c-0.1,0.7-0.9,1.2-1.5,0.8
	C282.6,80.1,282.8,79.7,283,79.9z"/>
<path class="st5" d="M277.3,86.6c0.3-0.2-0.1-0.9-0.4-0.6c-0.2,0.2-0.1,0.7,0.2,0.7c0.3,0,0.3,0.4,0,0.4c-0.7,0-1.1-1.1-0.4-1.5
	c0.8-0.4,1.5,0.8,0.9,1.3C277.4,87.1,277.1,86.8,277.3,86.6z"/>
<path class="st5" d="M283.3,84.6c0.1,0,0.2,0,0.1-0.1C283.4,84.4,283.3,84.5,283.3,84.6c0,0.2-0.5,0.2-0.4-0.1
	c0-0.4,0.6-0.6,0.9-0.3c0.3,0.4-0.1,1-0.6,0.8C282.9,84.9,283,84.5,283.3,84.6z"/>
<path class="st1" d="M271.2,59.3c0.8-1.6,1.5-3.3,2-5.1c0.5-1.7,1.1-3.3,1.9-4.9c-0.4-0.2-0.9-0.5-1.3-0.8c-0.6,1.5-1.1,3-1.6,4.5
	c-0.4,1.5-1.2,2.8-2.1,4.1c0.5,0.2,0.9,0.4,1.4,0.6c0.3-1.1,0.8-2.1,1.5-2.9c0.3-0.4,0.7-0.8,1.1-1.1l0.3-0.2
	c-0.2-0.2-0.3-0.2-0.3-0.1v0.1c0,0.2,0,0.5,0,0.8c-0.2,2.3-1.3,4.5-2.8,6.2c0.4,0.2,0.8,0.5,1.2,0.7c0.9-2.4,2.2-4.6,3.9-6.5
	c0.6-0.7-0.4-1.8-1.1-1.1c-1.9,2.1-3.3,4.5-4.3,7.1c-0.2,0.7,0.8,1.3,1.2,0.7c1.1-1.2,1.9-2.5,2.5-4c0.3-0.7,0.5-1.5,0.6-2.3
	c0.1-0.7,0.3-1.6,0.1-2.3c-0.2-0.7-0.8-1.2-1.5-1s-1.3,0.8-1.8,1.3c-1.1,1.1-1.9,2.5-2.3,4c-0.2,0.8,0.9,1.3,1.4,0.6
	c0.9-1.3,1.7-2.7,2.2-4.2c0.4-1.5,0.9-2.9,1.5-4.4c0.4-0.9-0.9-1.6-1.3-0.8c-0.8,1.6-1.5,3.3-2,5.1c-0.5,1.7-1.1,3.3-1.9,4.9
	C269.5,59.5,270.8,60.2,271.2,59.3z"/>
<path class="st1" d="M310.3,54.8c-1.5-1-2.8-2.1-4.1-3.3c-1.3-1.3-2.7-2.4-4.2-3.4c-0.3-0.2-0.8-0.1-1,0.3c-0.2,0.4-0.1,0.8,0.3,1
	c1.2,0.9,2.3,2,3.4,3.1c1.2,1.1,2.6,1.9,4,2.6c0.7,0.4,1.5-0.6,0.9-1.2c-1.1-1.1-2.5-1.9-4.1-2.3c-0.7-0.2-1.6-0.5-2.3-0.2
	c-0.8,0.4-0.8,1.2-0.5,2c0.3,0.7,0.8,1.3,1.3,1.8s1,1,1.6,1.5c1.2,1,2.6,1.7,4,2.1c0.7,0.2,1.3-0.8,0.7-1.2c-2.1-1.8-4.6-3.2-7.3-4
	c-0.9-0.3-1.3,1.2-0.4,1.5c2.4,0.8,4.7,2,6.6,3.7c0.2-0.4,0.5-0.8,0.7-1.2c-2.1-0.7-4.1-2-5.4-3.8c-0.1-0.2-0.3-0.4-0.4-0.6
	l-0.1-0.3l0,0c0,0.1-0.1,0.2-0.1,0.2l0.4,0.1c0.1,0,0.3,0.1,0.4,0.1c0.3,0.1,0.6,0.1,0.9,0.2c1.1,0.4,2.1,1,3,1.8
	c0.3-0.4,0.6-0.8,0.9-1.2c-1.4-0.7-2.7-1.4-3.8-2.5c-1.2-1.1-2.3-2.2-3.6-3.2c-0.2,0.4-0.5,0.9-0.8,1.3c1.5,1,2.8,2.1,4.1,3.3
	c1.3,1.3,2.7,2.4,4.2,3.4C310.4,56.6,311.1,55.3,310.3,54.8z"/>
<g>
	<path class="st4" d="M70.7,537.7c-0.6,0.8-0.4,1.6,0.2,2.1c0.1,0.1,0.9,0.2,1.1,0.3c0.5,0.1,0.9-0.4,1-0.8c0.1-0.5-0.1-1-0.3-1.4
		C72.3,537.1,71.3,537,70.7,537.7z"/>
	<path class="st1" d="M158.6,605.2c3.6,2.2,5.8,6.2,6.7,10.3c2.1,9,1,18.8,1.2,28c0.1,3.4,0.1,8.3-3.4,10.1c-2,1.1-4.7,0.5-6.8,0
		c-1.5-0.4-3.2-0.9-4-2.3c-0.6-1-0.6-2.2-0.5-3.3c0.3-10.3,0.8-20.7,1.5-31"/>
	<path class="st1" d="M188.7,624.5c1.3,7,2.1,14.2,2.2,21.3c0,1.4,0.4,2.8,0,4.1c-0.7,2.6-3.9,2.6-6.1,2.6c-4.7,0.1-6.1-4.7-7.3-8.4
		c-1.8-5.3-2.3-10.9-2.2-16.5"/>
	<path class="st8" d="M185.4,652.4c-0.2-1.4-0.4-2.8-0.5-4.2c-0.1-0.5,0.7-0.5,0.8,0c0.2,1.4,0.4,2.8,0.5,4.2
		C186.2,652.9,185.4,652.9,185.4,652.4z"/>
	<path class="st8" d="M189.1,651.9c-0.2-1.8-0.4-3.5-0.7-5.3c-0.1-0.5,0.7-0.5,0.8,0c0.2,1.8,0.5,3.5,0.7,5.3
		C189.9,652.4,189.1,652.4,189.1,651.9z"/>
	<path class="st1" d="M88.6,618.7c1.1,10,0,20.2-3.4,29.7c-0.8,2.1-1.9,4.5-4.1,5.1s-4.6-1-5.6-3.1s-1-4.5-1-6.8
		c0.1-7.6,0.1-15.2,0.1-22.8"/>
	<path class="st8" d="M78.8,652.9c0.2-1.3,0.4-2.7,0.7-4c0.1-0.5,0.8-0.3,0.8,0.2c-0.2,1.3-0.4,2.7-0.7,4
		C79.5,653.6,78.7,653.4,78.8,652.9z"/>
	<path class="st8" d="M80.8,652c0.5-0.8,0.7-1.6,0.6-2.5c0-0.5,0.8-0.5,0.8,0c0,1-0.2,2-0.7,2.9C81.3,652.9,80.6,652.5,80.8,652z"/>
	<path class="st1" d="M77.2,532.6c1.2,3.8,6.8,4.5,10.1,2.2c3.3-2.3,4.7-6.3,6-10.1c2.1-6.2,4-13.1,1.5-19.1
		c-0.5-1.1-1.3-2.2-2.4-2.1c-0.9,0.1-1.6,0.9-2.1,1.7c-3.4,5.1-6.8,10.3-10.2,15.4c-2.2,3.2-4.4,7.1-3.1,10.8"/>
	<path class="st1" d="M66.5,521.6c1,1.7,3.7,2.1,5.2,0.7c1.1-1,1.3-2.6,1.3-4.1c0.1-4.2-0.9-8.5-2.9-12.2c-0.9-1.6-2.6-3.3-4.2-2.4
		c-1.2,0.6-1.3,2.2-1.3,3.6c0,4.5,0,8.9,0,13.3"/>
	<path class="st1" d="M22.7,551.8c-0.6,7.2-1,15.1,3,21.1c5.5,8.1,16.8,9.4,26.6,9c11.4-0.4,23.3-2.2,32.5-8.9
		c2-1.5,3.9-3.2,4.8-5.5c0.8-1.9,0.9-4.1,0.8-6.2c-0.2-10.7-2.6-21.4-7-31.1c-1.5-3.2-3.2-6.5-6.2-8.5c-4-2.8-9.2-2.8-14.1-2.4
		c-5,0.4-10.4,1.3-13.6,5c-3.2,3.7-4.2,9.8-8.9,11c-1.4,0.3-2.8,0.2-4.2,0.1c-5.3-0.4-10.5,6.5-12.2,11.5"/>
	<path class="st1" d="M88,566.9c23.8-0.8,47.7-1.5,71.5-1c8.2,0.2,17.3,0.9,22.9,7.7c2.6,3.1,4.1,7.1,5.5,11.1
		c2.4,7.1,4.3,14.4,5.6,21.9c1.3,6.8,1.8,14.8-2.4,19.8c-3,3.5-7.5,4.5-11.7,5.2c-32.8,5.9-66.3,8.4-99.1,3.1
		c-10.6-1.7-22.6-5.6-26.8-16.8c-1.5-4.1-1.8-8.7-1.4-13.1c0.9-11.4,5.8-22.3,13.4-29.8"/>
	<path class="st1" d="M172.9,575.4c2.4,2.9,7.3,2.5,10.1-0.1c2.8-2.5,4-6.4,4.7-10.1c1.1-5.8,1.4-11.7,1-17.6
		c-0.4-4.9-1.5-10.3-5.4-13.4c-0.6,9.9-1.4,20.4-7.1,28.4c-1,1.4-2.1,2.7-2.8,4.3c-1.6,4,0.6,9.1,4.7,10.5"/>
	<path class="st1" d="M72.1,613.4c-0.3,7.2-0.6,14.5-0.8,21.7c-0.1,3.6-0.3,7.3-2,10.4c-1.7,3.1-5.5,5.5-8.9,4.3
		c-2.5-0.8-4.2-3.3-4.8-5.8s-0.3-5.2-0.1-7.8c0.9-8.8,1.8-17.5,2.8-26.2"/>
	<path class="st1" d="M29.8,536.3c3.6-0.3,7.1-2.3,10.7-2.1c3.8,0.2,7.1,2.8,9.2,5.9c2.1,3.2,3.2,6.9,4.2,10.5
		c1.3,4.5,2.6,9,3.9,13.5c1.9,6.6,3.8,13.7,1.5,20.1c-0.5,1.5-1.3,2.9-2.5,3.8c-1.4,1.1-3.3,1.3-5.1,1.4c-9.7,0.8-20,0.1-28.2-5
		c-1.1-0.7-2.3-1.6-2.8-2.8c-0.4-0.9-0.4-2-0.4-3c0-5.7-0.1-11.4-0.1-17c0-4.4-0.1-8.9,1.1-13.1c1.2-4.2,3.8-8.3,7.7-10.2"/>
	<path class="st5" d="M39.8,543.1c5.4,15.3,7.1,32.4,5.2,48.5c-0.1,0.5-0.9,0.5-0.8,0c1.8-16.1,0.2-33-5.2-48.3
		C38.8,542.8,39.6,542.6,39.8,543.1z"/>
	<path class="st5" d="M35,549c-0.4,13.7-0.2,27.4,0.4,41.1c0,0.5-0.8,0.5-0.8,0c-0.6-13.7-0.7-27.4-0.4-41.1
		C34.2,548.5,35,548.5,35,549z"/>
	<path class="st5" d="M29.4,546.9c-3.6,14.9-3.9,30.3-1,45.4c0.1,0.5-0.7,0.7-0.8,0.2c-2.9-15.2-2.6-30.8,1-45.8
		C28.8,546.2,29.5,546.4,29.4,546.9z"/>
	<path class="st5" d="M23.5,548.3c-3.5,12.9-4.1,26.3-1.6,39.5c0.1,0.5-0.7,0.7-0.8,0.2c-2.4-13.3-1.9-26.8,1.6-39.9
		C22.9,547.5,23.7,547.8,23.5,548.3z"/>
	<path class="st5" d="M28.6,532.2c-2-1.1-4.6-1.2-6.8-0.3c-0.5,0.2-0.9,0.4-1.2,0.8c-0.5,0.6-0.5,1.4-0.4,2.2c0.2,3.2,1.8,6.6,4.8,8
		c3,1.3,7.2-0.4,7.5-3.6C32.6,536.8,30.6,533.3,28.6,532.2z"/>
	<path class="st5" d="M49.2,546.8c3.4,14,4.9,28.4,4.7,42.9c0,0.5-0.8,0.5-0.8,0c0.3-14.4-1.3-28.7-4.7-42.7
		C48.4,546.5,49.1,546.3,49.2,546.8z"/>
	<path class="st8" d="M59.4,648.5c0.7-1.1,1-2.2,1-3.5c0-0.5,0.8-0.5,0.8,0c0.1,1.4-0.3,2.8-1.1,4C59.8,649.4,59.1,649,59.4,648.5z"
		/>
	<path class="st8" d="M62.8,649.4c0.3-1.3,0.7-2.6,1-4c0.1-0.5,0.9-0.3,0.8,0.2c-0.3,1.3-0.7,2.6-1,4
		C63.4,650.1,62.6,649.9,62.8,649.4z"/>
	<path class="st8" d="M158.3,654c0.1-1.4,0.2-2.8,0.3-4.3c0-0.5,0.8-0.5,0.8,0c-0.1,1.4-0.2,2.8-0.3,4.3
		C159.1,654.5,158.3,654.5,158.3,654z"/>
	<path class="st8" d="M161.8,653.9c0.2-1.5,0.3-3,0.1-4.4c0-0.5,0.8-0.5,0.8,0c0.1,1.6,0.1,3.1-0.2,4.6
		C162.5,654.6,161.7,654.4,161.8,653.9z"/>
	<path class="st7" d="M179.6,588.6c-1.3-2.2-2.5-4.5-3.8-6.8c-0.5-1-2.1-0.1-1.5,0.9c1.3,2.2,2.5,4.5,3.8,6.8
		C178.7,590.5,180.2,589.6,179.6,588.6z"/>
	<path class="st7" d="M161.5,596.9c0-1.8,0-3.5,0-5.3c0-1.1-1.8-1.1-1.8,0c0,1.8,0,3.5,0,5.3C159.7,598,161.5,598,161.5,596.9z"/>
	<path class="st7" d="M126.8,579c-0.8,1.2-1.5,2.5-2.3,3.7c-0.6,1,0.9,1.8,1.5,0.9c0.8-1.2,1.5-2.5,2.3-3.7
		C128.9,578.9,127.4,578,126.8,579z"/>
	<path class="st7" d="M147.7,574.3c0,2,0,4,0,6c0,1.1,1.8,1.1,1.8,0c0-2,0-4,0-6C149.4,573.2,147.7,573.2,147.7,574.3z"/>
	<path class="st7" d="M137.6,595.1c-0.4-1.4-1-2.8-1.4-4.2c-0.3-1.1-2-0.6-1.7,0.5c0.4,1.4,1,2.8,1.4,4.2
		C136.2,596.6,137.9,596.2,137.6,595.1z"/>
	<path class="st7" d="M113.6,574.1c-0.5-0.3-0.9-0.1-1.2,0.3c-0.8,1-1.5,2-2.3,3c-0.3,0.4-0.1,1,0.3,1.2c0.4,0.3,0.9,0.1,1.2-0.3
		c0.8-1,1.5-2,2.3-3C114.2,574.9,114,574.3,113.6,574.1z"/>
	<path class="st7" d="M84.5,577.9c0,1.8,0,3.5,0,5.3c0,1.1,1.8,1.1,1.8,0c0-1.8,0-3.5,0-5.3C86.2,576.8,84.5,576.8,84.5,577.9z"/>
	<path class="st7" d="M91.4,606.1c0.3-0.5,0.1-0.9-0.3-1.2c-1-0.8-2-1.5-3-2.3c-0.4-0.3-1-0.1-1.2,0.3c-0.3,0.5-0.1,0.9,0.3,1.2
		c1,0.8,2,1.5,3,2.3C90.6,606.7,91.2,606.5,91.4,606.1z"/>
	<path class="st7" d="M70.2,598.3c0-1.7-0.6-3.3-0.6-5c0-1.1-1.8-1.1-1.8,0c0,1.7,0.6,3.3,0.6,5C68.5,599.4,70.2,599.4,70.2,598.3z"
		/>
	<path class="st7" d="M114.6,604.2c0,2,0,4,0,6c0,1.1,1.8,1.1,1.8,0c0-2,0-4,0-6C116.3,603.1,114.6,603.1,114.6,604.2z"/>
	<path class="st7" d="M99.5,589c0.6,1.9,1.1,3.9,1.7,5.8c0.3,1.1,2,0.6,1.7-0.5c-0.6-1.9-1.1-3.9-1.7-5.8
		C100.9,587.4,99.2,587.9,99.5,589z"/>
	<path class="st7" d="M127.6,624.8c-1.1-1.5-2.1-2.9-3.2-4.4c-0.6-0.9-2.2,0-1.5,0.9c1.1,1.5,2.1,2.9,3.2,4.4
		C126.8,626.6,128.3,625.8,127.6,624.8z"/>
	<path class="st7" d="M183.8,613.3c0,1.8,0,3.5,0,5.3c0,1.1,1.8,1.1,1.8,0c0-1.8,0-3.5,0-5.3C185.6,612.1,183.8,612.1,183.8,613.3z"
		/>
	<path class="st7" d="M165.4,625.9c0-1.8,0-3.5,0-5.3c0-1.1-1.8-1.1-1.8,0c0,1.8,0,3.5,0,5.3C163.7,627,165.4,627,165.4,625.9z"/>
	<path class="st7" d="M174.8,600.6c-1.5,1.1-3.4,1.9-4.6,3.2c-0.7,0.9,0.5,2.1,1.2,1.2c1.1-1.3,2.9-2,4.3-3
		C176.6,601.5,175.8,600,174.8,600.6z"/>
	<path class="st7" d="M63.4,613c-1.5,1-3.4,1.8-4.6,3.2c-0.7,0.8,0.5,2.1,1.2,1.2c1.1-1.3,2.9-2,4.3-3
		C65.2,613.9,64.3,612.4,63.4,613z"/>
	<path class="st7" d="M148.6,630.4c-0.7-1.8-1.5-3.5-2.2-5.3c-0.4-1-2.1-0.6-1.7,0.5c0.7,1.8,1.4,3.5,2.2,5.3
		C147.3,631.9,149,631.4,148.6,630.4z"/>
	<path class="st7" d="M103.9,621.4c-2,0.3-4,0.6-6,0.8c-1.1,0.2-0.6,1.8,0.5,1.7c2-0.3,4-0.6,6-0.8
		C105.5,622.9,105,621.3,103.9,621.4z"/>
	<path class="st7" d="M76.6,622.8c-0.3-1.3-0.5-2.5-0.8-3.8c-0.2-1.1-1.9-0.6-1.7,0.5c0.3,1.3,0.5,2.5,0.8,3.8
		C75.1,624.4,76.8,623.9,76.6,622.8z"/>
	<path class="st7" d="M143.9,603.7c-1.6,1.9-3.3,3.5-5.3,5c-0.9,0.6,0,2.2,0.9,1.5c2.1-1.5,4-3.2,5.6-5.2
		C145.9,604.1,144.6,602.9,143.9,603.7z"/>
	<path class="st5" d="M57.8,534.7c-1.7,2.1-1.1,4.4,0.6,5.5c0.4,0.2,2.4,0.6,2.8,0.7c1.3,0.2,2.4-1,2.6-2.2c0.2-1.3-0.3-2.6-0.9-3.7
		C61.9,533.2,59.2,532.9,57.8,534.7z"/>
	<path class="st5" d="M43.2,532c-1,1.3-0.7,2.6,0.4,3.3c0.2,0.1,1.4,0.4,1.7,0.4c0.8,0.1,1.4-0.6,1.6-1.3s-0.2-1.5-0.6-2.2
		C45.6,531.2,44,531,43.2,532z"/>
	<path class="st4" d="M69.8,534.9c0.3-0.2,0.4-0.6,0.2-0.9c-1-2.2-2.3-4.3-3.9-6.2c-0.4-0.5-1.1-0.1-1.2,0.5
		c-0.1,1.4-0.1,2.7-0.2,4.1c0.4-0.1,0.9-0.1,1.3-0.2c-0.4-1-0.8-2.1-1.2-3.1c-0.3-0.8-0.6-2-1.4-2.5c-0.8-0.5-1.6-0.1-1.9,0.7
		c-0.1,0.2-0.1,0.7-0.1,0.8s-0.1,0.3-0.1,0.3s0,0.1,0,0c0,0,0.2-0.1,0,0c-0.4,0.1-0.6,0.5-0.5,0.8c0.1,0.4,0.5,0.5,0.8,0.5
		c0.6-0.1,0.9-0.6,1-1.2c0-0.3,0-0.4,0.1-0.7c0-0.1,0.1-0.1,0-0.1s-0.1,0-0.1,0s0.2,0.3,0.3,0.4c0.1,0.2,0.1,0.3,0.2,0.5
		c0.2,0.5,0.3,0.9,0.5,1.4c0.3,0.9,0.7,1.8,1,2.6c0.3,0.7,1.3,0.6,1.3-0.2c0.1-1.4,0.1-2.7,0.2-4.1c-0.4,0.2-0.8,0.3-1.1,0.5
		c1.5,1.8,2.8,3.8,3.7,5.9C69.1,534.9,69.5,535,69.8,534.9z"/>
	<path class="st5" d="M50.1,527.2c-1-1.1-2.2-2-3.5-2.7c-0.4-0.2-0.9,0-1,0.4c-0.2,1.1-0.2,2.2,0,3.3c0.4-0.2,0.8-0.4,1.1-0.7
		c-0.8-0.9-1.7-1.9-2.5-2.8c-0.3-0.3-0.8-0.2-1.1,0.1c-0.6,0.9-0.8,2-0.5,3c0.2,0.8,1.6,0.5,1.3-0.4c-0.2-0.7-0.1-1.4,0.3-2
		c-0.4,0.1-0.7,0.1-1.1,0.1c0.9,0.9,1.7,1.9,2.5,2.8c0.5,0.5,1.3,0,1.1-0.7c-0.2-0.8-0.2-1.7,0-2.6c-0.3,0.1-0.7,0.3-1,0.4
		c1.2,0.7,2.3,1.5,3.3,2.5C49.7,528.7,50.7,527.8,50.1,527.2z"/>
	<path class="st1" d="M183.3,575.5c1.1,0.7,1.9,0.6,2.6,1c0.2,0.1,0.5,0,0.5-0.3l0.9-9.2l1.7,3.8c0.1,0.2,0.4,0.2,0.5-0.1
		c0.4-3.4,1.3-5,0.8-9.6l1.6,1c0.3,0.2,0.3-0.2-0.3-1.1c-1.4-2.8-1.2-2.4-2.3-4.6c-0.4-0.8,0-1.8,0.8-2c0.4-0.1,0.9,0,1.2,0.5
		c0.2,0.5,0.8,0.8,1.3,0.6c0.7-0.2,0.7-0.8,0.6-1.3c-1.1-6.8-3.9-13.3-8.1-18.8"/>
	<path class="st6" d="M57.1,588.5c0.3,1.2,4.1-0.6,5.3-1.1c11.4-4.8,20.7-12.7,29.9-21c0.2-0.2,0.4-0.4,0.4-0.7s-0.2-0.5-0.4-0.7
		c-1.1-1-2.1-2.1-3.2-3.2c-10.1,6.5-20.5,13.9-30.7,20.4C57.3,583.8,56.6,586.3,57.1,588.5z"/>
	<path class="st9" d="M62.1,590.8c1.9-0.3,3.8,0.8,4.6,2.5c0.8,1.7,0.3,3.9-1.2,5.1c-0.9,0.8-2.1,1.1-3.2,1.3
		c-1.8,0.3-3,0.1-4.4-1.2c-0.9-0.8-0.8-2.5-0.9-3.7c0-0.6,0-1.1,0.3-1.6c0.2-0.3,0.5-0.5,0.8-0.8c0.7-0.5,1.4-1,2.3-1.2"/>
	<path class="st9" d="M59.3,591.7c-0.3-1.8-0.2-4,2-4.5c0.6-0.1,1.4-0.1,1.8,0.4c0.3,0.4,0.3,0.9,0.4,1.3c0.1,0.7,0.2,1.4,0.3,2
		c0,0.4-0.6,0.4-0.6,0c-0.1-0.7-0.2-1.5-0.3-2.2c-0.2-1.1-0.8-1.3-1.8-0.9c-1.6,0.6-1.4,2.4-1.2,3.8
		C59.9,592.1,59.3,592.1,59.3,591.7z"/>
</g>
<path class="st5" d="M619.6,104.6c3.5,10.4,13.1,17.6,22.3,24.2c2.9,2.1,5.9,4.2,9.6,4.8c0.7,0.1,1.5,0.2,2.1-0.3
	c0.7-0.5,0.8-1.4,0.8-2.2c0.1-9.5-6.7-17.1-13.3-23.9c-7.5-7.7-15.9-15.6-27.3-17.1"/>
<path class="st2" d="M526.4,76.2c34.7-0.8,69.4-1.7,104.2-2.6c16.6-0.4,33.7-0.7,49.2,5.1c0.8,0.3,0.9,1.3,0.3,1.8
	c-12.6,9.2-27.8,6.4-43.8,5.8c3.2,14.6,1,37.3-4.7,52.6c-1,2.7-4.4,3.5-6.4,1.5c-7-6.9-8.6-21.3-7.9-32.3c0-0.6-0.8-0.7-1-0.2
	c-6.2,16.5-24.1,26.2-41.1,25.6c-6.4-0.2-12.8,0.2-19-1.3c-5.5-1.4-13.1-4.9-18-7.8c-7.9-4.6-13.4-17.6-14.1-26.2
	c-0.7-7.5,0-14.8-1.5-22.2"/>
<path class="st2" d="M521.6,75.6c-10,12-18.8,26.4-25.3,40.6c-0.8,1.8-1.7,3.8-1.6,5.8s1.2,4.2,3.2,4.7s3.9-0.7,5.6-1.9
	c8.3-5.9,16.2-12.4,23.5-19.4c-4.5,8-7.8,16.8-9.5,25.8c-0.2,1.1-0.4,2.2,0.2,3.1c1.1,1.7,3.8,1.1,5.6,0.1c13-7,22.7-20,25.7-34.5"
	/>
<path class="st2" d="M525.6,81.1c-11.8-3.4-24-9-30-19.8c-5.2-9.3-4.8-20.6-4.2-31.2c0.1-1.9,0.4-4.1,2.1-5c2-1,4.3,0.6,5.9,2.1
	c4.4,3.9,9.6,7.4,15.4,7.6c10.8,0.4,19.9-10.4,30.5-8.9c6.9,1,12.1,7.2,14.2,13.8c2,6.7,1.5,13.8,0.9,20.7c-0.3,3.9-0.7,7.9-1,11.8
	c-0.2,2-0.4,4-1.5,5.6c-1,1.5-2.8,2.4-4.5,3.1c-9.9,4.1-21.6,3.9-31.3-0.7"/>
<path class="st2" d="M534.8,101.8c-1.9,9.5,3.4,19.3,11.3,24.9c7.9,5.6,17.8,7.5,27.4,7.8c13.1,0.3,26.7-2.5,37.3-10.1
	c10.7-7.7,17.9-20.8,16.3-33.8c-0.1-0.6-0.2-1.2-0.5-1.7c-0.6-0.8-1.7-1.1-2.7-1.3c-23.5-4.3-47.7,2.8-69.2,13.2
	c-6.1,2.9-12.3,6.4-16,12"/>
<path class="st2" d="M544.6,27.3c8.9-7,18.8-14.4,30.1-14.2c0.4,0,0.8,0.1,1.1,0.4c0.2,0.3,0.1,0.7,0,1.1c-1,3.6-4,6.3-6.7,8.7
	c-3.5,3.1-7,6.3-10.5,9.4c8.4-3.8,18.1-4.7,27.1-2.8c1.4,0.3,3.2,1.2,2.9,2.6c-0.2,0.8-0.9,1.3-1.6,1.7
	c-11.7,6.5-23.7,12.7-35.8,18.4"/>
<path class="st5" d="M491.5,29.7c-1.1-1.2-0.6-3.3,0.7-4.3s3-1.1,4.7-1.1c0.9,0.1,1.8,0.2,2.6,0.6c2.2,1.1,2.6,4,2.8,6.5
	c0,0.4,0,0.8-0.2,1.1c-0.2,0.2-0.6,0.3-0.9,0.4c-2.2,0.4-4.4,0.7-6.5,1.1c-0.4,0.1-0.9,0.1-1.2,0c-1.2-0.6-0.8-3.2-2.2-3.2"/>
<path class="st5" d="M528.9,43c-0.7,1.2-1.2,2.6-1,4s1.5,2.7,2.9,2.4c0.5-0.1,2.7-0.5,3.1-0.8c1.9-1.2,2.5-3.7,0.7-6
	C533,40.7,530.1,41,528.9,43z"/>
<path class="st5" d="M519.2,32.5c-0.4,0.7-0.7,1.5-0.6,2.4c0.1,0.8,0.9,1.6,1.7,1.4c0.3-0.1,1.6-0.3,1.8-0.5
	c1.1-0.7,1.5-2.2,0.4-3.6C521.6,31.2,519.9,31.4,519.2,32.5z"/>
<path class="st10" d="M519.4,78.4c13-1.7,27.6-5.7,40.6-7.3c0.6,1.5,1.1,3.1,1.7,4.6c0.1,0.3,0.2,0.6,0.1,0.9
	c-0.1,0.3-0.5,0.4-0.8,0.5c-12.9,3.8-26.7,8.9-40.1,8.2c-1.4-0.1-6.1-0.1-5.7-1.4C515.7,81.5,517.6,79.4,519.4,78.4z"/>
<path class="st9" d="M517.2,88.3c-0.9-0.3-1.9-0.1-2.8,0.1c-0.4,0.1-0.8,0.2-1.2,0.4c-0.5,0.3-0.8,0.9-1,1.4c-0.5,1.1-1.4,2.8-0.9,4
	c0.8,1.9,1.9,2.7,3.7,3.2c1.2,0.3,2.5,0.5,3.8,0.2c2-0.5,3.5-2.4,3.6-4.5c0.1-2-1.4-4-3.3-4.6"/>
<path class="st9" d="M516.4,88.4c0.4-1.4,1.1-3.3,2.9-3.1c1.1,0.1,1.6,0.6,1.3,1.7c-0.2,0.8-0.4,1.5-0.7,2.3
	c-0.1,0.4,0.5,0.6,0.6,0.2c0.2-0.7,0.5-1.4,0.7-2.1c0.1-0.4,0.3-1,0.2-1.4c-0.2-0.7-0.9-1.1-1.6-1.2c-2.4-0.5-3.5,1.5-4,3.5
	C515.7,88.6,516.3,88.8,516.4,88.4z"/>
<path class="st2" d="M634.1,85.1c3.7,2.9,8.2,7.3,12.2,10.6c0.6,0.6,1.6,0,1.5-0.9c-0.4-2.5-1-4.9-1.5-7.3c0-0.1,0.1-0.2,0.2-0.1
	c2.4,1.7,4.7,3.5,7,5.4c0.6,0.5,1.5,0.1,1.5-0.6l0.3-4.5c0-0.1,0.1-0.1,0.2-0.1c2,1.6,4.4,2.8,6.8,3.6c0,0,0.1,0,0.1-0.1
	c0-0.7,1-1.1,1.8-1s1.8,0.2,2.3-0.3s0.4-1.3,0.7-1.9c1.2-2.3,5.3,0.3,7-1.6c0.3-0.3,0.5-0.7,0.8-1c0.5-0.3,1.2-0.3,1.8-0.2
	c1.5,0.1,6.5-2.8,7.7-3.6c0.1-0.1,0.1-0.1,0.2-0.2c0.1-0.5-0.4-1-0.9-1.2c-8.1-3.6-21-6.3-29.8-5"/>
<path class="st10" d="M570,80.9c1,1,1.8,2.2,2.7,3.4c0.4,0.5,0.8,1,0.6,1.6c-0.2,0.5-0.7,0.8-1.3,0.8c-0.5,0-1-0.3-1.5-0.5
	c-0.5-0.3-1-0.5-1.5-0.8c-0.6-0.3-1.3-0.7-1.5-1.4c-0.3-1.2,0.5-1.9,1.2-3.2C568.7,80.7,569.3,80.2,570,80.9z"/>
<path class="st10" d="M596.4,77.8c1.4-0.5,2.8-0.6,4.2-0.9c0.6-0.1,1.2-0.2,1.7,0.2c0.4,0.4,0.4,1,0.1,1.5s-0.7,0.8-1.1,1.1
	c-0.5,0.3-0.9,0.7-1.4,1c-0.6,0.4-1.3,0.9-2,0.7c-1.2-0.3-1.5-1.3-2.4-2.6C595.6,78.8,595.5,78.1,596.4,77.8z"/>
<path class="st10" d="M578.4,78.5c2.1,0.5,4.3,0.9,6.4,1.3c0.8,0.2,2.2,0.2,2.6,0.9c0.3,0.5,0.2,1.4-0.2,2.2
	c-0.3,0.7-1.4,0.4-2.1,0.3c-2.2-0.4-4.4-0.8-6.6-1.2c-0.8-0.2-1.7-0.4-2.1-1.1c-0.3-0.7,0-1.6,0.4-2.3
	C576.8,78.6,577.1,78.2,578.4,78.5z"/>
<path class="st10" d="M607.1,80.8c-1.3,0.9-2.8,1.7-3.8,2.9c-0.6,0.8-1,1.9-0.4,2.6c0.5,0.6,1.4,0.6,2.2,0.3
	c1.1-0.3,2.1-0.9,3.1-1.6c0.6-0.4,1.2-0.8,1.7-1.3c0.4-0.6,0.7-1.4,0.4-2C610.4,81.8,609.4,79.2,607.1,80.8z"/>
<path class="st10" d="M591.4,85.9c-0.4,0.6-0.7,1.3-1,2c-0.4,1.1-0.5,2.5,0.5,3.1c0.6,0.4,1.5,0.2,2-0.2s0.9-1.1,1.2-1.8
	c0.4-1,0.7-2,0.8-3c0-0.2,0-0.4-0.1-0.5s-2.3-1.1-3-0.1"/>
<path class="st9" d="M287.1,109.8c1.8,1.8,1.2,5-1.7,5.9c-2.8,0.8-6.1-1.8-4.7-4.9c0.6-1.3,2.2-2.2,3.6-2
	C285.4,109,286.4,109.1,287.1,109.8z"/>
<path class="st9" d="M286.1,109.6c0.2-1.1,0.3-2.5-0.9-3c-0.8-0.3-1.2-0.1-1.4,0.7c-0.1,0.6-0.2,1.1-0.3,1.7c0,0.3-0.5,0.3-0.5,0
	c0.1-0.5,0.1-1.1,0.2-1.6c0.1-0.3,0.1-0.7,0.3-1c0.3-0.4,0.9-0.4,1.4-0.3c1.7,0.4,1.8,2.1,1.6,3.5
	C286.5,109.9,286,109.9,286.1,109.6z"/>
<g>
	<path class="st2" d="M39.7,33.7c4.8-7.9,13.3-13.3,22.4-14.4c3.9-0.5,7.9-0.1,11.8,0.6c16.7,3.2,31.6,14.8,38.8,30.2
		c6.9,14.7,6.8,31.6,6.6,47.8c-0.1,10.1-0.3,20.3-0.5,30.4c-0.1,3.9-0.3,8.3-3.2,11c-2.8,2.5-7,2.5-10.8,2.4
		c-9.8-0.5-19.7-1.1-29.5-2.3c-10.9-1.3-20.9-3.2-31.1-7.3c-8.3-3.3-11.2-10.2-11.2-19c0.1-23.9,2.9-45.4,6.7-75.9"/>
	<path class="st1" d="M39.9,52.6c-4.5-1-8.8,3-10.3,7.4c-2.9,8.1,0.8,17.7,7.6,22.9c6.8,5.2,16.2,6.5,24.6,4.7
		c3.8-0.8,7.6-2.3,10-5.2c4.5-5.5,2.4-14.2-2.7-19.2S57,56,50.2,53.9"/>
	<path class="st5" d="M45.8,70.8c-3.4-3.3-7.3-11.4-8.9-15.9c-0.2-0.7-0.5-1.4-0.3-2.1c0.4-1.8,2.8-2,4.6-1.8
		c6.2,0.8,12.3,2.4,18.1,4.8c0.9,0.4,1.8,0.8,2.3,1.6c1.4,2.3-1.2,4.9-3.6,6.2C53.9,66.1,49.8,68.5,45.8,70.8z"/>
	<path class="st5" d="M105.2,52.3c0.2,1.3,0.4,2.7,0.5,4c0.3,5.1,0.6,13.3-3,17.4c-4.4,5.1-11.4-1.3-13.8-5.3
		c-2.2-3.8-3.4-8.1-4.8-12.3c-1.2-3.7-2-6.8-2-10.7c0-6.3,5.2-8.8,10.5-7.6C100,39.3,103.9,45,105.2,52.3z"/>
	<path class="st2" d="M114,134.5c5.4-15.9,16.2-29.9,21-45.9c0.3-1.1,1.9-0.8,1.9,0.3c-0.3,10.9-3.2,21.5-7.2,31.6
		c-1.6,4-3.4,7.9-5.3,11.7c-0.8,1.6-1.7,3.2-2.9,4.6c-1.9,2.3-4.2,3.1-7,3.7c-1.7,0.4-3.5,0.6-5.2,0.6"/>
	<path class="st5" d="M45.4,40.1c-0.8,1.2-1.3,2.7-1.1,4.1c0.2,1.4,1.5,2.7,3,2.5c0.5-0.1,2.7-0.5,3.2-0.8c2-1.3,2.6-3.8,0.7-6.1
		C49.6,37.8,46.7,38.1,45.4,40.1z"/>
	<path class="st5" d="M60.3,41.3c-0.4,0.6-0.7,1.4-0.6,2.1c0.1,0.7,0.8,1.4,1.5,1.3c0.3,0,1.4-0.3,1.6-0.4c1-0.6,1.4-2,0.4-3.2
		C62.5,40.1,61,40.3,60.3,41.3z"/>
	<path class="st1" d="M39.6,37.5c1.2-2.7,2.9-5.1,5.2-7c1-0.8-0.4-2.2-1.4-1.4c-2.4,2-4.2,4.5-5.5,7.4
		C37.5,37.7,39.1,38.7,39.6,37.5z"/>
	<path class="st1" d="M66.5,31.4c1.9,0.3,3.5,1.2,4.7,2.7c0.8,1,2.2-0.4,1.4-1.4c-1.4-1.7-3.4-2.9-5.5-3.2
		C65.8,29.3,65.3,31.2,66.5,31.4z"/>
	<path class="st1" d="M38.2,128.3c-2.3-2.3,4.8-14.5,7.6-20.5c1-2.1,2-4.3,3.6-6c1.8-1.8,4.2-3,6.6-3.7c10.6-2.9,22.1,2.7,28.9,11.4
		c6.8,8.6,9.7,21,11.5,31.8C96.5,141.3,51.6,141.3,38.2,128.3z"/>
	<path class="st2" d="M59.8,117.4c1.3,0.6,2.1,2,2.1,3.4c-0.2,6.6-1.2,13.1-3.1,19.4c-0.6,1.9-1.3,3.8-3,4.9c-1,0.7-2.4,0.9-3.5,0.3
		c-1.7-0.9-1.9-3-1.8-4.8c0-7.3,0.4-14.5,1.1-21.8c0.2-2.5,2.9-4,5.2-2.9L59.8,117.4z"/>
	<path class="st2" d="M78.9,122.8c0,6,0,12,0,17.9c0,0.9-0.2,1.8-0.6,2.6c-1.7,3.2-5,1.8-6.2-0.4c-0.8-1.6-0.9-3.5-0.9-5.3v-15
		c0-2.2,2.1-3.9,4.2-3.4l0.6,0.1C77.8,119.8,78.9,121.2,78.9,122.8z"/>
	<path class="st2" d="M115,140.8c3.8-0.7,3.4-7.2,3.6-9c0.6-6.5-18.8,1.8-23.2,2.2c-6.4,0.6-6.5,3-5.1,6.7c0.8,2.1,2.9,3.4,5.1,3.1
		C101.6,143.1,113.3,141.1,115,140.8z"/>
	<path class="st1" d="M52.7,145c0.7-0.9,1.1-2,1.3-3.1c0.1-0.6-0.8-0.9-0.9-0.3c-0.2,1-0.6,2-1.2,2.9C51.5,145,52.3,145.5,52.7,145z
		"/>
	<path class="st1" d="M55.3,146c0.3-1.4,0.6-2.8,0.9-4.3c0.1-0.6-0.8-0.9-0.9-0.3c-0.3,1.4-0.6,2.9-0.9,4.3
		C54.2,146.4,55.2,146.7,55.3,146z"/>
	<path class="st1" d="M74.6,144.9c0.2-1.1,0.1-2.3-0.2-3.4c-0.2-0.6-1.1-0.4-1,0.2c0.3,1,0.3,2.1,0.2,3.1
		C73.6,145.5,74.6,145.5,74.6,144.9z"/>
	<path class="st1" d="M77.5,144.7c-0.4-1.4-0.8-2.8-1.1-4.2c-0.2-0.6-1.1-0.4-1,0.2c0.4,1.4,0.8,2.8,1.1,4.2
		C76.7,145.5,77.6,145.3,77.5,144.7z"/>
	<path class="st3" d="M86.5,42.1c5.9-6.1,11.8,2.8,13.4,7.8c1.7,5.2,2.8,9.9,1.2,15.2c-2.9,9.9-11.4-1.7-13.3-5.2
		c-1.5-2.8-2.7-5.5-2.8-8.7c0-1.2-0.1-4.1,0.7-5.2c1-1.3,3.7-1,5.1-0.9c0.2,0,0.4-0.2,0.4-0.3c1.2-2.9,4.2,3.6,4.5,4.2
		c0.9,1.9,2.2,4,2.6,6c0.4,1.9,0.5,3.9,0.4,5.8c0,0.6-0.1,2.5-1.1,2.5c-0.3,0-2.7-2-2.9-2.2c-3.1-3-5.9-5.7-6.1-10.4
		c-0.1-1.4-0.3-3.7,2.6-2.1c1.1,0.6,2,2.1,2.6,3.2c1.1,2,1.9,4.1,2.3,6.4c0.2-0.2,0.4-0.4,0.6-0.6c-3.2-0.9-5.2-3.4-5.4-6.7
		c0-0.6-0.9-0.6-0.9,0c0.2,3.7,2.5,6.6,6,7.6c0.4,0.1,0.6-0.2,0.6-0.6c-0.6-4.1-3.4-12-8.8-10.5c-0.2,0.1-0.3,0.2-0.3,0.4
		c-0.5,3.9,0.3,7.2,3,10.2c1.7,1.8,3.6,3.5,5.4,5.2c0.7,0.7,1.4,1.9,2.5,1.8c0.2,0,0.3-0.1,0.4-0.2c1.5-3.2,0.7-8.2-0.1-11.5
		c-0.8-3-2.4-8.4-5.4-9.9c-0.8-0.4-1.4-0.4-2.2,0C91.3,43.5,91,44,90.8,44c-1.1,0.4-2.4,0.1-3.6,0.3c-0.7,0.1-1.5,0.2-2,0.8
		c-1.1,1.5-0.4,5.3-0.3,7.1c0.3,4.3,2.9,8.5,5.2,12.1c1.7,2.7,4.1,7,7.6,7.4c3.2,0.3,4.3-3.5,4.8-6c0.8-4.4,1.5-9.2,0.4-13.5
		c-1-4.2-3.9-9.2-7.8-11.6c-2.9-1.8-6.7-1.7-9.2,0.8C85.5,41.9,86.1,42.5,86.5,42.1z"/>
	<path class="st5" d="M35.7,78.2c5.2,1.2,10.4-3.9,9.4-9.1c-0.2,0.3-0.5,0.6-0.7,0.9c1.1,0.1,0.9,2.5,1,3.3c0.1,1.4,0.5,2.6,1.4,3.6
		c1.8,2.1,4.9,2.8,7.4,1.5c0.9-0.5,0.1-1.7-0.8-1.3c-2.4,1.2-5.7-0.3-6.4-2.8c-0.6-2,0.3-5.5-2.6-5.8c-0.5-0.1-0.8,0.5-0.7,0.9
		c0.7,4.1-3.5,8.2-7.6,7.3C35.2,76.5,34.8,77.9,35.7,78.2z"/>
</g>
<path class="st1" d="M807,473.3c-1.4-2.7-4.4-4.4-7.4-4c-3.1,0.4-5.5,2.7-6.3,5.7c-0.9,3.2-1.2,7.4,0.9,10.2c0.8,1.1,2,1.9,3.4,2.2
	c0.8,0.1,3.3-0.2,3.5,0.8c0.1-0.3,0.2-0.6,0.4-0.9c-1.8,1.1-3.8,2.5-4.4,4.7c-0.5,1.9,0.4,3.8,1.9,5c4.1,3.3,9,0.5,12.6-2
	c0.9-0.6,0-2-0.8-1.4c-2.8,1.9-6.6,4.6-10,2.7c-1.3-0.8-2.4-2.2-2.1-3.8c0.4-1.8,2.2-2.8,3.7-3.7c0.3-0.2,0.4-0.5,0.4-0.9
	c-0.4-2.1-2.9-1.7-4.5-1.9c-3.5-0.4-3.9-4.6-3.7-7.4c0.3-3,1.1-6.2,4.4-7.2c2.7-0.9,5.6,0.5,6.9,3
	C806.1,475.1,807.5,474.2,807,473.3z"/>
<g>
	<path class="st6" d="M819.9,493.3c-1.1-18.3-7.1-37-3.7-54.9c3.5-18,12.1-35.5,26.4-44.6c8.7-5.5,18.9-7.6,28.8-9
		c11.6-1.6,23.4-2.5,34.9-0.2s22.8,8.1,30.3,18.1c4.4,5.8,7.5,12.9,10,20c8.3,23.1,2.4,48.2,1.5,73L819.9,493.3z"/>
	<path class="st6" d="M868.2,292.3c-4.2,14-12.8,26.3-17.3,40.2c-7.1,22-9.1,45.3-11,68.4c-0.8,9-1.5,18-1.3,27.1
		c0.5,18.6,5.2,36.8,9.8,54.8c1.6,6.1,3.3,12.5,8.1,16.6c6.5,5.7,16.3,5,24.9,4.1c6.9-0.8,13.8-1.6,20.7-2.4
		c2.1-0.2,4.2-0.5,5.9-1.7c2-1.4,3.1-3.8,4-6c10.7-26.2,16.4-54.3,18.2-82.5c0.5-7.9,0.7-15.9-0.2-23.7c-1.2-10.3-4.4-20.2-7.3-30.1
		c-7.5-25.4-13.8-51.1-18.8-77.1C903.8,280,874.4,271.4,868.2,292.3z"/>
	<path class="st6" d="M880.2,248c3.6-7.6,13-10.7,21.4-10.4c3.2,0.1,6.6,0.7,9.4,2.2c6,3.4,8.6,10.6,12.8,16
		c5.3,6.9,13.9,11.3,22.6,11.5c4.2,0.1,9.6-0.1,11.4,3.8c1.6,3.4-1,7.2-3.5,10c-4,4.5-8,9.1-12.9,12.6c-6.3,4.5-13.8,6.9-21.3,8.5
		c-8.4,1.8-17.4,2.6-25.2-1c-7.3-3.4-12.5-10.5-15.1-18.1c-2.5-7.7-2.6-15.9-1.8-24L880.2,248z"/>
	<path class="st11" d="M890.4,468c0-11.3,0-22.5,0-33.8c0-12.8,0-25.6,0-38.4c0-5.8,0-11.7,0-17.5c0-1.2-1.8-1.2-1.8,0
		c0,11.3,0,22.5,0,33.8c0,12.8,0,25.6,0,38.4c0,5.8,0,11.7,0,17.5C888.6,469.1,890.4,469.1,890.4,468z"/>
	<path class="st2" d="M867.2,305.6c13.3-0.6,26.7-1.2,40-1.7c0.5,0,1.1,0,1.5,0.2s0.5,0.6,0.6,0.9c0.2,1,0.5,2,0.7,2.9
		c0.1,0.3,0.2,0.7-0.1,1s-0.9,0.4-1.4,0.5c-16.3,2.5-33.5,4.8-49.3,1.4"/>
	<path class="st11" d="M861.8,413.1c-0.3,17.5-0.1,35,0.8,52.5c0,1.2,1.8,1.2,1.8,0c-0.8-17.5-1.1-35-0.8-52.5
		C863.6,411.9,861.8,411.9,861.8,413.1z"/>
	<path class="st11" d="M913.3,411.8c-0.5,19.1-0.9,38.1-1.4,57.2c0,1.2,1.8,1.2,1.8,0c0.5-19.1,0.9-38.1,1.4-57.2
		C915.2,410.6,913.4,410.7,913.3,411.8z"/>
	<path class="st2" d="M954.2,267c-2.9,0.1-5.8,0.4-8.5,1.5c-1.9,0.8-3.8,2.1-4.5,4c-0.3,0.9-0.4,1.8-0.5,2.7c-0.2,2-0.3,4.3,1,5.9
		c1.7,1.9,4.7,1.8,7.2,1c3.4-1.1,6.5-3.1,8.9-5.7c1-1.1,1.8-2.3,2.3-3.7c0.4-1.4,0.3-3-0.6-4.1C959.5,268.7,957.9,266.9,954.2,267z"
		/>
	<path class="st12" d="M867.2,244.1c-17.1,6.8-32,30.7-37.6,48.2c-2.1,6.4-3.5,13.4-1.2,19.7c2.5,6.6,9.2,11.1,16.3,11.7
		s14.1-2.6,18.9-7.7c2.9-3.1,5-6.7,6.9-10.4c9.5-18.5,14.4-39.3,14.1-60L867.2,244.1z"/>
	<path class="st12" d="M887.3,257.9l24.7-5.3c4.6-1.4,9.2-3.5,12.4-7c6.6-7.3,5.3-19.6-1.3-26.8s-17.2-9.9-26.9-8.9
		c-9.8,1-18.9,5.3-27.5,10c-2,1.1-4,2.2-5.6,3.9c-3.7,3.9-4.1,9.7-4.3,15.1c-0.1,6.1,0.5,13.2,5.7,16.4c2,1.2,4.4,1.6,6.8,1.9
		C876.5,257.8,881.9,258.1,887.3,257.9z"/>
	<path class="st12" d="M814.9,489.9c-2-3.7-4-7.5-3.9-11.6s2.7-8.4,7.1-9.5c4.5-1.1,10,2.5,8.9,6.4c-1.5-5.6,1.5-12.4,7.7-14.4
		s14.4,3,12.9,8.7c1.9-5.5,7.3-10.4,13.9-10.6c6.6-0.2,13,5.8,10.8,11.2c-2.4-4,4.3-8.8,9-6.8s5.7,7.9,3.1,11.9
		c0.4-3.3,1.6-6.5,3.5-9.4c1-1.6,2.3-3.1,4.2-4c2.8-1.2,6.5-0.6,8.5,1.5s1.9,5.4-0.1,7.5c1-3.1,2.1-6.4,4.5-9s6.3-4.3,9.9-3.3
		c3.6,1,5.8,5.3,3.3,7.8c2.5-5,12.9-3.7,13.7,1.7c2.9-3.1,8.6-3.8,12.3-1.6s5,7.2,2.7,10.6c5.2-1.7,8.9,4.8,8.2,9.6
		c-0.7,5-3.5,10-8.3,12.8s-11.8,3-16.2-0.3c-4.4,6.7-15.9,8.8-23.1,4.2c-8,5.3-19.2,10.7-27.2,5.4c-1.9-1.2-3.7-3.1-6.1-2.9
		c-2.3,0.2-3.7,2.4-5.8,3.3c-5.5,2.5-10.6-4.6-16.8-5.4c-2.1-0.3-4.4,0.2-6.5,0c-4.1-0.5-7.1-4.4-6.3-7.9c-4.4-0.4-8.7,1.4-13.1,2
		c-4.4,0.6-10-0.8-10.9-4.6"/>
	<path class="st1" d="M830.3,476.3c0.7-3.5-0.2-7-0.1-10.5c0.1-2.5,1-5.4,3.3-6.6c2.6-1.3,5.6,0.2,7.2,2.2c2.1,2.6,2.5,6.2,2.8,9.4
		c0.5,0,1.1,0,1.6,0c-0.2-1.3,0.6-2.6,1.9-2.8c1.5-0.2,2.6,1.2,2.6,2.6c0,1,1.6,1,1.6,0c0.1-2.3-1.9-4.4-4.2-4.2
		c-2.2,0.2-3.9,2.3-3.6,4.5c0.1,1,1.8,1.1,1.6,0c-0.4-3.5-0.8-7.4-3.1-10.3c-1.9-2.4-5.1-4.1-8.1-3.2c-3,0.8-4.6,3.7-5.1,6.6
		c-0.7,4,0.6,8.1-0.1,12.1C828.5,476.9,830.1,477.3,830.3,476.3z"/>
	<path class="st1" d="M871.3,469.7c1.8-2.7,5.2-4.7,8.5-4.2c2,0.3,2.5,2.8,3.1,4.5c0.6,1.9,1.1,3.7,1.4,5.7c0.1,0.8,1.4,0.7,1.6,0
		c1.1-4.4,4.1-9.4,8.6-10.9c2.2-0.8,4.3-0.2,5.6,1.8c1.1,1.7,1.4,3.7,1.7,5.6c0.2,0.9,1.5,0.6,1.6-0.2c0.3-5.5,1-12.9,7.4-14.5
		c2.6-0.6,5.1,0.4,6.1,3c1,2.5,0.5,5.4,0,8c0.5,0.1,1.1,0.1,1.6,0.2c0-1.8,1.2-3.6,3-4s3.7,0.7,4.4,2.4c0.4,1,1.9,0.6,1.6-0.4
		c-0.9-2.5-3.4-4.1-6.1-3.6c-2.7,0.4-4.5,3-4.5,5.6c0,0.9,1.4,1.2,1.6,0.2c0.6-3,1.1-6.4-0.2-9.3c-1.2-2.8-4.1-4.2-7.1-3.8
		c-3.2,0.4-5.8,2.5-7.3,5.3c-1.8,3.4-2,7.2-2.2,10.9c0.5-0.1,1.1-0.1,1.6-0.2c-0.4-2.3-0.9-4.8-2.3-6.6c-1.5-1.9-3.9-2.7-6.3-2.1
		c-5.4,1.3-9.1,7.2-10.4,12.3c0.5,0,1.1,0,1.6,0c-0.4-2.5-1.1-4.9-2-7.2c-0.8-2-1.6-3.8-3.9-4.1c-4-0.6-8,1.7-10.1,5
		C869.3,469.7,870.7,470.5,871.3,469.7z"/>
	<path class="st1" d="M935,473.7c3.3-1.2,7.2-2.6,10.7-1.2c1.4,0.6,2.5,1.7,2.7,3.2c0.2,1.4-0.3,2.7-1.6,3.3
		c0.3,0.5,0.6,0.9,0.8,1.4c1.3-0.8,2.9-0.3,4,0.7c1.2,1.2,1.4,3,1.3,4.6c-0.3,3.4-1.9,7.3-4.5,9.6c-2.5,2.3-6.2,2.9-9.4,2
		s-6-3.1-8-5.7c-0.6-0.8-1.7-0.3-1.5,0.6c0.6,3.5-0.2,7.8-3.4,9.9c-2.6,1.7-6.6,1.3-8.2-1.5c-0.5-0.9-1.9-0.1-1.4,0.8
		c2,3.5,6.9,4.2,10.2,2.3c4.1-2.3,5.1-7.6,4.4-11.9c-0.5,0.2-1,0.4-1.5,0.6c3.8,5.1,10.3,8.6,16.6,6.1c3.1-1.2,5.2-3.7,6.5-6.7
		s2.6-6.8,1.2-10c-1.1-2.7-4.5-4.4-7.2-2.8c-0.9,0.6-0.1,1.8,0.8,1.4c3.5-1.6,2.9-6.5,0.3-8.5c-3.9-3-9.2-1.2-13.3,0.2
		C933.5,472.5,934,474,935,473.7z"/>
	<path class="st1" d="M839,494.1c-0.5,3.8-0.3,9,4.5,9.9s8.1-3.3,10.4-6.9c-0.5-0.1-1-0.3-1.5-0.4c-0.8,6,3.6,12.2,9.6,13.2
		c5.9,1,11.9-3,13.4-8.8c-0.5,0-1.1,0-1.6,0c0.8,3.5,3.2,7,6.9,7.9c3.2,0.7,6.7-0.8,7.9-3.9c0.3-0.9-1-1.4-1.5-0.6
		c-1.3,2.1-0.5,4.9,1.4,6.4c2.3,1.8,5.6,1.4,8.1,0.3c5-2.2,8.3-7.6,8.1-13c0-1-1.7-1.1-1.6,0c0.2,4.2-2,8.4-5.6,10.7
		c-1.9,1.2-4.4,2.1-6.6,1.4c-2.1-0.6-3.8-2.9-2.5-5c-0.5-0.2-1-0.4-1.5-0.6c-1,2.5-4.1,3.4-6.5,2.6c-2.8-1-4.5-3.8-5.2-6.6
		c-0.2-0.8-1.4-0.8-1.6,0c-1.3,5-6.6,8.6-11.7,7.6c-5.2-1-8.8-6.4-8.1-11.6c0.1-0.9-1.1-1-1.5-0.4c-1.9,2.9-4.5,6.7-8.4,6.2
		c-4-0.5-3.8-5.3-3.4-8.3C840.7,493.1,839.1,493.1,839,494.1z"/>
	<path class="st1" d="M834.6,483.1c-0.8-1-0.5-2.7,0.7-3.3c1.3-0.6,2.9,0.5,3,1.8c0.1,1.1,1.5,1,1.6,0s1-1.9,2-2.1
		c1.1-0.1,2,0.5,2.5,1.5c0.5,0.9,1.9,0.1,1.4-0.8c-0.8-1.6-2.6-2.5-4.3-2.2c-1.8,0.3-3,1.9-3.2,3.6c0.5,0,1.1,0,1.6,0
		c-0.2-2.5-2.8-4.4-5.2-3.4c-2.1,0.9-3,3.8-1.6,5.7C833.8,484.8,835.2,484,834.6,483.1z"/>
	<path class="st1" d="M875.6,485.8c-1.1,1.8-0.2,4.1,1.4,5.3c1.9,1.5,4.5,1.2,6.7,0.9c0.4-0.1,0.8-0.3,0.8-0.8
		c0-0.4-0.4-0.9-0.8-0.8c-1.8,0.2-3.9,0.6-5.6-0.4c-0.5-0.3-1-0.9-1.3-1.5s-0.3-1.2,0.1-1.8C877.5,485.7,876.1,484.9,875.6,485.8z"
		/>
	<path class="st1" d="M917.1,489.5c-0.9-1.5-1.8-3.1-1.8-4.8c0-1.4,0.8-2.7,2-3.5c2.5-1.6,5.8,0.1,6.2,3c0.5-0.1,1.1-0.3,1.6-0.4
		c-0.4-1.6,1.9-2.2,2.4-0.7c0.3,1,1.9,0.6,1.6-0.4c-0.5-1.5-2-2.4-3.6-2c-1.5,0.4-2.3,2.1-2,3.6c0.2,1,1.7,0.6,1.6-0.4
		c-0.6-3.8-5.1-6-8.5-4c-1.6,0.9-2.7,2.6-2.9,4.4c-0.2,2.3,0.9,4.4,2,6.2C916.3,491.2,917.7,490.4,917.1,489.5z"/>
	<path class="st1" d="M940.1,485.6c0.1,0,0.2,0,0.2-0.1c-0.1,0.1-0.2,0-0.1,0h0.1c0,0-0.2,0-0.1,0h0.1c0,0,0.2,0.1,0,0s0,0,0,0
		s0.1,0,0.1,0.1c0.1,0.1,0.1,0.1,0,0c0,0.1,0.1,0.1,0.2,0.2c0,0,0,0.1,0.1,0.1c0.1,0.1-0.1-0.2,0,0c0,0.1,0.1,0.1,0.1,0.2
		c0.1,0.1,0,0,0-0.1v0.1v0.1v0.1c0,0.1,0,0,0-0.1v0.3c0,0.1,0,0.2,0,0.3v0.1v-0.1c0,0,0,0.1,0,0.2s0,0.2-0.1,0.3
		c-0.1,0.2-0.1,0.4-0.2,0.7c-0.1,0.4,0.1,0.9,0.6,1c0.4,0.1,0.9-0.1,1-0.6c0.3-1.1,0.6-2.3,0-3.3c-0.5-0.9-1.6-1.5-2.6-1.1
		c-0.2,0.1-0.4,0.2-0.5,0.4c-0.1,0.2-0.2,0.4-0.1,0.6C939.3,485.4,939.7,485.7,940.1,485.6z"/>
	<path class="st1" d="M895,482.7c2-0.7,4.2-1.5,6.1-0.4c1.5,0.9,2.4,2.5,2.3,4.2c-0.1,1.1,1.6,1,1.6,0c0.1-2.2-1.1-4.4-3-5.5
		c-2.4-1.5-5.1-0.8-7.5,0.1C893.6,481.4,894,483,895,482.7z"/>
	<path class="st1" d="M866.9,494c-1.3,0.4-3.2,1-4.5,0.1c-0.4-0.3-0.8-0.9-0.8-1.5c0.1-0.5,0.5-0.9,0.7-1.4c0.5-0.9,0.4-2.1-0.8-2.4
		c-0.6-0.1-1.3,0.1-1.9-0.1c-0.6-0.2-1.1-0.5-1.5-0.9c-2-2-1.6-5,0.3-6.9c2.1-2.2,5.3-2.6,8.2-2.2c1,0.2,1.5-1.4,0.4-1.6
		c-2.7-0.4-5.5-0.3-7.9,1.1c-2.1,1.2-3.7,3.4-4,5.9c-0.2,2.3,1.1,4.6,3.1,5.7c0.5,0.2,1,0.4,1.5,0.5c0.3,0,0.5,0.1,0.8,0.1
		c0.2,0,0.3,0,0.5,0c-0.2,0,0.1-0.3-0.2,0s-0.6,1-0.8,1.4c-0.2,0.5-0.2,1.1-0.1,1.7c0.3,1.1,1.2,2.1,2.3,2.5c1.6,0.6,3.4,0.1,5-0.3
		C868.3,495.3,867.9,493.7,866.9,494z"/>
	<path class="st1" d="M861.6,247.6c-5.5-0.3-11.1,2.2-14.3,6.7c-3.4,4.7-3.9,11.1-1.5,16.4c0.3-0.4,0.6-0.8,0.9-1.2
		c-2.8-0.6-6.5-0.7-8.4,1.9c-1.4,2-1.4,5.1,0.9,6.4c0.1-0.5,0.1-1,0.2-1.5c-2.3,0.6-5,1.3-6.2,3.6c-1,1.8-0.8,4.1,1,5.4
		c0.9,0.6,1.7-0.8,0.8-1.4c-1.3-0.9-0.8-2.9,0.1-3.9c1.2-1.3,3.1-1.7,4.7-2.1c0.7-0.2,0.8-1.1,0.2-1.5c-1.6-0.9-1.3-3.3-0.1-4.4
		c1.6-1.6,4.3-1.4,6.3-0.9c0.7,0.2,1.2-0.6,0.9-1.2c-2.1-4.7-1.6-10.5,1.5-14.7c2.9-4,8-6.2,12.9-5.9
		C862.6,249.3,862.6,247.7,861.6,247.6z"/>
	<path class="st1" d="M830.1,298.3c-4.8,1.9-6.1,8.5-3.6,12.7c1.2,2,3.2,3.2,5.5,3.3c2.2,0.1,4.3-0.9,5.4-2.8
		c-0.5-0.1-1-0.3-1.5-0.4c0.3,3-1.8,6.1-0.4,9c0.9,1.9,3.6,2.9,5.3,1.3c0.8-0.7-0.4-1.9-1.2-1.1c-0.6,0.6-1.6,0.3-2.2-0.2
		c-0.8-0.7-0.8-1.8-0.8-2.7c0.1-2.1,1.1-4.1,0.9-6.2c-0.1-0.8-1.1-1.2-1.5-0.4c-0.8,1.4-2.4,2-4,2c-1.9-0.1-3.4-1.2-4.3-2.8
		c-1.8-3.2-1-8.6,2.7-10.1C831.5,299.5,831.1,297.9,830.1,298.3z"/>
	<path class="st1" d="M850.6,318.7c5.1,1.9,11.3,1.5,14.8-3.1c2.9-3.7,2.3-9.5-2-11.9c-0.1,0.5-0.3,1-0.4,1.5
		c4.5-0.3,8.3-3.4,9.6-7.7c0.3-1-1.3-1.4-1.6-0.4c-1.1,3.6-4.4,6.2-8.1,6.5c-0.8,0.1-1.2,1.1-0.4,1.5c3.7,2.1,3.8,7.2,1.1,10.1
		c-3.3,3.6-8.4,3.5-12.7,2C850.1,316.8,849.6,318.3,850.6,318.7z"/>
	<path class="st1" d="M869.3,252.1c2.5-2.1,6.8-1.5,8.5,1.3c1.7,2.9,0.2,6.8-2.7,8.1c0.3,0.4,0.7,0.9,1,1.3c1.7-1.9,5.1-1.5,6.5,0.6
		c1.7,2.7-0.5,6.2-3.2,7c-0.5,0.1-0.7,0.7-0.5,1.2c0.6,1.4,1.1,2.9,0.9,4.4c-0.2,1.3-1.1,2.6-2.5,2.7c-1,0.1-1,1.7,0,1.6
		c1.9-0.2,3.3-1.4,3.9-3.2c0.8-2.1,0-4.4-0.8-6.4c-0.2,0.4-0.3,0.8-0.5,1.2c3.8-1,6.5-5.8,4.2-9.4c-1.9-3-6.7-3.7-9-0.9
		c-0.6,0.7,0.1,1.7,1,1.3c3.8-1.7,5.5-7.1,3.2-10.6c-2.4-3.6-7.7-4.1-10.9-1.4C867.3,251.6,868.5,252.8,869.3,252.1z"/>
	<path class="st1" d="M848.9,308.1c-0.8,0.3-1.5,0.1-2.1-0.5c-0.6-0.7-0.8-1.6-0.8-2.5c0-1.7,0.5-3.4,1.4-4.8
		c0.8-1.3,2.1-2.2,3.7-2.4c1.4-0.1,2.9,0.3,3.7,1.6c0.4-0.3,0.8-0.7,1.3-1c-0.9-1,0.6-2.2,1.5-1.2c0.7,0.8,1.8-0.4,1.2-1.2
		c-0.9-1-2.6-1.2-3.6-0.3c-1.1,1-1.1,2.7-0.1,3.8c0.6,0.7,1.8-0.2,1.3-1c-1.8-2.8-5.8-3.1-8.3-1.2c-1.4,1.1-2.4,2.6-3,4.3
		c-0.6,1.7-0.9,3.7-0.3,5.4c0.6,1.8,2.7,3.3,4.6,2.5c0.4-0.2,0.7-0.5,0.6-1C849.8,308.2,849.3,307.9,848.9,308.1z"/>
	<path class="st1" d="M848.5,284.1c1.1-1.3,3-1.9,4.7-1.2c1.6,0.7,2.6,2.5,2.3,4.2c-0.2,1,1.3,1.5,1.6,0.4c0.4-1.5,2.6-1.8,3.5-0.7
		c0.7,0.8,1.8-0.3,1.2-1.1c-1.7-2.1-5.6-1.2-6.3,1.4c0.5,0.1,1.1,0.3,1.6,0.4c0.4-2.4-0.8-5-3.1-6.1c-2.2-1-5-0.4-6.6,1.5
		C846.7,283.7,847.8,284.9,848.5,284.1z"/>
	<path class="st1" d="M856.3,265.7c1-0.6,2.2-1.1,3.4-1.1c1,0,1.9,0.4,2.6,1.1c1.3,1.3,1.1,3.6-0.5,4.6c-0.4,0.2-0.5,0.7-0.3,1.1
		c0.8,1.6,2.7,0.9,4.1,1.1c2.3,0.3,1.8,3.4,1.4,4.9c-0.2,1,1.4,1.5,1.6,0.4c0.4-2.1,0.8-4.6-1.1-6.2c-0.7-0.6-1.6-0.8-2.5-0.8
		c-0.5,0-1.8,0.4-2.1-0.2c-0.1,0.4-0.2,0.7-0.3,1.1c2.4-1.4,2.8-4.8,1.1-6.9c-0.9-1.1-2.2-1.7-3.6-1.8c-1.7-0.2-3.2,0.5-4.7,1.3
		C854.5,264.8,855.3,266.2,856.3,265.7z"/>
	<path class="st1" d="M862.3,241.4c-1.8-4.1-1.9-9.2-1.6-13.6c0.2-2.2,1.1-4.4,3.4-5c2.1-0.6,4.1,0.7,5,2.6c0.3,0.6,1.2,0.4,1.4-0.2
		c0.5-1.6,0-3.2,0.2-4.8c0.4-2.9,3.3-1,4.5,0.2c0.4,0.4,1.1,0.2,1.2-0.3c0.2-1.2,1.4-2,2.6-1.6c0.9,0.3,1.3-1.1,0.4-1.4
		c-1.9-0.6-4.1,0.6-4.4,2.7c0.4-0.1,0.8-0.2,1.2-0.3c-1.5-1.5-4.2-3.3-6.2-1.4c-1.7,1.7-0.5,4.5-1.1,6.6c0.5-0.1,0.9-0.1,1.4-0.2
		c-2.1-4.7-8.9-4.4-10.7,0.4c-1,2.6-0.6,5.8-0.5,8.5c0.1,3,0.6,5.9,1.8,8.7C861.4,243,862.7,242.2,862.3,241.4z"/>
	<path class="st1" d="M894.1,216c-0.9-1.7,0-3.6,1.5-4.6s3.3-1.3,5-1.3c3.7-0.1,7.8,1.4,8.5,5.4c0.1,0.7,1.3,0.7,1.5,0
		c0.4-2.4,3.1-3.1,4.6-1.2c0.6,0.8,1.7-0.3,1.1-1.1c-2.1-2.8-6.6-1.6-7.1,1.8c0.5,0,1,0,1.5,0c-1-5.1-6.5-6.9-11.2-6.4
		c-2.1,0.2-4.5,0.8-5.9,2.5c-1.3,1.6-1.8,3.8-0.7,5.6C893.3,217.6,894.6,216.8,894.1,216z"/>
	<path class="st1" d="M894.9,252.6c3.6,2.9,8.7,4.5,13.2,2.7c4-1.6,6.9-5.7,6.4-10.1c-0.4,0.2-0.8,0.4-1.3,0.5c1.4,1.7,3.5,4,6,3.3
		c1.9-0.5,3.4-2.6,2.3-4.4c-0.5-0.8-1.8-0.1-1.3,0.8c0.9,1.5-1.5,2.5-2.6,2.2c-1.4-0.4-2.4-1.8-3.3-2.9c-0.4-0.5-1.4-0.1-1.3,0.5
		c0.5,3.8-2.1,7.5-5.7,8.8c-3.9,1.4-8.3,0.1-11.4-2.5C895.2,250.9,894.1,252,894.9,252.6z"/>
	<path class="st1" d="M920.3,224.7c0.4-1.6,1.6-2.9,3.2-3.4c1.6-0.5,3.2,0.1,4.3,1.2c2.4,2.6,0.7,6.8-2.7,7.3
		c-0.9,0.1-0.6,1.4,0.2,1.5c0.9,0.1,2.3,0.4,2.6,1.4c0.2,0.5-0.3,1.8-1,1.4c-0.8-0.5-1.6,0.8-0.8,1.3c1.6,1,3.4-0.7,3.3-2.4
		c-0.1-2.1-2.5-2.9-4.2-3.2c0.1,0.5,0.1,1,0.2,1.5c2.1-0.3,3.9-1.9,4.7-3.9s0.2-4.3-1.3-5.9c-1.5-1.6-3.7-2.3-5.8-1.6
		c-2.1,0.6-3.7,2.3-4.2,4.4C918.6,225.3,920.1,225.7,920.3,224.7z"/>
	<path class="st1" d="M874.7,239.8c0-3.8,0.2-9.2,4.6-10.6c4.6-1.4,6.7,4.5,7.6,7.8c0.2,0.8,1.5,0.7,1.5-0.2
		c-0.1-1.7-0.8-4.6,0.4-6.1c1.6-2,3,1.8,3.2,2.9c0.2,0.8,1.5,0.6,1.5-0.2s-0.1-1.6,0.2-2.3c0.3-0.6,1.1-1.1,1.6-0.5
		c0.7,0.7,1.7-0.4,1.1-1.1c-0.9-0.9-2.2-0.8-3.2-0.1c-1.2,0.9-1.3,2.6-1.2,4c0.5-0.1,1-0.1,1.5-0.2c-0.5-2.1-2.1-5.6-4.9-4.2
		c-2.7,1.3-1.9,5.5-1.7,7.9c0.5-0.1,1-0.1,1.5-0.2c-0.7-2.4-1.4-5-3.2-6.9c-1.5-1.6-3.7-2.6-6-2.1c-5.4,1.2-6,7.6-6,12.1
		C873.2,240.8,874.7,240.8,874.7,239.8z"/>
	<path class="st1" d="M886.2,246.5c1.9,1.3,4.5,2.3,6.8,1.5c1.8-0.6,3-2.3,3.1-4.2c0-1-0.3-2-1.1-2.7c-0.3-0.3-0.8-0.3-1.1,0
		s-0.3,0.8,0,1.1c0.6,0.5,0.8,1.2,0.7,1.9c-0.1,0.8-0.6,1.5-1.2,2c-1.9,1.5-4.7,0.2-6.4-0.9C886.2,244.7,885.4,246,886.2,246.5z"/>
	<path class="st1" d="M906.4,239.7c-1.7-1.7-2.7-4.8-0.9-6.8c1.2-1.4,4-1.9,5.2-0.2c0.5,0.8,1.8,0.1,1.3-0.8
		c-0.4-0.6-0.4-1.4,0.2-1.9c0.6-0.5,1.3-0.4,1.9,0c0.8,0.6,1.5-0.7,0.8-1.3c-1.1-0.8-2.7-0.7-3.7,0.3s-1.1,2.6-0.4,3.7
		c0.4-0.2,0.9-0.5,1.3-0.8c-1.7-2.4-5.5-2.3-7.5-0.2c-2.4,2.6-1.4,6.7,0.8,9C906,241.5,907,240.4,906.4,239.7z"/>
	<path class="st2" d="M897.7,272.1c0.2-1.3,1.5-2.7,1.9-4c1.1-2.3,3.1-3.3,5.2-4.8c0.3-0.2,0.7-0.4,0.9-0.7c0.4-0.5-0.4-2.1-0.7-2.6
		c-0.4-0.8-1.3-0.9-2.1-0.5c-2.3,1-4,3.2-5.2,5.4c-1.1,2-1.9,4.1-2.3,6.3c-0.1,0.8,0.2,4.1,1,4.4C897.3,275.8,897.5,273,897.7,272.1
		z"/>
	<path class="st2" d="M909.3,266.3c-2.1,0.5-3.9,2.1-4.3,4.1c-0.4,2.1,0.6,4.4,2.3,5.5s4,1.1,5.6-0.1c1.6-1.1,2.5-3.3,1.9-5.2
		C914.8,270.7,913.4,265.4,909.3,266.3z"/>
	<path class="st2" d="M926.3,257.8c-1.2,0.3-2.3,1.2-2.6,2.5s0.3,2.6,1.4,3.3c1,0.6,2.4,0.6,3.3,0s1.5-2,1.2-3.1
		C929.6,260.5,928.7,257.3,926.3,257.8z"/>
	<path class="st9" d="M882.8,318.2c-1.4,0.1-2.7,0.9-3.9,1.7c-0.5,0.3-1.1,0.7-1.4,1.2c-0.5,0.7-0.6,1.7-0.7,2.6
		c-0.1,1.9-0.4,4.8,1,6.1c2.2,2.3,4.1,2.8,7.1,2.5c1.9-0.2,3.9-0.6,5.4-1.8c2.5-1.8,3.6-5.4,2.6-8.3c-1.1-2.9-4.2-5-7.3-4.7"/>
	<path class="st9" d="M882,318.8c-0.2-1.8-0.4-4.1,1.2-5.4c0.6-0.5,1.6-0.7,2.4-0.6c0.3,0,0.6,0.1,0.8,0.3c0.2,0.3,0.3,0.7,0.3,1.1
		c0.2,1.3,0.3,2.6,0.3,3.9c0,1,1.5,1,1.5,0c0-1.4-0.2-2.7-0.3-4c-0.1-0.6-0.2-1.2-0.5-1.7s-0.8-0.8-1.4-0.9c-1.1-0.3-2.4,0-3.4,0.5
		s-1.7,1.5-2.1,2.6c-0.5,1.4-0.4,2.9-0.3,4.4c0,0.4,0.3,0.8,0.8,0.8C881.6,319.5,882,319.2,882,318.8z"/>
</g>
<path class="st2" d="M719.4,636.3c0,5.2,0,10.5,0,15.8c0,0.7,0,1.3,0.2,1.9c0.4,1,1.2,1.8,2.2,2.3c2.5,1.3,5.4,1.3,8.2,1.2
	c0.6,0,1.3-0.2,1.5-0.7c0.1-0.4-0.1-0.9-0.4-1.2c-0.8-1-1.7-1.9-2.8-2.6c-0.4-0.2-0.8-0.5-0.9-0.9c-0.1-0.3-0.1-0.6-0.1-0.9
	c0.1-4.3,0.3-8.6,0.8-12.8"/>
<path class="st2" d="M781.7,643c0,4.4,0,8.8,0,13.2c0,0.7,0,1.4,0.4,1.9c0.4,0.6,1.2,0.8,1.9,0.9c1.9,0.3,3.8,0.4,5.6,0.2
	c0.9-0.1,1.9-0.2,2.5-0.9c0.4-0.4,0.6-1,0.8-1.6c0.4-1.4,0.5-3.2-0.7-3.9c-0.8-0.5-2-0.3-2.6-1.1c-0.3-0.4-0.3-0.9-0.3-1.3
	c-0.2-4.6-0.1-9.2,0.3-13.7L781.7,643z"/>
<path class="st2" d="M806.4,567.4c4-10.2,10.5-19.3,18.8-26.4c1-0.9,2.1-1.7,3.5-2c3.1-0.6,6,2.4,6.4,5.5s-0.8,6.2-2.1,9.1
	c-2.4,5.7-4.9,11.4-7.3,17.1c-3.6,8.4-7.8,17.5-16.1,21.2"/>
<path class="st2" d="M709.9,609.5c-12.2,8.1-8.3,20.1-5,25.8c4.9,8.5,32.3,10.2,42.1,11.5c48.6,6.8,66.5-19.9,67.7-52.9
	c0.9-24.1-5.5-30.1-26.9-30c-6.2,0-17.6,4.5-21.8,9c-9.9,10.9-11,24.4-24.7,29.9c-5.2,2.1-10.9,2.5-16.6,3
	C719.7,606.3,712.8,607.6,709.9,609.5z"/>
<path class="st1" d="M779.2,601.3c-7,7.2-14.3,14.7-18,24.1c-0.5,1.4-1,2.9-0.8,4.4c0.4,3,3.4,5.1,6.3,5.5c3,0.4,6-0.5,8.8-1.5
	c4-1.3,8-2.6,12-3.9c0.6-0.2,1.3-0.4,1.8-1s0.6-1.3,0.7-2.1c0.6-5.2,1.2-10.4,1.8-15.6c2,5.6,2.8,8.6,4.8,14.2
	c1.4,3.8,5,4.9,8.4,6.6c4.1,2,15.8,6.4,16.7-2.2c0.5-4.5-1-9.2-2.1-13.6c-1-4-1.5-5.9-2.3-10.1c-0.9-4.6-1.8-7.2-6.7-8.3
	c-7.9-1.7-12.3-1.5-20.1,0.5"/>
<path class="st2" d="M760.7,587.8c-3.8-1.7-7.9-3.8-9.1-7.3c-1.4-4,1.6-8.4,3.4-12.5c4.4-9.8,2.2-20.4,0.7-30.4
	c-0.3-2,0-4.8,2.5-5.3c1.4-0.3,2.7,0.5,3.8,1.3c9.5,7.1,14.3,17.7,16.7,28.3c1.1,4.7,1.7,9.9-1.2,14.3c-1.9,2.8-5,5-8,7.1
	c-2.5,1.7-5.4,3.5-8.5,3.3"/>
<path class="st5" d="M775.8,594.2c-3.5,4.1-5.6,9.6-1.1,12.7c3,2.1,7.5,1.5,11,1.8c6.5,0.4,13,0.1,19.5-0.9c3.1-0.5,6.5-1.4,8.2-4
	c1.3-2.1,1.3-4.7,1.2-7.1c-0.2-5.7-3.4-8.2-9-8.2c-7.6-0.1-15.8-1.9-23.2,0.8C780.4,589.9,777.9,591.8,775.8,594.2z"/>
<path class="st5" d="M801.9,580.7c-1.6,0.1-3.7,1.5-2.8,3c2.6,4.6,7.4-1.3,3.8-2.9C802.6,580.7,802.3,580.7,801.9,580.7z"/>
<path class="st5" d="M787.6,578c-3.1,0.1-6,2.6-5.1,5.4c1.8,5.4,12.4,2.3,9.5-2.4C790.9,579.1,789.8,577.9,787.6,578z"/>
<path class="st2" d="M705.2,629.2c-0.2,9.4-0.5,18.9-0.7,28.3c0,0.8,0,1.5,0.2,2.3c0.7,2.5,3.7,3.5,6.3,3.8c1.2,0.2,2.4,0.3,3.5-0.1
	c1.1-0.3,2.2-1.3,2.3-2.4c0.2-1.3-0.7-2.4-1.7-3.3c-1-0.8-2.1-1.6-2.7-2.7c-0.7-1.3-0.7-2.8-0.6-4.2c0.2-6.2,0.4-12.5,0.6-18.7
	L705.2,629.2z"/>
<path class="st2" d="M760.3,641.2c0,7.2,0,14.3,0,21.5c0,1,0,2,0.4,3c1.1,2.4,4.1,2.8,6.7,2.9c1.2,0,2.6,0,3.7-0.6
	c1.2-0.7,1.8-2.3,1.6-3.7s-1.3-2.6-2.5-3.2c-0.6-0.3-1.3-0.5-1.7-1.1c-0.2-0.4-0.2-0.9-0.2-1.3c0-4.8,0.2-9.7,0.6-14.5"/>
<path class="st0" d="M777.3,577.8c0.1-0.2,0.2-0.3,0.3-0.5s0,0,0,0s0.1-0.2,0.2-0.2c0.2-0.3,0.5-0.5,0.7-0.8
	c0.3-0.3,0.5-0.5,0.8-0.8c0.1-0.1,0.1-0.1,0.2-0.1c0.3-0.2-0.2,0.1,0,0s0.3-0.2,0.5-0.3c0.6-0.4,1.2-0.7,1.8-1h0.1
	c0.1,0,0.1,0-0.1,0l0.2-0.1c0.2-0.1,0.4-0.1,0.5-0.2c0.3-0.1,0.7-0.2,1.1-0.3c0.8-0.2,1.3-1.1,1-1.9c-0.3-0.8-1-1.2-1.8-1
	c-3.3,0.8-6.2,2.8-8,5.6c-0.4,0.7-0.2,1.7,0.5,2C776,578.7,776.8,578.5,777.3,577.8z"/>
<path class="st0" d="M801.5,573.1c0.3,0.1,0.7,0.2,1,0.3c0.1,0,0.2,0.1,0.2,0.1c0.3,0.1-0.3-0.1,0,0c0.2,0.1,0.3,0.2,0.5,0.2
	c0.3,0.2,0.6,0.3,0.9,0.5l0.1,0.1c-0.1,0-0.1-0.1-0.2-0.1c0.1,0.1,0.1,0.1,0.2,0.2c0.2,0.1,0.3,0.2,0.4,0.4c0.2,0.2,0.5,0.5,0.7,0.8
	c0.1,0.1-0.2-0.3,0,0c0,0.1,0.1,0.1,0.2,0.2c0.1,0.1,0.2,0.3,0.3,0.4c0.1,0.2,0.2,0.3,0.2,0.5c0,0.1,0.1,0.2,0.1,0.2
	s0.2,0.3,0.1,0.1c-0.1-0.2,0,0.1,0,0.1c0,0.1,0.1,0.2,0.1,0.2c0.1,0.2,0.1,0.4,0.2,0.5c0.2,0.8,1.1,1.3,1.8,1c0.8-0.2,1.2-1,1.1-1.8
	c-0.9-3.4-3.7-6.2-7.1-6.9c-0.8-0.2-1.7,0.2-1.8,1.1C800.2,572,800.6,573,801.5,573.1z"/>
<path class="st2" d="M713.3,608.6c-1.6-1.9-3.6-3.6-5.8-4.8c-1.3-0.8-2.6-1.4-4.1-1.5c-1.5-0.2-3,0.2-4.1,1.2
	c-1.5,1.4-1.6,3.8-1.3,5.8c0.2,1.6,0.7,3.2,1.7,4.5c1.7,2.4,4.6,3.6,7.4,4.7L713.3,608.6z"/>
<path class="st3" d="M776.4,615.7C776.6,615.6,776.5,615.7,776.4,615.7C776.4,615.8,776.2,615.8,776.4,615.7
	C776.3,615.7,776.3,615.7,776.4,615.7c-0.1,0.1-0.1,0.1-0.2,0.1S776.4,615.8,776.4,615.7c-0.2,0.1-0.3,0.1-0.4,0.1s0.1,0,0.1,0
	s0,0-0.1,0s-0.1,0-0.2,0c0,0-0.2-0.1-0.1,0c0.1,0.1,0,0-0.1,0s-0.2-0.1-0.3-0.2c0,0,0.1,0.1,0.1,0c0,0,0,0-0.1,0l-0.1-0.1l-0.1-0.1
	l0,0c-0.1-0.1,0.1,0.1,0,0s-0.1-0.2-0.2-0.3c0,0,0,0,0-0.1s0,0.1,0,0.1c0-0.1,0-0.1-0.1-0.2c0,0,0-0.1,0-0.2c0-0.2,0,0.2,0,0v-0.1
	c0,0,0,0,0-0.1s0-0.1,0,0c0,0,0-0.1,0-0.2c0,0,0.1-0.2,0-0.1s0,0,0-0.1c0,0,0,0,0-0.1c0.1-0.1,0,0,0,0c0.1-0.1,0.1-0.1,0.2-0.2
	c0.1-0.1-0.2,0.1,0,0l0.1-0.1l0,0c0.1-0.1-0.1,0-0.1,0h0.1h0.1c0,0,0,0,0.1,0s-0.2,0-0.1,0c0.1,0,0.2,0,0.3,0c0,0,0.1,0,0.2,0
	c0,0,0,0,0.1,0s-0.2,0,0,0c0.1,0,0.2,0,0.3,0.1h0.1c0,0,0,0,0.1,0s-0.2-0.1-0.1,0c0.1,0,0.2,0.1,0.3,0.1l0.1,0.1c0,0,0.1,0.1-0.1,0
	c0,0,0,0,0.1,0.1s0.1,0.1,0.2,0.2c0.1,0.1-0.1-0.1,0,0c0,0.1,0.1,0.1,0.1,0.2c0,0,0,0.1,0.1,0.1c0,0.1-0.1-0.2,0-0.1c0,0,0,0,0,0.1
	c0,0,0,0.1,0,0.2c0,0,0,0,0,0.1s0-0.2,0-0.1c0,0.1,0,0.2,0,0.4c0,0,0-0.2,0-0.1v0.1c0,0,0,0.1,0,0.2c0,0,0,0,0,0.1s0,0,0-0.1
	c0,0,0,0.1-0.1,0.1c0,0.1-0.1,0.1-0.1,0.1s0,0,0,0.1c-0.1,0.1,0.1-0.1,0,0s-0.2,0.2-0.3,0.3c0,0,0,0-0.1,0c-0.1,0.1,0,0,0,0
	c-0.1,0-0.1,0.1-0.2,0.1c-0.1,0.1-0.2,0.1-0.4,0.2c0,0,0.2-0.1,0.1,0h-0.1c-0.1,0-0.1,0-0.2,0.1c-0.1,0-0.1,0-0.2,0c0,0-0.1,0,0,0
	s0,0,0,0c-0.1,0-0.3,0-0.4,0c-0.1,0,0.1,0,0.1,0H775c-0.1,0-0.1,0-0.2,0c0,0,0,0-0.1,0s0-0.1,0,0c0,0-0.1-0.1-0.2-0.1
	c0.1,0.1,0.2,0.3,0.3,0.4c0-0.2,0,0.2,0,0l0,0c0-0.1,0-0.1,0,0s0,0,0,0v-0.1c0,0-0.1,0.2,0,0c0,0,0-0.1,0.1-0.1c0.1-0.1-0.1,0.1,0,0
	l0.1-0.1l0,0c0,0,0,0-0.1,0l0.1-0.1c0,0,0.1,0,0.1-0.1c0.1-0.1-0.1,0,0,0h0.1c0.1,0-0.2,0,0,0h0.1c0,0-0.2,0,0,0
	c0.4,0.1,0.8-0.1,0.9-0.5c0.1-0.4-0.1-0.8-0.5-0.9c-1-0.3-2.1,0.4-2.4,1.4c-0.1,0.2-0.1,0.4-0.1,0.6c0,0.2,0.1,0.5,0.2,0.7
	c0.1,0.1,0.2,0.2,0.3,0.2c0.4,0.2,0.8,0.3,1.2,0.3c1.6,0,3.1-1.2,3.2-2.8c0.1-1.6-1.3-2.7-2.8-2.8c-0.7,0-1.4,0.2-1.9,0.7
	c-0.6,0.5-0.8,1.4-0.6,2.1c0.2,0.8,0.8,1.5,1.5,1.9c0.4,0.2,0.8,0.3,1.2,0.3c0.5,0,0.9-0.2,1.3-0.5c0.3-0.2,0.3-0.8,0-1.1
	C777.2,615.4,776.8,615.5,776.4,615.7z"/>
<path class="st3" d="M780.9,627.8C781.2,628,781,627.8,780.9,627.8C780.9,627.7,781.1,628,780.9,627.8
	C781,627.8,780.9,627.8,780.9,627.8C780.9,627.7,780.9,627.7,780.9,627.8C781,627.9,781,627.8,780.9,627.8c0-0.1,0-0.2-0.1-0.2
	C780.9,627.6,780.9,627.7,780.9,627.8c0-0.2,0-0.3,0-0.4c0,0.1,0,0.1,0,0.2c0-0.1,0-0.1,0.1-0.2v-0.1c0,0,0,0,0-0.1
	c0,0-0.1,0.2,0,0.1c0-0.1,0.1-0.1,0.1-0.2c0,0,0-0.1,0.1-0.1c0.1-0.1-0.1,0.2,0,0c0-0.1,0.1-0.1,0.2-0.2l0,0c0.1,0-0.2,0.1-0.1,0.1
	c0,0,0.1,0,0.1-0.1c0,0,0.1,0,0.1-0.1l0,0c0,0-0.2,0.1-0.1,0c0.1,0,0.2,0,0.2-0.1c-0.1,0-0.1,0-0.2,0c0.1,0,0.2,0,0.3,0
	c-0.1,0-0.1,0-0.2,0c0.1,0,0.1,0,0.2,0c0.1,0-0.1-0.1-0.1,0c0,0,0,0,0.1,0c0,0,0,0,0.1,0c0.1,0.1-0.1-0.1-0.1,0l0.1,0.1
	c0.1,0.1-0.1-0.2-0.1-0.1c0,0,0,0,0,0.1s0.1,0.2,0,0c0,0.1,0.1,0.2,0.1,0.3c0-0.1,0-0.1,0-0.2c0,0.1,0,0.3,0,0.5c0-0.1,0-0.1,0-0.2
	c0,0.1-0.1,0.3-0.1,0.4c0,0.1,0.1-0.2,0-0.1l0,0v0.1c0,0,0,0.1-0.1,0.1c0,0-0.1,0.1,0,0s0,0,0,0s0,0.1-0.1,0.1c0,0-0.1,0-0.1,0.1
	c0,0,0.2-0.1,0.1-0.1c0,0,0,0-0.1,0c0,0,0,0-0.1,0l0,0c0,0,0.2-0.1,0.1-0.1c-0.1,0-0.1,0-0.2,0.1c0.1,0,0.1,0,0.2,0
	c-0.1,0-0.2,0-0.2,0c-0.4,0-0.8,0.4-0.8,0.8c0,0.4,0.3,0.7,0.8,0.8c1.5,0.1,2.4-1.7,1.9-3c-0.2-0.4-0.4-0.7-0.7-1
	c-0.3-0.2-0.7-0.3-1.1-0.3c-0.8,0.1-1.4,0.6-1.8,1.3c-0.2,0.4-0.3,0.9-0.2,1.4c0,0.2,0.1,0.4,0.2,0.6c0.1,0.2,0.3,0.4,0.5,0.6
	c0.1,0.1,0.4,0.1,0.6,0.1c0.2-0.1,0.4-0.2,0.5-0.3c0.1-0.2,0.1-0.4,0.1-0.6C781.2,628.1,781.1,627.9,780.9,627.8z"/>
<path class="st3" d="M811.4,625.7C811.6,625.9,811.4,625.7,811.4,625.7C811.3,625.6,811.5,625.8,811.4,625.7L811.4,625.7
	C811.4,625.6,811.4,625.6,811.4,625.7C811.5,625.8,811.4,625.7,811.4,625.7c0-0.1,0-0.2-0.1-0.2
	C811.3,625.5,811.4,625.6,811.4,625.7c0-0.2,0-0.3,0-0.4c0,0.1,0,0.1,0,0.2c0-0.1,0-0.1,0-0.2v-0.1c0,0,0,0,0-0.1c0,0-0.1,0.2,0,0.1
	c0-0.1,0.1-0.1,0.1-0.2c0,0,0-0.1,0.1-0.1c0.1-0.1-0.1,0.2,0,0c0-0.1,0.1-0.1,0.1-0.2c0,0,0,0,0.1,0s-0.2,0.1-0.1,0.1
	c0,0,0.1,0,0.1-0.1c0,0,0.1,0,0.1-0.1l0,0c0,0-0.2,0.1-0.1,0s0.2,0,0.2-0.1c-0.1,0-0.1,0-0.2,0c0.1,0,0.2,0,0.3,0
	c-0.1,0-0.1,0-0.2,0c0.1,0,0.1,0,0.2,0c0.2,0.1-0.1-0.1-0.1,0h0.1c0,0,0,0,0.1,0c0.1,0.1-0.1-0.1-0.1,0l0.1,0.1
	c0.1,0.1-0.1-0.2,0-0.1c0,0,0,0,0,0.1s0.1,0.2,0,0c0,0.1,0.1,0.2,0.1,0.3c0-0.1,0-0.1,0-0.2c0,0.1,0,0.3,0,0.5c0-0.1,0-0.1,0-0.2
	c0,0.1-0.1,0.3-0.1,0.4c0,0.1,0.1-0.2,0-0.1l0,0c0,0,0,0.1-0.1,0.1c0,0,0,0.1-0.1,0.1c0,0-0.1,0.1,0,0s0,0,0,0l-0.1,0.1
	c0,0-0.1,0-0.1,0.1c0,0,0.2-0.1,0.1-0.1l0,0c0,0,0,0-0.1,0c0,0,0,0-0.1,0c0,0,0.2-0.1,0.1,0c-0.1,0-0.1,0-0.2,0c0.1,0,0.1,0,0.2,0
	c-0.1,0-0.2,0-0.2,0c-0.4,0-0.8,0.4-0.8,0.8c0,0.4,0.3,0.7,0.8,0.8c1.5,0.1,2.4-1.7,1.9-3c-0.1-0.4-0.4-0.7-0.7-1
	c-0.3-0.2-0.7-0.3-1.1-0.3c-0.8,0.1-1.4,0.6-1.8,1.3c-0.2,0.5-0.3,0.9-0.2,1.4c0,0.2,0.1,0.4,0.2,0.6c0.1,0.2,0.3,0.4,0.5,0.6
	c0.1,0.1,0.4,0.1,0.6,0.1c0.2-0.1,0.4-0.2,0.4-0.3c0.1-0.2,0.1-0.4,0.1-0.6C811.7,625.9,811.6,625.8,811.4,625.7z"/>
<path class="st3" d="M768.7,626.6L768.7,626.6c0,0,0.1,0,0.2-0.1C768.9,626.5,768.8,626.6,768.7,626.6c0.1,0,0.2,0,0.2-0.1
	C768.9,626.5,768.9,626.5,768.7,626.6c0.2,0,0.2,0,0.3,0C768.9,626.6,768.9,626.6,768.7,626.6c0.2,0,0.2,0,0.3,0.1
	C768.9,626.7,768.9,626.6,768.7,626.6l0.2,0.1c-0.1,0-0.1-0.1-0.2-0.2C768.7,626.6,768.8,626.6,768.7,626.6c0.1,0,0,0,0-0.1
	C768.7,626.6,768.8,626.6,768.7,626.6c0.1,0,0.1,0,0.1-0.1C768.8,626.6,768.8,626.6,768.7,626.6c0.1,0,0.1,0,0.1-0.1
	C768.8,626.6,768.8,626.6,768.7,626.6L768.7,626.6c0.1,0.1,0.1,0.1,0,0.2c0,0,0-0.1,0.1-0.1c0,0-0.1,0.1-0.1,0.2l0.1-0.1
	c0,0-0.1,0.1-0.2,0.1l0.1-0.1c-0.1,0-0.1,0-0.2,0.1c0,0,0.1,0,0.2,0c-0.1,0-0.1,0-0.2,0c0.1,0,0.1,0,0.2,0c-0.1,0-0.1,0-0.2,0
	c0.1,0,0.1,0,0.2,0.1c-0.1,0-0.1,0-0.2-0.1c0.1,0,0.1,0.1,0.2,0.1c0,0-0.1-0.1-0.2-0.1l0.1,0.1C768.8,626.8,768.8,626.7,768.7,626.6
	c0.1,0.1,0.1,0.2,0.1,0.2S768.8,626.7,768.7,626.6c0,0.1,0,0.1,0.1,0.2C768.8,626.7,768.8,626.6,768.7,626.6
	C768.8,626.6,768.8,626.6,768.7,626.6c0,0.2,0.1,0.4,0.2,0.5c0.1,0.1,0.3,0.2,0.5,0.2s0.4-0.1,0.5-0.2c0.1-0.1,0.2-0.3,0.2-0.5
	s-0.1-0.5-0.2-0.7c-0.1-0.2-0.3-0.4-0.5-0.5c-0.3-0.2-0.8-0.3-1.2-0.2c-0.1,0-0.2,0.1-0.3,0.1s-0.2,0.1-0.3,0.2c0,0,0,0-0.1,0.1
	s-0.1,0.1-0.2,0.2c0,0.1-0.1,0.2-0.1,0.2v0.1c0,0.1,0,0.2,0,0.4s0,0.2,0.1,0.4s0.2,0.4,0.4,0.6c0.2,0.2,0.4,0.3,0.7,0.4
	c0.1,0,0.2,0,0.3,0h0.1c0.1,0,0.2,0,0.3,0s0.2-0.1,0.3-0.1s0.2-0.1,0.2-0.2c0.1-0.1,0.1-0.2,0.1-0.3c0-0.2,0-0.4-0.1-0.6
	c-0.1-0.2-0.3-0.3-0.4-0.3c-0.1,0-0.1,0-0.2,0C769,626.5,768.9,626.5,768.7,626.6z"/>
<path class="st3" d="M813.1,615.1L813.1,615.1c0,0,0.1,0,0.2-0.1C813.3,615,813.2,615,813.1,615.1c0.1,0,0.2,0,0.2-0.1
	C813.3,615,813.3,615,813.1,615.1c0.2,0,0.2,0,0.3,0C813.3,615.1,813.3,615.1,813.1,615.1c0.2,0,0.2,0,0.3,0.1
	C813.3,615.2,813.3,615.1,813.1,615.1c0.1,0,0.2,0.1,0.3,0.1c-0.1,0-0.1-0.1-0.2-0.2c0,0,0.1,0.1,0.1,0.2c0-0.1-0.1-0.1-0.1-0.2
	c0,0.1,0,0.1,0.1,0.2c0-0.1,0-0.1-0.1-0.2C813.2,615.1,813.2,615.1,813.1,615.1c0.1,0,0.1,0,0.1-0.1
	C813.2,615.1,813.2,615.1,813.1,615.1L813.1,615.1c0.1,0.1,0.1,0.1,0,0.2c0,0,0-0.1,0.1-0.1l-0.1,0.1l0.1-0.1l-0.1,0.1
	c0,0,0.1,0,0.1-0.1c-0.1,0-0.1,0-0.2,0.1c0,0,0.1,0,0.2,0c-0.1,0-0.1,0-0.2,0c0.1,0,0.1,0,0.2,0c-0.1,0-0.1,0-0.2,0
	c0.1,0,0.2,0,0.2,0.1c-0.1,0-0.1-0.1-0.2-0.1c0.1,0,0.1,0.1,0.2,0.1l-0.1-0.1l0.1,0.1C813.3,615.2,813.2,615.2,813.1,615.1
	c0.1,0.1,0.1,0.2,0.1,0.2C813.2,615.2,813.2,615.2,813.1,615.1c0,0.1,0,0.1,0.1,0.2C813.2,615.2,813.2,615.1,813.1,615.1
	C813.2,615,813.2,615.1,813.1,615.1c0,0.2,0.1,0.4,0.2,0.5c0.1,0.1,0.3,0.2,0.5,0.2s0.4-0.1,0.5-0.2c0.1-0.1,0.2-0.3,0.2-0.5
	s-0.1-0.5-0.2-0.7c-0.1-0.2-0.3-0.4-0.5-0.5c-0.4-0.2-0.8-0.3-1.2-0.2c-0.1,0-0.2,0.1-0.3,0.1s-0.2,0.1-0.3,0.2c0,0,0,0-0.1,0.1
	c0,0.1-0.1,0.1-0.2,0.2c0,0.1-0.1,0.2-0.1,0.2v0.1c0,0.1,0,0.2,0,0.4c0,0.1,0,0.2,0.1,0.4s0.2,0.4,0.4,0.6c0.2,0.2,0.4,0.3,0.7,0.4
	c0.1,0,0.2,0,0.3,0h0.1c0.1,0,0.2,0,0.3,0s0.2-0.1,0.3-0.1s0.2-0.1,0.2-0.2c0.1-0.1,0.1-0.2,0.1-0.3c0-0.2,0-0.4-0.1-0.6
	c-0.1-0.2-0.3-0.3-0.5-0.3c-0.1,0-0.1,0-0.2,0C813.4,615,813.3,615,813.1,615.1z"/>
<g>
	<rect x="200.5" y="145" class="st2" width="585" height="357"/>
	<path class="st3" d="M357,214.2l21.1,29.7V259h13.1v-15.1l21.1-29.7h-14.5l-13,19.3l-13.1-19.3H357z M431,260.5
		c14.2,0,23.2-7.4,23.2-19.2c0-11.9-9-19.1-23.2-19.1c-14.3,0-23.2,7.2-23.2,19.1C407.8,253.1,416.8,260.5,431,260.5z M431,250.7
		c-6.5,0-11.1-3.3-11.1-9.5c0-6.3,4.7-9.5,11.1-9.5s11.1,3.2,11.1,9.5C442.2,247.5,437.5,250.7,431,250.7z M491,223.5v21
		c-2.7,4.4-6.2,6.3-10.4,6.3c-4.8,0-7.4-2.7-7.4-7.3v-20h-12.6v20.9c0,9.3,5.6,15.9,15.9,15.9c6.3,0,11.6-2.5,14.6-6.9v5.6h12.6
		v-35.5H491z M518.2,213.1c-4.2,0-7.2,2.8-7.2,6.3c0,3.7,3,6.4,6.7,6.4c1,0,1.5-0.1,1.8-0.4c-0.8,3-3,5.3-6.2,7.7l2.6,3.6
		c6.8-4,10-10.8,10-15.5C525.9,216.8,523,213.1,518.2,213.1z M545.9,259v-17.1c1.9-5.8,7.3-8.7,14.8-8.7v-10.5
		c-6.3,0-11.9,2.4-14.8,7.4v-6.6h-12.6V259H545.9z M575.3,244h32.4c0.3-0.7,0.3-1.5,0.3-2.9c0-12.5-9.1-18.9-21.9-18.9
		c-14.2,0-22.8,7.3-22.8,19.2c0,11.9,8.8,19.2,23.8,19.2c8.1,0,14.6-1.8,19.6-6.3l-6.4-6.7c-3.5,2.7-6.9,4-12.5,4
		C580.6,251.5,576.4,249.3,575.3,244z M586.3,230.9c5.4,0,8.8,2,10.1,6.1l-20.7,0.1C577.1,232.9,580.8,230.9,586.3,230.9z
		 M377.1,293.5v21c-2.7,4.4-6.2,6.3-10.4,6.3c-4.8,0-7.4-2.7-7.4-7.3v-20h-12.6v20.9c0,9.3,5.6,15.9,15.9,15.9
		c6.3,0,11.6-2.5,14.6-6.9v5.6h12.6v-35.5H377.1z M411.3,329v-21c2.7-4.4,6.3-6.3,10.4-6.3c4.8,0,7.4,2.7,7.4,7.3v20h12.6v-20.9
		c0-9.3-5.6-15.9-15.9-15.9c-6.3,0-11.6,2.5-14.6,6.9v-5.6h-12.6V329H411.3z M456.6,290c4.2,0,7.2-2.4,7.2-6s-3-6-7.2-6
		c-4.3,0-7.3,2.4-7.3,6C449.3,287.6,452.3,290,456.6,290z M463,293.5h-12.7V329H463V293.5z M488.5,330.3c6.5,0,11.5-2.5,14.6-6.5v18
		h12.7v-48.3h-12.7v5.2c-3.1-4-8.1-6.5-14.6-6.5c-11.1,0-18.8,7.3-18.8,19.1C469.7,323,477.3,330.3,488.5,330.3z M492,301.9
		c4.3,0,8.3,1.5,11.1,5.1v8.6c-2.8,3.6-6.8,5.1-11.1,5.1c-6.7,0-10.4-3.5-10.4-9.3C481.6,305.3,485.3,301.9,492,301.9z M554.7,293.5
		v21c-2.7,4.4-6.2,6.3-10.4,6.3c-4.8,0-7.4-2.7-7.4-7.3v-20h-12.6v20.9c0,9.3,5.6,15.9,15.9,15.9c6.3,0,11.6-2.5,14.6-6.9v5.6h12.6
		v-35.5H554.7z M586.2,314h32.4c0.3-0.7,0.3-1.5,0.3-2.9c0-12.5-9.1-18.9-21.9-18.9c-14.2,0-22.8,7.3-22.8,19.2s8.8,19.2,23.8,19.2
		c8.1,0,14.6-1.8,19.6-6.3l-6.4-6.7c-3.5,2.7-6.9,4-12.5,4C591.5,321.5,587.2,319.3,586.2,314z M597.1,300.9c5.4,0,8.8,2,10.1,6.1
		l-20.7,0.1C587.9,302.9,591.7,300.9,597.1,300.9z M631.2,329.8c4.3,0,7.3-2.7,7.3-6.3c0-3.6-3-6.4-7.3-6.4c-4.4,0-7.4,2.8-7.4,6.4
		C623.9,327.1,626.9,329.8,631.2,329.8z"/>
	<path class="st3" d="M309.9,367.1h2.4l3.5,18.4h0.9l4.1-18.3h2.6l4.1,18.3h0.9l3.5-18.4h2.4l-4.1,20.4H326l-3.9-17.4l-3.9,17.4
		h-4.1L309.9,367.1z M346.7,385.6l0.9-0.1v1.8c-2.3,0.4-4.1,0.5-5.8,0.5c-2.1,0-3.6-0.6-4.5-1.9c-0.9-1.3-1.4-3.1-1.4-5.8
		c0-5.1,2-7.8,6.1-7.8c2,0,3.5,0.5,4.5,1.6c1,1.1,1.5,2.9,1.5,5.3l-0.1,1.6h-9.8c0,1.6,0.3,2.9,0.9,3.6c0.6,0.8,1.6,1.1,3,1.1
		C343.7,385.8,345.2,385.7,346.7,385.6z M346,379.2c0-1.8-0.3-3.1-0.9-3.9c-0.6-0.8-1.5-1.1-2.9-1.1c-1.3,0-2.3,0.4-3,1.1
		c-0.6,0.8-1,2-1,3.8h7.8V379.2z M350.7,373.1l1.3-6.5h2.4l-1.9,6.5H350.7z M357.9,387.5v-21.2h2.3v21.2H357.9z M364.7,387.5v-21.2
		h2.3v21.2H364.7z M384.3,372.4c2,0,3.4,0.6,4.1,1.8c0.8,1.1,1.3,3.1,1.3,5.9c0,2.8-0.5,4.9-1.5,6c-1,1.1-2.8,1.8-5.5,1.8
		c-0.9,0-2.3-0.1-4.1-0.3l-0.9-0.1v-21.2h2.1v7.1C381.5,372.8,382.9,372.4,384.3,372.4z M382.7,385.8c1.9,0,3.3-0.4,3.8-1.3
		c0.6-0.9,1-2.4,1-4.5c0-2.1-0.3-3.5-0.8-4.4s-1.4-1.3-2.6-1.3c-1.1,0-2.3,0.3-3.5,0.6l-0.6,0.3v10.4
		C381.3,385.7,382.2,385.8,382.7,385.8z M402.6,372.7h2.3v14.8h-2.3v-1c-1.5,0.9-2.9,1.4-4.4,1.4c-2,0-3.4-0.5-4-1.5
		c-0.6-1-1-3-1-5.8v-7.6h2.3v7.6c0,2.1,0.1,3.6,0.5,4.3c0.4,0.6,1.3,1.1,2.5,1.1c0.6,0,1.3-0.1,2-0.3c0.6-0.3,1.1-0.4,1.5-0.5
		l0.5-0.3v-12.3H402.6z M409,387.5v-14.8h2.3v14.8H409z M409,369.4v-2.5h2.3v2.5H409z M415.6,387.5v-21.2h2.3v21.2H415.6z
		 M433.7,366.3v21.2h-2.1v-1c-1.5,0.9-3,1.3-4.5,1.3c-0.8,0-1.5-0.1-2-0.3s-1.1-0.5-1.6-1c-1-1-1.6-3-1.6-5.9s0.5-4.9,1.4-6.1
		c1-1.3,2.5-1.9,4.8-1.9c1.1,0,2.4,0.1,3.6,0.4v-6.5h2.1V366.3z M425,384.8c0.4,0.4,0.6,0.6,1,0.8c0.4,0.1,0.8,0.3,1.4,0.3
		c0.6,0,1.3-0.1,1.9-0.3c0.8-0.3,1.3-0.4,1.6-0.5l0.6-0.3v-10c-1.3-0.3-2.4-0.4-3.5-0.4c-1.5,0-2.5,0.5-3.1,1.5
		c-0.6,1-0.9,2.4-0.9,4.4C423.9,382.5,424.3,384.1,425,384.8z M443.1,372.7h2.3l3.6,12.8h1l3.8-12.8h2.3l-6.1,21.3h-2.3l1.9-6.5
		h-2.1L443.1,372.7z M457.7,380.1c0-2.8,0.5-4.6,1.5-5.9c1-1.3,2.6-1.8,4.9-1.8c2.3,0,3.9,0.6,4.9,1.8c1,1.3,1.5,3.1,1.5,5.9
		c0,2.8-0.5,4.6-1.4,5.9c-0.9,1.3-2.5,1.9-5,1.9c-2.4,0-4-0.6-5-1.9C458.2,384.7,457.7,382.7,457.7,380.1z M460,380.1
		c0,2.1,0.3,3.6,0.8,4.5c0.5,0.9,1.6,1.3,3.3,1.3c1.6,0,2.8-0.4,3.3-1.3c0.5-0.9,0.8-2.4,0.8-4.5c0-2.1-0.3-3.6-0.9-4.5
		s-1.6-1.3-3.1-1.3s-2.6,0.4-3.1,1.3S460,377.8,460,380.1z M483.2,372.7h2.3v14.8h-2.3v-1c-1.5,0.9-2.9,1.4-4.4,1.4
		c-2,0-3.4-0.5-4-1.5c-0.6-1-1-3-1-5.8v-7.6h2.3v7.6c0,2.1,0.1,3.6,0.5,4.3c0.4,0.8,1.3,1.1,2.5,1.1c0.6,0,1.3-0.1,2-0.3
		c0.6-0.3,1.1-0.4,1.5-0.5l0.5-0.3v-12.3H483.2z M489.7,387.5v-14.8h2.1v2c1.8-1.1,3.5-2,5.4-2.4v2.3c-0.9,0.1-1.6,0.4-2.6,0.8
		c-0.9,0.4-1.5,0.6-2,0.9l-0.8,0.4v10.8h-2.1V387.5z M512.9,372.4c2,0,3.4,0.6,4.1,1.8c0.8,1.1,1.3,3.1,1.3,5.9c0,2.8-0.5,4.9-1.5,6
		c-1,1.1-2.8,1.8-5.5,1.8c-0.9,0-2.3-0.1-4.1-0.3l-0.9-0.1v-21.2h2.1v7.1C510,372.8,511.5,372.4,512.9,372.4z M511.2,385.8
		c1.9,0,3.3-0.4,3.8-1.3c0.6-0.9,1-2.4,1-4.5c0-2.1-0.3-3.5-0.8-4.4s-1.4-1.3-2.6-1.3c-1.1,0-2.3,0.3-3.5,0.6l-0.6,0.3v10.4
		C509.9,385.7,510.7,385.8,511.2,385.8z M521.9,387.5v-14.8h2.1v2c1.8-1.1,3.5-2,5.4-2.4v2.3c-0.9,0.1-1.6,0.4-2.6,0.8
		c-0.9,0.4-1.5,0.6-2,0.9l-0.8,0.4v10.8h-2.1V387.5z M542.4,377.2v7.5c0,0.8,0.6,1.1,1.8,1.3l-0.1,1.8c-1.5,0-2.8-0.4-3.5-1.1
		c-1.8,0.8-3.5,1.1-5.3,1.1c-1.4,0-2.4-0.4-3.1-1.1c-0.8-0.8-1-1.9-1-3.3s0.4-2.5,1.1-3.1s1.9-1.1,3.4-1.3l4.6-0.5v-1.3
		c0-1-0.3-1.8-0.6-2.1c-0.4-0.4-1-0.6-1.8-0.6c-1.6,0-3.3,0.1-4.9,0.3l-0.9,0.1l-0.1-1.6c2.1-0.4,4.1-0.6,5.8-0.6s2.9,0.4,3.6,1.1
		C542.1,374.3,542.4,375.6,542.4,377.2z M533.4,383.2c0,1.8,0.8,2.8,2.3,2.8c1.4,0,2.6-0.3,4-0.6l0.6-0.3v-4.9l-4.4,0.4
		c-0.9,0.1-1.5,0.4-1.9,0.8S533.4,382.3,533.4,383.2z M549.1,387.5h-2.3v-14.8h2.1v1c1.6-0.9,3.1-1.4,4.5-1.4c2,0,3.3,0.5,4,1.6
		c0.6,1,1,3,1,5.6v7.8h-2.1v-7.6c0-2-0.3-3.4-0.6-4.1c-0.4-0.8-1.3-1.1-2.5-1.1c-0.6,0-1.3,0.1-2,0.3c-0.6,0.1-1.3,0.4-1.6,0.5
		l-0.5,0.3V387.5z M574,366.3v21.2h-2.1v-1c-1.5,0.9-3,1.3-4.5,1.3c-0.8,0-1.5-0.1-2-0.3c-0.6-0.3-1.1-0.5-1.6-1c-1-1-1.6-3-1.6-5.9
		s0.5-4.9,1.4-6.1c1-1.3,2.5-1.9,4.8-1.9c1.1,0,2.4,0.1,3.6,0.4v-6.5h2.1V366.3z M565.4,384.8c0.4,0.4,0.6,0.6,1,0.8
		c0.4,0.1,0.8,0.3,1.4,0.3c0.6,0,1.3-0.1,1.9-0.3c0.8-0.3,1.3-0.4,1.6-0.5l0.6-0.3v-10c-1.3-0.3-2.4-0.4-3.5-0.4
		c-1.5,0-2.5,0.5-3.1,1.5c-0.6,1-0.9,2.4-0.9,4.4C564.4,382.5,564.6,384.1,565.4,384.8z M584.8,387.5v-14.8h2.3v14.8H584.8z
		 M584.8,369.4v-2.5h2.3v2.5H584.8z M602.6,366.3v21.2h-2.1v-1c-1.5,0.9-3,1.3-4.5,1.3c-0.8,0-1.5-0.1-2-0.3c-0.6-0.3-1.1-0.5-1.6-1
		c-1-1-1.6-3-1.6-5.9s0.5-4.9,1.4-6.1c1-1.3,2.5-1.9,4.8-1.9c1.1,0,2.4,0.1,3.6,0.4v-6.5h2.1V366.3z M593.9,384.8
		c0.4,0.4,0.6,0.6,1,0.8c0.4,0.1,0.8,0.3,1.4,0.3s1.3-0.1,1.9-0.3c0.8-0.3,1.3-0.4,1.6-0.5l0.6-0.3v-10c-1.3-0.3-2.4-0.4-3.5-0.4
		c-1.5,0-2.5,0.5-3.1,1.5c-0.6,1-0.9,2.4-0.9,4.4C592.9,382.5,593.2,384.1,593.9,384.8z M616.9,385.6l0.9-0.1v1.8
		c-2.3,0.4-4.1,0.5-5.8,0.5c-2.1,0-3.6-0.6-4.5-1.9c-0.9-1.3-1.4-3.1-1.4-5.8c0-5.1,2-7.8,6.1-7.8c2,0,3.5,0.5,4.5,1.6
		c1,1.1,1.5,2.9,1.5,5.3l-0.1,1.6h-9.8c0,1.6,0.3,2.9,0.9,3.6c0.6,0.8,1.6,1.1,3,1.1C613.9,385.8,615.4,385.7,616.9,385.6z
		 M616.1,379.2c0-1.8-0.3-3.1-0.9-3.9c-0.6-0.8-1.5-1.1-2.9-1.1c-1.3,0-2.3,0.4-3,1.1c-0.6,0.8-1,2-1,3.8h7.8V379.2z M624,387.5
		h-2.3v-14.8h2.1v1c1.6-0.9,3.1-1.4,4.5-1.4c2,0,3.3,0.5,4,1.6c0.6,1,1,3,1,5.6v7.8h-2.1v-7.6c0-2-0.3-3.4-0.6-4.1
		c-0.4-0.8-1.3-1.1-2.5-1.1c-0.6,0-1.3,0.1-2,0.3c-0.6,0.1-1.3,0.4-1.6,0.5l-0.5,0.3V387.5z M645.2,374.7h-4.6v7
		c0,1.6,0.1,2.8,0.4,3.4c0.3,0.5,0.9,0.8,1.8,0.8l2.6-0.1l0.1,1.9c-1.4,0.3-2.4,0.4-3,0.4c-1.5,0-2.6-0.4-3.1-1.1
		c-0.6-0.8-0.9-2.1-0.9-4.3v-7.9h-2.3v-1.9h2.1v-4.5h2.1v4.5h4.6v1.9H645.2z M647.8,387.5v-14.8h2.3v14.8H647.8z M647.8,369.4v-2.5
		h2.3v2.5H647.8z M662,374.7h-4.6v7c0,1.6,0.1,2.8,0.4,3.4c0.3,0.5,0.9,0.8,1.8,0.8l2.6-0.1l0.1,1.9c-1.4,0.3-2.4,0.4-3,0.4
		c-1.5,0-2.6-0.4-3.1-1.1c-0.6-0.8-0.9-2.1-0.9-4.3v-7.9h-2.1v-1.9h2.1v-4.5h2.1v4.5h4.6L662,374.7L662,374.7z M663.2,372.7h2.3
		l3.6,12.8h1l3.8-12.8h2.3L670,394h-2.3l1.9-6.5h-2.1L663.2,372.7z M361.9,416.3v7.5c0,0.8,0.6,1.1,1.8,1.3l-0.1,1.8
		c-1.5,0-2.8-0.4-3.5-1.1c-1.8,0.8-3.5,1.1-5.3,1.1c-1.4,0-2.4-0.4-3.1-1.1c-0.8-0.8-1-1.9-1-3.3c0-1.4,0.4-2.5,1.1-3.1
		c0.8-0.6,1.9-1.1,3.4-1.3l4.6-0.5v-1.3c0-1-0.3-1.8-0.6-2.1c-0.4-0.4-1-0.6-1.8-0.6c-1.6,0-3.3,0.1-4.9,0.3l-0.9,0.1l-0.1-1.6
		c2.1-0.4,4.1-0.6,5.8-0.6c1.6,0,2.9,0.4,3.6,1.1C361.5,413.4,361.9,414.7,361.9,416.3z M352.8,422.3c0,1.8,0.8,2.8,2.3,2.8
		c1.4,0,2.6-0.3,4-0.6l0.6-0.3v-4.9l-4.4,0.4c-0.9,0.1-1.5,0.4-1.9,0.8C353,420.8,352.8,421.4,352.8,422.3z M368.5,426.6h-2.3v-14.8
		h2.1v1c1.6-0.9,3.1-1.4,4.5-1.4c2,0,3.3,0.5,4,1.6c0.6,1,1,3,1,5.6v7.8h-2.1v-7.8c0-2-0.3-3.4-0.6-4.1c-0.4-0.8-1.3-1.1-2.5-1.1
		c-0.6,0-1.3,0.1-2,0.3c-0.6,0.1-1.3,0.4-1.6,0.5l-0.5,0.3L368.5,426.6L368.5,426.6z M393.4,405.4v21.2h-2.1v-1
		c-1.5,0.9-3,1.3-4.5,1.3c-0.8,0-1.5-0.1-2-0.3c-0.5-0.1-1.1-0.5-1.6-1c-1-1-1.6-3-1.6-5.9c0-2.9,0.5-4.9,1.4-6.1
		c1-1.3,2.5-1.9,4.8-1.9c1.1,0,2.4,0.1,3.6,0.4v-6.5h2.1V405.4z M384.8,423.9c0.4,0.4,0.6,0.6,1,0.8s0.8,0.3,1.4,0.3
		c0.6,0,1.3-0.1,1.9-0.3c0.8-0.3,1.3-0.4,1.6-0.5l0.6-0.3v-10c-1.3-0.3-2.4-0.4-3.5-0.4c-1.5,0-2.5,0.5-3.1,1.5
		c-0.6,1-0.9,2.4-0.9,4.4C383.8,421.6,384,423.1,384.8,423.9z M403,411.8h2.3l3,12.8h0.5l3.5-12.5h2.3l3.5,12.5h0.5l3-12.8h2.3
		l-3.5,14.8h-3.6l-3.1-11.5l-3.1,11.5h-3.6L403,411.8z M436.5,424.7l0.9-0.1v1.8c-2.3,0.4-4.1,0.5-5.8,0.5c-2.1,0-3.6-0.6-4.5-1.9
		c-0.9-1.3-1.4-3.1-1.4-5.8c0-5.1,2-7.8,6.1-7.8c2,0,3.5,0.5,4.5,1.6c1,1.1,1.5,2.9,1.5,5.3l-0.1,1.6h-9.6c0,1.6,0.3,2.9,0.9,3.6
		c0.6,0.8,1.6,1.1,3,1.1C433.5,424.9,435,424.8,436.5,424.7z M435.8,418.3c0-1.8-0.3-3.1-0.9-3.9c-0.6-0.8-1.5-1.1-2.9-1.1
		c-1.3,0-2.3,0.4-3,1.1c-0.6,0.8-1,2-1,3.8h7.8V418.3z M448,411.5c2,0,3.4,0.6,4.1,1.8c0.8,1.1,1.3,3.1,1.3,5.9c0,2.8-0.5,4.9-1.5,6
		c-1,1.1-2.8,1.8-5.5,1.8c-0.9,0-2.3-0.1-4.1-0.3l-0.9-0.1v-21.2h2.1v7.1C445.1,411.8,446.6,411.5,448,411.5z M446.3,424.8
		c1.9,0,3.3-0.4,3.8-1.3c0.6-0.9,1-2.4,1-4.5s-0.3-3.5-0.8-4.4c-0.5-0.9-1.4-1.3-2.6-1.3c-1.1,0-2.3,0.3-3.5,0.6l-0.6,0.3v10.4
		C444.9,424.8,445.8,424.8,446.3,424.8z M461.6,413.5c-2.1,0-3.3,0.8-3.3,2.3c0,0.6,0.3,1.1,0.8,1.5c0.5,0.3,1.6,0.6,3.4,0.9
		c1.8,0.3,3,0.8,3.8,1.3c0.8,0.5,1.1,1.6,1.1,3.1s-0.5,2.6-1.5,3.4c-1,0.8-2.4,1-4.3,1c-1.3,0-2.6-0.1-4.3-0.4l-0.9-0.1l0.1-1.9
		c2.3,0.4,3.9,0.5,5,0.5c1.1,0,2-0.1,2.6-0.5c0.6-0.4,0.9-1,0.9-1.9s-0.3-1.5-0.8-1.8c-0.5-0.4-1.6-0.6-3.4-0.9
		c-1.8-0.3-3-0.6-3.6-1.3c-0.8-0.5-1.1-1.5-1.1-3c0-1.4,0.5-2.5,1.5-3.1c1-0.6,2.3-1,3.8-1c1.3,0,2.8,0.1,4.5,0.4l0.9,0.1v1.9
		C464.6,413.7,462.9,413.5,461.6,413.5z M470.6,426.6v-14.8h2.3v14.8H470.6z M470.6,408.4v-2.5h2.3v2.5H470.6z M484.8,413.7h-4.6v7
		c0,1.6,0.1,2.8,0.4,3.4c0.3,0.5,0.9,0.8,1.8,0.8l2.6-0.1l0.1,1.9c-1.4,0.3-2.4,0.4-3,0.4c-1.5,0-2.6-0.4-3.1-1.1
		c-0.5-0.8-0.9-2.1-0.9-4.3v-7.8h-2.3v-1.9h2.1v-4.6h2.1v4.5h4.6v1.9H484.8z M497.4,424.7l0.9-0.1v1.8c-2.3,0.4-4.1,0.5-5.8,0.5
		c-2.1,0-3.6-0.6-4.5-1.9c-0.9-1.3-1.4-3.1-1.4-5.8c0-5.1,2-7.8,6.1-7.8c2,0,3.5,0.5,4.5,1.6c1,1.1,1.5,2.9,1.5,5.3l-0.1,1.6h-9.8
		c0,1.6,0.3,2.9,0.9,3.6c0.6,0.8,1.6,1.1,3,1.1C494.4,424.9,495.9,424.8,497.4,424.7z M496.7,418.3c0-1.8-0.3-3.1-0.9-3.9
		c-0.6-0.8-1.5-1.1-2.9-1.1c-1.3,0-2.3,0.4-3,1.1c-0.6,0.8-1,2-1,3.8h7.8V418.3z M516.5,413.7h-4.6v7c0,1.6,0.1,2.8,0.4,3.4
		c0.3,0.5,0.9,0.8,1.8,0.8l2.6-0.1l0.1,1.9c-1.4,0.3-2.4,0.4-3,0.4c-1.5,0-2.6-0.4-3.1-1.1c-0.5-0.8-0.9-2.1-0.9-4.3v-7.8h-2.1v-1.9
		h2.1v-4.6h2.1v4.5h4.6V413.7z M518.5,419.2c0-2.8,0.5-4.6,1.5-5.9c1-1.3,2.6-1.8,4.9-1.8s3.9,0.6,4.9,1.8c1,1.3,1.5,3.1,1.5,5.9
		c0,2.8-0.5,4.6-1.4,5.9c-0.9,1.3-2.5,1.9-5,1.9c-2.4,0-4-0.6-5-1.9C519,423.8,518.5,421.8,518.5,419.2z M520.8,419.1
		c0,2.1,0.3,3.6,0.8,4.5c0.5,0.9,1.6,1.3,3.3,1.3s2.8-0.4,3.3-1.3c0.5-0.9,0.8-2.4,0.8-4.5s-0.3-3.6-0.9-4.5s-1.6-1.3-3.1-1.3
		c-1.5,0-2.6,0.4-3.1,1.3C521.1,415.4,520.8,416.9,520.8,419.1z M541.3,433.1v-21.3h2.1v1c1.5-0.9,3-1.4,4.4-1.4
		c1.9,0,3.3,0.6,4,1.8c0.9,1.1,1.3,3.1,1.3,5.9s-0.5,4.8-1.5,5.9s-2.6,1.8-4.9,1.8c-1.3,0-2.3-0.1-3.3-0.4v6.6h-2.1V433.1z
		 M547.6,413.5c-0.6,0-1.3,0.1-1.9,0.3c-0.6,0.3-1.3,0.4-1.6,0.6l-0.5,0.3v9.9c1.4,0.3,2.5,0.4,3.1,0.4c1.6,0,2.8-0.5,3.4-1.4
		c0.6-0.9,1-2.4,1-4.4s-0.3-3.5-0.9-4.4C549.5,413.9,548.7,413.5,547.6,413.5z M556.8,426.6v-14.8h2.1v2c1.8-1.1,3.5-2,5.4-2.4v2.3
		c-0.9,0.1-1.6,0.4-2.6,0.8c-0.9,0.4-1.5,0.6-2,0.9l-0.8,0.4v10.8h-2.1V426.6z M566.1,419.2c0-2.8,0.5-4.6,1.5-5.9
		c1-1.3,2.6-1.8,4.9-1.8s3.9,0.6,4.9,1.8c1,1.3,1.5,3.1,1.5,5.9c0,2.8-0.5,4.6-1.4,5.9c-0.9,1.3-2.5,1.9-5,1.9c-2.4,0-4-0.6-5-1.9
		C566.5,423.8,566.1,421.8,566.1,419.2z M568.4,419.1c0,2.1,0.3,3.6,0.8,4.5c0.5,0.9,1.6,1.3,3.3,1.3s2.8-0.4,3.3-1.3
		c0.5-0.9,0.8-2.4,0.8-4.5s-0.3-3.6-0.9-4.5s-1.6-1.3-3.1-1.3c-1.5,0-2.6,0.4-3.1,1.3C568.6,415.4,568.4,416.9,568.4,419.1z
		 M580.7,411.8h2.4l3.5,12.8h1.1l3.5-12.8h2.3l-4.1,14.8h-4.5L580.7,411.8z M606.1,424.7l0.9-0.1v1.8c-2.3,0.4-4.1,0.5-5.8,0.5
		c-2.1,0-3.6-0.6-4.5-1.9c-0.9-1.3-1.4-3.1-1.4-5.8c0-5.1,2-7.8,6.1-7.8c2,0,3.5,0.5,4.5,1.6c1,1.1,1.5,2.9,1.5,5.3l-0.1,1.6h-9.8
		c0,1.6,0.3,2.9,0.9,3.6c0.6,0.8,1.6,1.1,3,1.1C603.1,424.9,604.5,424.8,606.1,424.7z M605.2,418.3c0-1.8-0.3-3.1-0.9-3.9
		c-0.6-0.8-1.5-1.1-2.9-1.1c-1.3,0-2.3,0.4-3,1.1c-0.6,0.8-1,2-1,3.8h7.8V418.3z M617.4,426.6v-14.8h2.3v14.8H617.4z M617.4,408.4
		v-2.5h2.3v2.5H617.4z M631.5,413.7h-4.6v7c0,1.6,0.1,2.8,0.4,3.4c0.3,0.5,0.9,0.8,1.8,0.8l2.6-0.1l0.1,1.9c-1.4,0.3-2.4,0.4-3,0.4
		c-1.5,0-2.6-0.4-3.1-1.1c-0.6-0.8-0.9-2.1-0.9-4.3v-7.8h-2.1v-1.9h2.1v-4.6h2.1v4.5h4.6L631.5,413.7L631.5,413.7z M634,426.6v-3.4
		h2.4v3.4H634z"/>
	<rect x="220.5" y="162" class="st13" width="545" height="317"/>
</g>
</svg>
