<?xml version="1.0" encoding="utf-8"?>
<!-- Generator: Adobe Illustrator 24.3.0, SVG Export Plug-In . SVG Version: 6.00 Build 0)  -->
<svg version="1.1" id="Layer_1" xmlns="http://www.w3.org/2000/svg" xmlns:xlink="http://www.w3.org/1999/xlink" x="0px" y="0px"
	 viewBox="0 0 624.7 608.4" style="enable-background:new 0 0 624.7 608.4;" xml:space="preserve">
<style type="text/css">
	.st0{fill:#EFCCB9;}
	.st1{fill:#F4E8DD;}
	.st2{fill:#003A30;}
	.st3{fill:#FFFFFF;}
	.st4{fill:#0D020C;}
	.st5{fill:#111111;}
	.st6{fill:#0D222D;}
	.st7{fill:#004C3A;}
	.st8{fill:#C4491E;}
	.st9{fill:#EAA524;}
	.st10{fill:#004235;}
	.st11{fill:#F7DCE7;}
</style>
<path class="st0" d="M1,2.6L0,599.1c72.9,6.7,100.8,1.2,173.7,5.4c56,3.2,142.1,1.4,195.6,1.4c92.6,0,173.2,0.2,252.2,2.5
	c4.2-202.9,4.2-401.2,0.1-604.1C621.5,4.4,172.8,16.3,1,2.6z"/>
<g>
	<path class="st1" d="M164.6,583.8c-1.2,2.4-1.6,5.1-1.2,7.7c4-2.1,7.8-4.2,11.8-6.5c0.4-0.2,0.9-0.5,1.4-0.2
		c0.4,0.2,0.5,0.7,0.5,1.2l0.1,1.1c0.1,1.6,2,2.6,3.4,1.7c0.4-0.2,0.6-0.4,1-0.5c0.9-0.2,1.9-0.2,2.6,0.1c1.7,0.9,1.6,2.9,2.1,4.5
		c0.4,1.4,1.7,2.7,3,2.1c0.4-0.2,0.6-0.5,0.9-0.9c1.6-2.1,3.1-4.4,4.7-6.5c1.7,1.1,3.2,2.7,4.2,4.6c0.6,1.2,2.4,1.5,3.4,0.5
		c2.7-2.5,5.7-4.6,9.1-6.1c0.7-0.4,1.6-0.7,2.5,0.2c0.6,0.6,0.9,1.5,1,2.4c0.1,2.9,1,5.7,2.2,8.2c0.2,0.4,0.5,0.7,0.9,0.9
		c0.5,0.1,0.9-0.1,1.4-0.2c4.4-2.5,6.8-7.5,11.1-10c0.5-0.2,1-0.5,1.6-0.5c0.9,0.1,1.4,1.1,1.6,1.9l0.5,1.2c0.9,2.1,3.6,2.7,5.4,1.2
		c1.5-1.2,2.9-2.5,4.4-4c1-1.1,2.9-0.9,3.5,0.5c0.5,1,1.1,2.1,1.9,3.2c0.4,0.5,1.1,1.6,1.6,2.1c0.9,0.9,1.2-1.4,2.1-3.1l0,0
		c0.7-1.5,2.7-1.6,3.7-0.2l3.4,4.7c0.9,1.4,2.9,1.2,3.7-0.1l4.5-7.5c0.6-1,1.5-2,2.5-1.6c0.6,0.2,0.9,0.9,1.1,1.5l0.4,1
		c0.7,1.6,2.9,1.9,3.9,0.4l1.9-2.7c1.7-2.6,5.7-1.7,6.4,1.4v0.1c0.2,1.7,2.5,2.5,3.7,1.1c1.1-1.2,2.2-2.5,3.2-3.9
		c1.1-1.5,3.5-1,3.9,0.7c0.1,0.4,0.2,0.9,0.4,1.1c0.7,1.9,3.1,4.4,4.9,2.5c0,0,0.2-0.5,0.9-2c1.5-4.2,2.6-8.5,3.1-13L164.6,583.8z"
		/>
	<path class="st2" d="M189.9,518.7c-5.6-2.4-12.5-1.9-17.6-5.2c-2.5-1.7-4.5-4.1-6.4-6.6c-2.6-3.5-6.7-10.7-8.7-15.6
		c-0.4-0.9-1.5-1-2.1-0.1c-2,2.9-2.7,8.3-4.2,11c-0.4,0.6-0.6,1.5-0.2,2.1c0.9,1.5,3.7-0.4,5,0.9c0.6,0.6,0.4,1.7,0,2.6
		c-0.9,2.4-1.7,4.6-2.5,7c-1.1,3.1-2.1,7,0.9,9c0.9,0.6,2.1,0.9,3.1,0.6c2.6-0.4,4.5-2.4,5.9-4.4c-0.6,6,0.1,12.1,2.2,17.7
		c2.4,6,4.2-5.7,5.9-9c-0.5,3.6-0.7,7.2-0.6,10.8c0,2.5,0.5,5.2,2.9,6.4c1.4,0.6,3.1,0.4,4.4-0.4c2.6-1.5,3.7-4.4,4.9-7.1
		c2.2-5.9,4.5-11.7,6.7-17.7"/>
	<path class="st1" d="M319.9,420.9c17.8-6.2,37.1,3.1,54.9,9.3c18.8,6.6,38,12.2,57.4,16.6c1.5,0.4,3.1,0.7,4,2
		c2.4,3.2-2.6,6.7-6.5,7.7c-37.4,9.3-75.8,14.3-114.4,14.8C315.2,471.5,281.4,434.6,319.9,420.9z"/>
	<path class="st1" d="M186.4,518.5c40.1-16.8,80.6-32.5,121.5-46.9c4.7,31.5,3.6,74-3.2,105c-54.2,10.2-89.2,10.2-140.1,7.3
		L186.4,518.5z"/>
	<path class="st3" d="M166.6,589.7c2.6-11,3.6-17.7,6.6-28.4c2.7-10,5.7-15.7,10.1-27.8c1.2-3.5,6.5-14.9,9.1-17.6l-5.6,1.9
		c-2.4,2.4-4,5.6-5.5,8.6c-2,4.2-3.7,8.7-5.2,13.2c-3.7,11-6.7,22.2-9.6,33.4c-1.5,6-3.7,13.8-4.5,19.4L166.6,589.7z"/>
	<path class="st3" d="M182.5,588.1c0.5-3.1,1-3.4,3.1-8.3c2.2-5.4,4.5-10.7,6.7-16.2c4.5-10.7,8.8-21.4,13.3-32.1
		c2.5-6.1,9.7-19.9,12.3-25.9l-7.6,3.1c-9,21.7-18.1,47.2-27,68.9c-2.4,5.7-4.9,11.3-4.6,11.5C180,589.7,181.8,588.1,182.5,588.1z"
		/>
	<path class="st3" d="M204.8,590.8c12.7-24.9,16.8-37.7,24.7-64.6c1.9-6.5,10.2-26.2,15.1-31.3l-6.2,2.5c-4,6.4-5.2,10.5-7,16.2
		c-2,6.8-4.1,13.7-6.4,20.4c-4.5,13.3-9.6,26.5-15.3,39.4c-3.2,7.2-8.5,16.9-8.6,19.9C201.2,593.3,202.3,593.7,204.8,590.8z"/>
	<path class="st3" d="M219.3,598.3c-1.5-7.1-0.4-15.8,2-22.4c2.5-7,7.3-14.7,10.2-21.5c5.7-13.8,12.8-26.2,18.9-39.7
		c3.2-7.1,11.5-21.9,16.4-28l-11.1,4.2c-4.6,5.6-6.7,13-9.7,19.4c-3.2,6.8-6.4,13.8-9.3,20.8c-6.2,14.1-12.3,28.4-17.8,42.7
		c-2.9,7.6-5.2,9.3-3.5,17.6C215.8,593,217.2,599.5,219.3,598.3z"/>
	<path class="st3" d="M239.9,592.2c1.6-13.9,3.2-27.3,8.2-40.3c5.1-13.6,10.8-26.9,16.4-40.3c3.2-7.8,8.8-20.8,12-28.6l-5.4,2
		c-5.7,13.9-11.3,30.1-17.1,44.2c-5.5,13.2-11.7,22.4-15.7,36.1c-2.2,7.6-4.7,22.5-4.2,24.4C234.7,592.1,237,594.4,239.9,592.2z"/>
	<path class="st3" d="M264.2,595.2c9.8-29.4,20.7-80.1,28.6-110c2.2-8.3,0.9,3.5,3-5c0.5-1.9-2.5-2.7-2.9-0.7
		c-7.3,30.1-15.7,60-25,89.7c-2.6,8.2-5.2,16.4-8,24.7C259.4,595.7,262.9,597.8,264.2,595.2z"/>
	<path class="st3" d="M292,584.8c3.9-42.5,6.4-50.3,10.1-77.1c1.1-7.7-0.5-15.6-1.5-23.4c-0.1-0.9-0.6-1.5-1.5-1.5
		c-0.7,0-1.6,0.7-1.5,1.5c3.6,27.4-4.7,45-9.8,72c-1.5,7.6-3.4,25.9-3.2,29.8C284.5,589.6,288.1,591.8,292,584.8z"/>
	<path class="st2" d="M320.6,526.1c6.1-23.2,9-62.8,7.5-94.4c-0.1-3.1-0.5-6.6-3-8.6c-1.5-1.2-3.5-1.6-5.4-1.5
		c-5.5,0.2-12.5,5.5-15.8,10c-3.2,4.5-4.9,10.8-7.2,15.9c-4.1,9-10,29.4-18.1,52.7c-1.6,4.9-6.2,21.7,1,25
		C292.7,530.9,317.2,539.1,320.6,526.1z"/>
	<path class="st1" d="M320.8,425.4c-8.8-1.1-11.2,3.4-13.7,7.5c-3,5-4.9,10.8-7,16.3c-4.7,12.5-9,25-12.7,37.7
		c-1.9,6.5-3.7,13-5.4,19.4c-0.4,1.5-0.7,3.1-1.1,4.6c-0.4,1.6-0.9,3.2-0.6,4.9c0.4,2.9,2.9,4.5,5.1,6c5,3.2,10.6,5.1,16.4,5.7
		c2.7,0.2,8.6,1.4,11.2,0.2c2.6-1.2,2.5-4.6,3.4-7.1c7.5-24.5-0.5-50.8,4.9-75.7c0.6-2.7,1.7-6.2-1-8.1c-1-0.7-2.2-1-3.4-0.5
		c-1.4,0.5-2,1.7-2.7,3c-3.2,5.4-6.1,11-8.6,16.7c-4.9,11.3-8.3,23.2-10.2,35.4c-0.5,3.1-0.9,6.1-1.1,9.2c-0.2,3-0.6,6-0.4,9
		c0.2,2.6,1.2,5.2,3.5,6.8c1.9,1.5,4.5,2,6.7,1c1.4-0.6,1.6-1.7,2.1-3.1c0.6-1.6,1.1-3.2,1.6-4.9c1-3,1-7.2,1.2-10.3
		c0.7-9.7,1.1-11.1,1-17.4c0-3.2,0-12.2-0.4-15.4c-0.2-2.1-1.2,3.2-2.1,5.2c-4.2,10.3-6.6,21.3-6.7,32.4c0,2.4,1.1,6.1,1.7,0.7
		c2.1-17.6,3.2-25.5,7.3-35.5c-1.2-0.1-1.1,3-2.4,2.9c1.7,14.6-0.1,29.4-5.6,43c0.2-0.4,0.6-0.7,0.9-1.1c-1.4,0.9-3.1,0.1-4-1.1
		c-1.2-1.7-1.2-4.1-1.2-6.2c0.1-4.7,0.6-9.6,1.4-14.2c1.5-9.5,1.4-17.3,4.7-26.3c1.7-4.6,3.6-9.1,5.9-13.4c1-2.1,4.6-5.7,5.9-7.8
		c0.5-1,1.1-1.9,1.6-2.9c0.2-0.5,0.6-1,0.9-1.4c0-0.1,0.2-0.4,0.4-0.6c0.2-0.2,0.6-0.9,0.6,0c0,1.1,0.4,2.7,0.1,3.9
		c-0.2,1.2-0.5,2.6-0.7,3.9c-0.4,2.4-0.7,4.7-1,7.2c-0.5,4.9-0.7,9.7-0.9,14.7c-0.2,9.8-1.2,19.7-1.9,29.4c-0.4,4.9-1,9.7-2,14.4
		c-0.5,2.4-1.1,4.7-1.9,7c-0.2,0.9-1.1,4.4-1.9,5c-0.7,0.6-1.9,0.9-2.7,0.9c-4.5,0.2-9.2-1.6-13.4-3.2c-2.1-0.9-4.2-1.9-6.1-3.2
		c-0.9-0.6-1.9-1.1-2.5-1.9c-0.9-0.9-0.6-2-0.4-3.1c2.4-10.1,5.6-28.1,8.6-38.1c3-9.8,6.7-16.3,10.3-25.9c1.7-4.7,2.9-9.5,4.7-14.2
		c1.4-3.4,2.6-4.7,5.4-7.1c1.2-1,9.2-1.9,11-2C325.9,427.4,324.4,426.1,320.8,425.4z"/>
	<path class="st2" d="M357.3,434.8c-1.7,0.4-3.4,1.7-3.7,3.6c-0.4,1.9,0.5,3.7,2,4.7c1.4,0.9,3.4,0.9,4.9,0c1.4-1,2.1-2.9,1.6-4.5
		C362.1,438.6,360.9,433.9,357.3,434.8z"/>
	<path class="st2" d="M369.6,427.2c-1.1,0.2-2.1,1.1-2.2,2.2c-0.2,1.1,0.2,2.2,1.2,2.9c0.9,0.5,2.1,0.5,3,0c0.9-0.6,1.2-1.7,1-2.7
		C372.6,429.4,371.8,426.7,369.6,427.2z"/>
	<path class="st2" d="M338.1,442c0-3.1,0-6.1,0-9.2c-0.5,0.4-1,0.7-1.4,1.1c1.4,0.5,2.7,1.2,4.1,2.1c0.6,0.4,1.5,0,1.6-0.6
		c0.2-1.1,0.1-2.1-0.1-3.2c-0.1-1-0.4-2,0-2.9c-0.5,0.2-1.1,0.5-1.6,0.6c1.5,0.7,2.9,1.6,4.1,2.6c0.9,0.7,2,0,1.9-1.1
		c-0.1-0.6-0.1-1.1-0.2-1.7c0-0.4-0.2-1.1-0.1-1.4c-0.1,0.1-0.1,0.4-0.2,0.5c-0.1,0-0.4,0.1-0.5,0.1h0.1c0.1,0.1,0.2,0.1,0.4,0.1
		c0.2,0.1,0.6,0.1,0.9,0.1c1.5,0.1,1.5-2.1,0-2.2c-0.5,0-0.9-0.4-1.4-0.4c-0.6,0-1.2,0.4-1.5,1c-0.2,0.6,0,1.2,0,2
		c0.1,0.7,0.2,1.5,0.4,2.4c0.6-0.4,1.2-0.7,1.9-1.1c-1.4-1.1-3-2.1-4.6-3c-0.6-0.4-1.4,0-1.6,0.6c-0.4,1-0.2,2.1-0.1,3.1
		c0.1,1,0.4,2,0.2,3c0.5-0.2,1.1-0.5,1.6-0.6c-1.5-1-3-1.7-4.6-2.4c-0.7-0.2-1.4,0.4-1.4,1.1c0,3.1,0,6.1,0,9.2
		C335.8,443.4,338.1,443.4,338.1,442z"/>
	<path class="st2" d="M358.2,425.1c0-0.9,0-1.6,0-2.5c-0.5,0.4-1,0.7-1.4,1.1c1.1,0.5,2.2,0.9,3.4,1.4c0.4,0.1,0.7,0,1-0.2
		c0.2-0.2,0.4-0.5,0.4-0.9c0-0.1,0-0.2,0-0.4c0,0.1,0,0.2,0,0.1v-0.1c0-0.2,0.1-0.5,0.2-0.6c0-0.1-0.1,0.2,0,0.1c0,0,0-0.1,0.1-0.1
		l0.1-0.1c0.1-0.1-0.1,0.1,0,0.1c0,0,0,0,0.1-0.1c0.1-0.1-0.2,0.1,0,0c0,0,0.1,0,0.1-0.1c0,0-0.2,0.1,0,0c0.6-0.1,1-0.7,0.7-1.4
		s-0.7-1-1.4-0.7c-1.5,0.5-2,2.1-2.1,3.5c0.5-0.4,1-0.7,1.4-1.1c-1.1-0.5-2.2-0.9-3.2-1.4c-0.4-0.1-0.7,0-1,0.2
		c-0.2,0.2-0.4,0.5-0.4,0.9c0,0.9,0,1.6,0,2.5c0,0.6,0.5,1.1,1.1,1.1C357.8,426.2,358.2,425.7,358.2,425.1z"/>
	<path class="st2" d="M429.2,438.5c-8.2-0.4-8.3,10.6-3.6,12.3c9.5,3.6,13.9-1.7,11.6-9C436.6,440.1,432.5,438.6,429.2,438.5z"/>
</g>
<path class="st3" d="M39.2,287.8c0,0-5.3,2.5-7.1,0.3c-1.8-2.2-2.7-4.3-1-7.1c1.6-2.4,5.4-3.2,8.3-2.3c0.5,0.2,1,0.4,1.5,0.8
	c0.1,0.1,1.3,1.1,1.3,1.1c8-3.6,15.2-7.7,22-13.2c-1.8,0-2.9-2.3-2.3-4.1c0.6-1.8,2.4-2.7,4.1-3.4c1.2-0.5,2.5-0.8,3.8-0.7
	c1.9,0.2,3.7,1.6,4.2,3.5c0.6,1.8-0.1,4-1.5,5.3c2.1-2,5.9-1.5,7.6,0.9c1.6,2.3,1,5.9-1.4,7.6c-2.4,1.7-5.8,1.3-7.8-0.8
	c-7.2,4.3-14.3,8.6-21.5,12.9c1,1.6,1.3,4.1,0.5,5.7c-0.9,1.8-3.3,3.5-5.3,3.5c-1.3-0.1-2.6-0.6-3.8-1.3c-1.1-0.5-1.9-1.3-2.3-2.6
	C37.7,291.3,38.1,289.7,39.2,287.8z"/>
<path class="st3" d="M533.9,44.6c0,0-5.5-2-5.2-4.8s1.1-5,4.3-5.7c2.8-0.6,6.1,1.5,7.4,4.2c0.2,0.5,0.4,1,0.6,1.6
	c0,0.2,0.1,1.7,0.2,1.7c8.2,3.1,16.2,5.3,24.9,6.2c-1.3-1.3-0.4-3.7,1.3-4.4s3.6-0.2,5.3,0.5c1.2,0.5,2.3,1.2,3.2,2.2
	c1.2,1.5,1.5,3.7,0.6,5.4s-2.9,2.8-4.8,2.7c2.9,0.1,5.2,3.1,4.7,6s-3.6,4.8-6.4,4.4c-2.8-0.5-5-3.2-5-6.1c-8.1-2-16.2-4-24.3-6
	c-0.4,1.8-2,3.8-3.7,4.4c-1.9,0.7-4.8,0.2-6.2-1.3c-0.9-1-1.4-2.3-1.8-3.6c-0.4-1.1-0.4-2.3,0.2-3.4C530.4,46,531.8,45.3,533.9,44.6
	z"/>
<path class="st3" d="M498.5,246.7c0,0-5.8,0.9-6.9-1.6c-1.1-2.6-1.5-4.9,1-7.1c2.2-1.9,6.1-1.7,8.5,0.1c0.4,0.3,0.8,0.7,1.3,1.1
	c0.1,0.2,0.9,1.4,1,1.4c8.7-1.3,16.7-3.3,24.8-6.8c-1.8-0.5-2.2-3-1-4.5s3-1.9,4.9-2.2c1.3-0.1,2.6-0.1,3.9,0.4
	c1.8,0.7,3.1,2.5,3.2,4.4s-1.2,3.9-2.9,4.7c2.6-1.3,6.1,0.2,7,2.9c1,2.8-0.8,5.9-3.4,7c-2.7,0.9-5.9-0.4-7.3-2.9
	c-8,2.2-16.1,4.4-24.1,6.6c0.5,1.8,0.1,4.3-1.1,5.6c-1.3,1.5-4.1,2.5-6,1.9c-1.3-0.4-2.3-1.3-3.3-2.3c-0.9-0.8-1.5-1.8-1.5-3.1
	C496.2,249.6,497,248.3,498.5,246.7z"/>
<path class="st3" d="M202.8,434.1c0,0-5.7-1.5-5.6-4.3c0-2.8,0.6-5.1,3.8-6.1c2.7-0.9,6.2,0.9,7.8,3.5c0.2,0.5,0.5,1,0.7,1.5
	c0,0.2,0.3,1.7,0.4,1.7c8.4,2.3,16.6,3.8,25.4,3.9c-1.4-1.2-0.7-3.6,0.9-4.5c1.6-0.9,3.6-0.5,5.3,0c1.2,0.4,2.4,1,3.4,1.9
	c1.3,1.4,1.8,3.5,1.1,5.3s-2.6,3.1-4.5,3.1c2.9-0.2,5.5,2.6,5.2,5.5s-3.1,5.1-6,5c-2.8-0.2-5.3-2.7-5.5-5.6
	c-8.2-1.3-16.5-2.5-24.7-3.8c-0.2,1.8-1.6,4-3.3,4.7c-1.8,0.9-4.8,0.6-6.3-0.7c-1-0.9-1.6-2.2-2.1-3.4c-0.5-1.1-0.6-2.3-0.1-3.4
	C199.4,435.8,200.7,435,202.8,434.1z"/>
<g>
	<path class="st2" d="M429.6,503.8c-2.8-3.7-2.2-9,0.2-12.9c2.5-3.9,6.4-6.5,10.5-8.7c2.5,0.7,3.7,3.7,3.2,6.3
		c-0.5,2.5-2.1,4.6-3.8,6.6c-3.1,3.6-6.3,7.1-10.3,9.6"/>
	<path class="st2" d="M352.3,546.9c-0.6-5.2,0.1-8.2,1.4-13.3c1.3-5.1,4.5-10,9.4-11.9c3.2,6.2,4.4,13.3,3.3,20.2
		c1.8-5.5,5.4-10.3,10.1-13.5c2.7,3,3.9,7.3,3.3,11.3c1.8-9.4,5.1-18.6,9.8-27.1c0.9-1.7,2.7-2.9,4.7-2.9c2.9,0.1,3.9,2.6,4.6,4.9
		c1.6,5.1,2.9,10.4,4,15.6c-0.1-3.2-0.1-6.5,1.5-9.2s5.6-4.3,8.1-2.3c-2.3-5.8,1.8-13.3,7.9-14.5c-2.3-6-1.9-13.1,0.9-18.8
		c0.6-1.3,2.4-1.2,3,0c2.5,5.4,4,11.2,4.3,17.2c-0.3-2,2.6-2.6,4.6-2.3c4,0.5,8,1,12,1.6c1.3,0.2,1.7,1.8,0.6,2.6
		c-3.9,2.5-8.4,4.2-13,4.7c3.7-0.3,5.5,5.4,3.1,8.3c-2.4,2.9-6.7,3.3-10.4,2.9c-3.7-0.4-7.6-1.4-11.2-0.4c2.6,4.7,5.1,9.4,7.7,14.1
		c0.5,0.8,0.9,1.8,0.6,2.7c-0.3,0.9-1.3,1.4-2.2,1.7c-6.1,2.3-12.8,2.9-19.3,1.9c1.9,3.5,6.1,5.2,7.4,9.3c0.5,1.6,0.2,3.4-0.9,4.6
		c-1.5,1.5-3.4,1.1-5.1,0.7c-10.7-3-16.6-1.7-23.8-10.2c0.8,4.5-2.3,1.5-1.5,6.1c0.5,2.9,0.9,6-1.6,8.2c-1.6,1.4-3.9,1.8-6,1.3
		c-4.2-1-6.9-4.4-9.3-7.7c0,4.6-5.7,7.8-10.1,6.3c-4.4-1.5-7-6.4-7-11"/>
	<path class="st4" d="M338.6,549.5c9.6-3,19.7-2.2,29.6-3.3c10.1-1.1,19.6-4.7,28.2-10c17.7-10.9,30.2-27.9,41.5-44.9
		c0.3-0.5-0.5-1.1-0.8-0.5C425.7,508,413,525.3,394.9,536c-8.8,5.2-18.4,8.5-28.6,9.4c-9.4,0.8-18.8,0.3-27.9,3.1
		C337.8,548.8,338,549.7,338.6,549.5z"/>
</g>
<g>
	<path class="st2" d="M293.7,70.9c-2.2,3.3-6.7,4.4-10.6,3.5c-3.9-0.9-7.1-3.4-10.1-6c-0.1-2.3,2-4,4.2-4.5c2.2-0.3,4.4,0.5,6.5,1.2
		c3.8,1.4,7.5,3.1,10.8,5.7"/>
	<path class="st2" d="M350.9,121.5c-4,2-6.7,2.3-11.3,2.7c-4.5,0.4-9.5-0.9-12.4-4.2c4.1-4.4,9.6-7.3,15.5-8.5
		c-5,0.1-9.9-1.4-13.9-4.3c1.7-3,4.8-5.3,8.2-5.9c-8.2,1.2-16.6,1.2-24.8-0.2c-1.7-0.3-3.1-1.4-3.6-3c-0.7-2.4,1-3.9,2.7-5.2
		c3.7-2.8,7.7-5.3,11.6-7.7c-2.6,1-5.3,1.9-8,1.4c-2.7-0.6-5.1-3.3-4.1-5.9c-4.1,3.6-11.3,2.4-14.1-2.3c-4.2,3.7-10.1,5.3-15.6,4.7
		c-1.3-0.2-1.7-1.6-0.8-2.4c3.6-3.6,8-6.5,12.8-8.4c-1.6,0.7-2.9-1.4-3.2-3.1c-0.7-3.4-1.4-6.7-2.2-10.2c-0.2-1.1,1-1.9,2-1.2
		c3.2,2.5,5.8,5.7,7.6,9.3c-1.3-2.9,2.9-6,5.9-4.9c3.1,1.2,4.6,4.6,5.3,7.7c0.8,3.2,1,6.6,2.9,9.3c3.1-3.4,6.1-6.8,9.3-10.3
		c0.6-0.6,1.2-1.3,2-1.3c0.8,0,1.4,0.6,2,1.3c3.6,4.3,6.1,9.7,7.1,15.1c2.3-2.6,2.5-6.5,5.5-8.7c1.1-0.8,2.7-1.2,4-0.6
		c1.6,0.8,1.8,2.4,2,4c0.6,9.6,3.4,14-1.4,22.3c3.5-1.9,1.9,1.4,5.3-0.5c2.2-1.2,4.7-2.5,7.1-1c1.6,0.9,2.6,2.6,2.8,4.5
		c0.4,3.7-1.6,6.9-3.6,9.8c3.8-1.3,8.1,2.4,8.1,6.4c0,4-3.2,7.5-7,8.9"/>
	<path class="st4" d="M357,131.9c-5.2-6.9-7.5-15.4-11.2-23.1c-3.8-7.9-9.4-14.7-16.1-20.1c-14-11.2-31.4-16.6-48.5-20.9
		c-0.6-0.1-0.7,0.7-0.2,0.8c17.3,4.4,35,9.7,48.9,21.4c6.8,5.7,12.2,12.6,15.9,20.6c3.3,7.3,5.6,15.2,10.5,21.8
		C356.6,132.9,357.4,132.4,357,131.9z"/>
</g>
<g>
	<path class="st2" d="M77.4,472.8c1.7-3.7,4.3-6.9,7-9.9c1.5-1.6,3.1-3.3,5.2-4c2.1-0.7,4.8,0,5.7,2c-1.4,3.7-3.2,7.4-6.2,10
		c-3,2.5-7.6,3.6-11,1.7"/>
	<path class="st2" d="M50.7,551.6c-4,0.5-8.4-1.2-10.2-4.7c-1.8-3.6,0.3-8.8,4.2-9.4c-3.1-1.7-6.3-3.6-7.7-7.1
		c-0.7-1.7-0.6-3.7,0.4-5.2c1.6-2.4,4.3-2.4,6.8-2.4c4,0.1,1-2.2,5-2c-8.1-5.1-7.7-10.3-11.5-19.1c-0.6-1.4-1.2-3,0-4.4
		c0.9-1.1,2.4-1.6,3.8-1.3c3.6,0.6,5.6,4,8.8,5.2c-1.7-5.4-1.9-11.2-0.6-16.7c0.2-0.8,0.5-1.7,1.2-2.1s1.6-0.1,2.3,0.2
		c4.3,1.7,8.6,3.3,12.9,4.9c0.4-3.2-0.9-6.4-1.7-9.5c-0.8-3.2-1-6.9,1.2-9.3c2.2-2.4,7.3-1.6,7.5,1.7c-0.1-4,0.8-8.1,2.5-11.7
		c0.5-1,2-0.9,2.3,0.2c0.9,3.4,1.8,6.7,2.7,10.1c0.5,1.7,0.3,4.2-1.4,4.2c5.1-0.4,10.3,0.1,15.2,1.7c1.2,0.4,1.4,1.9,0.4,2.6
		c-4.6,3.1-10.6,4.3-16,3c-0.3,5.4-6.2,9.7-11.5,8.5c2,1.9,1.1,5.5-1,7.2c-2.1,1.7-5,2.1-7.7,2.4c4.6,0.3,9.2,0.8,13.8,1.6
		c2,0.3,4.3,0.9,4.7,3.4c0.3,1.7-0.5,3.3-1.9,4.4c-6.7,4.9-14.1,8.8-22,11.5c3.3-1.1,7.1-0.5,10,1.5c-2.2,4.4-5.9,8.1-10.4,10.2
		c5.7-1.7,12-1.5,17.6,0.5c-1.1,4.4-4.9,7.8-9.1,9.4c-4.2,1.7-6.7,2.7-11.2,2.8"/>
	<path class="st4" d="M50.4,555.8c1.4-8.1-0.2-16.1-0.6-24.2c-0.4-8.8,1.3-17.5,4.7-25.6c7.1-16.7,20.4-29.6,33.8-41.3
		c0.4-0.4-0.1-1-0.6-0.6c-13.3,11.7-26.3,24.3-33.6,40.8c-3.5,8-5.5,16.6-5.2,25.3c0.3,8.6,2.1,17.1,0.6,25.7
		C49.5,556.2,50.3,556.3,50.4,555.8z"/>
</g>
<g>
	<path class="st2" d="M110.3,48.8c4-0.9,8.1-0.7,12.2-0.3c2.2,0.1,4.5,0.5,6.3,1.8c1.8,1.3,2.9,3.9,1.8,5.8c-3.8,1-7.9,1.8-11.7,0.9
		s-7.4-3.9-8-7.8"/>
	<path class="st2" d="M31,74.6c-2.7-2.9-4.1-7.5-2.3-11.1c1.8-3.7,7.3-5.1,10.1-2.2C38.4,57.7,38,54,40,50.9c1-1.6,2.6-2.7,4.5-2.8
		c2.9-0.2,4.6,2.1,6,4.1c2.2,3.2,2.4-0.4,4.6,2.8c-0.7-9.5,3.7-12.3,8.5-20.6c0.8-1.3,1.8-2.7,3.6-2.6c1.5,0,2.7,1,3.3,2.2
		c1.7,3.3,0.2,6.9,1.1,10.2c3.3-4.6,7.9-8.3,13-10.5c0.7-0.3,1.7-0.6,2.4-0.2c0.7,0.4,1,1.2,1.2,2c1.2,4.4,2.4,8.9,3.7,13.3
		c2.9-1.5,4.6-4.5,6.7-7c2-2.5,4.9-4.8,8.2-4.5c3.2,0.3,5.6,4.9,3.1,7c3.2-2.5,6.9-4.1,10.9-5c1.1-0.2,1.9,1,1.3,1.9
		c-2.3,2.8-4.4,5.5-6.5,8.2c-1.1,1.4-3.2,2.7-4.2,1.4c3.4,3.8,6.1,8.3,7.7,13.2c0.4,1.1-0.7,2.2-1.9,1.8c-5.3-1.9-9.7-6-12-11.1
		c-4.5,2.9-11.5,0.8-13.6-4.2c-0.3,2.7-3.7,4.2-6.3,3.4s-4.6-2.8-6.5-4.8c2.5,3.9,4.8,8,7,12.1c0.9,1.9,1.8,4,0.1,5.8
		c-1.2,1.2-3,1.6-4.6,1.1c-7.9-2.4-15.5-6.1-22.3-10.8c2.8,1.9,4.6,5.4,4.8,8.9c-4.9,0.9-10,0.1-14.4-2.2c4.8,3.6,8.4,8.7,10.1,14.4
		c-4.2,1.7-9.2,0.7-13-1.7s-6.2-3.7-8.9-7.3"/>
	<path class="st4" d="M27.5,76.5c7.3-3.7,12.8-9.7,19.1-14.9C53.4,56,61.4,52.3,70,50.2c17.6-4.2,35.9-1.2,53.4,2.5
		c0.5,0.1,0.7-0.7,0.2-0.8c-17.3-3.7-35.3-6.7-52.8-2.7c-8.5,1.9-16.6,5.5-23.4,10.9c-6.7,5.3-12.5,11.8-20.2,15.8
		C26.6,76.1,27.1,76.8,27.5,76.5z"/>
</g>
<g>
	<path class="st1" d="M279.3,230.5c0.4-15.1-0.8-30.7,5.1-44.6c6.1-13.8,19.6-25.4,34.7-24.5c19,1.1,31.7,20.4,37.2,38.8
		c5.5,18.3,7.6,38.5,19.6,53.3c10.3,12.7,26.2,19.5,38.2,30.6c19.2,17.9,25.7,47.8,16.8,72.3c-0.7,2.1-3.7,2-4.4,0
		c-4.8-14.1-9.2-27.9-26.8-29.1c-19.6-1.3-43,8.7-54.6-2.8c-0.4-0.3-1,0.3-0.8,0.8c1.4,8.5,9,25.7,7.5,32.4
		c-0.6,2.3-3.7,2.5-4.7,0.4c-2.1-4.5-9.9-21.2-13.1-25c-2.4-2.8-6.9-1.6-7.6,2l3.2,22.6c-0.3,1.6-2.1,2-3.1,0.7
		c-17.5-23.4-34.3-63.3-39.1-92.1c-1.3-7.8-3.2-15.2-5.8-22.7C280.4,239.8,279.1,235.1,279.3,230.5z"/>
	<path class="st2" d="M287.9,178.9c-3.1-3.1-6.2-6.2-9.4-9.3c-1-1-2.1-2.1-3.5-2c-1.3,0-2.3,1-3.2,1.8c-2.8,2.7-5.5,5.4-8.3,8
		c-2.1,2-4.2,4.1-5.5,6.8c-2.1,4.9-0.4,10.7-0.7,16.1c-1,17.8-23,28.2-25.4,45.8c-0.6,3.9,0,8,0,12.1c-0.1,9.3-3.4,18.3-3.1,27.6
		c0.3,11.7,5.8,22.4,8.7,33.7c4.2,15.8,4.1,34.6,16.5,45.3c4.4,3.8,11.3,5.9,15.8,2.3c2-1.7,3-4.1,3.8-6.5
		c4.7-13.8,2.7-29.1,5.6-43.4c3.5-16.9,13.8-33,11.8-50.2c-0.8-8.5-4.7-16.2-6.8-24.5c-4.7-17.8-1.3-36.4,2.7-54.3"/>
	<path class="st2" d="M340.8,186.5c-0.1-5.8,1.6-11.6,4.7-16.2c0.7-1,1.6-2.1,2.7-2.5c1.8-0.7,3.9-0.1,5.4,1.1
		c10.4,8.9,22.6,12.6,27.8,23.7c2,4.4,6.3,7.9,0.6,14c-1.6,1.7-2.7,3.5-3.9,5.5c-4.4,6.3-3.5,14.9-0.8,22.1s9.9,15.4,12.8,22.4
		c6.2,14.8,7.6,41,6.5,52c-0.6,5.2-6.2,10.7-13.5,13.4c-7.5,2.7-14.8-3.9-20-10c-5.6-6.6-11.3-13.4-14.9-21.3
		c-6.8-14.1-6.8-30.5-6.8-46.1c0-16.4,0.1-32.6,0.1-48.8"/>
	<path class="st3" d="M347.7,180.6c0-4.8,3.2-4.8,6.8-1.3c1,0.8,2.1,1.7,3.1,2.5c1,0.8,2.1,1.7,3.1,2.5c2.4,2,5.1,3.9,7.2,6.1
		c6.2,6.1,1,13.3,0,20.3c-1.3,9.4,0.8,19,4.9,27.6c2.3,4.8,5.5,8.9,8.5,13.3c3,4.4,4.9,9.4,6.3,14.5c3,10.9,3.5,22.1,3.2,33.3
		c-0.1,4.5-1.3,8.3-5.1,11.1c-1.3,0.8-3.4,2.3-4.9,2.7c-5.6,2-6.1,1.3-9.2-2.3c-8-9-17.5-19.5-22.1-30.9c-2.7-6.6-0.6-13,0.1-19.7
		c0.8-7.1,0.4-14.1-0.3-21c-1.3-12.8-3.7-25.8-1.3-38.6c0.6-3.1,1.4-7.3,3.1-10.2c2.4-3.9,4.9-1.1,7.2,2.4
		c3.8,5.8,3.8,12.7,3.7,19.5c-0.1,5.9-0.1,11.7,1.3,17.5c1.6,6.2,3.9,12.3,6.2,18.2c4.9,13.1,7.6,26.7,8.6,40.5
		c0.3,3.1,1.1,7.1,0.6,10c-0.4,2.3,2,4.9-3.9,4.7c-1.3,0-3.4-2.4-4.4-3.2c-4.7-3.9-8.3-8.9-10.9-14.5c-6.1-13.1-4.1-29.9-4.7-44.1
		c-0.3-6.8-0.6-13.5-0.8-20.4c-0.1-2.7-0.3-5.5-0.3-8.2c0-1.4-0.7-3.9-0.3-5.4c0.3-0.7,0.1-0.8,1.4-1.1c3.1-1,2.4,4.8,2.5,7.1
		c0.8,6.9,1.7,13.8,2.8,20.6c2.3,14.4,4.9,28.6,8.7,42.6c0.8,3.1,2.8,7.1,3,10.2c0.1,0.3,0.1,0.6,0.3,0.8c-2,4.1-3.7,4.4-5.1,0.8
		c-1-1.6-1.8-3.1-2.5-4.8c-2-4.2-3.1-8.9-3.4-13.5c-0.1-1.4,0.4-6.6,0.3-6.8c1.4,1.8,1.4,6.8,2,8.9c0.6,2.7,1.1,5.5,1.8,8.2
		c0.1,0.8,1.4,0.4,1.3-0.3c-0.7-3.4-1.6-6.8-2.3-10.3c-0.6-2.3-0.4-6.5-2.4-8c-0.3-0.3-0.7-0.3-0.8,0c-2.4,2.3-1.1,8.2-0.7,11.1
		c0.8,5.6,2.7,11.3,5.9,16.1c1.1,1.8,3.4,5.1,6.1,4.2c3.2-1,1.7-4.9,1.1-7.1c-8.2-26.5-12.4-54.2-15.4-81.7c0-0.4-0.3-0.6-0.7-0.7
		c-2.8-0.1-4.8,1.8-4.9,4.2c-0.3,4.7,0.4,9.6,0.6,14.2c0.4,11.3,1.1,22.6,1.3,33.8c0.1,8.9-0.3,17.6,2.7,26.1
		c3,8.5,8.2,18.6,15.5,23.8c9.2,6.6,9-11.4,8.6-17.3c-0.7-12.4-1.7-23.8-5.4-35.7c-2.1-6.8-6.5-12.7-8.6-19.5
		c-2.4-7.6-3.8-13.5-3.7-21.4c0.1-9.7-0.7-21.3-10.9-25.8c-0.3-0.1-0.7-0.1-0.8,0.3c-6.1,11-6.6,23.6-5.5,35.8
		c1.3,15.1,3.5,29.3,1.1,44.4c-2,12.4,4.5,20.9,11.6,30.5c3.5,4.8,7.3,9.4,11.3,14c2.4,2.7,5.5,7.2,9.6,7.5c2.8,0.1,6.3-2.5,8.6-4.1
		c3.4-2.1,3.1-3.8,3.2-7.8c0.6-11.3,2.1-22.1,0.1-33.3c-1.8-10.9-7.6-19.3-13.7-28.3c-7.2-10.7-11.6-24.7-8.6-37.5
		c1.1-4.9,6.6-10.2,3.9-15.1c-1.3-2.3-4.5-5.9-6.5-7.6c-3.1-2.5-7.1-3.2-10.2-5.8c-2.3-1.8-6.2-5.8-9.6-3.7
		c-2.1,1.4-2.4,4.2-0.4,5.6C347.7,182.2,348.2,181,347.7,180.6z"/>
	<path class="st2" d="M423.3,294.6c-1.3-2.7,1.3-7.8,3.7-9.4c2.4-1.7,5.5-2.3,8.5-2.8c2-0.3,4.1-0.6,5.6,0.6
		c1.7,1.1,2.1,3.5,2.7,5.5c0.6,2,2.1,4.1,4.1,3.9c1-0.1,1.7-0.7,2.5-1.3c6.3-4.7,13.8-8.5,21.7-8.2c3.5,0.1,7.9,2,8.2,5.5
		c0.3,2.4-1.6,4.7-2.7,6.8c-1.1,2.1-1.7,4.4-1.7,6.8c0,1,0.1,2,0.6,2.8c0.6,0.8,1.6,1.3,2.4,1.8c4.5,2.5,8.2,6.2,10.7,10.9
		c1.4,2.5,1.8,6.5-0.8,7.5c-1.8,0.7-3.8-0.6-5.6-0.6c-3.4,0-5.5,3.5-8.3,5.4c-5.6,3.7-13.4,0-17.8-5.1c-4.4-5.1-7.2-11.6-12.3-15.9
		c-2-1.7-4.1-3-5.8-4.9c-1.8-2.1-2.7-4.9-3.9-7.3c-1.3-2.4-3.2-4.9-5.9-5.5c-2.7-0.6-6.1,1.6-5.6,4.4"/>
	<path class="st3" d="M285.9,183.6c-1.4-10.9-14.9-9.2-19.7-1.8c-3.9,6.1-3.5,13.4-3.9,20.3c-0.6,9-3.9,16.8-8.7,24.4
		c-8.5,13.4-16.5,25.1-17.8,41.5c-1.4,16.8,2.5,34,6.2,50.2c3.7,16.1,5.8,32.3,18.3,43.6c0.4,0.4,4.1,0.6,4.4,0
		c5.4-15.2,1.1-31.6,4.1-47.1c2.8-14.9,16.1-25.4,17.8-40.6c0.7-6.1-1.3-11.3-4.7-16.4c-5.1-7.3-10-13.1-9.3-22.6
		c0.6-8.2,3.8-15.9,4.9-24c1.1-7.9,0.7-15.9-0.8-23.8c-0.1-0.6-1-0.7-1.4-0.4c-3.9,3.7-3.7,9.6-4.5,14.5c-1.1,7.1-3.1,14.1-5.5,20.9
		c-2.5,7.3-5.8,14.4-9.7,21c-3.7,6.2-8.5,11.8-11.4,18.5c-5.6,12.3-2.1,26.1,1.3,38.5c2.3,8,4.5,16.2,6.8,24.3
		c1,3.4,1.4,9.9,5.8,10.6c0.4,0.1,4.7-1.3,4.7-1.7c1.4-9.9,0.6-19.3,2.1-29.2c0.8-5.2,0.4-9.9,3.1-14.7c2-3.7,4.7-6.8,6.8-10.3
		c6.3-10.9,2.4-24.8-10.2-28.8c-0.3-0.1-0.6,0-0.8,0.3c-13.4,14.4-11.1,34.6-8.5,52.5c0.1,0.8,1.3,0.7,1.6,0
		c2.8-7.2,5.6-14.5,8.5-21.7c1.8-4.5,6.6-12,4.9-17.1c-0.8-2.5-3.7-4.7-6.3-3.2c-3.5,2-3.5,10-4.2,13.4c-0.1,1,1.4,1.4,1.6,0.4
		c0.4-1.8,0.7-3.5,1-5.4c0.1-0.8,0.4-1.8,0.6-2.7c0.1-2.5,2.1-2.7,5.9-0.6c1,3-3.2,10-4.4,12.7c-3.1,7.9-6.2,15.8-9.3,23.7
		c0.6,0,1,0,1.6,0c-1.7-11-3.4-22.4-1-33.4c1-4.4,2.5-8.6,4.9-12.4c1.7-2.5,2.8-4.9,6.3-3.7c2.3,0.7,4.2,3.1,5.5,4.8
		c6.5,8.6,2.8,17.3-2.5,25.2c-4.9,7.2-7.6,14.1-8.9,22.8c-0.7,4.5-1.3,9.2-1.8,13.8c-0.3,2.4-0.7,4.8-1,7.1c-0.3,2.1,0,6.9-2.5,4.1
		c-1.3-1.4-1.6-5.2-2.1-7.1c-0.7-2.4-1.3-4.5-2-6.8c-1.4-5.1-0.7-10-2.1-15.1c-2.8-10.3-5.4-19.5-3.2-30.2c1.8-9.4,5.4-19,10-27.1
		c4.9-8.5,8.9-17.3,11.8-26.7c1.6-4.8,2.7-9.6,3.7-14.5c1-4.9,0.6-12.1,4.4-15.7c-0.4-0.1-0.8-0.3-1.4-0.4c1.8,9.3,2,18.6,0,27.9
		c-1.6,7.1-4.1,14-4.1,21.3c-0.1,15.5,13.4,22.3,10,38.4c-3.1,14.5-11.7,25.7-14,40.6c-2.3,15.1,1.4,30.5-3.7,45.1
		c0.4-0.1,0.8-0.3,1.4-0.4c-12.8-11.6-17.8-28.3-21.3-44.6c-3.9-17.9-8.3-36.9-4.9-55.3c3.2-16.8,17.5-26.4,24.1-41.6
		c3-6.8,3.9-17.5,4.4-24.8c0.3-4.8-1.7-7.5,1-11.6c3.7-5.6,15.5-8.5,16.6,1C284.3,184.6,286,184.6,285.9,183.6z"/>
	<path class="st2" d="M317.8,209.7c-4.2,0-8.2,0.3-10.2,0.6c-3.4,0.4-6.8,2-8.5,4.9c-1.3,2.4-1.4,5.2-1.1,7.9
		c0.1,1.8,0.6,3.9,2.3,4.8c1,0.4,2,0.4,3.1,0.3c2.7-0.1,5.2-0.3,7.9-0.6c6.6-0.4,13.8-1.1,18.6-5.8c2.7-2.5,4.1-7.2,1.6-9.9
		C329.3,210.2,323.4,209.7,317.8,209.7z"/>
	<path class="st2" d="M303.1,193.7c-0.8,1.4-1.4,3-1.1,4.5s1.7,3.1,3.4,2.8c0.6-0.1,3.1-0.6,3.5-0.8c2.3-1.4,3-4.2,0.8-6.9
		C307.9,191.2,304.5,191.5,303.1,193.7z"/>
	<path class="st2" d="M319.9,195.1c-0.4,0.7-0.7,1.6-0.6,2.4s0.8,1.6,1.7,1.4c0.3,0,1.6-0.3,1.8-0.4c1.1-0.7,1.6-2.3,0.4-3.5
		C322.3,193.7,320.6,193.9,319.9,195.1z"/>
	<path class="st2" d="M297.3,190.8C297.2,190.9,297.3,190.9,297.3,190.8s0.1-0.1,0.1-0.3c0.1-0.1,0.1-0.4,0.3-0.6
		c0.1-0.4,0.4-0.7,0.6-1.1c0.4-0.7,0.8-1.4,1.4-2.1c0-0.1,0.1-0.1,0.1-0.3c-0.1,0.1-0.1,0.1,0,0s0.3-0.3,0.4-0.4
		c0.3-0.3,0.6-0.6,0.8-0.8c0.6-0.6,1.3-1.1,1.8-1.7c0.7-0.6,0.6-1.8,0-2.4c-0.7-0.7-1.7-0.6-2.4,0c-2.8,2.4-4.9,5.4-6.3,8.9
		c-0.3,0.8,0.4,1.8,1.1,2.1C296.2,192.2,296.9,191.6,297.3,190.8z"/>
	<path class="st2" d="M326.6,184.6c0.6,0.1,1,0.1,1.6,0.4c0.1,0,0.3,0.1,0.4,0.1c0.3,0.1,0,0-0.1,0c0,0,0.1,0,0.1,0.1
		c0.3,0.1,0.6,0.3,0.7,0.4c0.3,0.1,0.4,0.3,0.7,0.4l0.1,0.1c0.3,0.1,0,0-0.1-0.1c0.1,0,0.3,0.1,0.3,0.3c0.1,0.1,0.4,0.4,0.6,0.6
		c0.1,0.1,0.1,0.1,0.3,0.3c0.1,0.1,0.4,0.6,0.1,0.1c0.3,0.4,0.6,0.7,1,0.7c0.4,0.1,1,0,1.3-0.1c0.4-0.3,0.7-0.6,0.7-1
		c0.1-0.4,0.1-1-0.1-1.3c-0.8-1.1-1.8-2.1-3.1-2.8c-1.1-0.7-2.4-1.1-3.7-1.3c-0.4-0.1-0.8-0.1-1.3,0.1c-0.3,0.1-0.7,0.6-0.7,1
		c-0.1,0.4-0.1,0.8,0.1,1.3C325.8,184.1,326.2,184.4,326.6,184.6z"/>
</g>
<g>
	<path class="st4" d="M194.2,97c-0.2,0.5-0.5,1-0.3,1.6c0.1,0.5,0.6,1,1.1,0.9c0.2-0.1,1.1-0.2,1.2-0.3c0.7-0.6,0.9-1.5,0.2-2.4
		C195.8,96,194.7,96.1,194.2,97z"/>
	<path class="st1" d="M102.7,186.9c0.8,11.7,1.4,23.5,1.7,35.2c0.1,1.2,0.1,2.6-0.6,3.7c-0.9,1.6-2.8,2.2-4.5,2.6
		c-2.4,0.6-5.5,1.2-7.7,0c-4-2-4-7.6-3.9-11.5c0.2-10.5-1-21.6,1.4-31.8c1-4.7,3.5-9.2,7.6-11.7"/>
	<path class="st1" d="M77.7,198.9c0.1,6.4-0.5,12.7-2.5,18.7c-1.4,4.2-3,9.7-8.3,9.5c-2.5,0-6.1,0-6.9-3c-0.5-1.5,0-3.1,0-4.7
		c0.1-8.1,1-16.2,2.5-24.2"/>
	<path class="st5" d="M65.3,227.1c0.1-1.6,0.3-3.2,0.6-4.8c0.1-0.6,1-0.6,0.9,0c-0.1,1.6-0.3,3.2-0.6,4.8
		C66.2,227.6,65.3,227.6,65.3,227.1z"/>
	<path class="st5" d="M61.1,226.5c0.2-2,0.6-4,0.8-6c0.1-0.6,1-0.6,0.9,0c-0.3,2-0.6,4-0.8,6C62,227.1,61.1,227.1,61.1,226.5z"/>
	<path class="st1" d="M192.1,191.2c0,8.6,0,17.3,0.1,25.9c0,2.6,0,5.3-1.1,7.7c-1.1,2.4-3.9,4.2-6.4,3.5c-2.5-0.7-3.7-3.4-4.7-5.8
		c-3.9-10.8-5.1-22.4-3.9-33.7"/>
	<path class="st5" d="M186.4,227.9c-0.3-1.5-0.6-3.1-0.8-4.5c0-0.6,0.8-0.8,0.9-0.2c0.3,1.5,0.6,3.1,0.8,4.5
		C187.4,228.2,186.5,228.4,186.4,227.9z"/>
	<path class="st5" d="M184.2,227.1c-0.6-1-0.8-2.2-0.8-3.3c0-0.6,0.9-0.6,0.9,0c-0.1,1,0.1,1.9,0.7,2.8
		C185.3,227.2,184.5,227.6,184.2,227.1z"/>
	<path class="st1" d="M189.4,89.6c1.5-4.2-1-8.6-3.5-12.3c-3.9-5.8-7.7-11.7-11.6-17.5c-0.6-0.9-1.4-1.8-2.4-1.9
		c-1.2-0.1-2.2,1.1-2.7,2.4c-2.8,6.8-0.7,14.7,1.7,21.7c1.5,4.3,3.1,8.9,6.8,11.5s10.1,1.8,11.5-2.5"/>
	<path class="st1" d="M203.4,77.2c0-5,0-10,0-15.1c0-1.6-0.1-3.4-1.5-4.1c-1.8-1-3.7,0.9-4.8,2.7c-2.3,4.2-3.4,9.1-3.3,13.9
		c0,1.7,0.2,3.5,1.5,4.7c1.7,1.6,4.8,1.1,5.9-0.8"/>
	<path class="st1" d="M249.3,107.2c-1.9-5.7-7.8-13.5-13.9-13.1c-1.6,0.1-3.2,0.2-4.8-0.1c-5.3-1.4-6.5-8.3-10.1-12.5
		c-3.6-4.2-9.8-5.2-15.5-5.7c-5.6-0.5-11.5-0.5-16,2.7c-3.4,2.3-5.3,6-7,9.7c-5,11-7.7,23.2-8,35.3c-0.1,2.4,0,4.9,0.9,7
		c1,2.6,3.2,4.5,5.5,6.2c10.5,7.6,24,9.7,36.9,10.1c11.1,0.5,24-1,30.2-10.2c4.5-6.8,4.1-15.8,3.4-24"/>
	<path class="st1" d="M202.4,139.1c8.6,8.5,14.2,20.9,15.2,33.9c0.5,5,0.1,10.2-1.6,14.9c-4.8,12.7-18.4,17.2-30.4,19.1
		c-37.3,6-75.3,3.2-112.6-3.5c-4.8-0.8-9.9-1.9-13.3-5.9c-4.8-5.7-4.2-14.8-2.7-22.5c1.5-8.5,3.6-16.8,6.4-24.9
		c1.6-4.5,3.3-9.1,6.2-12.6c6.4-7.7,16.7-8.5,26-8.7c27-0.6,54.2,0.2,81.2,1.1"/>
	<path class="st1" d="M74.5,141.9c4.7-1.6,7.2-7.4,5.3-11.9c-0.8-1.8-2-3.3-3.2-4.9c-6.5-9.1-7.4-21-8.1-32.3
		c-4.4,3.5-5.7,9.7-6.1,15.2c-0.5,6.7-0.1,13.4,1.1,20c0.8,4.2,2.2,8.6,5.3,11.5c3.2,3,8.7,3.4,11.5,0.1"/>
	<path class="st1" d="M210.6,178.9c1.1,9.9,2.2,19.8,3.2,29.8c0.2,3,0.6,6-0.1,8.9c-0.7,2.8-2.6,5.7-5.5,6.6
		c-3.9,1.4-8.2-1.4-10.1-4.9c-1.9-3.5-2.2-7.7-2.3-11.8c-0.2-8.2-0.6-16.5-0.9-24.7"/>
	<path class="st1" d="M243.9,97.4c4.4,2.2,7.4,6.8,8.7,11.6c1.4,4.8,1.2,9.9,1.2,14.9c0,6.4-0.1,12.8-0.1,19.3c0,1.1,0,2.4-0.5,3.4
		c-0.6,1.4-1.9,2.4-3.2,3.2c-9.3,5.8-21,6.6-32,5.7c-2-0.1-4.2-0.3-5.8-1.6c-1.4-1-2.3-2.6-2.8-4.3c-2.6-7.3-0.5-15.3,1.7-22.8
		c1.5-5.1,3-10.2,4.4-15.3c1.1-4.1,2.4-8.3,4.8-11.9c2.4-3.5,6.1-6.5,10.5-6.7c4.1-0.2,8.1,2,12.2,2.4"/>
	<path class="st6" d="M232.5,103.1c-6.1,17.4-8,36.6-5.9,54.9c0.1,0.6-0.8,0.6-0.9,0c-2.2-18.3-0.2-37.7,5.9-55.1
		C231.8,102.3,232.8,102.6,232.5,103.1z"/>
	<path class="st6" d="M238,109.6c0.3,15.6,0.2,31.1-0.5,46.7c0,0.6-0.9,0.6-0.9,0c0.7-15.6,0.9-31.1,0.5-46.7
		C237.1,109,238,109,238,109.6z"/>
	<path class="st6" d="M244.3,107c4.1,17,4.4,34.8,1.1,52c-0.1,0.6-1,0.3-0.9-0.2c3.3-17.2,3-34.6-1.1-51.6
		C243.3,106.6,244.1,106.4,244.3,107z"/>
	<path class="st6" d="M251,108.6c4,14.9,4.5,30.2,1.8,45.3c-0.1,0.6-1,0.3-0.9-0.2c2.8-15,2.2-30.2-1.8-44.9
		C249.9,108.2,250.8,107.9,251,108.6z"/>
	<path class="st6" d="M239.9,98.6c0.3,3.6,5.1,5.6,8.5,4.1c3.4-1.6,5.2-5.5,5.5-9.1c0.1-0.9,0.1-1.8-0.5-2.5
		c-0.3-0.5-0.8-0.7-1.4-0.9c-2.5-1-5.5-0.9-7.7,0.3S239.8,95.7,239.9,98.6z"/>
	<path class="st6" d="M221.8,107.3c-3.9,15.9-5.7,32.2-5.3,48.5c0,0.6-0.9,0.6-0.9,0c-0.2-16.5,1.5-32.8,5.3-48.7
		C221.1,106.5,221.8,106.8,221.8,107.3z"/>
	<path class="st5" d="M208.6,223.2c-0.9-1.4-1.4-3-1.2-4.5c0-0.6,0.9-0.6,0.9,0c0,1.5,0.3,2.7,1.1,4
		C209.7,223.2,208.9,223.7,208.6,223.2z"/>
	<path class="st5" d="M204.6,223.9c-0.3-1.6-0.8-3.1-1.1-4.5c-0.1-0.6,0.8-0.8,0.9-0.2c0.3,1.6,0.8,3.1,1.1,4.5
		C205.7,224.2,204.8,224.5,204.6,223.9z"/>
	<path class="st5" d="M96.1,228.9c-0.1-1.7-0.2-3.3-0.3-4.9c0-0.6,0.9-0.6,0.9,0c0.1,1.7,0.2,3.3,0.3,4.9
		C97,229.5,96.1,229.5,96.1,228.9z"/>
	<path class="st5" d="M92.2,229c-0.3-1.7-0.3-3.4-0.2-5.2c0-0.6,0.9-0.6,0.9,0c-0.2,1.6-0.1,3.3,0.1,5
		C93.1,229.3,92.2,229.6,92.2,229z"/>
	<path class="st7" d="M74.5,155.6c1.5-2.6,2.8-5.2,4.3-7.7c0.7-1.1-1.1-2.2-1.7-1c-1.5,2.6-2.8,5.2-4.3,7.7
		C72.1,155.7,73.8,156.7,74.5,155.6z"/>
	<path class="st7" d="M95.4,164c0-2,0-4,0-6c0-1.2-2-1.2-2,0c0,2,0,4,0,6C93.4,165.3,95.4,165.3,95.4,164z"/>
	<path class="st7" d="M131.1,144.7c0.9,1.4,1.7,2.8,2.6,4.2c0.7,1,2.4,0.1,1.7-1c-0.9-1.4-1.7-2.8-2.6-4.2
		C132.1,142.5,130.4,143.6,131.1,144.7z"/>
	<path class="st7" d="M107,138.3c0,2.3,0,4.5,0,6.8c0,1.2,2,1.2,2,0c0-2.3,0-4.5,0-6.8C109,137.1,107.1,137.1,107,138.3z"/>
	<path class="st7" d="M122.4,162.5c0.5-1.6,1.1-3.2,1.6-4.8c0.3-1.2-1.6-1.8-1.9-0.6c-0.5,1.6-1.1,3.2-1.6,4.8
		C120.2,163.2,122.1,163.7,122.4,162.5z"/>
	<path class="st7" d="M147.4,139.5c0.9,1.1,1.7,2.3,2.6,3.4c0.3,0.5,0.9,0.7,1.4,0.3c0.5-0.2,0.7-0.9,0.3-1.4
		c-0.9-1.1-1.7-2.3-2.6-3.4c-0.3-0.5-0.8-0.7-1.4-0.3C147.3,138.3,147.1,139,147.4,139.5z"/>
	<path class="st7" d="M178.8,142.4c0,2,0,4,0,6c0,1.2,2,1.2,2,0c0-2,0-4,0-6C180.8,141.2,178.9,141.2,178.8,142.4z"/>
	<path class="st7" d="M174.4,174.8c1.1-0.9,2.3-1.7,3.4-2.6c0.5-0.3,0.7-0.8,0.3-1.4c-0.2-0.5-0.9-0.7-1.4-0.3
		c-1.1,0.9-2.3,1.7-3.4,2.6c-0.5,0.3-0.7,0.8-0.3,1.4C173.2,174.9,173.9,175.2,174.4,174.8z"/>
	<path class="st7" d="M199.1,165.6c0-1.9,0.7-3.7,0.7-5.7c0-1.2-2-1.2-2,0c0,1.9-0.7,3.7-0.7,5.7C197.1,166.9,199,166.9,199.1,165.6
		z"/>
	<path class="st7" d="M144.6,172.3c0,2.3,0,4.5,0,6.8c0,1.2,2,1.2,2,0c0-2.3,0-4.5,0-6.8C146.6,171.1,144.7,171.1,144.6,172.3z"/>
	<path class="st7" d="M161.9,154.5c-0.7,2.2-1.2,4.4-1.9,6.6c-0.3,1.2,1.6,1.8,1.9,0.6c0.7-2.2,1.2-4.4,1.9-6.6
		C164.1,153.8,162.2,153.2,161.9,154.5z"/>
	<path class="st7" d="M133.6,196.7c1.2-1.7,2.4-3.3,3.6-5c0.8-1-1-2-1.7-1c-1.2,1.7-2.4,3.3-3.6,5
		C131.1,196.8,132.8,197.8,133.6,196.7z"/>
	<path class="st7" d="M66,182.6c0,2,0,4,0,6c0,1.2,2,1.2,2,0c0-2,0-4,0-6C68,181.3,66,181.3,66,182.6z"/>
	<path class="st7" d="M91,197c0-2,0-4,0-6c0-1.2-2-1.2-2,0c0,2,0,4,0,6C88.9,198.2,90.9,198.2,91,197z"/>
	<path class="st7" d="M77.2,169.8c1.6,1.1,3.6,1.9,4.9,3.4c0.8,1,2.2-0.3,1.4-1.4c-1.4-1.5-3.5-2.4-5.2-3.6
		C77.1,167.5,76.2,169.2,77.2,169.8z"/>
	<path class="st7" d="M203.8,183.9c1.6,1.1,3.6,1.9,4.9,3.4c0.8,1,2.2-0.5,1.4-1.4c-1.4-1.6-3.5-2.5-5.2-3.6
		C203.8,181.6,202.8,183.3,203.8,183.9z"/>
	<path class="st7" d="M109.9,202.6c0.9-2,1.7-4,2.5-6c0.5-1.2-1.5-1.7-1.9-0.6c-0.8,2-1.7,4-2.5,6
		C107.6,203.2,109.5,203.8,109.9,202.6z"/>
	<path class="st7" d="M158.2,193.8c2.3,0.2,4.5,0.6,6.8,0.9c1.2,0.1,1.8-1.7,0.6-1.9c-2.3-0.2-4.5-0.6-6.8-0.9
		C157.5,191.7,157,193.6,158.2,193.8z"/>
	<path class="st7" d="M191.7,194c0.3-1.5,0.6-2.8,0.9-4.3c0.2-1.2-1.7-1.8-1.9-0.6c-0.3,1.5-0.6,2.8-0.9,4.3
		C189.6,194.7,191.5,195.3,191.7,194z"/>
	<path class="st7" d="M112,173.2c1.8,2.3,4,4.2,6.4,5.9c1,0.8,2-1,1-1.7c-2.3-1.7-4.2-3.5-6-5.7C112.6,170.8,111.1,172.2,112,173.2z
		"/>
	<path class="st6" d="M205.4,93.7c-0.7,1.2-1.2,2.7-1,4.2c0.2,1.4,1.5,2.7,3,2.5c0.5-0.1,2.7-0.6,3.2-0.8c1.9-1.2,2.6-3.9,0.7-6.2
		C209.6,91.3,206.5,91.6,205.4,93.7z"/>
	<path class="st6" d="M224.2,90.5c-0.5,0.8-0.9,1.7-0.7,2.5c0.2,0.8,0.9,1.6,1.8,1.5c0.3,0,1.7-0.3,1.9-0.5c1.2-0.8,1.6-2.3,0.5-3.7
		C226.8,89.2,225,89.4,224.2,90.5z"/>
	<path class="st4" d="M198.8,93.4c1-2.4,2.5-4.7,4.2-6.7c-0.3-0.2-0.8-0.3-1.2-0.6c0.1,1.6,0.1,3.1,0.2,4.7c0,0.9,1.1,1,1.5,0.2
		c0.3-0.9,0.8-1.9,1.1-3c0.2-0.6,0.3-1,0.6-1.6c0.1-0.2,0.1-0.3,0.2-0.6c0.1-0.1,0.3-0.5,0.3-0.5s0,0-0.1,0c-0.1,0,0,0,0,0.1
		c0.1,0.3,0.1,0.5,0.1,0.8c0.1,0.7,0.5,1.2,1.1,1.4c0.3,0,0.8-0.1,0.9-0.6c0.1-0.3-0.1-0.8-0.6-0.9c-0.2-0.1,0,0,0,0c0,0.1,0,0,0,0
		s-0.1-0.2-0.1-0.3s0-0.7-0.1-0.9c-0.3-0.9-1.2-1.4-2.2-0.8c-0.9,0.6-1.2,1.9-1.6,2.8c-0.5,1.1-0.9,2.4-1.4,3.5
		c0.5,0.1,1,0.1,1.5,0.2c-0.1-1.6-0.1-3.1-0.2-4.7c-0.1-0.7-0.9-1.1-1.4-0.6c-1.8,2.2-3.3,4.5-4.4,7c-0.2,0.3-0.1,0.8,0.2,1
		C197.9,93.7,198.3,93.6,198.8,93.4z"/>
	<path class="st6" d="M221.2,85.6c1.1-1.1,2.4-2,3.7-2.8c-0.3-0.1-0.8-0.3-1.1-0.5c0.2,1,0.2,2,0,3c-0.2,0.8,0.7,1.4,1.2,0.8
		c0.9-1,1.8-2.2,2.8-3.2c-0.5,0-0.8,0-1.2-0.1c0.5,0.7,0.6,1.5,0.3,2.3c-0.3,1,1.2,1.4,1.5,0.5c0.3-1.1,0.1-2.4-0.6-3.4
		c-0.3-0.3-0.9-0.5-1.2-0.1c-0.9,1-1.9,2.2-2.8,3.2c0.3,0.3,0.8,0.6,1.2,0.8c0.2-1.2,0.2-2.5,0-3.7c-0.1-0.5-0.7-0.7-1.1-0.5
		c-1.5,0.8-2.8,1.8-4,3.1C219.2,85.5,220.4,86.5,221.2,85.6z"/>
	<path class="st1" d="M66.5,94.1c-4.8,6.2-8,13.6-9.2,21.4c-0.1,0.6-0.1,1.2,0.7,1.5c0.6,0.2,1.2-0.1,1.5-0.7
		c0.3-0.6,0.9-0.7,1.4-0.6c0.9,0.2,1.4,1.4,0.9,2.3c-1.2,2.5-1,2-2.6,5.2c-0.7,1-0.7,1.5-0.3,1.2l1.8-1.1c-0.6,5.2,0.5,7,0.9,10.9
		c0.1,0.3,0.5,0.3,0.6,0.1L64,130l1,10.5c0,0.3,0.3,0.5,0.6,0.3c0.8-0.5,1.7-0.3,3-1.1"/>
	<path class="st8" d="M210.5,147.3c-11.6-7.4-23.4-15.8-34.9-23.2c-1.2,1.2-2.4,2.5-3.6,3.6c-0.2,0.2-0.5,0.5-0.5,0.8
		s0.2,0.6,0.5,0.8c10.5,9.4,21,18.4,34,23.9c1.4,0.6,5.7,2.6,6,1.2C212.5,152,211.7,149.1,210.5,147.3z"/>
	<path class="st9" d="M208.2,157.5c1,0.2,1.8,0.8,2.6,1.4c0.3,0.3,0.7,0.6,0.9,0.9c0.3,0.6,0.3,1.1,0.3,1.8c-0.1,1.4,0,3.3-1,4.2
		c-1.6,1.5-3,1.7-5,1.4c-1.2-0.2-2.6-0.6-3.6-1.5c-1.7-1.4-2.3-3.9-1.4-5.8s3.1-3.2,5.2-2.8"/>
	<path class="st9" d="M208.8,158c0.2-1.6,0.5-3.6-1.4-4.3c-1.1-0.5-1.8-0.2-2,1c-0.1,0.8-0.2,1.7-0.3,2.5c0,0.5-0.7,0.5-0.7,0
		c0.1-0.7,0.2-1.5,0.3-2.3c0.1-0.5,0.1-1,0.5-1.5c0.5-0.6,1.4-0.6,2-0.5c2.5,0.6,2.6,3.1,2.3,5.1C209.5,158.6,208.8,158.6,208.8,158
		z"/>
</g>
<g>
	<path class="st6" d="M556.9,161.7c4.4,13,16.4,22,27.9,30.2c3.6,2.6,7.4,5.2,12,6c0.9,0.1,1.9,0.2,2.6-0.4c0.9-0.6,1-1.7,1-2.7
		c0.1-11.9-8.4-21.4-16.6-29.9c-9.4-9.6-19.9-19.5-34.1-21.4"/>
	<path class="st2" d="M440.4,126.2c43.4-1,86.7-2.1,130.2-3.2c13.3-10.6,15.8-21.4,42.1-35c1,0.4-15.9,28.5-16.7,29.1
		c-15.7,11.5-9.9,14.5-18.3,21.7c4,18.2,1.2,46.6-5.9,65.7c-1.2,3.4-5.5,4.4-8,1.9c-8.7-8.6-10.7-26.6-9.9-40.4c0-0.7-1-0.9-1.2-0.2
		c-7.7,20.6-30.1,32.7-51.4,32c-8-0.2-16,0.2-23.7-1.6c-6.9-1.7-16.4-6.1-22.5-9.7c-9.9-5.7-16.7-22-17.6-32.7
		c-0.9-9.4,0-18.5-1.9-27.7"/>
	<path class="st2" d="M434.4,125.4c-12.5,15-23.5,33-31.6,50.7c-1,2.2-2.1,4.7-2,7.2c0.1,2.5,1.5,5.2,4,5.9c2.5,0.6,4.9-0.9,7-2.4
		c10.4-7.4,20.2-15.5,29.4-24.2c-5.6,10-9.7,21-11.9,32.2c-0.2,1.4-0.5,2.7,0.2,3.9c1.4,2.1,4.7,1.4,7,0.1
		c16.2-8.7,28.4-25,32.1-43.1"/>
	<path class="st10" d="M439.4,132.3c-14.7-4.2-30-11.2-37.5-24.7c-6.5-11.6-6-25.7-5.2-39c0.1-2.4,0.5-5.1,2.6-6.2
		c2.5-1.2,5.4,0.7,7.4,2.6c5.5,4.9,12,9.2,19.2,9.5c13.5,0.5,24.9-13,38.1-11.1c8.6,1.2,15.1,9,17.7,17.2c2.5,8.4,1.9,17.2,1.1,25.9
		c-0.4,4.9-0.9,9.9-1.2,14.7c-0.2,2.5-0.5,5-1.9,7c-1.2,1.9-3.5,3-5.6,3.9c-12.4,5.1-27,4.9-39.1-0.9"/>
	<path class="st2" d="M450.9,158.2c-2.4,11.9,4.2,24.1,14.1,31.1c9.9,7,22.2,9.4,34.2,9.7c16.4,0.4,33.4-3.1,46.6-12.6
		c13.4-9.6,22.4-26,20.4-42.2c-0.1-0.7-0.2-1.5-0.6-2.1c-0.7-1-2.1-1.4-3.4-1.6c-29.4-5.4-59.6,3.5-86.5,16.5c-7.6,3.6-15.4,8-20,15
		"/>
	<path class="st10" d="M463.2,65c11.1-8.7,23.5-18,37.6-17.7c0.5,0,1,0.1,1.4,0.5c0.2,0.4,0.1,0.9,0,1.4c-1.2,4.5-5,7.9-8.4,10.9
		c-4.4,3.9-8.7,7.9-13.1,11.7c10.5-4.7,22.6-5.9,33.9-3.5c1.7,0.4,4,1.5,3.6,3.2c-0.2,1-1.1,1.6-2,2.1c-14.6,8.1-29.6,15.9-44.7,23"
		/>
	<path class="st6" d="M396.8,68c-1.4-1.5-0.7-4.1,0.9-5.4c1.6-1.2,3.7-1.4,5.9-1.4c1.1,0.1,2.2,0.2,3.2,0.7c2.7,1.4,3.2,5,3.5,8.1
		c0,0.5,0,1-0.2,1.4c-0.2,0.2-0.7,0.4-1.1,0.5c-2.7,0.5-5.5,0.9-8.1,1.4c-0.5,0.1-1.1,0.1-1.5,0c-1.5-0.7-1-4-2.7-4"/>
	<path class="st6" d="M443.5,84.7c-0.9,1.5-1.5,3.2-1.2,5c0.2,1.7,1.9,3.4,3.6,3c0.6-0.1,3.4-0.6,3.9-1c2.4-1.5,3.1-4.6,0.9-7.5
		C448.7,81.8,445,82.2,443.5,84.7z"/>
	<path class="st6" d="M431.4,71.5c-0.5,0.9-0.9,1.9-0.7,3c0.1,1,1.1,2,2.1,1.7c0.4-0.1,2-0.4,2.2-0.6c1.4-0.9,1.9-2.7,0.5-4.5
		C434.4,69.9,432.3,70.2,431.4,71.5z"/>
	<path class="st11" d="M431.7,128.9c16.2-2.1,34.5-7.1,50.7-9.1c0.7,1.9,1.4,3.9,2.1,5.7c0.1,0.4,0.2,0.7,0.1,1.1
		c-0.1,0.4-0.6,0.5-1,0.6c-16.1,4.7-33.4,11.1-50.1,10.2c-1.7-0.1-7.6-0.1-7.1-1.7C427,132.8,429.4,130.2,431.7,128.9z"/>
	<path class="st9" d="M428.9,141.3c-1.1-0.4-2.4-0.1-3.5,0.1c-0.5,0.1-1,0.2-1.5,0.5c-0.6,0.4-1,1.1-1.2,1.7c-0.6,1.4-1.7,3.5-1.1,5
		c1,2.4,2.4,3.4,4.6,4c1.5,0.4,3.1,0.6,4.7,0.2c2.5-0.6,4.4-3,4.5-5.6c0.1-2.5-1.7-5-4.1-5.7"/>
	<path class="st9" d="M427.9,141.4c0.5-1.7,1.4-4.1,3.6-3.9c1.4,0.1,2,0.7,1.6,2.1c-0.2,1-0.5,1.9-0.9,2.9c-0.1,0.5,0.6,0.7,0.7,0.2
		c0.2-0.9,0.6-1.7,0.9-2.6c0.1-0.5,0.4-1.2,0.2-1.7c-0.2-0.9-1.1-1.4-2-1.5c-3-0.6-4.4,1.9-5,4.4C427,141.7,427.8,141.9,427.9,141.4
		z"/>
	<path class="st2" d="M577.5,139.4c5.8-1.2,13.6-2,20-3.1c1.1-0.1,1.3-1.5,0.3-2.2c-2.7-1.6-5.5-3-8.2-4.4c-0.1-0.1-0.1-0.3,0.1-0.3
		c3.6-0.9,7.1-1.7,10.8-2.3c1-0.2,1.3-1.4,0.6-1.9l-4.1-3.9c-0.1-0.1,0-0.2,0.1-0.3c3.1-0.6,6.2-2,8.9-3.6c0,0,0.1-0.1,0-0.2
		c-0.7-0.6-0.2-1.8,0.5-2.5c0.7-0.7,1.6-1.6,1.6-2.4c-0.1-0.9-0.9-1.4-1.3-2.2c-1.2-3,4.6-4.8,4.1-8c0-0.5-0.3-1-0.3-1.6
		c0.1-0.7,0.7-1.4,1.3-1.9c1.3-1.4,2.6-8.5,2.8-10.3c0-0.2,0-0.2,0-0.4c-0.4-0.5-1.3-0.4-1.9-0.1c-10,4.8-22.9,15-28.8,24.5"/>
	<path class="st11" d="M494.9,132c1.2,1.2,2.2,2.7,3.4,4.2c0.5,0.6,1,1.2,0.7,2c-0.2,0.6-0.9,1-1.6,1c-0.6,0-1.2-0.4-1.9-0.6
		c-0.6-0.4-1.2-0.6-1.9-1c-0.7-0.4-1.6-0.9-1.9-1.7c-0.4-1.5,0.6-2.4,1.5-4C493.3,131.8,494,131.2,494.9,132z"/>
	<path class="st11" d="M527.9,128.2c1.7-0.6,3.5-0.7,5.2-1.1c0.7-0.1,1.5-0.2,2.1,0.2c0.5,0.5,0.5,1.2,0.1,1.9
		c-0.4,0.6-0.9,1-1.4,1.4c-0.6,0.4-1.1,0.9-1.7,1.2c-0.7,0.5-1.6,1.1-2.5,0.9c-1.5-0.4-1.9-1.6-3-3.2
		C526.9,129.4,526.8,128.5,527.9,128.2z"/>
	<path class="st11" d="M505.4,129c2.6,0.6,5.4,1.1,8,1.6c1,0.2,2.7,0.2,3.2,1.1c0.4,0.6,0.2,1.7-0.2,2.7c-0.4,0.9-1.7,0.5-2.6,0.4
		c-2.7-0.5-5.5-1-8.2-1.5c-1-0.2-2.1-0.5-2.6-1.4c-0.4-0.9,0-2,0.5-2.9C503.4,129.2,503.8,128.7,505.4,129z"/>
	<path class="st11" d="M541.3,131.9c-1.6,1.1-3.5,2.1-4.7,3.6c-0.7,1-1.2,2.4-0.5,3.2c0.6,0.7,1.7,0.7,2.7,0.4
		c1.4-0.4,2.6-1.1,3.9-2c0.7-0.5,1.5-1,2.1-1.6c0.5-0.7,0.9-1.7,0.5-2.5C545.4,133.2,544.1,129.9,541.3,131.9z"/>
	<path class="st11" d="M521.7,138.3c-0.5,0.7-0.9,1.6-1.2,2.5c-0.5,1.4-0.6,3.1,0.6,3.9c0.7,0.5,1.9,0.2,2.5-0.2
		c0.6-0.5,1.1-1.4,1.5-2.2c0.5-1.2,0.9-2.5,1-3.7c0-0.2,0-0.5-0.1-0.6s-2.9-1.4-3.7-0.1"/>
</g>
<g>
	<path class="st1" d="M532.2,353.8c-3.1-5.7,1.1-9-4.3-19.2c-1.8-3.3-3.5-6.7-5.4-9.9c-4.9-8.2-5.1-18-4.2-27.4
		c0.6-6,7.6-9,12.3-5.3c2.7,2.2,5.1,4.9,7.3,7.6c4.8,6.1,8.6,14.9,16.3,15.5c7.3,0.6,15.8-6.7,20.8-12c3.2-3.4,5.3-6.2,8.2-8.4
		c2.9-2.3,7.1-0.9,8.1,2.6c2.4,8.9,2.7,17.4-1.7,25.9c-2.2,4.2-5.1,8.3-5.5,13c-0.5,6.3,0.6,13-1.9,18.7c-1,2.2,0.2,3.8-1.7,5.5
		c-5.2,4.8-10.6,9.6-17,12.7c-2,1-4.2,1.8-5.9,3.2s-3,3.4-4.4,5c-6.9,7.8-18.6,9-29.1,9.3c-12.2,0.4-25.6,0.1-35.1-7.5
		c-10.6-8.4-13.5-23.2-14.9-36.4c-0.2-1.6,0-3.3,0.7-4.7c2.6-5.8,9.2-4.2,13-1c3.1,2.6,5.6,6.2,9.2,8.1c4.2,2.2,9.2,1.7,13.9,1.2
		c6.6-0.7,13.3-1.5,19.9-2.2"/>
	<path class="st1" d="M482.3,368.9c-1,5.2,0.4,10.5,1.9,15.6c2.1,7.6,4.5,15.5,9.8,21.3c5.3,5.8,14.8,8.7,21.4,4.4
		c0.9-0.6,1.8-1.4,2.1-2.4c0.7-1.9-0.8-4.1-2.7-4.9c-1.9-0.8-4-0.6-6.1-0.5c0-8.5,0-17-0.1-25.5c0-0.8,0-1.6-0.5-2.1
		c-0.5-0.6-1.3-0.7-2.1-0.8c-4.5-0.4-9.1-0.9-13.6-1.3"/>
	<path class="st6" d="M476.1,339.3c2.8-4.2,8.6-1.8,11.7,0.6c2.5,2,4.6,4.5,7.3,6.3c5.5,3.8,12.7,4.2,19.3,3.6
		c6.7-0.7,13.3-2.3,20-2c0.7,0,1.4,0.1,2,0.5c0.6,0.5,0.8,1.4,1,2.3c0.3,1.9,0.6,3.8,0.2,5.7c-0.4,1.9-1.5,3.7-3.3,4.3
		c-1.9,0.6-4-0.1-5.8,0.6c-2.3,0.9-3,3.5-3.7,6.1c-1,3.4-3.7,6.1-7.2,6.9c-7.6,1.6-8.8-8-14.5-8.7c-3.1-0.3-5.7,2.3-8.6,3.6
		c-6.2,2.9-13.9-0.9-17.4-6.8c-2.9-4.9-3.5-10.8-3.2-16.5c0.1-2.2,0.9-4.3,2.1-6.1L476.1,339.3z"/>
	<path class="st1" d="M530.1,371.9c-0.7,11-0.4,22,0.9,33c0.2,1.4,0.4,2.9,1.5,3.8c1,0.8,2.5,0.7,3.8,0.6c3.1-0.2,6.2-0.5,9.3-0.8
		c2.5-0.2,5.6-0.8,6.3-3.2c0.6-1.9-0.7-3.9-2.4-4.9c-1.7-0.9-3.8-1-5.8-1.1c1.3-8.4,2.6-16.8,3.8-25.2c-3.2-0.1-6.3-0.2-9.5-0.3"/>
	<path class="st1" d="M540.9,379.1c0.9,2.5,1.7,5,2.6,7.5c1.4,4,5.6,8.1,8.5,11.1c2.9,3,7.8,4.5,11.5,2.4c1.8-1.1,3.1-3.3,2.3-5.2
		c-0.3-0.8-0.9-1.3-1.6-1.8c-2.5-1.9-5.8-2.6-8.8-1.8c0.1-5.2,0.3-10.4,0.5-15.7c0-0.6,0-1.2-0.3-1.7c-0.5-0.7-1.5-0.7-2.3-0.6
		c-6.6,0.3-13.2,0.6-19.9,0.9"/>
	<path class="st8" d="M529.1,348.7c0.8,4,1.9,8.3,4.9,11c2,1.8,4.7,2.8,7.1,3.9c5.9,2.8,11.1,7,16.2,11.2c0.7,0.6,1.6,1.5,1.2,2.4
		c-0.1,0.3-0.4,0.6-0.7,0.8c-1.5,1.1-3.6,1.2-5.5,0.7c-1.8-0.5-3.4-1.6-5-2.7c-3.3-2.3-6.6-4.5-10-6.8c-4.8-3.2-9.8-6.8-11.9-12.1
		c-1.4-3.5-0.8-8.5,2.7-10"/>
	<path class="st6" d="M548.8,361.4c-7.2-0.2-15.8-1.7-18.6-8.2c-1.5-3.5-0.9-7.5-1.1-11.3c-0.5-8.1-7.2-15.4-10-23
		c-3.2-8.8-3.3-18.3-2.3-27.6c0.1-0.7,1.1-1.5,1.7-2.1c0.8-0.8,1.8-1.2,2.9-1.3c5.9-0.4,11.9,2.1,15.8,6.5
		c5.1,5.7,7.1,14.6,14.1,17.7c7.5,3.3,15.9-2.3,21.3-8.5c3.8-4.4,7.4-9.5,12-12.9c3-2.2,7.3-0.7,8.3,2.9c2.3,8.3,1.8,17.5-1.5,25.5
		c-2.1,5-5.2,9.7-6,15c-0.6,3.6-0.1,7.4-1,11c-2.1,7.5-10.1,11.7-17.5,14.1c-5.5,1.8-11.1,3.1-16.8,3.9"/>
	<path class="st1" d="M563.1,332.9c1.1,6.1,5.7,12,11.9,11.9c4.5-0.1,10-2.3,12.9,1.2c1.5,1.8,1.4,4.5,1.1,6.9
		c-0.9,5.8-3.9,12.3-9.7,13.2c-1.4,0.2-2.9,0-4.2,0.6c-1.1,0.5-1.9,1.5-2.9,2.3c-5.3,4.2-12.9-0.3-19.7-0.3c-3.1,0-6.1,0.9-9.3,1.2
		c-3.1,0.2-6.6-0.5-8.4-3c-2.3-3.2-1-7.9,1.8-10.7s6.5-4.5,9.8-6.6c7-4.5,12.4-11.5,14.9-19.5C561.2,330.1,562.4,329,563.1,332.9z"
		/>
	<path class="st6" d="M569.6,342.2c-3.3-0.1-6.6-0.1-9.9,0.1c-1,0.1-2.2,0.2-2.9,0.9c-0.4,0.4-0.6,1.1-0.8,1.7
		c-0.8,2.5-1.4,5.5,0.4,7.4c1.1,1.1,2.7,1.4,4.2,1.5c2.8,0.2,5.7-0.2,8.4-0.9c3.6-0.9,7.8-3.1,7.9-6.9c0.1-2.3-1.5-3.2-4.5-3.6
		L569.6,342.2z"/>
	<path class="st1" d="M548.1,333.8c-0.5,0.8-0.9,1.8-0.7,2.7c0.1,0.9,1,1.8,2,1.7c0.3-0.1,1.8-0.3,2.1-0.5c1.3-0.8,1.7-2.5,0.5-4.1
		C550.9,332.3,548.9,332.5,548.1,333.8z"/>
	<path class="st1" d="M568.8,333.1c-0.5,0.8-0.8,1.8-0.7,2.7c0.1,0.9,1,1.8,2,1.6c0.3-0.1,1.8-0.3,2.1-0.5c1.3-0.8,1.7-2.5,0.5-4.1
		C571.5,331.5,569.6,331.7,568.8,333.1z"/>
	<path class="st6" d="M576.8,352.8c-0.3,0.2-0.8-0.1-0.9-0.4c-0.1-0.4,0.4-0.6,0.7-0.5c0.4,0.1,0.7,0.5,0.4,0.9
		c-0.2,0.4-0.7,0.5-1.1,0.3c0,0.1,0.1,0.1,0.1,0.2c0-0.2,0.1-0.5,0.4-0.4c0.3,0,0.4-0.4,0.1-0.4c-0.4-0.1-0.7,0.1-0.9,0.4
		c-0.2,0.3-0.1,0.6,0.3,0.7c0.6,0.2,1.4-0.2,1.5-0.8c0.2-0.6-0.3-1.2-0.9-1.3c-0.6-0.1-1.2,0.3-1.1,0.9c0.1,0.7,0.9,1.2,1.5,0.8
		C577.2,353,577,352.6,576.8,352.8z"/>
	<path class="st6" d="M582.4,359.5c-0.3-0.2,0.1-0.9,0.4-0.6c0.2,0.2,0.1,0.7-0.2,0.7c-0.3,0-0.3,0.4,0,0.4c0.7,0,1.1-1.1,0.4-1.5
		c-0.8-0.4-1.5,0.8-0.9,1.3C582.3,360,582.6,359.7,582.4,359.5z"/>
	<path class="st6" d="M576.5,357.5C576.4,357.5,576.3,357.5,576.5,357.5C576.4,357.3,576.5,357.4,576.5,357.5c0,0.2,0.5,0.2,0.4-0.1
		c0-0.4-0.6-0.6-0.9-0.3c-0.3,0.4,0.1,1,0.6,0.8C576.8,357.8,576.7,357.4,576.5,357.5z"/>
	<path class="st6" d="M552.8,352.8c0.3,0.2,0.8-0.1,0.9-0.4c0.1-0.4-0.4-0.6-0.7-0.5c-0.4,0.1-0.7,0.5-0.4,0.9
		c0.2,0.4,0.7,0.5,1.1,0.3c0,0.1-0.1,0.1-0.1,0.2c0-0.2-0.1-0.5-0.4-0.4c-0.3,0-0.4-0.4-0.1-0.4c0.4-0.1,0.7,0.1,0.9,0.4
		c0.2,0.3,0.1,0.6-0.3,0.7c-0.6,0.2-1.4-0.2-1.5-0.8c-0.2-0.6,0.3-1.2,0.9-1.3c0.6-0.1,1.2,0.3,1.1,0.9c-0.1,0.7-0.9,1.2-1.5,0.8
		C552.4,353,552.6,352.6,552.8,352.8z"/>
	<path class="st6" d="M547.1,359.5c0.3-0.2-0.1-0.9-0.4-0.6c-0.2,0.2-0.1,0.7,0.2,0.7c0.3,0,0.3,0.4,0,0.4c-0.7,0-1.1-1.1-0.4-1.5
		c0.8-0.4,1.5,0.8,0.9,1.3C547.2,360,546.9,359.7,547.1,359.5z"/>
	<path class="st6" d="M553.1,357.5c0.1,0,0.2,0,0.1-0.1C553.2,357.3,553.1,357.4,553.1,357.5c0,0.2-0.5,0.2-0.4-0.1
		c0-0.4,0.6-0.6,0.9-0.3c0.3,0.4-0.1,1-0.6,0.8C552.7,357.8,552.8,357.4,553.1,357.5z"/>
	<path class="st1" d="M541,332.2c0.8-1.6,1.5-3.3,2-5.1c0.5-1.7,1.1-3.3,1.9-4.9c-0.4-0.2-0.9-0.5-1.3-0.8c-0.6,1.5-1.1,3-1.6,4.5
		c-0.4,1.5-1.2,2.8-2.1,4.1c0.5,0.2,0.9,0.4,1.4,0.6c0.3-1.1,0.8-2.1,1.5-2.9c0.3-0.4,0.7-0.8,1.1-1.1l0.3-0.2
		c-0.2-0.2-0.3-0.2-0.3-0.1v0.1c0,0.2,0,0.5,0,0.8c-0.2,2.3-1.3,4.5-2.8,6.2c0.4,0.2,0.8,0.5,1.2,0.7c0.9-2.4,2.2-4.6,3.9-6.5
		c0.6-0.7-0.4-1.8-1.1-1.1c-1.9,2.1-3.3,4.5-4.3,7.1c-0.2,0.7,0.8,1.3,1.2,0.7c1.1-1.2,1.9-2.5,2.5-4c0.3-0.7,0.5-1.5,0.6-2.3
		c0.1-0.7,0.3-1.6,0.1-2.3c-0.2-0.7-0.8-1.2-1.5-1s-1.3,0.8-1.8,1.3c-1.1,1.1-1.9,2.5-2.3,4c-0.2,0.8,0.9,1.3,1.4,0.6
		c0.9-1.3,1.7-2.7,2.2-4.2c0.4-1.5,0.9-2.9,1.5-4.4c0.4-0.9-0.9-1.6-1.3-0.8c-0.8,1.6-1.5,3.3-2,5.1c-0.5,1.7-1.1,3.3-1.9,4.9
		C539.3,332.4,540.6,333.1,541,332.2z"/>
	<path class="st1" d="M580.1,327.7c-1.5-1-2.8-2.1-4.1-3.3c-1.3-1.3-2.7-2.4-4.2-3.4c-0.3-0.2-0.8-0.1-1,0.3s-0.1,0.8,0.3,1
		c1.2,0.9,2.3,2,3.4,3.1c1.2,1.1,2.6,1.9,4,2.6c0.7,0.4,1.5-0.6,0.9-1.2c-1.1-1.1-2.5-1.9-4.1-2.3c-0.7-0.2-1.6-0.5-2.3-0.2
		c-0.8,0.4-0.8,1.2-0.5,2c0.3,0.7,0.8,1.3,1.3,1.8s1,1,1.6,1.5c1.2,1,2.6,1.7,4,2.1c0.7,0.2,1.3-0.8,0.7-1.2c-2.1-1.8-4.6-3.2-7.3-4
		c-0.9-0.3-1.3,1.2-0.4,1.5c2.4,0.8,4.7,2,6.6,3.7c0.2-0.4,0.5-0.8,0.7-1.2c-2.1-0.7-4.1-2-5.4-3.8c-0.1-0.2-0.3-0.4-0.4-0.6
		l-0.1-0.3l0,0c0,0.1-0.1,0.2-0.1,0.2l0.4,0.1c0.1,0,0.3,0.1,0.4,0.1c0.3,0.1,0.6,0.1,0.9,0.2c1.1,0.4,2.1,1,3,1.8
		c0.3-0.4,0.6-0.8,0.9-1.2c-1.4-0.7-2.7-1.4-3.8-2.5c-1.2-1.1-2.3-2.2-3.6-3.2c-0.2,0.4-0.5,0.9-0.8,1.3c1.5,1,2.8,2.1,4.1,3.3
		c1.3,1.3,2.7,2.4,4.2,3.4C580.2,329.5,580.9,328.2,580.1,327.7z"/>
	<path class="st9" d="M556.9,382.7c1.8,1.8,1.2,5-1.7,5.9c-2.8,0.8-6.1-1.8-4.7-4.9c0.6-1.3,2.2-2.2,3.6-2
		C555.2,381.9,556.2,382,556.9,382.7z"/>
	<path class="st9" d="M555.9,382.5c0.2-1.1,0.3-2.5-0.9-3c-0.8-0.3-1.2-0.1-1.4,0.7c-0.1,0.6-0.2,1.1-0.3,1.7c0,0.3-0.5,0.3-0.5,0
		c0.1-0.5,0.1-1.1,0.2-1.6c0.1-0.3,0.1-0.7,0.3-1c0.3-0.4,0.9-0.4,1.4-0.3c1.7,0.4,1.8,2.1,1.6,3.5
		C556.3,382.8,555.8,382.8,555.9,382.5z"/>
</g>
<g>
	<path class="st10" d="M478.5,456.3c5.6-9.2,15.5-15.5,26.1-16.8c4.5-0.6,9.2-0.1,13.7,0.7c19.4,3.7,36.8,17.2,45.2,35.2
		c8,17.1,7.9,36.8,7.7,55.7c-0.1,11.8-0.3,23.6-0.6,35.4c-0.1,4.5-0.3,9.7-3.7,12.8c-3.3,2.9-8.2,2.9-12.6,2.8
		c-11.4-0.6-22.9-1.3-34.4-2.7c-12.7-1.5-24.3-3.7-36.2-8.5c-9.7-3.8-13-11.9-13-22.1c0.1-27.8,3.4-52.9,7.8-88.4"/>
	<path class="st1" d="M478.7,478.3c-5.2-1.2-10.2,3.5-12,8.6c-3.4,9.4,0.9,20.6,8.9,26.7c7.9,6.1,18.9,7.6,28.6,5.5
		c4.4-0.9,8.9-2.7,11.6-6.1c5.2-6.4,2.8-16.5-3.1-22.4c-5.9-5.8-14.1-8.4-22-10.8"/>
	<path class="st6" d="M485.6,499.5c-4-3.8-8.5-13.3-10.4-18.5c-0.2-0.8-0.6-1.6-0.3-2.4c0.5-2.1,3.3-2.3,5.4-2.1
		c7.2,0.9,14.3,2.8,21.1,5.6c1,0.5,2.1,0.9,2.7,1.9c1.6,2.7-1.4,5.7-4.2,7.2C495,494,490.2,496.8,485.6,499.5z"/>
	<path class="st6" d="M554.8,477.9c0.2,1.5,0.5,3.1,0.6,4.7c0.3,5.9,0.7,15.5-3.5,20.3c-5.1,5.9-13.3-1.5-16.1-6.2
		c-2.6-4.4-4-9.4-5.6-14.3c-1.4-4.3-2.3-7.9-2.3-12.5c0-7.3,6.1-10.2,12.2-8.9C548.7,462.8,553.3,469.4,554.8,477.9z"/>
	<path class="st10" d="M565,573.7c6.3-18.5,18.9-34.8,24.5-53.5c0.3-1.3,2.2-0.9,2.2,0.3c-0.3,12.7-3.7,25-8.4,36.8
		c-1.9,4.7-4,9.2-6.2,13.6c-0.9,1.9-2,3.7-3.4,5.4c-2.2,2.7-4.9,3.6-8.2,4.3c-2,0.5-4.1,0.7-6.1,0.7"/>
	<path class="st6" d="M485.1,463.7c-0.9,1.4-1.5,3.1-1.3,4.8c0.2,1.6,1.7,3.1,3.5,2.9c0.6-0.1,3.1-0.6,3.7-0.9
		c2.3-1.5,3-4.4,0.8-7.1C490,461.1,486.6,461.4,485.1,463.7z"/>
	<path class="st6" d="M502.5,465.1c-0.5,0.7-0.8,1.6-0.7,2.4c0.1,0.8,0.9,1.6,1.7,1.5c0.3,0,1.6-0.3,1.9-0.5
		c1.2-0.7,1.6-2.3,0.5-3.7C505,463.7,503.3,464,502.5,465.1z"/>
	<path class="st1" d="M478.4,460.7c1.4-3.1,3.4-5.9,6.1-8.2c1.2-0.9-0.5-2.6-1.6-1.6c-2.8,2.3-4.9,5.2-6.4,8.6
		C475.9,460.9,477.8,462.1,478.4,460.7z"/>
	<path class="st1" d="M509.7,453.6c2.2,0.3,4.1,1.4,5.5,3.1c0.9,1.2,2.6-0.5,1.6-1.6c-1.6-2-4-3.4-6.4-3.7
		C508.9,451.2,508.3,453.4,509.7,453.6z"/>
	<path class="st1" d="M476.7,566.5c-2.7-2.7,5.6-16.9,8.9-23.9c1.2-2.4,2.3-5,4.2-7c2.1-2.1,4.9-3.5,7.7-4.3
		c12.3-3.4,25.7,3.1,33.7,13.3c7.9,10,11.3,24.5,13.4,37C544.6,581.6,492.3,581.6,476.7,566.5z"/>
	<path class="st10" d="M501.9,553.8c1.5,0.7,2.4,2.3,2.4,4c-0.2,7.7-1.4,15.3-3.6,22.6c-0.7,2.2-1.5,4.4-3.5,5.7
		c-1.2,0.8-2.8,1-4.1,0.3c-2-1-2.2-3.5-2.1-5.6c0-8.5,0.5-16.9,1.3-25.4c0.2-2.9,3.4-4.7,6.1-3.4L501.9,553.8z"/>
	<path class="st10" d="M524.1,560c0,7,0,14,0,20.8c0,1-0.2,2.1-0.7,3c-2,3.7-5.8,2.1-7.2-0.5c-0.9-1.9-1-4.1-1-6.2v-17.5
		c0-2.6,2.4-4.5,4.9-4l0.7,0.1C522.9,556.6,524.1,558.2,524.1,560z"/>
	<path class="st10" d="M566.2,581c4.4-0.8,4-8.4,4.2-10.5c0.7-7.6-21.9,2.1-27,2.6c-7.5,0.7-7.6,3.5-5.9,7.8c0.9,2.4,3.4,4,5.9,3.6
		C550.6,583.7,564.2,581.4,566.2,581z"/>
	<path class="st1" d="M493.6,585.9c0.8-1,1.3-2.3,1.5-3.6c0.1-0.7-0.9-1-1-0.3c-0.2,1.2-0.7,2.3-1.4,3.4
		C492.2,585.9,493.2,586.5,493.6,585.9z"/>
	<path class="st1" d="M496.7,587.1c0.3-1.6,0.7-3.3,1-5c0.1-0.7-0.9-1-1-0.3c-0.3,1.6-0.7,3.4-1,5
		C495.4,587.5,496.5,587.9,496.7,587.1z"/>
	<path class="st1" d="M519.1,585.8c0.2-1.3,0.1-2.7-0.2-4c-0.2-0.7-1.3-0.5-1.2,0.2c0.3,1.2,0.3,2.4,0.2,3.6
		C518,586.5,519.1,586.5,519.1,585.8z"/>
	<path class="st1" d="M522.5,585.5c-0.5-1.6-0.9-3.3-1.3-4.9c-0.2-0.7-1.3-0.5-1.2,0.2c0.5,1.6,0.9,3.3,1.3,4.9
		C521.6,586.5,522.6,586.2,522.5,585.5z"/>
	<path class="st3" d="M533,466.1c6.9-7.1,13.7,3.3,15.6,9.1c2,6.1,3.3,11.5,1.4,17.7c-3.4,11.5-13.3-2-15.5-6.1
		c-1.7-3.3-3.1-6.4-3.3-10.1c0-1.4-0.1-4.8,0.8-6.1c1.2-1.5,4.3-1.2,5.9-1c0.2,0,0.5-0.2,0.5-0.3c1.4-3.4,4.9,4.2,5.2,4.9
		c1,2.2,2.6,4.7,3,7c0.5,2.2,0.6,4.5,0.5,6.8c0,0.7-0.1,2.9-1.3,2.9c-0.3,0-3.1-2.3-3.4-2.6c-3.6-3.5-6.9-6.6-7.1-12.1
		c-0.1-1.6-0.3-4.3,3-2.4c1.3,0.7,2.3,2.4,3,3.7c1.3,2.3,2.2,4.8,2.7,7.5c0.2-0.2,0.5-0.5,0.7-0.7c-3.7-1-6.1-4-6.3-7.8
		c0-0.7-1-0.7-1,0c0.2,4.3,2.9,7.7,7,8.9c0.5,0.1,0.7-0.2,0.7-0.7c-0.7-4.8-4-14-10.2-12.2c-0.2,0.1-0.3,0.2-0.3,0.5
		c-0.6,4.5,0.3,8.4,3.5,11.9c2,2.1,4.2,4.1,6.3,6.1c0.8,0.8,1.6,2.2,2.9,2.1c0.2,0,0.3-0.1,0.5-0.2c1.7-3.7,0.8-9.5-0.1-13.4
		c-0.9-3.5-2.8-9.8-6.3-11.5c-0.9-0.5-1.6-0.5-2.6,0c-0.2,0.1-0.6,0.7-0.8,0.7c-1.3,0.5-2.8,0.1-4.2,0.3c-0.8,0.1-1.7,0.2-2.3,0.9
		c-1.3,1.7-0.5,6.2-0.3,8.3c0.3,5,3.4,9.9,6.1,14.1c2,3.1,4.8,8.2,8.9,8.6c3.7,0.3,5-4.1,5.6-7c0.9-5.1,1.7-10.7,0.5-15.7
		c-1.2-4.9-4.5-10.7-9.1-13.5c-3.4-2.1-7.8-2-10.7,0.9C531.8,465.8,532.5,466.5,533,466.1z"/>
	<path class="st6" d="M473.8,508.1c6.1,1.4,12.1-4.5,10.9-10.6c-0.2,0.3-0.6,0.7-0.8,1c1.3,0.1,1,2.9,1.2,3.8c0.1,1.6,0.6,3,1.6,4.2
		c2.1,2.4,5.7,3.3,8.6,1.7c1-0.6,0.1-2-0.9-1.5c-2.8,1.4-6.6-0.3-7.5-3.3c-0.7-2.3,0.3-6.4-3-6.8c-0.6-0.1-0.9,0.6-0.8,1
		c0.8,4.8-4.1,9.5-8.9,8.5C473.2,506.1,472.8,507.8,473.8,508.1z"/>
</g>
<g>
	<path class="st10" d="M63.3,392.9c0,6.5,0,13.2,0,19.9c0,0.9,0,1.6,0.3,2.4c0.5,1.3,1.5,2.3,2.8,2.9c3.1,1.6,6.8,1.6,10.3,1.5
		c0.8,0,1.6-0.3,1.9-0.9c0.1-0.5-0.1-1.1-0.5-1.5c-1-1.3-2.1-2.4-3.5-3.3c-0.5-0.3-1-0.6-1.1-1.1c-0.1-0.4-0.1-0.8-0.1-1.1
		c0.1-5.4,0.4-10.8,1-16.1"/>
	<path class="st10" d="M141.7,401.3c0,5.5,0,11.1,0,16.6c0,0.9,0,1.8,0.5,2.4c0.5,0.8,1.5,1,2.4,1.1c2.4,0.4,4.8,0.5,7,0.3
		c1.1-0.1,2.4-0.3,3.1-1.1c0.5-0.5,0.8-1.3,1-2c0.5-1.8,0.6-4-0.9-4.9c-1-0.6-2.5-0.4-3.3-1.4c-0.4-0.5-0.4-1.1-0.4-1.6
		c-0.3-5.8-0.1-11.6,0.4-17.2L141.7,401.3z"/>
	<path class="st10" d="M172.7,306.2c5-12.8,13.2-24.3,23.7-33.2c1.3-1.1,2.6-2.1,4.4-2.5c3.9-0.8,7.5,3,8.1,6.9
		c0.5,3.9-1,7.8-2.6,11.4c-3,7.2-6.2,14.3-9.2,21.5c-4.5,10.6-9.8,22-20.3,26.7"/>
	<path class="st10" d="M51.3,359.1C36,369.3,40.9,384.4,45,391.6c6.2,10.7,40.6,12.8,53,14.5c61.1,8.6,83.7-25,85.2-66.6
		c1.1-30.3-6.9-37.9-33.8-37.7c-7.8,0-22.1,5.7-27.4,11.3c-12.5,13.7-13.8,30.7-31.1,37.6c-6.5,2.6-13.7,3.1-20.9,3.8
		C63.7,355.1,55,356.8,51.3,359.1z"/>
	<path class="st1" d="M138.5,348.8c-8.8,9.1-18,18.5-22.6,30.3c-0.6,1.8-1.3,3.6-1,5.5c0.5,3.8,4.3,6.4,7.9,6.9
		c3.8,0.5,7.5-0.6,11.1-1.9c5-1.6,10.1-3.3,15.1-4.9c0.8-0.3,1.6-0.5,2.3-1.3s0.8-1.6,0.9-2.6c0.8-6.5,1.5-13.1,2.3-19.6
		c2.5,7,3.5,10.8,6,17.9c1.8,4.8,6.3,6.2,10.6,8.3c5.2,2.5,19.9,8.1,21-2.8c0.6-5.7-1.3-11.6-2.6-17.1c-1.3-5-1.9-7.4-2.9-12.7
		c-1.1-5.8-2.3-9.1-8.4-10.4c-9.9-2.1-15.5-1.9-25.3,0.6"/>
	<path class="st10" d="M115.2,331.8c-4.8-2.1-9.9-4.8-11.4-9.2c-1.8-5,2-10.6,4.3-15.7c5.5-12.3,2.8-25.7,0.9-38.2
		c-0.4-2.5,0-6,3.1-6.7c1.8-0.4,3.4,0.6,4.8,1.6c12,8.9,18,22.3,21,35.6c1.4,5.9,2.1,12.5-1.5,18c-2.4,3.5-6.3,6.3-10.1,8.9
		c-3.1,2.1-6.8,4.4-10.7,4.2"/>
	<path class="st6" d="M134.2,339.9c-4.4,5.2-7,12.1-1.4,16c3.8,2.6,9.4,1.9,13.8,2.3c8.2,0.5,16.4,0.1,24.5-1.1
		c3.9-0.6,8.2-1.8,10.3-5c1.6-2.6,1.6-5.9,1.5-8.9c-0.3-7.2-4.3-10.3-11.3-10.3c-9.6-0.1-19.9-2.4-29.2,1
		C140,334.5,136.9,336.9,134.2,339.9z"/>
	<path class="st6" d="M167.1,322.9c-2,0.1-4.7,1.9-3.5,3.8c3.3,5.8,9.3-1.6,4.8-3.6C168,322.9,167.6,322.9,167.1,322.9z"/>
	<path class="st6" d="M149.1,319.5c-3.9,0.1-7.5,3.3-6.4,6.8c2.3,6.8,15.6,2.9,12-3C153.2,320.9,151.9,319.4,149.1,319.5z"/>
	<path class="st10" d="M45.4,383.9c-0.3,11.8-0.6,23.8-0.9,35.6c0,1,0,1.9,0.3,2.9c0.9,3.1,4.7,4.4,7.9,4.8c1.5,0.3,3,0.4,4.4-0.1
		c1.4-0.4,2.8-1.6,2.9-3c0.3-1.6-0.9-3-2.1-4.2c-1.3-1-2.6-2-3.4-3.4c-0.9-1.6-0.9-3.5-0.8-5.3c0.3-7.8,0.5-15.7,0.8-23.5
		L45.4,383.9z"/>
	<path class="st10" d="M114.7,399c0,9.1,0,18,0,27.1c0,1.3,0,2.5,0.5,3.8c1.4,3,5.2,3.5,8.4,3.6c1.5,0,3.3,0,4.7-0.8
		c1.5-0.9,2.3-2.9,2-4.7s-1.6-3.3-3.1-4c-0.8-0.4-1.6-0.6-2.1-1.4c-0.3-0.5-0.3-1.1-0.3-1.6c0-6,0.3-12.2,0.8-18.2"/>
	<path class="st0" d="M136.1,319.3c0.1-0.3,0.3-0.4,0.4-0.6c0.1-0.3,0,0,0,0s0.1-0.3,0.3-0.3c0.3-0.4,0.6-0.6,0.9-1
		c0.4-0.4,0.6-0.6,1-1c0.1-0.1,0.1-0.1,0.3-0.1c0.4-0.3-0.3,0.1,0,0s0.4-0.3,0.6-0.4c0.8-0.5,1.5-0.9,2.3-1.3h0.1c0.1,0,0.1,0-0.1,0
		l0.3-0.1c0.3-0.1,0.5-0.1,0.6-0.3c0.4-0.1,0.9-0.3,1.4-0.4c1-0.3,1.6-1.4,1.3-2.4c-0.4-1-1.3-1.5-2.3-1.3c-4.2,1-7.8,3.5-10.1,7
		c-0.5,0.9-0.3,2.1,0.6,2.5C134.5,320.4,135.5,320.1,136.1,319.3z"/>
	<path class="st0" d="M166.6,313.3c0.4,0.1,0.9,0.3,1.3,0.4c0.1,0,0.3,0.1,0.3,0.1c0.4,0.1-0.4-0.1,0,0c0.3,0.1,0.4,0.3,0.6,0.3
		c0.4,0.3,0.8,0.4,1.1,0.6l0.1,0.1c-0.1,0-0.1-0.1-0.3-0.1c0.1,0.1,0.1,0.1,0.3,0.3c0.3,0.1,0.4,0.3,0.5,0.5c0.3,0.3,0.6,0.6,0.9,1
		c0.1,0.1-0.3-0.4,0,0c0,0.1,0.1,0.1,0.3,0.3c0.1,0.1,0.3,0.4,0.4,0.5c0.1,0.3,0.3,0.4,0.3,0.6c0,0.1,0.1,0.3,0.1,0.3
		s0.3,0.4,0.1,0.1c-0.1-0.3,0,0.1,0,0.1c0,0.1,0.1,0.3,0.1,0.3c0.1,0.3,0.1,0.5,0.3,0.6c0.3,1,1.4,1.6,2.3,1.3
		c1-0.3,1.5-1.3,1.4-2.3c-1.1-4.3-4.7-7.8-8.9-8.7c-1-0.3-2.1,0.3-2.3,1.4C164.9,312,165.4,313.2,166.6,313.3z"/>
	<path class="st10" d="M55.6,358c-2-2.4-4.5-4.5-7.3-6c-1.6-1-3.3-1.8-5.2-1.9c-1.9-0.3-3.8,0.3-5.2,1.5c-1.9,1.8-2,4.8-1.6,7.3
		c0.3,2,0.9,4,2.1,5.7c2.1,3,5.8,4.5,9.3,5.9L55.6,358z"/>
	<path class="st3" d="M135,366.9C135.2,366.8,135.1,366.9,135,366.9C135,367.1,134.7,367.1,135,366.9
		C134.9,366.9,134.9,366.9,135,366.9c-0.1,0.1-0.1,0.1-0.3,0.1C134.6,367.1,135,367.1,135,366.9c-0.3,0.1-0.4,0.1-0.5,0.1
		c-0.1,0,0.1,0,0.1,0s0,0-0.1,0c-0.1,0-0.1,0-0.3,0c0,0-0.3-0.1-0.1,0c0.1,0.1,0,0-0.1,0c-0.1,0-0.3-0.1-0.4-0.3c0,0,0.1,0.1,0.1,0
		c0,0,0,0-0.1,0l-0.1-0.1l-0.1-0.1l0,0c-0.1-0.1,0.1,0.1,0,0c-0.1-0.1-0.1-0.3-0.3-0.4c0,0,0,0,0-0.1c0-0.1,0,0.1,0,0.1
		c0-0.1,0-0.1-0.1-0.3c0,0,0-0.1,0-0.3c0-0.3,0,0.3,0,0v-0.1c0,0,0,0,0-0.1c0-0.1,0-0.1,0,0c0,0,0-0.1,0-0.3c0,0,0.1-0.3,0-0.1
		c-0.1,0.1,0,0,0-0.1c0,0,0,0,0-0.1c0.1-0.1,0,0,0,0c0.1-0.1,0.1-0.1,0.3-0.3c0.1-0.1-0.3,0.1,0,0l0.1-0.1l0,0c0.1-0.1-0.1,0-0.1,0
		h0.1h0.1c0,0,0,0,0.1,0c0.1,0-0.3,0-0.1,0c0.1,0,0.3,0,0.4,0c0,0,0.1,0,0.3,0c0,0,0,0,0.1,0s-0.3,0,0,0c0.1,0,0.3,0,0.4,0.1h0.1
		c0,0,0,0,0.1,0c0.1,0-0.3-0.1-0.1,0c0.1,0,0.3,0.1,0.4,0.1l0.1,0.1c0,0,0.1,0.1-0.1,0c0,0,0,0,0.1,0.1c0.1,0.1,0.1,0.1,0.3,0.3
		c0.1,0.1-0.1-0.1,0,0c0,0.1,0.1,0.1,0.1,0.3c0,0,0,0.1,0.1,0.1c0,0.1-0.1-0.3,0-0.1c0,0,0,0,0,0.1c0,0,0,0.1,0,0.3c0,0,0,0,0,0.1
		s0-0.3,0-0.1c0,0.1,0,0.3,0,0.5c0,0,0-0.3,0-0.1v0.1c0,0,0,0.1,0,0.3c0,0,0,0,0,0.1c0,0.1,0,0,0-0.1c0,0,0,0.1-0.1,0.1
		c0,0.1-0.1,0.1-0.1,0.1s0,0,0,0.1c-0.1,0.1,0.1-0.1,0,0c-0.1,0.1-0.3,0.3-0.4,0.4c0,0,0,0-0.1,0c-0.1,0.1,0,0,0,0
		c-0.1,0-0.1,0.1-0.3,0.1c-0.1,0.1-0.3,0.1-0.5,0.3c0,0,0.3-0.1,0.1,0h-0.1c-0.1,0-0.1,0-0.3,0.1c-0.1,0-0.1,0-0.3,0c0,0-0.1,0,0,0
		c0.1,0,0,0,0,0c-0.1,0-0.4,0-0.5,0c-0.1,0,0.1,0,0.1,0h-0.1c-0.1,0-0.1,0-0.3,0c0,0,0,0-0.1,0c-0.1,0,0-0.1,0,0
		c0,0-0.1-0.1-0.3-0.1c0.1,0.1,0.3,0.4,0.4,0.5c0-0.3,0,0.3,0,0l0,0c0-0.1,0-0.1,0,0c0,0.1,0,0,0,0v-0.1c0,0-0.1,0.3,0,0
		c0,0,0-0.1,0.1-0.1c0.1-0.1-0.1,0.1,0,0l0.1-0.1l0,0c0,0,0,0-0.1,0l0.1-0.1c0,0,0.1,0,0.1-0.1c0.1-0.1-0.1,0,0,0h0.1
		c0.1,0-0.3,0,0,0h0.1c0,0-0.3,0,0,0c0.5,0.1,1-0.1,1.1-0.6c0.1-0.5-0.1-1-0.6-1.1c-1.3-0.4-2.6,0.5-3,1.8c-0.1,0.3-0.1,0.5-0.1,0.8
		c0,0.3,0.1,0.6,0.3,0.9c0.1,0.1,0.3,0.3,0.4,0.3c0.5,0.3,1,0.4,1.5,0.4c2,0,3.9-1.5,4-3.5c0.1-2-1.6-3.4-3.5-3.5
		c-0.9,0-1.8,0.3-2.4,0.9c-0.8,0.6-1,1.8-0.8,2.6c0.3,1,1,1.9,1.9,2.4c0.5,0.3,1,0.4,1.5,0.4c0.6,0,1.1-0.3,1.6-0.6
		c0.4-0.3,0.4-1,0-1.4C136,366.6,135.5,366.7,135,366.9z"/>
	<path class="st3" d="M140.7,382.2C141,382.4,140.8,382.2,140.7,382.2C140.7,382,140.9,382.4,140.7,382.2
		C140.8,382.2,140.7,382.2,140.7,382.2C140.7,382,140.7,382,140.7,382.2C140.8,382.3,140.8,382.2,140.7,382.2c0-0.1,0-0.3-0.1-0.3
		C140.7,381.9,140.7,382,140.7,382.2c0-0.3,0-0.4,0-0.5c0,0.1,0,0.1,0,0.3c0-0.1,0-0.1,0.1-0.3v-0.1c0,0,0,0,0-0.1
		c0,0-0.1,0.3,0,0.1c0-0.1,0.1-0.1,0.1-0.3c0,0,0-0.1,0.1-0.1c0.1-0.1-0.1,0.3,0,0c0-0.1,0.1-0.1,0.3-0.3l0,0c0.1,0-0.3,0.1-0.1,0.1
		c0,0,0.1,0,0.1-0.1c0,0,0.1,0,0.1-0.1l0,0c0,0-0.3,0.1-0.1,0c0.1,0,0.3,0,0.3-0.1c-0.1,0-0.1,0-0.3,0c0.1,0,0.3,0,0.4,0
		c-0.1,0-0.1,0-0.3,0c0.1,0,0.1,0,0.3,0c0.1,0-0.1-0.1-0.1,0c0,0,0,0,0.1,0c0,0,0,0,0.1,0c0.1,0.1-0.1-0.1-0.1,0l0.1,0.1
		c0.1,0.1-0.1-0.3-0.1-0.1c0,0,0,0,0,0.1s0.1,0.3,0,0c0,0.1,0.1,0.3,0.1,0.4c0-0.1,0-0.1,0-0.3c0,0.1,0,0.4,0,0.6c0-0.1,0-0.1,0-0.3
		c0,0.1-0.1,0.4-0.1,0.5c0,0.1,0.1-0.3,0-0.1l0,0v0.1c0,0,0,0.1-0.1,0.1c0,0-0.1,0.1,0,0c0.1-0.1,0,0,0,0s0,0.1-0.1,0.1
		c0,0-0.1,0-0.1,0.1c0,0,0.3-0.1,0.1-0.1c0,0,0,0-0.1,0c0,0,0,0-0.1,0l0,0c0,0,0.3-0.1,0.1-0.1c-0.1,0-0.1,0-0.3,0.1
		c0.1,0,0.1,0,0.3,0c-0.1,0-0.3,0-0.3,0c-0.5,0-1,0.5-1,1c0,0.5,0.4,0.9,1,1c1.9,0.1,3-2.1,2.4-3.8c-0.3-0.5-0.5-0.9-0.9-1.3
		c-0.4-0.3-0.9-0.4-1.4-0.4c-1,0.1-1.8,0.8-2.3,1.6c-0.3,0.5-0.4,1.1-0.3,1.8c0,0.3,0.1,0.5,0.3,0.8c0.1,0.3,0.4,0.5,0.6,0.8
		c0.1,0.1,0.5,0.1,0.8,0.1c0.3-0.1,0.5-0.3,0.6-0.4c0.1-0.3,0.1-0.5,0.1-0.8C141,382.5,140.9,382.3,140.7,382.2z"/>
	<path class="st3" d="M179,379.5C179.3,379.8,179,379.5,179,379.5C178.9,379.4,179.2,379.7,179,379.5L179,379.5
		C179,379.4,179,379.4,179,379.5C179.2,379.7,179,379.5,179,379.5c0-0.1,0-0.3-0.1-0.3C178.9,379.3,179,379.4,179,379.5
		c0-0.3,0-0.4,0-0.5c0,0.1,0,0.1,0,0.3c0-0.1,0-0.1,0-0.3v-0.1c0,0,0,0,0-0.1c0,0-0.1,0.3,0,0.1c0-0.1,0.1-0.1,0.1-0.3
		c0,0,0-0.1,0.1-0.1c0.1-0.1-0.1,0.3,0,0c0-0.1,0.1-0.1,0.1-0.3c0,0,0,0,0.1,0c0.1,0-0.3,0.1-0.1,0.1c0,0,0.1,0,0.1-0.1
		c0,0,0.1,0,0.1-0.1l0,0c0,0-0.3,0.1-0.1,0c0.1-0.1,0.3,0,0.3-0.1c-0.1,0-0.1,0-0.3,0c0.1,0,0.3,0,0.4,0c-0.1,0-0.1,0-0.3,0
		c0.1,0,0.1,0,0.3,0c0.3,0.1-0.1-0.1-0.1,0h0.1c0,0,0,0,0.1,0c0.1,0.1-0.1-0.1-0.1,0l0.1,0.1c0.1,0.1-0.1-0.3,0-0.1c0,0,0,0,0,0.1
		s0.1,0.3,0,0c0,0.1,0.1,0.3,0.1,0.4c0-0.1,0-0.1,0-0.3c0,0.1,0,0.4,0,0.6c0-0.1,0-0.1,0-0.3c0,0.1-0.1,0.4-0.1,0.5
		c0,0.1,0.1-0.3,0-0.1l0,0c0,0,0,0.1-0.1,0.1c0,0,0,0.1-0.1,0.1c0,0-0.1,0.1,0,0c0.1-0.1,0,0,0,0l-0.1,0.1c0,0-0.1,0-0.1,0.1
		c0,0,0.3-0.1,0.1-0.1l0,0c0,0,0,0-0.1,0c0,0,0,0-0.1,0c0,0,0.3-0.1,0.1,0c-0.1,0-0.1,0-0.3,0c0.1,0,0.1,0,0.3,0c-0.1,0-0.3,0-0.3,0
		c-0.5,0-1,0.5-1,1c0,0.5,0.4,0.9,1,1c1.9,0.1,3-2.1,2.4-3.8c-0.1-0.5-0.5-0.9-0.9-1.3c-0.4-0.3-0.9-0.4-1.4-0.4
		c-1,0.1-1.8,0.8-2.3,1.6c-0.3,0.6-0.4,1.1-0.3,1.8c0,0.3,0.1,0.5,0.3,0.8c0.1,0.3,0.4,0.5,0.6,0.8c0.1,0.1,0.5,0.1,0.8,0.1
		c0.3-0.1,0.5-0.3,0.5-0.4c0.1-0.3,0.1-0.5,0.1-0.8C179.4,379.8,179.3,379.7,179,379.5z"/>
	<path class="st3" d="M125.3,380.7L125.3,380.7c0,0,0.1,0,0.3-0.1C125.6,380.5,125.4,380.7,125.3,380.7c0.1,0,0.3,0,0.3-0.1
		C125.6,380.5,125.6,380.5,125.3,380.7c0.3,0,0.3,0,0.4,0C125.6,380.7,125.6,380.7,125.3,380.7c0.3,0,0.3,0,0.4,0.1
		C125.6,380.8,125.6,380.7,125.3,380.7l0.3,0.1c-0.1,0-0.1-0.1-0.3-0.3C125.3,380.7,125.4,380.7,125.3,380.7c0.1,0,0,0,0-0.1
		C125.3,380.7,125.4,380.7,125.3,380.7c0.1,0,0.1,0,0.1-0.1C125.4,380.7,125.4,380.7,125.3,380.7c0.1,0,0.1,0,0.1-0.1
		C125.4,380.7,125.4,380.7,125.3,380.7L125.3,380.7c0.1,0.1,0.1,0.1,0,0.3c0,0,0-0.1,0.1-0.1c0,0-0.1,0.1-0.1,0.3l0.1-0.1
		c0,0-0.1,0.1-0.3,0.1l0.1-0.1c-0.1,0-0.1,0-0.3,0.1c0,0,0.1,0,0.3,0c-0.1,0-0.1,0-0.3,0c0.1,0,0.1,0,0.3,0c-0.1,0-0.1,0-0.3,0
		c0.1,0,0.1,0,0.3,0.1c-0.1,0-0.1,0-0.3-0.1c0.1,0,0.1,0.1,0.3,0.1c0,0-0.1-0.1-0.3-0.1l0.1,0.1
		C125.4,380.9,125.4,380.8,125.3,380.7c0.1,0.1,0.1,0.3,0.1,0.3S125.4,380.8,125.3,380.7c0,0.1,0,0.1,0.1,0.3
		C125.4,380.8,125.4,380.7,125.3,380.7C125.4,380.7,125.4,380.7,125.3,380.7c0,0.3,0.1,0.5,0.3,0.6c0.1,0.1,0.4,0.3,0.6,0.3
		c0.3,0,0.5-0.1,0.6-0.3c0.1-0.1,0.3-0.4,0.3-0.6s-0.1-0.6-0.3-0.9c-0.1-0.3-0.4-0.5-0.6-0.6c-0.4-0.3-1-0.4-1.5-0.3
		c-0.1,0-0.3,0.1-0.4,0.1s-0.3,0.1-0.4,0.3c0,0,0,0-0.1,0.1s-0.1,0.1-0.3,0.3c0,0.1-0.1,0.3-0.1,0.3v0.1c0,0.1,0,0.3,0,0.5
		c0,0.3,0,0.3,0.1,0.5c0.1,0.3,0.3,0.5,0.5,0.8c0.3,0.3,0.5,0.4,0.9,0.5c0.1,0,0.3,0,0.4,0h0.1c0.1,0,0.3,0,0.4,0s0.3-0.1,0.4-0.1
		c0.1,0,0.3-0.1,0.3-0.3c0.1-0.1,0.1-0.3,0.1-0.4c0-0.3,0-0.5-0.1-0.8c-0.1-0.3-0.4-0.4-0.5-0.4c-0.1,0-0.1,0-0.3,0
		C125.7,380.5,125.6,380.5,125.3,380.7z"/>
	<path class="st3" d="M181.2,366.2L181.2,366.2c0,0,0.1,0,0.3-0.1C181.4,366.1,181.3,366.1,181.2,366.2c0.1,0,0.3,0,0.3-0.1
		C181.4,366.1,181.4,366.1,181.2,366.2c0.3,0,0.3,0,0.4,0C181.4,366.2,181.4,366.2,181.2,366.2c0.3,0,0.3,0,0.4,0.1
		C181.4,366.3,181.4,366.2,181.2,366.2c0.1,0,0.3,0.1,0.4,0.1c-0.1,0-0.1-0.1-0.3-0.3c0,0,0.1,0.1,0.1,0.3c0-0.1-0.1-0.1-0.1-0.3
		c0,0.1,0,0.1,0.1,0.3c0-0.1,0-0.1-0.1-0.3C181.3,366.2,181.3,366.2,181.2,366.2c0.1,0,0.1,0,0.1-0.1
		C181.3,366.2,181.3,366.2,181.2,366.2L181.2,366.2c0.1,0.1,0.1,0.1,0,0.3c0,0,0-0.1,0.1-0.1l-0.1,0.1l0.1-0.1l-0.1,0.1
		c0,0,0.1,0,0.1-0.1c-0.1,0-0.1,0-0.3,0.1c0,0,0.1,0,0.3,0c-0.1,0-0.1,0-0.3,0c0.1,0,0.1,0,0.3,0c-0.1,0-0.1,0-0.3,0
		c0.1,0,0.3,0,0.3,0.1c-0.1,0-0.1-0.1-0.3-0.1c0.1,0,0.1,0.1,0.3,0.1l-0.1-0.1l0.1,0.1C181.4,366.3,181.3,366.3,181.2,366.2
		c0.1,0.1,0.1,0.3,0.1,0.3C181.3,366.3,181.3,366.3,181.2,366.2c0,0.1,0,0.1,0.1,0.3C181.3,366.3,181.3,366.2,181.2,366.2
		C181.3,366.1,181.3,366.2,181.2,366.2c0,0.3,0.1,0.5,0.3,0.6c0.1,0.1,0.4,0.3,0.6,0.3c0.3,0,0.5-0.1,0.6-0.3
		c0.1-0.1,0.3-0.4,0.3-0.6s-0.1-0.6-0.3-0.9c-0.1-0.3-0.4-0.5-0.6-0.6c-0.5-0.3-1-0.4-1.5-0.3c-0.1,0-0.3,0.1-0.4,0.1
		c-0.1,0-0.3,0.1-0.4,0.3c0,0,0,0-0.1,0.1c0,0.1-0.1,0.1-0.3,0.3c0,0.1-0.1,0.3-0.1,0.3v0.1c0,0.1,0,0.3,0,0.5c0,0.1,0,0.3,0.1,0.5
		c0.1,0.3,0.3,0.5,0.5,0.8c0.3,0.3,0.5,0.4,0.9,0.5c0.1,0,0.3,0,0.4,0h0.1c0.1,0,0.3,0,0.4,0c0.1,0,0.3-0.1,0.4-0.1
		c0.1,0,0.3-0.1,0.3-0.3c0.1-0.1,0.1-0.3,0.1-0.4c0-0.3,0-0.5-0.1-0.8c-0.1-0.3-0.4-0.4-0.6-0.4c-0.1,0-0.1,0-0.3,0
		C181.5,366.1,181.4,366.1,181.2,366.2z"/>
</g>
</svg>
