<svg width="250" height="132" viewBox="0 0 250 132" fill="none" xmlns="http://www.w3.org/2000/svg">
<mask id="mask0" mask-type="alpha" maskUnits="userSpaceOnUse" x="58" y="85" width="192" height="38">
<path fill-rule="evenodd" clip-rule="evenodd" d="M58.236 85.4753H250V122.567H58.236V85.4753Z" fill="white"/>
</mask>
<g mask="url(#mask0)">
<path fill-rule="evenodd" clip-rule="evenodd" d="M123.675 89.0096C131.77 89.0683 139.92 88.4496 147.962 88.2238C159.684 87.8947 171.406 87.5662 183.128 87.2371C195.036 86.9035 206.944 86.5693 218.853 86.2351C226.743 86.0133 234.635 85.792 242.526 85.5707C243.652 85.5391 244.779 85.5018 245.905 85.4759C247.663 85.4341 248.23 87.7209 246.633 88.4208C234.367 93.7976 221.005 96.9091 207.514 97.4967C219.881 97.2252 232.248 96.9537 244.615 96.6821C246.362 96.6437 248.601 97.1444 249.63 98.2187C250.35 98.9706 249.966 100.184 248.947 100.493C241.606 102.719 217.037 104.377 201.791 104.275C205.074 104.57 208.318 105.249 211.431 106.285C212.977 106.799 212.968 108.89 211.407 109.359C199.137 113.046 186.163 114.609 173.315 113.929C175.189 114.773 176.876 115.985 178.254 117.459C179.243 118.517 178.556 120.202 177.075 120.334C170.05 120.965 162.8 119.269 156.919 115.547L159.299 118.415C159.917 119.161 159.134 120.22 158.19 119.911C151.273 117.653 144.512 114.96 137.966 111.857L142.128 114.494C144.043 115.708 142.031 118.046 140.864 118.987C139.253 120.287 137.129 120.795 135.086 121.134C130.827 121.838 125.842 123.481 121.602 121.907C120.062 121.336 115.575 119.172 116.765 116.97L118.264 114.197C113.751 116.321 109.021 118.029 104.164 119.292C102.252 119.788 100.869 117.561 102.235 116.194L108.076 110.347C100.881 113.149 93.3222 115.105 85.6282 116.164C84.4469 116.326 83.9512 114.78 85.0293 114.292L100.294 107.385C87.4184 111.037 73.9173 112.677 60.4909 112.237C58.1622 112.16 57.3765 109.214 59.3862 108.091C67.4116 103.604 77.0738 101.759 86.3516 100.086C77.8114 101.235 69.0364 100.767 60.6795 98.7386C59.1596 98.37 58.9646 96.3779 60.3913 95.7586C69.3555 91.8682 78.9583 89.3268 88.7378 88.2012C93.6768 87.6328 98.662 87.4245 103.635 87.5865C107.402 87.7096 111.126 88.3028 114.875 88.6257C117.796 88.8781 120.732 88.9887 123.675 89.0096Z" fill="#EAA524"/>
</g>
<path fill-rule="evenodd" clip-rule="evenodd" d="M99.2114 92.4729C98.7748 92.1368 98.4164 91.6816 98.2121 91.2523C97.8449 90.483 98.1642 89.7035 98.7976 89.1664C99.6335 88.4581 101.086 88.1141 102.067 88.7563C103.777 89.8752 102.386 93.0558 100.454 92.9773C100.015 92.9587 99.585 92.7604 99.2114 92.4729Z" fill="white"/>
<path fill-rule="evenodd" clip-rule="evenodd" d="M87.6657 92.6415C87.3751 92.4179 87.1359 92.1137 86.9994 91.8276C86.7546 91.315 86.9675 90.7951 87.3895 90.4376C87.9469 89.9649 88.915 89.7358 89.5693 90.1637C90.7097 90.9102 89.7816 93.0305 88.4935 92.9778C88.2011 92.9656 87.9143 92.8323 87.6657 92.6415Z" fill="white"/>
<path fill-rule="evenodd" clip-rule="evenodd" d="M245.321 99.5689C245.103 99.4017 244.923 99.1728 244.821 98.9588C244.637 98.5739 244.797 98.1841 245.113 97.9157C245.532 97.5611 246.258 97.3896 246.748 97.7103C247.604 98.2704 246.908 99.8612 245.942 99.8211C245.722 99.8125 245.507 99.7126 245.321 99.5689Z" fill="white"/>
<path fill-rule="evenodd" clip-rule="evenodd" d="M137.89 116.972C137.599 116.748 137.36 116.444 137.224 116.158C136.979 115.646 137.192 115.126 137.614 114.767C138.171 114.295 139.14 114.066 139.794 114.494C140.934 115.24 140.006 117.361 138.718 117.309C138.426 117.296 138.139 117.163 137.89 116.972Z" fill="white"/>
<path fill-rule="evenodd" clip-rule="evenodd" d="M133.711 118.577C133.493 118.41 133.314 118.181 133.212 117.967C133.028 117.582 133.188 117.193 133.505 116.924C133.922 116.57 134.648 116.398 135.139 116.719C135.994 117.278 135.298 118.87 134.332 118.829C134.113 118.821 133.898 118.721 133.711 118.577Z" fill="white"/>
<mask id="mask1" mask-type="alpha" maskUnits="userSpaceOnUse" x="95" y="0" width="83" height="101">
<path fill-rule="evenodd" clip-rule="evenodd" d="M95.8095 0H177.652V100.391H95.8095V0Z" fill="white"/>
</mask>
<g mask="url(#mask1)">
<path fill-rule="evenodd" clip-rule="evenodd" d="M95.8131 35.0167C96.0028 27.3801 95.36 19.4697 98.5205 12.4614C101.682 5.45371 108.844 -0.420586 116.774 0.023111C126.809 0.584976 133.46 10.373 136.361 19.6287C139.261 28.8839 140.35 39.1133 146.659 46.6386C152.058 53.0798 160.451 56.4681 166.739 62.114C176.835 71.18 180.273 86.2924 175.591 98.7085C175.195 99.7555 173.668 99.7328 173.298 98.6778C170.788 91.5111 168.466 84.5681 159.169 84.0074C148.888 83.3887 136.558 88.4444 130.45 82.6155C130.264 82.4388 129.959 82.7684 130.001 83.0161C130.728 87.2866 134.754 96.0094 133.948 99.4249C133.673 100.588 132.005 100.742 131.487 99.6584C130.398 97.3768 126.296 88.9437 124.62 87.019C123.375 85.5902 120.956 86.2145 120.602 88.0478L122.308 99.4618C122.163 100.215 121.158 100.432 120.681 99.8186C111.514 88.0035 102.651 67.7628 100.116 53.2253C99.4349 49.3206 98.4142 45.483 97.0862 41.7357C96.3672 39.7093 95.757 37.2891 95.8131 35.0167Z" fill="#F7B3A4"/>
</g>
<path fill-rule="evenodd" clip-rule="evenodd" d="M171.578 67.2736C170.909 65.9327 172.256 63.4242 173.533 62.5571C174.811 61.6911 176.427 61.4254 177.982 61.1832C179.006 61.0237 180.153 60.8895 180.997 61.4573C181.886 62.0559 182.088 63.1882 182.415 64.1694C182.743 65.1501 183.53 66.2225 184.618 66.1128C185.118 66.0625 185.543 65.7643 185.947 65.4835C189.3 63.1552 193.257 61.2615 197.423 61.4142C199.328 61.4842 201.58 62.3697 201.764 64.1543C201.892 65.3811 200.969 66.4502 200.361 67.5433C199.79 68.5715 199.476 69.725 199.45 70.8847C199.44 71.3647 199.487 71.8704 199.769 72.271C200.065 72.6922 200.571 72.9294 201.041 73.1744C203.418 74.4124 205.405 76.3022 206.695 78.5505C207.412 79.8014 207.664 81.7605 206.259 82.2835C205.304 82.6393 204.262 82.0094 203.234 81.9999C201.448 81.9848 200.309 83.7302 198.808 84.6393C195.811 86.454 191.727 84.6477 189.394 82.1146C187.061 79.5821 185.602 76.3525 182.915 74.1512C181.904 73.3227 180.731 72.6525 179.879 71.6785C178.941 70.6067 178.464 69.2529 177.782 68.0216C177.098 66.7903 176.072 65.5875 174.629 65.2871C173.187 64.9867 171.424 66.0882 171.664 67.4582" fill="#083618"/>
<path fill-rule="evenodd" clip-rule="evenodd" d="M115.715 24.549C113.485 24.5502 111.368 24.6921 110.381 24.7955C108.596 24.9842 106.793 25.7842 105.908 27.2328C105.2 28.392 105.165 29.7988 105.284 31.1263C105.366 32.0335 105.613 33.0739 106.49 33.4832C106.977 33.7105 107.551 33.684 108.094 33.6516C109.48 33.5691 110.866 33.4865 112.251 33.404C115.745 33.1966 119.56 32.8615 122.062 30.5921C123.467 29.3185 124.208 27.043 122.848 25.7248C121.888 24.7972 118.7 24.5474 115.715 24.549Z" fill="#083618"/>
<path fill-rule="evenodd" clip-rule="evenodd" d="M108.283 16.3446C107.828 17.0143 107.519 17.8177 107.656 18.5984C107.793 19.3791 108.578 20.1051 109.421 19.9709C109.717 19.9245 111.048 19.6847 111.301 19.5349C112.473 18.8409 112.864 17.4513 111.728 16.1463C110.797 15.0771 109.033 15.2407 108.283 16.3446Z" fill="#083618"/>
<path fill-rule="evenodd" clip-rule="evenodd" d="M116.722 17.4054C116.494 17.7403 116.34 18.1417 116.409 18.5324C116.477 18.9226 116.869 19.2852 117.292 19.2186C117.44 19.1952 118.105 19.0754 118.232 19.0004C118.817 18.6533 119.013 17.9585 118.445 17.3064C117.979 16.7719 117.098 16.8534 116.722 17.4054Z" fill="#083618"/>
<path fill-rule="evenodd" clip-rule="evenodd" d="M105.078 15.0499C105.78 13.5788 106.801 12.3288 108.157 11.2937C108.937 10.698 107.811 9.69109 107.036 10.2825C105.591 11.3858 104.457 12.7599 103.709 14.3284C103.311 15.1647 104.676 15.8937 105.078 15.0499Z" fill="#083618"/>
<path fill-rule="evenodd" clip-rule="evenodd" d="M120.977 11.479C122.134 11.6378 123.075 12.112 123.801 12.899C124.46 13.6136 125.622 12.6056 124.969 11.8975C124.092 10.9468 122.813 10.3052 121.416 10.1132C120.376 9.97047 119.928 11.3347 120.977 11.479Z" fill="#083618"/>
<path fill-rule="evenodd" clip-rule="evenodd" d="M175.844 64.776C175.988 64.7788 176.134 64.7441 176.277 64.72C177.58 64.504 178.822 65.0911 179.613 66.0472C180.005 66.5207 180.291 67.0754 180.442 67.6581C180.676 68.5632 180.666 69.3771 181.318 70.1412C182.301 71.2937 183.703 70.3617 185.109 70.6388C186.319 70.8767 187.947 72.641 188.572 73.7107C189.398 75.1263 188.962 77.5444 189.891 78.9163C190.965 80.4998 192.806 82.0822 195.077 81.4189C195.892 81.1816 196.534 79.6848 197.243 79.2695C198.502 78.5306 199.522 78.5441 200.887 78.2317C201.707 78.0442 202.912 77.6367 202.344 76.5878C202.138 76.2083 201.744 75.9519 201.346 75.7481C199.821 74.9656 198.023 74.7081 196.564 73.8232C195.979 73.4683 195.449 73.002 195.165 72.4065C194.799 71.6396 194.881 70.7474 195.111 69.9357C195.369 69.029 195.8 68.172 196.303 67.3609C196.629 66.8342 196.99 66.3153 197.17 65.7298C197.35 65.1438 197.32 64.4626 196.913 63.9873C196.438 63.4315 195.592 63.2988 194.833 63.3302C193.505 63.3845 192.221 63.8104 191.037 64.3791C189.041 65.3369 187.297 66.6915 185.578 68.041C185.45 68.1429 185.309 68.266 185.314 68.4244C185.319 68.6467 185.593 68.7603 185.818 68.8302C187.757 69.4297 189.473 70.7065 190.424 72.4014C190.927 73.3004 191.214 74.295 191.704 75.2007C192.194 76.1058 192.962 76.96 194.009 77.2152C194.679 77.3787 195.419 77.2706 196.005 76.9247C196.13 76.8503 196.259 76.7512 196.278 76.6129C196.306 76.4165 196.107 76.2648 195.935 76.1495C194.397 75.1195 193.302 73.5243 192.937 71.7846C192.573 70.0455 192.943 68.1798 193.95 66.6797C194.093 66.4676 194.235 66.1575 194.026 66.0007C193.923 65.9229 193.777 65.928 193.645 65.9403C192.063 66.0942 190.554 66.837 189.52 67.971C189.376 68.1289 189.237 68.3612 189.368 68.5297C189.42 68.5974 189.504 68.6355 189.585 68.6696L190.58 69.0995C190.73 69.1639 190.886 69.2299 191.051 69.226C191.216 69.2221 191.391 69.1258 191.419 68.973C191.489 68.6035 190.797 68.5549 190.62 68.2184C190.457 67.91 190.813 67.5876 191.134 67.4219C191.955 66.9988 192.86 66.7211 193.789 66.6064C193.687 66.4379 193.585 66.2694 193.483 66.1009C192.277 67.7852 191.82 69.9251 192.241 71.9156C192.662 73.9055 193.956 75.7196 195.756 76.8441C195.753 76.6521 195.749 76.4601 195.746 76.2681C195.397 76.5945 195.002 76.941 194.51 76.9717C193.92 77.0087 193.418 76.5771 193.076 76.1249C192.216 74.9902 191.878 73.5858 191.209 72.3432C190.118 70.313 188.097 68.7412 185.768 68.1115C185.715 68.2095 185.663 68.3069 185.61 68.4043C186.939 67.3251 188.289 66.2319 189.88 65.5328C190.997 65.0419 192.203 64.7581 193.35 64.3327C193.87 64.139 194.391 63.9134 194.948 63.8675C195.507 63.8216 196.127 63.998 196.42 64.4463C196.842 65.0923 196.42 65.9145 196.021 66.5734C195.371 67.6458 194.774 68.7468 194.23 69.8708C193.99 70.3684 193.756 70.8817 193.705 71.4263C193.647 72.0493 193.832 72.6746 194.114 73.2416C194.407 73.8299 194.821 74.3846 195.404 74.7333C196.898 75.6284 199.066 74.9662 200.492 75.9547C200.812 76.1763 201.084 76.496 201.124 76.8682C201.195 77.5253 200.554 78.0409 199.92 78.1601C199.134 78.3079 198.278 77.9457 197.534 78.3185C195.773 79.2007 194.338 80.4864 192.369 79.0019C191.191 78.1131 190.305 76.2161 189.689 74.946C188.785 73.0821 188.03 71.1521 185.929 70.2369C184.694 69.699 183.098 70.7955 181.979 69.9962C180.684 69.0715 180.724 66.631 179.747 65.5166C178.721 64.3478 177.442 63.8244 175.867 64.0886C175.664 64.1228 175.425 64.2051 175.39 64.3959C175.358 64.57 175.533 64.7273 175.718 64.7637C175.759 64.7715 175.802 64.7754 175.844 64.776Z" fill="white"/>
<path fill-rule="evenodd" clip-rule="evenodd" d="M99.9928 53.8835C110.595 54.757 121.427 53.0161 131.127 48.8796C131.258 49.9698 131.388 51.0601 131.518 52.1498C131.545 52.3789 131.569 52.6276 131.441 52.8241C131.258 53.1098 130.828 53.0733 130.499 53.1935C126.26 54.7346 121.978 55.831 117.477 56.5345C112.835 57.2598 108.072 57.3131 103.397 57.1941C102.422 57.17 101.142 57.2935 100.427 56.5199C99.6345 55.6637 100.702 54.8788 99.6512 54.3242" fill="#DD452C"/>
<path fill-rule="evenodd" clip-rule="evenodd" d="M113.845 59.6469C113.405 60.2539 113.151 60.9936 113.213 61.8028C113.405 64.315 116.144 65.4534 118.135 64.5262C119.678 63.8077 120.804 61.896 120.224 60.0993C119.686 58.4336 117.85 57.7777 116.315 58.0714C115.365 58.2537 114.436 58.83 113.845 59.6469Z" fill="#D69C36"/>
<path fill-rule="evenodd" clip-rule="evenodd" d="M115.695 59.2598C115.681 59.1655 115.681 59.1698 115.695 59.2717C115.69 59.2264 115.685 59.1811 115.681 59.1364C115.673 59.0453 115.667 58.9542 115.664 58.8637C115.658 58.6815 115.663 58.4989 115.678 58.3172C115.682 58.2773 115.692 57.9879 115.69 58.1933C115.69 58.106 115.722 58.009 115.741 57.9238C115.78 57.746 115.83 57.5703 115.891 57.3978C115.917 57.3207 115.939 57.2237 115.983 57.1548C115.857 57.3504 115.992 57.1451 116.018 57.0976C116.053 57.0319 116.09 56.9672 116.131 56.9047C116.151 56.8734 116.171 56.8433 116.194 56.8125C116.247 56.7419 116.237 56.7527 116.165 56.8454C116.167 56.8055 116.287 56.7134 116.316 56.687C116.342 56.6627 116.37 56.639 116.398 56.6164C116.3 56.6875 116.287 56.6983 116.361 56.6492C116.391 56.6304 116.422 56.6126 116.454 56.5964C116.535 56.5576 116.518 56.5641 116.403 56.6137C116.437 56.6013 116.473 56.591 116.508 56.5824C116.58 56.5684 116.58 56.5662 116.508 56.5765C116.435 56.584 116.436 56.5846 116.511 56.5786C116.549 56.577 116.588 56.5776 116.626 56.5797C116.719 56.5878 116.701 56.5856 116.573 56.5727C116.611 56.5797 116.647 56.5889 116.684 56.5991C116.721 56.6104 116.758 56.6223 116.793 56.6358C116.683 56.59 116.67 56.5862 116.752 56.6244C116.805 56.6573 116.918 56.6923 116.952 56.7452C116.862 56.6756 116.852 56.6692 116.921 56.7263C116.95 56.7516 116.979 56.7775 117.007 56.8044C117.035 56.8314 117.061 56.8594 117.087 56.8885C117.144 56.9543 117.138 56.9456 117.069 56.8632C117.188 56.9532 117.262 57.1709 117.328 57.2976C117.366 57.3811 117.364 57.3746 117.32 57.2787C117.337 57.3175 117.353 57.3574 117.368 57.3967C117.398 57.476 117.425 57.5563 117.452 57.6371C117.507 57.8015 117.556 57.9675 117.605 58.1335C117.717 58.5096 117.828 58.8863 117.94 59.2631C118.061 59.6689 118.535 59.9631 118.967 59.8273C119.394 59.6937 119.679 59.2684 119.55 58.833C119.358 58.1825 119.198 57.5088 118.943 56.8783C118.666 56.196 118.248 55.5363 117.543 55.2033C117.198 55.04 116.813 54.9327 116.426 54.9694C115.978 55.0114 115.609 55.1704 115.26 55.4399C114.725 55.8532 114.418 56.5107 114.227 57.1305C113.969 57.968 113.947 58.8319 114.085 59.6899C114.153 60.1086 114.717 60.3781 115.112 60.2542C115.583 60.1065 115.768 59.7088 115.695 59.2598Z" fill="#D69C36"/>
<path fill-rule="evenodd" clip-rule="evenodd" d="M128.358 12.8507C128.263 9.96014 129.141 7.04697 130.831 4.64745C131.194 4.13209 131.626 3.61617 132.235 3.3987C133.172 3.06457 134.314 3.36189 135.074 3.98315C140.55 8.46448 146.966 10.2841 149.72 15.9547C150.792 18.1639 153.101 19.9071 150.04 22.9913C149.219 23.8181 148.598 24.8041 147.926 25.7465C145.646 28.9451 146.034 33.2825 147.474 36.8991C148.916 40.5162 152.667 44.677 154.242 48.2426C157.538 55.7034 158.236 68.9492 157.67 74.5269C157.403 77.1677 154.37 79.9319 150.517 81.2616C146.565 82.6253 142.688 79.2648 139.974 76.2004C137.007 72.8494 134.044 69.4243 132.069 65.4617C128.509 58.3187 128.461 50.1001 128.48 42.1891C128.501 33.974 128.521 25.7595 128.542 17.5449" fill="#083618"/>
<path fill-rule="evenodd" clip-rule="evenodd" d="M131.804 9.65371C131.786 7.24695 133.482 7.24695 135.346 9.01902C135.885 9.45117 136.423 9.88333 136.962 10.3155C137.5 10.7476 138.039 11.1804 138.577 11.6125C139.831 12.6184 141.201 13.5804 142.377 14.6715C145.628 17.6904 142.864 21.3519 142.347 24.9056C141.661 29.6221 142.827 34.5011 144.912 38.7702C146.102 41.2063 147.76 43.2322 149.302 45.4494C150.846 47.6694 151.877 50.189 152.603 52.7549C154.137 58.176 154.432 63.8849 154.335 69.477C154.297 71.7241 153.69 73.6762 151.692 75.0702C151.041 75.5238 149.919 76.1822 149.142 76.4491C146.218 77.4527 145.977 77.1233 144.336 75.3303C140.155 70.7605 135.162 65.5481 132.755 59.8341C131.349 56.4954 132.425 53.323 132.834 49.9256C133.258 46.4074 133.032 42.8587 132.662 39.3473C131.984 32.9174 130.753 26.3736 132.023 19.9324C132.335 18.3521 132.762 16.2246 133.659 14.8362C134.946 12.8452 136.245 14.2709 137.443 16.0131C139.441 18.9174 139.451 22.4165 139.377 25.7665C139.312 28.7612 139.332 31.6294 140.057 34.5586C140.836 37.7016 142.145 40.6912 143.329 43.7061C145.906 50.2742 147.306 57.068 147.844 64.0632C147.963 65.6113 148.4 67.587 148.11 69.0939C147.893 70.22 149.126 71.5695 146.04 71.4646C145.341 71.4409 144.282 70.2257 143.782 69.8082C141.38 67.8042 139.422 65.3106 138.095 62.5326C134.95 55.9521 135.957 47.5363 135.662 40.3352L135.243 30.0875C135.186 28.7126 135.13 27.3383 135.074 25.9634C135.045 25.2497 134.72 23.9713 134.964 23.2915C135.101 22.9112 135.042 22.8977 135.669 22.7059C137.266 22.2173 136.901 25.1324 137.035 26.2291C137.456 29.6875 137.934 33.1391 138.482 36.5812C139.631 43.7806 141.08 50.9478 143.049 57.9848C143.489 59.5577 144.55 61.5329 144.591 63.1205C144.641 63.2739 144.69 63.4274 144.739 63.5814C143.693 65.635 142.805 65.7681 142.075 63.982C141.566 63.2339 141.122 62.4169 140.735 61.604C139.724 59.4759 139.116 57.1413 138.941 54.8091C138.887 54.0835 139.172 51.4934 139.115 51.4206C139.825 52.3397 139.886 54.7978 140.135 55.8866C140.447 57.2542 140.759 58.6212 141.071 59.9887C141.164 60.3978 141.818 60.2246 141.725 59.8155C141.334 58.1004 140.942 56.3854 140.551 54.6708C140.284 53.5007 140.306 51.4392 139.265 50.6601C139.116 50.5484 138.933 50.5275 138.785 50.6601C137.501 51.8093 138.207 54.7374 138.427 56.2409C138.843 59.0776 139.86 61.899 141.49 64.3109C142.117 65.2389 143.265 66.8756 144.677 66.466C146.386 65.9707 145.587 64.0079 145.245 62.9473C140.953 49.6243 138.74 35.7422 137.214 21.9036C137.193 21.7191 137.074 21.5905 136.875 21.5781C135.387 21.4827 134.381 22.4954 134.303 23.6949C134.15 26.0283 134.499 28.4982 134.595 30.8334C134.826 36.4892 135.169 42.1524 135.29 47.8122C135.384 52.2517 135.144 56.6562 136.694 60.9202C138.242 65.1746 140.97 70.3092 144.79 72.9297C149.616 76.2403 149.498 67.2254 149.314 64.2449C148.929 58.0423 148.464 52.2624 146.486 46.3312C145.353 42.9304 143.102 39.9583 141.964 36.5597C140.692 32.7673 139.97 29.7236 140.056 25.7665C140.162 20.8892 139.711 15.0297 134.405 12.7725C134.242 12.7031 134.037 12.7211 133.941 12.8898C130.793 18.4266 130.495 24.694 131.029 30.8627C131.688 38.4796 132.881 45.5752 131.611 53.2062C130.577 59.4217 133.985 63.7145 137.697 68.5213C139.566 70.9416 141.556 73.2671 143.623 75.5334C144.849 76.8773 146.528 79.1605 148.629 79.2886C150.132 79.38 151.928 77.9904 153.165 77.2615C154.925 76.2234 154.776 75.3467 154.877 73.3958C155.168 67.7439 155.968 62.237 154.967 56.6449C153.987 51.1701 150.998 46.9084 147.819 42.3769C144.063 37.0229 141.746 29.9566 143.298 23.516C143.889 21.0636 146.764 18.4339 145.356 15.9324C144.711 14.7877 142.977 12.9491 141.964 12.1327C140.349 10.8334 138.258 10.4932 136.634 9.20689C135.443 8.26359 133.377 6.28447 131.646 7.38573C130.527 8.09772 130.426 9.48164 131.461 10.2162C131.813 10.4656 132.152 9.90026 131.804 9.65371Z" fill="white"/>
<path fill-rule="evenodd" clip-rule="evenodd" d="M100.328 9.00793C98.6877 7.43226 97.0467 5.85659 95.4058 4.28092C94.8808 3.7767 94.2659 3.23615 93.5253 3.26056C92.8634 3.28271 92.3213 3.75342 91.8426 4.19688L87.4801 8.24423C86.3742 9.26969 85.2407 10.3343 84.6352 11.6954C83.5176 14.2074 84.4332 17.0907 84.2793 19.8213C83.7748 28.7927 72.2666 34.1045 71.0127 43.0066C70.7284 45.0269 71.0115 47.0767 70.988 49.1157C70.934 53.8177 69.2531 58.4142 69.3623 63.1156C69.5003 69.0095 72.4122 74.4656 73.9621 80.1669C76.1375 88.1662 76.0999 97.6219 82.5597 103.044C84.8408 104.959 88.4768 106.045 90.7955 104.172C91.8086 103.354 92.36 102.125 92.7764 100.914C95.1873 93.8926 94.1672 86.201 95.6977 78.9524C97.5107 70.3677 102.896 62.277 101.927 53.5651C101.453 49.2968 99.4688 45.3369 98.3553 41.1817C95.9549 32.2279 97.6675 22.7648 99.7372 13.7349" fill="#083618"/>
<path fill-rule="evenodd" clip-rule="evenodd" d="M99.3521 11.7116C98.6357 6.2866 91.443 7.07401 88.9176 10.7798C86.8428 13.824 87.0224 17.51 86.7911 20.9773C86.4867 25.5472 84.6896 29.385 82.1327 33.212C77.6312 39.9496 73.4008 45.8112 72.6952 54.0175C71.9681 62.4709 74.0334 71.0563 76.0041 79.2452C77.9409 87.2964 79.0318 95.4706 85.7026 101.151C85.9517 101.363 87.8808 101.446 87.9902 101.151C90.8313 93.5015 88.6221 85.2991 90.166 77.4837C91.6439 70.001 98.6821 64.7012 99.578 57.1035C99.9406 54.0271 98.9312 51.4077 97.0972 48.9106C94.4113 45.2556 91.8157 42.3468 92.1558 37.5631C92.4483 33.4563 94.1402 29.5638 94.7394 25.5004C95.3292 21.4962 95.1086 17.4988 94.2555 13.547C94.1871 13.2306 93.7615 13.1759 93.5386 13.3677C91.4281 15.1833 91.5904 18.1886 91.1487 20.6636C90.5138 24.2239 89.5376 27.7312 88.2672 31.1341C86.8975 34.8015 85.1705 38.3471 83.1118 41.7122C81.1952 44.845 78.6585 47.6861 77.0664 50.9875C74.0797 57.1796 75.9488 64.0971 77.7543 70.3315C78.9325 74.4017 80.1316 78.4662 81.3206 82.5336C81.8206 84.2449 82.037 87.4769 84.3614 87.8802C84.5653 87.9158 86.8125 87.2727 86.8464 87.0404C87.5663 82.0558 87.1151 77.3489 87.9902 72.3869C88.4575 69.7376 88.2173 67.4058 89.6227 65.0475C90.6999 63.2397 92.1165 61.6373 93.2199 59.8442C96.5942 54.3588 94.501 47.4018 87.8338 45.3797C87.6941 45.3374 87.5164 45.3825 87.4165 45.4846C80.3451 52.7152 81.5388 62.8601 82.9501 71.8562C83.0197 72.2995 83.6433 72.1799 83.777 71.8562C85.2799 68.2135 86.7828 64.5709 88.2856 60.9283C89.2208 58.6619 91.7616 54.8856 90.9056 52.3277C90.4876 51.0794 88.9414 49.9829 87.574 50.706C85.6806 51.7072 85.7026 55.7418 85.3471 57.4577C85.2413 57.9693 86.0682 58.1876 86.1746 57.6731L86.7364 54.9635C86.8297 54.5116 86.9231 54.0598 87.017 53.608C87.1157 52.3429 88.1709 52.2504 90.1833 53.3322C90.7147 54.7954 88.439 58.3342 87.8683 59.7178C86.2287 63.6915 84.5891 67.6658 82.9501 71.6396H83.777C82.9109 66.1164 82.0102 60.4014 83.2896 54.867C83.7931 52.6875 84.6272 50.5357 85.8863 48.6444C86.7525 47.3426 87.3666 46.1643 89.2291 46.7797C90.3955 47.1643 91.4584 48.306 92.1724 49.1961C95.6294 53.5071 93.6836 57.8779 90.8051 61.855C88.1899 65.4694 86.797 68.9727 86.1009 73.3193C85.7323 75.6195 85.4267 77.9293 85.0938 80.234C84.922 81.4252 84.7496 82.6159 84.5778 83.8067C84.4197 84.9009 84.5451 87.2857 83.2557 85.8829C82.5934 85.1621 82.4281 83.2765 82.1481 82.317C81.801 81.1308 81.4728 80.0862 81.1262 78.8994C80.3831 76.3573 80.7249 73.8433 79.9824 71.3011C78.4623 66.0961 77.1788 61.547 78.2661 56.1056C79.2096 51.3846 81.0953 46.5535 83.5999 42.529C86.2269 38.3082 88.338 33.7941 89.8819 29.1165C90.6731 26.7193 91.3152 24.2769 91.8015 21.8075C92.2901 19.3246 92.0624 15.7355 94.1455 13.9436C93.906 13.8838 93.667 13.824 93.4286 13.7636C94.4351 18.43 94.4868 23.1404 93.4351 27.8045C92.6403 31.3287 91.2979 34.8297 91.2545 38.4707C91.163 46.2325 98.3498 49.6992 96.5705 57.7335C94.9576 65.0142 90.3943 70.635 89.1833 78.1583C87.9682 85.7041 89.9627 93.4463 87.2328 100.799C87.4718 100.739 87.7102 100.679 87.9498 100.619C81.1536 94.8316 78.5657 86.403 76.6378 78.2158C74.5202 69.2237 72.1994 59.6281 74.0601 50.4121C75.7669 41.9565 83.2997 37.1339 86.8464 29.5124C88.4414 26.0836 88.9069 20.7178 89.1346 17.03C89.2832 14.6249 88.228 13.2565 89.6583 11.1904C91.6225 8.35384 97.8599 6.90761 98.4942 11.7116C98.562 12.2243 99.421 12.2311 99.3521 11.7116Z" fill="white"/>
<path fill-rule="evenodd" clip-rule="evenodd" d="M47.6404 75.3918C49.3176 71.2062 50.0389 66.7122 51.2381 62.3729C53.0086 55.9651 54.738 48.9332 51.9333 42.8901C50.3801 39.5446 47.601 36.9218 44.8856 34.3852C44.509 34.0335 44.0722 33.6575 43.5519 33.6733C42.5456 33.7045 42.2403 35.0165 42.2524 36.0029C42.3168 40.9905 42.8445 45.9593 43.3723 50.9202C44.1736 58.4557 44.976 65.9901 45.7778 73.525C45.7778 73.525 45.827 79.9176 47.6404 75.3918Z" fill="#083618"/>
<path fill-rule="evenodd" clip-rule="evenodd" d="M49.567 80.5098C43.6077 79.7388 37.4931 79.9698 31.7029 81.565C30.0127 82.0306 28.2962 82.6073 26.526 82.1907C25.8863 82.0395 25.2843 81.7375 24.8137 81.2838C22.8858 79.4238 24.3693 76.8082 26.3916 75.968C28.0143 75.2933 29.8544 75.4676 31.6001 75.6892C37.2011 76.3982 42.7549 77.4694 48.2149 78.8921C48.8724 79.0634 49.4822 79.399 49.9457 79.8906C50.3046 80.2717 50.4438 80.6232 49.567 80.5098Z" fill="#083618"/>
<path fill-rule="evenodd" clip-rule="evenodd" d="M20.8156 62.2458C21.9544 64.9029 23.9072 67.1424 26.1554 69.0355C28.7087 71.1865 31.6106 72.9736 34.6717 74.4019C36.2859 75.1546 37.9534 75.7696 39.6286 76.3852C39.9504 76.5036 40.271 76.6249 40.5898 76.7502C40.6944 76.791 40.9773 76.9531 40.5772 76.7445C40.634 76.774 40.7052 76.7961 40.7644 76.8205C40.951 76.8964 41.1364 76.9735 41.3218 77.0523C41.9875 77.3346 42.6454 77.6327 43.2944 77.9478C44.5115 78.5384 45.6963 79.1886 46.8405 79.8982C47.4045 80.2479 47.9577 80.6124 48.5008 80.9916C48.6222 81.0766 48.743 81.1622 48.8638 81.2483C48.9356 81.3005 49.0061 81.3543 49.0791 81.4048C49.0636 81.3934 48.7549 81.1644 48.9619 81.3192C49.231 81.5209 49.499 81.7233 49.7627 81.9307C51.6886 83.4458 53.3943 85.1575 54.9506 87.011C54.6061 86.6006 54.9237 86.9798 55.002 87.079C55.0947 87.1957 55.1868 87.3131 55.2777 87.431C55.4679 87.6764 55.6539 87.9252 55.8364 88.1757C56.1683 88.632 56.4883 89.0962 56.7957 89.5672C57.4363 90.5489 58.0236 91.5618 58.5583 92.5985C58.8131 93.0922 59.0559 93.5909 59.2862 94.0948C59.3191 94.1668 59.352 94.2388 59.3842 94.3108C59.4865 94.5352 59.3197 94.1651 59.3167 94.1577C59.3783 94.304 59.4435 94.4474 59.5057 94.5931C59.6199 94.8594 59.7305 95.1275 59.8382 95.3962C60.2593 96.4499 60.6325 97.52 60.9602 98.6032C61.2892 99.6891 61.5733 100.788 61.8149 101.895C61.9387 102.462 62.0517 103.033 62.154 103.605C62.2007 103.865 62.2449 104.126 62.2874 104.387C62.3125 104.544 62.337 104.7 62.361 104.858C62.3825 104.997 62.4578 105.565 62.3831 104.996C62.9824 109.543 63.0362 114.12 62.6139 118.685C62.5631 119.231 62.5063 119.777 62.4435 120.322C62.3496 121.13 63.2617 121.905 64.0775 121.87C65.0428 121.829 65.6116 121.187 65.7115 120.322C66.2384 115.76 66.3437 111.142 65.8472 106.572C65.3305 101.807 64.1935 97.1595 62.2072 92.7476C60.2497 88.4013 57.3806 84.4054 53.7556 81.1531C51.7819 79.383 49.5869 77.8169 47.2585 76.4912C46.0492 75.8025 44.7998 75.1779 43.5204 74.6145C42.0515 73.9683 40.5413 73.4333 39.0359 72.8721C38.8517 72.8036 38.6681 72.7338 38.4845 72.6624C38.4109 72.6335 38.0305 72.4896 38.4355 72.6449C38.3248 72.6024 38.216 72.5559 38.1071 72.5111C37.7058 72.3456 37.3075 72.175 36.9127 71.9976C36.1238 71.6439 35.3463 71.267 34.5831 70.8668C33.125 70.1028 31.7141 69.2554 30.3732 68.3173C30.2218 68.2114 30.0723 68.1042 29.9222 67.9965C29.6106 67.7732 30.2045 68.2085 29.8995 67.9784C29.8409 67.9348 29.7822 67.8917 29.7242 67.848C29.3803 67.5884 29.0424 67.322 28.7105 67.0488C28.1501 66.5869 27.6082 66.1063 27.0902 65.6018C26.5765 65.1019 26.0944 64.577 25.6309 64.0346C25.4096 63.775 25.8594 64.3254 25.65 64.059C25.6123 64.0102 25.5735 63.9621 25.5352 63.9139C25.4413 63.7937 25.3492 63.673 25.2589 63.5506C25.0477 63.2643 24.8468 62.9719 24.6584 62.6726C24.5065 62.4317 24.3629 62.1868 24.2284 61.9369C24.1632 61.815 24.0998 61.692 24.0388 61.569C24.0029 61.4953 23.9688 61.4211 23.9335 61.3474C23.7995 61.0668 24.089 61.7062 23.9676 61.4228C23.8007 61.0334 23.6135 60.7171 23.2164 60.4966C22.8659 60.3022 22.3498 60.2206 21.9574 60.3408C21.1954 60.5743 20.4711 61.4421 20.8156 62.2458Z" fill="#083618"/>
<path fill-rule="evenodd" clip-rule="evenodd" d="M24.9298 64.0837C14.9421 64.2729 4.31761 53.9747 0 45.3904C4.55857 44.893 8.97364 47.1932 12.4279 50.0712C15.8821 52.9491 18.7282 56.4595 22.3199 59.1808C19.7733 53.5958 19.0941 47.2531 20.4048 41.2926C20.7432 39.7525 21.4858 38.3525 22.3887 37.0346C27.2695 29.9164 29.1871 45.579 29.3945 47.8371C29.9327 53.6847 28.4014 57.6156 23.4733 61.2525" fill="#083618"/>
<path fill-rule="evenodd" clip-rule="evenodd" d="M33.4323 119.864C34.1047 120.484 34.6318 121.295 34.9078 122.039C35.4027 123.376 34.7631 124.634 33.6396 125.445C32.1561 126.515 29.7071 126.891 28.1775 125.684C25.5133 123.581 28.2717 118.456 31.4527 118.852C32.1743 118.941 32.8565 119.333 33.4323 119.864Z" fill="#DD452C"/>
<path fill-rule="evenodd" clip-rule="evenodd" d="M79.6704 119.864C80.3428 120.484 80.8699 121.295 81.146 122.039C81.6409 123.376 81.0013 124.634 79.8777 125.445C78.3948 126.515 75.9451 126.891 74.416 125.684C71.7512 123.581 74.5097 118.456 77.6907 118.852C78.4124 118.941 79.0946 119.333 79.6704 119.864Z" fill="#DD452C"/>
<mask id="mask2" mask-type="alpha" maskUnits="userSpaceOnUse" x="41" y="126" width="7" height="6">
<path fill-rule="evenodd" clip-rule="evenodd" d="M41.228 126.07H47.5364V131.756H41.228V126.07Z" fill="white"/>
</mask>
<g mask="url(#mask2)">
<path fill-rule="evenodd" clip-rule="evenodd" d="M46.2347 126.842C46.7669 127.306 47.1836 127.913 47.4024 128.47C47.7941 129.469 47.2876 130.41 46.3985 131.016C45.2255 131.816 43.2864 132.098 42.0769 131.195C39.9681 129.622 42.151 125.79 44.6676 126.086C45.2392 126.153 45.7791 126.445 46.2347 126.842Z" fill="#DD452C"/>
</g>
<path fill-rule="evenodd" clip-rule="evenodd" d="M52.5906 118.587C52.9268 118.897 53.1901 119.303 53.3281 119.675C53.5761 120.343 53.2557 120.972 52.694 121.377C51.9528 121.912 50.7277 122.1 49.9635 121.497C48.6308 120.446 50.0103 117.883 51.6008 118.081C51.9613 118.126 52.3024 118.322 52.5906 118.587Z" fill="#DD452C"/>
<path fill-rule="evenodd" clip-rule="evenodd" d="M19.9049 128.471C20.2411 128.781 20.505 129.187 20.6424 129.559C20.8905 130.227 20.5707 130.856 20.0089 131.261C19.2671 131.797 18.0425 131.984 17.2777 131.381C15.9455 130.33 17.3245 127.767 18.915 127.965C19.2762 128.011 19.6173 128.206 19.9049 128.471Z" fill="#DD452C"/>
<path fill-rule="evenodd" clip-rule="evenodd" d="M96.4371 126.951C96.7733 127.261 97.0365 127.666 97.1745 128.038C97.4226 128.706 97.1028 129.336 96.541 129.74C95.7993 130.276 94.5748 130.464 93.81 129.861C92.4773 128.809 93.8568 126.246 95.4473 126.444C95.8084 126.489 96.1495 126.685 96.4371 126.951Z" fill="#DD452C"/>
<path fill-rule="evenodd" clip-rule="evenodd" d="M60.5626 128.471C60.8988 128.781 61.1621 129.187 61.3001 129.559C61.5482 130.227 61.2284 130.856 60.6666 131.261C59.9249 131.797 58.7004 131.984 57.9356 131.381C56.6029 130.33 57.9824 127.767 59.5728 127.965C59.934 128.011 60.2751 128.206 60.5626 128.471Z" fill="#DD452C"/>
<path fill-rule="evenodd" clip-rule="evenodd" d="M193.431 113.946C187.202 113.221 181.646 109.585 177.765 104.932C173.883 100.279 171.508 94.6682 169.702 88.9978C169.259 87.607 168.842 86.1544 169.075 84.7181C169.308 83.2824 170.365 81.8641 171.882 81.6153C173.719 81.3132 175.324 82.7248 176.588 84.0196C180.829 88.3627 185.096 92.7362 188.462 97.716C191.829 102.695 194.282 108.366 194.519 114.268" fill="#083618"/>
<path fill-rule="evenodd" clip-rule="evenodd" d="M192.563 114.268C185.915 102.889 181.901 87.632 187.862 75.3984C189.097 72.8645 190.402 70.3136 192.116 68.0369C193.713 65.9168 197.923 62.5545 198.626 67.1326C199.708 74.1833 200.805 81.3409 200.894 88.4789C200.97 94.4991 199.282 100.39 197.762 106.18C197.096 108.72 195.503 111.781 192.777 111.557" fill="#083618"/>
<path fill-rule="evenodd" clip-rule="evenodd" d="M191.15 113.575C195.329 115.252 200.181 113.643 204.01 111.327C212.447 106.224 218.401 97.5582 219.93 88.1598C220.022 87.592 220.098 87.0033 219.932 86.4512C219.587 85.2964 218.24 84.6185 216.977 84.6152C215.714 84.6112 214.521 85.1331 213.399 85.6841C203.494 90.5407 195.333 98.5452 190.533 108.11" fill="#083618"/>
<path fill-rule="evenodd" clip-rule="evenodd" d="M196.114 114.268C192.786 114.274 184.662 113.164 178.545 111.829C175.642 111.194 170.551 108.713 167.968 107.314C165.384 105.913 163.175 103.63 162.683 100.861C162.6 100.396 162.581 99.8733 162.89 99.5015C163.357 98.9393 164.271 99.0251 165.014 99.1662C175.266 101.108 185.884 103.198 194.297 109.046" fill="#083618"/>
<path fill-rule="evenodd" clip-rule="evenodd" d="M194.779 108.546C194.067 99.0714 192.479 95.101 193.999 85.7016C194.427 83.055 195.281 75.5724 195.316 72.8991C195.341 70.9221 194.766 71.6014 194.475 73.2683C192.82 82.725 191.261 92.2283 191.333 101.799C191.353 104.503 191.466 107.207 191.669 109.906C191.725 110.651 193.032 110.656 192.976 109.906L194.779 108.546Z" fill="white"/>
<path fill-rule="evenodd" clip-rule="evenodd" d="M192.659 107.068C190.963 105.888 189.267 104.708 187.572 103.528C185.932 102.387 184.247 101.284 182.691 100.042C179.95 97.8526 177.837 95.0478 176.618 91.8558C176.35 91.1553 175.155 91.4573 175.426 92.1657C176.399 94.714 179.162 99.5278 180.012 100.572C181.337 102.197 184.903 103.966 188.023 105.668C189.73 106.599 190.449 106.971 192.034 108.074C192.676 108.521 193.293 107.509 192.659 107.068Z" fill="white"/>
<path fill-rule="evenodd" clip-rule="evenodd" d="M191.935 109.069C185.854 108.565 179.872 107.017 174.332 104.508C173.633 104.192 173.6 104.542 174.303 104.862C183.349 108.977 192.006 110.478 192.73 110.466C193.227 110.458 192.704 109.133 191.935 109.069Z" fill="white"/>
<path fill-rule="evenodd" clip-rule="evenodd" d="M192.603 110.467C195.916 109.191 199.404 107.027 202.151 104.829C204.83 102.685 204.999 103.102 207.195 100.503C208.435 99.0349 211.153 94.7688 212.349 93.2689C212.553 93.0129 213.039 92.4501 212.781 92.3001C212.467 92.1191 212.143 92.2609 211.942 92.5129C207.872 97.6186 205.614 102.126 199.902 105.613C198.236 106.631 194.532 108.207 192.701 108.912C191.977 109.191 192.061 109.486 192.291 110.115L192.603 110.467Z" fill="white"/>
<path fill-rule="evenodd" clip-rule="evenodd" d="M202.882 103.462C203.457 101.495 203.302 102.961 203.899 99.5679C203.952 99.2622 204.259 96.8702 203.949 96.784C203.669 96.7061 203.324 97.9819 203.262 98.2877C202.863 100.299 202.294 102.098 201.719 104.066C201.511 104.777 202.675 104.172 202.882 103.462Z" fill="white"/>
<path fill-rule="evenodd" clip-rule="evenodd" d="M192.888 99.1663C192.192 97.0534 191.507 94.9348 190.977 92.7794C190.457 90.6592 189.274 87.907 189.453 85.724C189.513 84.985 189.037 85.5419 188.976 86.2765C188.794 88.5037 189.317 93.4584 189.576 94.8217C190.001 97.0506 190.928 98.541 191.7 99.4722C192.183 100.057 193.122 99.8773 192.888 99.1663Z" fill="white"/>
<path fill-rule="evenodd" clip-rule="evenodd" d="M186.382 102.671C185.441 101.526 184.401 99.7135 184.31 99.2846C184.213 98.8313 183.631 97.5089 183.317 96.4804C183.107 95.7887 182.956 95.1912 182.679 95.2663C182.35 95.355 182.807 96.8412 182.856 97.1416C183.298 99.8392 183.8 101.315 185.565 103.461C185.761 103.699 186.178 103.656 186.382 103.461C186.627 103.23 186.576 102.906 186.382 102.671Z" fill="white"/>
</svg>
