<svg xmlns="http://www.w3.org/2000/svg" viewBox="0 0 872.23 322.94"><defs><style>.cls-1{fill:#c4491e;}</style></defs><g id="wallflower-tagline"><path class="cls-1" d="M120.79,148.56c-7.32-11.63-12.61-34.3-15.54-47.72-1.22-5.58-2-11.52-.14-16.92a41.43,41.43,0,0,1,8.74-13.69,2.85,2.85,0,0,0-2-4.8L99.28,64.32a4.88,4.88,0,0,0-4.54,6.92l19.94,94.33a8.68,8.68,0,0,0,2.15,3.25c1.56,1.28,3.77,1.3,5.79,1.26,8.84-.17,5.85,1.93,14.69,1.58a3.79,3.79,0,0,0,4.41-3.13c8.13-23.35,13.13-47.75,22.34-70.69,4.62-11.49,11.52-21.83,17.77-32.45a78.27,78.27,0,0,1,21-23.26c4.93-3.67,23.48-9,22-4.47-2,6.23,5.83,13.33,11,15.21,6.51,2.36,14.62.11,19.2-5,7.28-8.16,5.12-20-1.79-27.63C242.52,8.37,225.34,11,212.56,17.41c-15.29,7.7-28,19.88-37.93,33.73-12.17,17-14.17,21.29-22.22,40.64-4.18,10-14,43.69-21,57.86C131.14,150.14,129.77,158.7,120.79,148.56Z"/><path class="cls-1" d="M9,71.67c-4.08-1.75-3.42-7.91,1-8.51l.44,0c16.53-.89,17.91-1,37-.4a6.61,6.61,0,0,1,3.88,1C53,65.06,53,68.75,53.55,70.94c6.58,25.41,12.91,43.87,24.64,64.67,1.29,2.29,3.17-.23,4-1.52,2.34-3.63,4.43-7.37,7.06-10.8.74-1,7.38-10.52,7.92-10.31,3.1,1.16,5.36,6.71,4.29,9.84S98,128.4,96,131.09c-6.86,9.56-12.44,25.27-15,36.76v.07c-.85,3.75-4.15,5.25-8,5.33l-21.28.18c-3.62.07-6.92-.66-8.32-4l-6.76-30.76c-1.37-9-13.42-45.18-20-59.94A13.28,13.28,0,0,0,9.7,72Z"/><path class="cls-1" d="M166.29,69.52c4.12-4,9-11.15,16-7.63a1.28,1.28,0,0,1,.11,2.4c-23.59,15.89-31,61.87-37.83,95.1-.83,4-2.91,11.23-4.86,12.9-1.24,1.06-3.73.93-5.36,1-9.29.3-8.63.11-18.68.15a10.31,10.31,0,0,1-6.68-1.93,6.5,6.5,0,0,1-2.12-3.59c-8-35.22-19.7-95.7-30.61-99.06-1-.3-1.27-1.57-1.39-2.55-.29-2.37,1.66-3.18,10.76-3.4l32.52-.74c4.29.12,6.87-.32,9.17-.11,2.15.2,4,3,2.44,4.44-5.23,4.74-6.43,10.77-5.77,14.35,3.08,16.6,3.19,29.58,9.72,54.86a1.36,1.36,0,0,0,2.6.12C140.89,122.82,155.24,80.22,166.29,69.52Z"/><path class="cls-1" d="M569.79,159.28c-3.23-1.38-2.71-6.25.77-6.73l.35,0a234.93,234.93,0,0,1,29.25-.32,5.16,5.16,0,0,1,3.06.76c1.41,1.09,1.38,4,1.83,5.74,5.2,20.1,10.21,34.69,19.48,51.14,1,1.81,2.51-.19,3.17-1.21,1.85-2.86,3.5-5.83,5.58-8.54.58-.76,5.83-8.31,6.26-8.15,2.45.92,4.24,5.31,3.39,7.79s-2.76,4.4-4.29,6.53c-5.42,7.56-9.83,20-11.88,29.07v0c-.67,3-3.28,4.16-6.32,4.21l-16.83.15c-2.86,0-5.47-.52-6.58-3.16l-5.34-24.32c-1.08-7.09-10.61-35.72-15.85-47.39a10.56,10.56,0,0,0-5.45-5.34Z"/><path class="cls-1" d="M694.2,157.58c3.26-3.15,7.1-8.82,12.61-6a1,1,0,0,1,.08,1.9C688.24,166,682.39,202.36,677,228.64c-.65,3.16-2.3,8.88-3.84,10.2-1,.84-2.95.73-4.24.78-7.35.23-6.83.08-14.77.11a8.15,8.15,0,0,1-5.28-1.52,5.13,5.13,0,0,1-1.68-2.84C640.81,207.52,631.59,159.7,623,157c-.76-.23-1-1.24-1.1-2-.23-1.87,1.31-2.51,8.51-2.68l25.71-.59c3.4.09,5.44-.25,7.25-.09s3.2,2.36,1.93,3.51c-4.14,3.75-5.08,8.52-4.56,11.35,2.43,13.12,2.52,23.39,7.68,43.38a1.08,1.08,0,0,0,2.06.09C674.11,199.73,685.46,166,694.2,157.58Z"/><path class="cls-1" d="M558.27,160.6a49.4,49.4,0,0,0-26.2-8.38c-24.88-.66-44.74,12.69-49.46,38.45S488.42,235,513.26,241c29.45,7.18,62.78-9.44,62.51-43.54C575.65,182.53,570.54,168.81,558.27,160.6Zm-34.34,71.31c-9.94,9.11-10.86-11.24-10.62-17.24a78.07,78.07,0,0,1,7.06-29.44c2.55-5.55,13.23-23.52,19-22,4,1.07,3.76,5.75,3.81,10.95C543.33,194.1,540.23,217,523.93,231.91Z"/><path class="cls-1" d="M773.56,209.41c-14.29,10.39-33.31,15.58-47.53,3a22.07,22.07,0,0,1-6.4-9.24,3.24,3.24,0,0,1,2.75-4.09c15.4-1.9,31.66-5.93,46.48-9.93,3.67-1,6.31-1.31,8-4.74,3-6.38-5.75-16.37-10.14-20.27a43.08,43.08,0,0,0-21.19-10.69c-13.35-2.45-27.6-.17-37.42,9.51-11.6,11.45-18.23,28.81-15.42,44.86a41.73,41.73,0,0,0,5.42,14.79c6.51,10.52,21.33,17,33.69,17.63s26-2.74,35.61-10.56c5.2-4.23,10-11.35,10.4-18.1A2.64,2.64,0,0,0,773.56,209.41Zm-54.93-23.72a21.76,21.76,0,0,1,2.19-9.26,28.31,28.31,0,0,1,6-7.44,14,14,0,0,1,8.72-3.47c4,0,7.82,2.25,10.56,5.22s4.6,6.64,6.42,10.25a3.46,3.46,0,0,1,.5,2.86,3.41,3.41,0,0,1-2.45,1.52,187.08,187.08,0,0,1-28.47,5.1,4,4,0,0,1-2.51-.29C718.16,189.32,718.67,187.32,718.63,185.69Z"/><path class="cls-1" d="M794.54,154c-2.58.13-5.16.23-7.75.26-1.66,0-3.73-.05-5.2.87a2.75,2.75,0,0,0-1.27,2.17,8.53,8.53,0,0,0,.41,3.48c8.33,22.37,8.73,50,1.33,73.13a4.66,4.66,0,0,0,4.52,6.06c12-.16,20.47,0,28.68-.25a3.44,3.44,0,0,0,3-4.83c-6.22-14.24-7.27-32.2-2.76-46.74,2.62-8.46,9.26-17.57,18-16.4-2.48,4-2.91,9.45-.46,13.51a14.07,14.07,0,0,0,9.56,6.12,19.75,19.75,0,0,0,19.08-7.86,21.94,21.94,0,0,0,2.3-20.73,23.45,23.45,0,0,0-21-14.29c-14.27-.14-25,12.4-33.58,23.81a27.55,27.55,0,0,1,5.1-12.7,4.71,4.71,0,0,0-.76-6.35c-1.29-1.09-2.87-1-4.45-.86C802,152.88,802,153.55,794.54,154Z"/><path class="cls-1" d="M195.16,109.69a7.2,7.2,0,0,0-1.74-3.12c-1.56-1.66-4.09-2.27-4-4.91.16-6.94,8.72-8.28,14.59-8,11.36.64,18.16,9.7,18,20.1-.24,16-.49,28.88-.74,44.89-.09,5.76-1.16,12.17,4.32,14.68a14.64,14.64,0,0,0,6.83,1.16c5.87,0,13.95.6,18.39.57s7.08-.77,6.71-3.29c-.14-.94-.46-2-4-3.62-8.54-3.86-7-20.59-6.72-38.34.2-11.06-4-26.55-13.25-33.72-18.63-14.38-42.46-13.25-55.44,4.3-4.46,6-7.7,16.68,1.61,20.7C188.33,124.86,197.59,119,195.16,109.69Z"/><path class="cls-1" d="M227.9,156.46q-2-7.72-4.09-15.44l-1.37-19.22a34.26,34.26,0,0,1-7.78,2.41c-10.38,2.13-20.62,2.93-30.2,7.72-8.83,4.42-15.69,11.76-15.89,21.6-.17,7.77,3.77,16.11,11.72,19.23,8.53,3.34,19.47,2.58,27.75-1.17,1.26-.57,12.63-6.8,13.13-5.53.65,1.7,6.83-5.77,7-6.69A6.31,6.31,0,0,0,227.9,156.46Zm-15.84-24.31c2.93-1.11,9.2-2.7,7.14,5.12-1.62,6.15-2.5,14-7.85,17.82-2.56,1.83-6.06,2.12-9.21,1.53-3.88-.72-7.6-2.81-9.53-6.07s-1.74-7.72,1-10.42a15.16,15.16,0,0,1,4.56-2.79Z"/><path class="cls-1" d="M182.52,94.23a30,30,0,0,0-8.34,11.41c-2,4.52-2,10.6.92,14.65,2.65,3.69,6.83,5.35,11.55,5.58,7,.33,11.41-2.81,13.69-9.08s-1.31-14.14-8.14-15.27a.12.12,0,0,1-.09-.18c2.45-4.52,10.78-6.17,16.62-5.43,10.65,1.33,16.13,11.72,10.9,29.59,10.89.12,3.51-31.67,3.91-35.4C223.54,90.1,201.21,78.21,182.52,94.23Z"/><path class="cls-1" d="M384.71,199.82a95.51,95.51,0,0,0,22.13,1.74,10.24,10.24,0,0,0,4.11-.75c3.36-1.62,3.46-6.8,3.3-10.53s-.46-8,.75-11.23c1.27-3.44,3.5-3.68,8.77-4.19a35.35,35.35,0,0,0,7.11-1.44c3-.9,6.1-3.29,5.68-8.3-.29-3.43-3.2-4.47-9.41-4.38s-12.25-.73-13.63-11.92"/><path class="cls-1" d="M374.26,142a113.41,113.41,0,0,0-1,17.77c0,3.41-3.23,3.18-6,3.83-3,.71-6.24,1.54-8.31,3.86s-2.1,6.64.68,8c1.62.81,3.55.37,5.36.29,12.17-.52,13.58,1.35,14.39,17.52l1.91,66.88c.41,12.43,6.49,49.42-14.6,51.15-13.16,1.08-18.17-5.45-20.83-13.55-1.38-4.23-1.37-12.12,3.35-14a.3.3,0,0,1,.4.37c-.34,1.32,1.37,4.09,1.73,4.75,2.54,4.62,9,5.3,13.66,3.88,3.43-1.06,7.09-3.23,8.7-6,3.59-6.14,3.05-14.38-.51-20.41-7.2-12.18-28.08-10.14-36.13,0a33.57,33.57,0,0,0-7,18.37c-.94,14.77,11.89,27.48,24.71,32.65,14.52,5.86,31.8,3.68,44.89-4.91,13.24-8.68,16.46-24,17-39.26,1-27.9-.95-56.09-2.37-84-1.09-21.6-.6-43.25-.51-64.89a49.8,49.8,0,0,1,1.37-11.86,35,35,0,0,1,18.2-21.91c21.37-9.8,49-6.2,57.62,18.33,1.08,3.1-2.11.24-5.79,3-9.44,7.08-9.33,18.9-1.14,27.17a22,22,0,0,0,28,2.94c13.18-8.71,12.61-26.52,4.51-38.44-9.1-13.39-27.87-23.33-43.54-25.83-22.31-3.55-44.35-.42-64.29,10.69-24.53,13.66-35,38.31-35.47,65.21"/><path class="cls-1" d="M296.37,80c-.15-15.92,1.18-21.89.71-24-.43-1.92-2.71-2.55-4.19-2.39l-21.3.24c-1.57,0-3.52-.07-4.91,1.22a4.56,4.56,0,0,0-1.19,3.05,33,33,0,0,0,.66,4.41,110.22,110.22,0,0,1,2,19.6s.82,81,.83,81.61c0,2.82-2.27,5.13-4.24,6.85-1.26,1.09-3.08,3.07-.76,4.14l32.18.4c1.41,0,6.57.35,7-1,.56-1.66-1.64-3.64-3.12-4.92-2.6-2.27-2.43-3.64-2.54-8.11Z"/><path class="cls-1" d="M341.37,80c-.16-15.92,1.17-21.89.7-24-.43-1.92-2.71-2.55-4.19-2.39l-21.3.24c-1.57,0-3.51-.07-4.9,1.22a4.52,4.52,0,0,0-1.2,3.05,31.93,31.93,0,0,0,.67,4.41,110.21,110.21,0,0,1,2,19.6s.82,81,.83,81.61c0,2.82-2.26,5.13-4.24,6.85-1.26,1.09-3.08,3.07-.76,4.14l32.19.4c1.41,0,6.57.35,7-1,.56-1.66-1.65-3.64-3.12-4.92-2.61-2.27-2.43-3.64-2.55-8.11Z"/><path class="cls-1" d="M470.86,147.47c-.16-15.93,1.17-21.9.7-24-.43-1.91-2.71-2.55-4.19-2.39l-21.29.24c-1.57,0-3.52-.07-4.91,1.22a4.47,4.47,0,0,0-1.19,3.06,30,30,0,0,0,.66,4.4,110.21,110.21,0,0,1,2,19.6s.83,81,.83,81.61c0,2.82-2.26,5.13-4.24,6.85-1.26,1.09-3.08,3.07-.75,4.14l32.18.4c1.41,0,6.57.35,7-1,.56-1.66-1.65-3.63-3.12-4.92-2.61-2.27-2.43-3.64-2.55-8.1Z"/><path class="cls-1" d="M324.78,198c1.25-2.16,4.16-3.37,6.93-3.09a7.61,7.61,0,0,1,4.62,2.83,9.92,9.92,0,0,1,2.51,4.27c.78,3.36-1.83,7.11-5.4,7.75-5,.9-8.53-4.35-9.23-8.45A4.78,4.78,0,0,1,324.78,198Z"/><path class="cls-1" d="M349.24,200.53a4.61,4.61,0,0,1,4.4-2,4.78,4.78,0,0,1,2.92,1.79,6.38,6.38,0,0,1,1.6,2.71,4.31,4.31,0,0,1-3.43,4.92c-3.16.56-5.41-2.76-5.85-5.36A3,3,0,0,1,349.24,200.53Z"/><path class="cls-1" d="M188.83,2.61a4.61,4.61,0,0,1,4.52,1.67,4.75,4.75,0,0,1,.84,3.33,6.24,6.24,0,0,1-.75,3.05,4.28,4.28,0,0,1-5.88,1.12c-2.66-1.8-1.94-5.75-.45-7.92A3.12,3.12,0,0,1,188.83,2.61Z"/><path class="cls-1" d="M170.77,12.07a4.1,4.1,0,0,1,4,1.49,4.33,4.33,0,0,1,.75,3,5.55,5.55,0,0,1-.67,2.73,3.84,3.84,0,0,1-5.26,1c-2.38-1.61-1.74-5.14-.4-7.08A2.7,2.7,0,0,1,170.77,12.07Z"/><path class="cls-1" d="M809.66,125.64a4.61,4.61,0,0,1,3.47,3.35,4.85,4.85,0,0,1-.57,3.38,6.44,6.44,0,0,1-1.92,2.5,4.3,4.3,0,0,1-5.84-1.35c-1.71-2.72.54-6,2.78-7.43A3.07,3.07,0,0,1,809.66,125.64Z"/><path class="cls-1" d="M789.32,127a4.12,4.12,0,0,1,3.1,3,4.29,4.29,0,0,1-.51,3,5.61,5.61,0,0,1-1.72,2.23,3.83,3.83,0,0,1-5.22-1.2c-1.53-2.43.48-5.4,2.49-6.64A2.72,2.72,0,0,1,789.32,127Z"/><path class="cls-1" d="M504.81,278.31q9,0,9.05,7.47a9.71,9.71,0,0,1-1.42,5.44,13.29,13.29,0,0,1-4.27,3.86,6.41,6.41,0,0,1,2.64,2.54,8,8,0,0,1,.66,3.46,11.15,11.15,0,0,1-3.53,8.43q-3.54,3.36-10.09,3.36h-13l8-34.56ZM501,298.38h-5.74l-2,8.49h6a4.6,4.6,0,0,0,3.66-1.58,5.93,5.93,0,0,0,1.38-4.06C504.26,299.33,503.15,298.38,501,298.38Zm2.75-14.07h-5.24l-1.93,8.23h5.23a4.65,4.65,0,0,0,3.51-1.5,5.35,5.35,0,0,0,1.42-3.84C506.69,285.27,505.69,284.31,503.7,284.31Z"/><path class="cls-1" d="M522.6,304.86a2.43,2.43,0,0,0,1,2.06,4.32,4.32,0,0,0,2.62.76,51.92,51.92,0,0,0,7.17-.51l1.32-.15-.77,5a32.23,32.23,0,0,1-9.35,1.43q-4.62,0-6.73-2.09t-2.11-6.1a28.85,28.85,0,0,1,.81-7.16,20.06,20.06,0,0,1,2.42-5.69,11.51,11.51,0,0,1,4.37-4,13,13,0,0,1,6.33-1.5q8.88,0,8.89,7.57c0,3.22-1.09,5.44-3.25,6.66S529.58,303,524.53,303h-1.78A8.66,8.66,0,0,0,522.6,304.86Zm3-6.93a11,11,0,0,0,4.9-.77,2.7,2.7,0,0,0,1.4-2.59c0-1.45-.85-2.18-2.54-2.18-3,0-5,1.84-5.84,5.54Z"/><path class="cls-1" d="M548.26,313.48a6.56,6.56,0,0,1-5.46-2.34c-1.24-1.56-1.85-3.78-1.85-6.66a24.32,24.32,0,0,1,1.39-8.23,16.17,16.17,0,0,1,4.4-6.63,10.08,10.08,0,0,1,7-2.72,23.67,23.67,0,0,1,5.08.81l1,.26,2.49-10.68h6.81l-8.23,35.58h-6.61l.46-2.65a10.35,10.35,0,0,1-2.95,2.21A7.54,7.54,0,0,1,548.26,313.48Zm10.37-20.08a21.66,21.66,0,0,0-4.8-.71,4,4,0,0,0-3.25,2,13.85,13.85,0,0,0-2.06,4.65,20.91,20.91,0,0,0-.66,5.08c0,2.17.86,3.25,2.59,3.25a4.78,4.78,0,0,0,2.26-.91,18.22,18.22,0,0,0,2.47-1.83l1-.92Z"/><path class="cls-1" d="M567.68,319.47H562L568,305.09h7.47Z"/><path class="cls-1" d="M610.11,278.31q9,0,9,7.47a9.63,9.63,0,0,1-1.42,5.44,13.29,13.29,0,0,1-4.27,3.86,6.51,6.51,0,0,1,2.65,2.54,8.15,8.15,0,0,1,.66,3.46,11.12,11.12,0,0,1-3.54,8.43q-3.53,3.36-10.08,3.36h-13l8-34.56Zm-3.86,20.07H600.5l-2,8.49h6a4.63,4.63,0,0,0,3.66-1.58,6,6,0,0,0,1.37-4.06Q609.55,298.38,606.25,298.38ZM609,284.31h-5.23l-1.94,8.23h5.24a4.65,4.65,0,0,0,3.51-1.5A5.39,5.39,0,0,0,612,287.2C612,285.27,611,284.31,609,284.31Z"/><path class="cls-1" d="M627.59,313.48q-6.2,0-6.2-7.17a31.32,31.32,0,0,1,1.07-6.4l2.84-12.45h6.81l-2.74,11.94a27.29,27.29,0,0,0-.92,5.28,4.28,4.28,0,0,0,.44,2.19,1.5,1.5,0,0,0,1.39.71c1.15,0,2.58-.76,4.27-2.29l.81-.76,3.92-17.07h6.81l-5.85,25.41h-6.5l.3-2.49a11.83,11.83,0,0,1-3.07,2.13A7.73,7.73,0,0,1,627.59,313.48Z"/><path class="cls-1" d="M655.44,313.48a6.56,6.56,0,0,1-5.47-2.34,10.54,10.54,0,0,1-1.85-6.66,24.32,24.32,0,0,1,1.4-8.23,16.05,16.05,0,0,1,4.39-6.63,10.09,10.09,0,0,1,7-2.72,23.76,23.76,0,0,1,5.08.81l1,.26,2.49-10.68h6.81l-8.23,35.58h-6.6l.45-2.65a10.35,10.35,0,0,1-3,2.21A7.5,7.5,0,0,1,655.44,313.48ZM665.8,293.4a21.58,21.58,0,0,0-4.8-.71,4,4,0,0,0-3.25,2,14.05,14.05,0,0,0-2.06,4.65,20.91,20.91,0,0,0-.66,5.08c0,2.17.87,3.25,2.59,3.25a4.75,4.75,0,0,0,2.26-.91,18.22,18.22,0,0,0,2.47-1.83l1-.92Z"/><path class="cls-1" d="M674.85,319.47h-5.64l5.94-14.38h7.48Z"/><path class="cls-1" d="M717.28,278.31q9,0,9.05,7.47a9.63,9.63,0,0,1-1.43,5.44,13.24,13.24,0,0,1-4.26,3.86,6.41,6.41,0,0,1,2.64,2.54,8,8,0,0,1,.66,3.46,11.15,11.15,0,0,1-3.53,8.43q-3.54,3.36-10.09,3.36h-13l8-34.56Zm-3.86,20.07h-5.74l-2,8.49h6a4.6,4.6,0,0,0,3.66-1.58,5.92,5.92,0,0,0,1.37-4.06Q716.72,298.38,713.42,298.38Zm2.74-14.07h-5.23L709,292.54h5.23a4.65,4.65,0,0,0,3.51-1.5,5.35,5.35,0,0,0,1.42-3.84C719.16,285.27,718.16,284.31,716.16,284.31Z"/><path class="cls-1" d="M726.94,312.87l8.18-35.58h6.81l-8.18,35.58Z"/><path class="cls-1" d="M754.48,286.9q10,0,10,9.6a22.92,22.92,0,0,1-1.37,7.88,15.58,15.58,0,0,1-4.4,6.43,10.34,10.34,0,0,1-7.08,2.67q-10,0-10-9.61A21.56,21.56,0,0,1,743.1,296a16.11,16.11,0,0,1,4.5-6.45A10.16,10.16,0,0,1,754.48,286.9Zm-2.84,20.78c1.82,0,3.3-1.16,4.42-3.48a17.85,17.85,0,0,0,1.67-7.8q0-3.7-3.25-3.71-2.75,0-4.42,3.48a17.71,17.71,0,0,0-1.68,7.8C748.38,306.45,749.47,307.68,751.64,307.68Z"/><path class="cls-1" d="M780.7,286.9q10,0,10,9.6a22.68,22.68,0,0,1-1.37,7.88,15.55,15.55,0,0,1-4.39,6.43,10.38,10.38,0,0,1-7.09,2.67q-10,0-10-9.61a21.76,21.76,0,0,1,1.47-7.88,16.11,16.11,0,0,1,4.5-6.45A10.16,10.16,0,0,1,780.7,286.9Zm-2.84,20.78q2.75,0,4.42-3.48a17.71,17.71,0,0,0,1.67-7.8q0-3.7-3.25-3.71-2.75,0-4.42,3.48a17.71,17.71,0,0,0-1.68,7.8C774.6,306.45,775.69,307.68,777.86,307.68Z"/><path class="cls-1" d="M809.47,300.92a27.85,27.85,0,0,0,.91-5.28,4.34,4.34,0,0,0-.43-2.19,1.53,1.53,0,0,0-1.4-.71c-1.12,0-2.52.76-4.22,2.29l-.81.76-3.91,17.08H792.8l5.84-25.41h6.51l-.26,2.44a11,11,0,0,1,4.52-2.75,9.52,9.52,0,0,1,2.54-.3,4.82,4.82,0,0,1,2.8.91,4.38,4.38,0,0,1,1.68,1.83l.35.87c.31-.28.71-.61,1.22-1a16.08,16.08,0,0,1,2.87-1.6,9.18,9.18,0,0,1,3.84-1q6.1,0,6.1,7.16a29.84,29.84,0,0,1-1,6.41L827,312.87h-6.81L823,300.92a27.35,27.35,0,0,0,.92-5.23,4.77,4.77,0,0,0-.41-2.19,1.42,1.42,0,0,0-1.34-.76,4.47,4.47,0,0,0-2.19.74A11.57,11.57,0,0,0,818,295l-.81.71a43.14,43.14,0,0,1-.76,4.73l-2.85,12.45h-6.81Z"/><path class="cls-1" d="M830.86,312.87l1.78-7.78h6.91l-1.78,7.78Z"/></g></svg>