<svg id="wallflower" xmlns="http://www.w3.org/2000/svg" viewBox="0 0 872.23 322.94"><defs><style>.cls-1{fill:#c4491e;}</style></defs><path class="cls-1" d="M116.26,148.24c-7.43-11.79-12.79-34.8-15.77-48.42-1.23-5.67-2-11.7-.14-17.18a42,42,0,0,1,8.87-13.9,2.9,2.9,0,0,0-2.06-4.87L94.43,62.75a4.94,4.94,0,0,0-4.6,7l20.24,95.74a8.72,8.72,0,0,0,2.17,3.3c1.59,1.29,3.83,1.32,5.88,1.28,9-.18,5.94,2,14.91,1.6a5.17,5.17,0,0,0,3.13-.82,5.05,5.05,0,0,0,1.34-2.36c8.26-23.69,13.33-48.46,22.68-71.74,4.68-11.66,11.69-22.15,18-32.94a79.55,79.55,0,0,1,21.29-23.6c5-3.73,23.83-9.13,22.35-4.54-2,6.33,5.91,13.53,11.16,15.44,6.6,2.39,14.83.11,19.48-5.1,7.4-8.28,5.2-20.28-1.81-28-10.87-12-28.3-9.38-41.28-2.85C193.88,23,181,35.32,170.91,49.37,158.56,66.63,156.52,71,148.36,90.62c-4.24,10.2-14.25,44.35-21.34,58.72C126.77,149.85,125.37,158.54,116.26,148.24Z"/><path class="cls-1" d="M2.76,70.21c-4.14-1.77-3.47-8,1-8.63a3.42,3.42,0,0,1,.45,0c16.77-.91,18.18-1,37.54-.41a6.68,6.68,0,0,1,3.93,1c1.81,1.4,1.77,5.15,2.35,7.37C54.7,95.26,61.12,114,73,135.1c1.32,2.33,3.22-.23,4.07-1.54,2.37-3.68,4.49-7.48,7.16-11,.75-1,7.49-10.67,8-10.47,3.15,1.19,5.44,6.82,4.35,10s-3.55,5.65-5.5,8.38c-7,9.71-12.63,25.66-15.26,37.31v.08c-.86,3.8-4.21,5.33-8.11,5.4l-21.6.19c-3.67.07-7-.67-8.44-4.06l-6.86-31.21c-1.39-9.11-13.62-45.85-20.35-60.84a13.49,13.49,0,0,0-7-6.85Z"/><path class="cls-1" d="M162.45,68c4.18-4,9.11-11.32,16.18-7.74a1.3,1.3,0,0,1,.11,2.43c-23.94,16.13-31.45,62.79-38.4,96.52-.83,4.06-3,11.4-4.92,13.09-1.26,1.08-3.79.95-5.44,1-9.44.3-8.77.11-19,.15a10.52,10.52,0,0,1-6.79-2,6.64,6.64,0,0,1-2.15-3.64C93.91,132.13,82.09,70.75,71,67.34c-1-.3-1.28-1.59-1.4-2.59-.29-2.4,1.68-3.23,10.92-3.45l33-.75c4.35.12,7-.33,9.3-.11s4.11,3,2.48,4.5c-5.31,4.81-6.53,10.94-5.86,14.56,3.13,16.85,3.24,30,9.87,55.68a1.38,1.38,0,0,0,2.64.12C136.66,122.13,151.22,78.89,162.45,68Z"/><path class="cls-1" d="M572,159.13c-3.28-1.41-2.75-6.35.78-6.83a2.19,2.19,0,0,1,.36,0,234.17,234.17,0,0,1,29.68-.32,5.27,5.27,0,0,1,3.11.76c1.43,1.11,1.4,4.08,1.85,5.83,5.29,20.39,10.36,35.2,19.77,51.9,1,1.84,2.55-.19,3.22-1.23,1.88-2.9,3.55-5.91,5.66-8.66.6-.77,5.92-8.44,6.36-8.28,2.49.94,4.3,5.39,3.44,7.91s-2.81,4.47-4.35,6.63c-5.51,7.67-10,20.28-12.06,29.5l0,.06c-.68,3-3.32,4.21-6.41,4.27l-17.07.15c-2.91.05-5.56-.53-6.68-3.21l-5.42-24.68c-1.1-7.2-10.77-36.26-16.1-48.1a10.61,10.61,0,0,0-5.53-5.42Z"/><path class="cls-1" d="M698.22,157.4c3.31-3.19,7.2-9,12.8-6.12a1,1,0,0,1,.08,1.93c-18.92,12.75-24.86,49.64-30.36,76.31-.66,3.21-2.33,9-3.89,10.35-1,.85-3,.75-4.3.79-7.46.24-6.93.09-15,.12a8.3,8.3,0,0,1-5.37-1.55,5.26,5.26,0,0,1-1.7-2.88c-6.46-28.26-15.81-76.8-24.56-79.5-.77-.23-1-1.25-1.11-2-.24-1.89,1.32-2.54,8.63-2.72l26.1-.59c3.44.09,5.51-.26,7.36-.09s3.24,2.39,2,3.56c-4.21,3.8-5.17,8.64-4.63,11.51,2.46,13.32,2.55,23.75,7.79,44a1.1,1.1,0,0,0,2.09.1C677.83,200.17,689.35,166,698.22,157.4Z"/><path class="cls-1" d="M560.27,160.47a50.19,50.19,0,0,0-26.6-8.51c-25.25-.67-45.4,12.88-50.19,39s5.89,45,31.11,51.12c29.88,7.29,63.71-9.58,63.44-44.18C577.91,182.72,572.72,168.8,560.27,160.47Zm-34.86,72.37c-10.08,9.25-11-11.4-10.77-17.5a79.2,79.2,0,0,1,7.16-29.88c2.59-5.63,13.42-23.87,19.26-22.33,4.11,1.08,3.82,5.83,3.87,11.11C545.1,194.47,542,217.66,525.41,232.84Z"/><path class="cls-1" d="M778.77,210c-14.51,10.54-33.81,15.8-48.25,3.08a22.49,22.49,0,0,1-6.49-9.38,3.29,3.29,0,0,1,2.79-4.15c15.64-1.93,32.14-6,47.18-10.07,3.72-1,6.4-1.34,8.07-4.82,3.1-6.47-5.84-16.62-10.29-20.57a43.78,43.78,0,0,0-21.5-10.85c-13.55-2.49-28-.18-38,9.65-11.78,11.62-18.5,29.24-15.65,45.53a42.31,42.31,0,0,0,5.5,15c6.61,10.68,21.65,17.22,34.19,17.9s26.41-2.79,36.15-10.72c5.27-4.3,10.16-11.52,10.55-18.37A2.67,2.67,0,0,0,778.77,210ZM723,185.93a22,22,0,0,1,2.22-9.4,28.58,28.58,0,0,1,6-7.55,14.21,14.21,0,0,1,8.85-3.52c4.1,0,7.94,2.28,10.72,5.3s4.66,6.74,6.51,10.4a3.49,3.49,0,0,1,.51,2.9,3.43,3.43,0,0,1-2.49,1.54,188.84,188.84,0,0,1-28.9,5.19,4.07,4.07,0,0,1-2.54-.31C722.54,189.62,723.06,187.59,723,185.93Z"/><path class="cls-1" d="M800.06,153.71c-2.62.14-5.24.24-7.86.27-1.69,0-3.79,0-5.28.88a2.78,2.78,0,0,0-1.29,2.2,8.47,8.47,0,0,0,.42,3.54c8.44,22.7,8.85,50.79,1.34,74.22A4.74,4.74,0,0,0,792,241c12.2-.17,20.77,0,29.11-.26a3.48,3.48,0,0,0,3.08-4.89c-6.31-14.45-7.38-32.69-2.8-47.44,2.66-8.59,9.4-17.84,18.31-16.65-2.51,4.1-2.95,9.6-.46,13.71a14.22,14.22,0,0,0,9.69,6.22,20.06,20.06,0,0,0,19.37-8,22.28,22.28,0,0,0,2.34-21,23.78,23.78,0,0,0-21.29-14.5c-14.49-.14-25.39,12.58-34.09,24.16a27.89,27.89,0,0,1,5.18-12.89,4.78,4.78,0,0,0-.77-6.44c-1.31-1.11-2.92-1-4.52-.87C807.6,152.63,807.6,153.31,800.06,153.71Z"/><path class="cls-1" d="M191.74,108.8a7.25,7.25,0,0,0-1.76-3.17c-1.59-1.69-4.15-2.3-4.09-5,.17-7.05,8.86-8.41,14.82-8.07,11.52.65,18.43,9.84,18.26,20.4-.25,16.25-.5,29.31-.75,45.56-.09,5.84-1.18,12.35,4.38,14.9a15,15,0,0,0,6.94,1.17c6,0,14.16.62,18.66.58s7.19-.78,6.81-3.34c-.14-.95-.46-2-4-3.67-8.67-3.92-7.15-20.9-6.83-38.91.2-11.23-4-27-13.45-34.22-18.9-14.6-43.09-13.45-56.26,4.36-4.53,6.13-7.82,16.93,1.64,21C184.81,124.2,194.21,118.25,191.74,108.8Z"/><path class="cls-1" d="M225,156.26q-2.07-7.83-4.15-15.66l-1.39-19.52a34.32,34.32,0,0,1-7.9,2.45c-10.53,2.16-20.93,3-30.65,7.84-9,4.49-15.92,11.94-16.13,21.92-.16,7.89,3.83,16.35,11.9,19.51,8.66,3.4,19.76,2.62,28.16-1.18,1.28-.58,12.83-6.9,13.33-5.61.66,1.73,6.93-5.85,7.13-6.79A6.38,6.38,0,0,0,225,156.26ZM208.9,131.59c3-1.13,9.33-2.74,7.25,5.19-1.65,6.25-2.55,14.21-8,18.09-2.6,1.86-6.15,2.16-9.35,1.56-3.93-.74-7.7-2.85-9.67-6.16s-1.76-7.84,1-10.58a15.17,15.17,0,0,1,4.63-2.83Z"/><path class="cls-1" d="M178.91,93.11a30.39,30.39,0,0,0-8.46,11.57c-2,4.6-2,10.77.93,14.87,2.7,3.75,6.94,5.44,11.72,5.67,7.11.34,11.59-2.86,13.9-9.22s-1.33-14.35-8.26-15.49a.13.13,0,0,1-.1-.18c2.5-4.59,11-6.26,16.87-5.52,10.81,1.36,16.38,11.89,11.07,30,11,.12,3.56-32.15,4-35.94C220.54,88.91,197.89,76.85,178.91,93.11Z"/><path class="cls-1" d="M384.12,200.27A96.7,96.7,0,0,0,406.58,202a10.34,10.34,0,0,0,4.17-.77c3.41-1.64,3.51-6.9,3.35-10.69s-.47-8.09.76-11.39c1.29-3.49,3.56-3.74,8.9-4.25a35.87,35.87,0,0,0,7.22-1.46c3-.91,6.19-3.34,5.76-8.43-.29-3.48-3.25-4.53-9.54-4.44s-12.44-.74-13.85-12.1"/><path class="cls-1" d="M373.51,141.57a115.58,115.58,0,0,0-1,18c0,3.46-3.28,3.24-6.09,3.89-3.06.72-6.33,1.56-8.42,3.91s-2.14,6.74.68,8.14c1.65.82,3.6.37,5.44.29,12.36-.52,13.79,1.37,14.61,17.78l1.94,67.88c.42,12.61,6.59,50.15-14.81,51.91-13.37,1.1-18.45-5.53-21.15-13.75-1.4-4.29-1.39-12.29,3.4-14.18a.31.31,0,0,1,.41.37c-.35,1.34,1.38,4.15,1.75,4.82,2.58,4.69,9.18,5.38,13.87,3.93,3.48-1.07,7.19-3.28,8.83-6.08,3.64-6.23,3.09-14.59-.52-20.7-7.31-12.37-28.5-10.3-36.67,0a34,34,0,0,0-7.13,18.64c-1,15,12.06,27.89,25.07,33.14,14.73,5.94,32.28,3.73,45.56-5,13.44-8.82,16.7-24.36,17.24-39.85,1-28.32-1-56.93-2.41-85.2-1.11-21.93-.61-43.9-.52-65.86a50.79,50.79,0,0,1,1.39-12,35.51,35.51,0,0,1,18.47-22.24c21.69-9.94,49.78-6.28,58.48,18.6,1.1,3.15-2.14.25-5.88,3-9.58,7.19-9.46,19.18-1.15,27.58a22.35,22.35,0,0,0,28.39,3c13.38-8.83,12.8-26.92,4.58-39C508.63,89.05,489.58,79,473.67,76.42c-22.64-3.61-45-.42-65.25,10.85-24.89,13.87-35.51,38.88-36,66.18"/><path class="cls-1" d="M294.46,78.62c-.15-16.17,1.2-22.23.72-24.33-.44-1.95-2.75-2.59-4.25-2.43l-21.62.24c-1.59,0-3.57-.07-5,1.24a4.59,4.59,0,0,0-1.21,3.1,31.53,31.53,0,0,0,.68,4.47,112.65,112.65,0,0,1,2,19.9s.83,82.16.84,82.82c0,2.87-2.3,5.21-4.3,7-1.28,1.11-3.13,3.12-.77,4.21l32.66.41c1.43,0,6.67.35,7.13-1,.56-1.69-1.68-3.69-3.17-5-2.64-2.31-2.47-3.7-2.58-8.23Z"/><path class="cls-1" d="M340.13,78.62c-.16-16.17,1.19-22.23.71-24.33-.43-1.95-2.75-2.59-4.25-2.43L315,52.1c-1.6,0-3.57-.07-5,1.24a4.54,4.54,0,0,0-1.21,3.1,31,31,0,0,0,.67,4.47,111.72,111.72,0,0,1,2,19.9s.84,82.16.85,82.82c0,2.87-2.3,5.21-4.31,7-1.28,1.11-3.12,3.12-.77,4.21l32.67.41c1.43,0,6.66.35,7.12-1,.57-1.69-1.67-3.69-3.16-5-2.65-2.31-2.47-3.7-2.59-8.23Z"/><path class="cls-1" d="M471.55,147.14c-.16-16.17,1.19-22.23.72-24.34-.44-1.94-2.75-2.59-4.26-2.43l-21.61.25c-1.59,0-3.57-.07-5,1.24a4.54,4.54,0,0,0-1.21,3.1,31.2,31.2,0,0,0,.67,4.47,111.72,111.72,0,0,1,2,19.9s.84,82.16.85,82.82c0,2.87-2.3,5.21-4.31,6.95-1.28,1.11-3.12,3.12-.76,4.21l32.66.4c1.43,0,6.66.36,7.12-1,.57-1.68-1.67-3.68-3.16-5-2.65-2.3-2.47-3.7-2.59-8.22Z"/><path class="cls-1" d="M323.29,198.47c1.28-2.2,4.22-3.43,7-3.14A7.71,7.71,0,0,1,335,198.2a10.18,10.18,0,0,1,2.55,4.34c.79,3.41-1.87,7.21-5.49,7.86-5.06.91-8.65-4.42-9.37-8.57A5,5,0,0,1,323.29,198.47Z"/><path class="cls-1" d="M348.12,201a4.68,4.68,0,0,1,4.46-2,4.84,4.84,0,0,1,3,1.82,6.4,6.4,0,0,1,1.62,2.75,4.36,4.36,0,0,1-3.48,5c-3.21.58-5.48-2.8-5.94-5.44A3.12,3.12,0,0,1,348.12,201Z"/><path class="cls-1" d="M185.32.12a4.69,4.69,0,0,1,4.59,1.7,4.86,4.86,0,0,1,.85,3.37,6.41,6.41,0,0,1-.76,3.1,4.35,4.35,0,0,1-6,1.14c-2.7-1.83-2-5.84-.46-8A3.17,3.17,0,0,1,185.32.12Z"/><path class="cls-1" d="M167,9.72a4.17,4.17,0,0,1,4.1,1.51,4.36,4.36,0,0,1,.76,3,5.6,5.6,0,0,1-.68,2.77,3.9,3.9,0,0,1-5.34,1c-2.42-1.64-1.76-5.22-.41-7.19A2.8,2.8,0,0,1,167,9.72Z"/><path class="cls-1" d="M815.41,125a4.66,4.66,0,0,1,3.51,3.39,4.9,4.9,0,0,1-.57,3.44,6.53,6.53,0,0,1-2,2.53,4.35,4.35,0,0,1-5.92-1.37c-1.74-2.76.54-6.13,2.82-7.54A3.09,3.09,0,0,1,815.41,125Z"/><path class="cls-1" d="M794.76,126.39a4.17,4.17,0,0,1,3.15,3,4.36,4.36,0,0,1-.52,3.07,5.75,5.75,0,0,1-1.74,2.26,3.89,3.89,0,0,1-5.3-1.22c-1.55-2.47.49-5.48,2.52-6.74A2.74,2.74,0,0,1,794.76,126.39Z"/></svg>