<?xml version="1.0" encoding="utf-8"?>
<!-- Generator: Adobe Illustrator 22.1.0, SVG Export Plug-In . SVG Version: 6.00 Build 0)  -->
<svg version="1.1" id="Layer_1" xmlns="http://www.w3.org/2000/svg" xmlns:xlink="http://www.w3.org/1999/xlink" x="0px" y="0px"
	 viewBox="0 0 333.9 324.5" style="enable-background:new 0 0 333.9 324.5;" xml:space="preserve">
<style type="text/css">
	.st0{fill:#FFDDD0;}
</style>
<g>
	<path class="st0" d="M117.6,150.3c-7.4-11.8-12.8-34.8-15.8-48.4c-1.2-5.7-2-11.7-0.1-17.2c2-5.2,5-9.9,8.9-13.9
		c1.1-1.2,1-3-0.2-4.1c-0.5-0.5-1.2-0.8-1.9-0.8l-12.7-1.1c-2.7-0.1-5,2.1-5,4.8c0,0.7,0.1,1.5,0.4,2.2l20.2,95.7
		c0.5,1.3,1.2,2.4,2.2,3.3c1.6,1.3,3.8,1.3,5.9,1.3c9-0.2,5.9,2,14.9,1.6c1.1,0.1,2.2-0.2,3.1-0.8c0.7-0.6,1.1-1.5,1.3-2.4
		c8.3-23.7,13.3-48.5,22.7-71.7c4.7-11.7,11.7-22.2,18-32.9c5.4-9.2,12.7-17.2,21.3-23.6c5-3.7,23.8-9.1,22.4-4.5
		c-2,6.3,5.9,13.5,11.2,15.4c6.6,2.4,14.8,0.1,19.5-5.1c7.4-8.3,5.2-20.3-1.8-28c-10.9-12-28.3-9.4-41.3-2.9
		c-15.5,7.8-28.4,20.2-38.5,34.2c-12.4,17.3-14.4,21.6-22.6,41.3c-4.2,10.2-14.2,44.3-21.3,58.7
		C128.1,151.9,126.7,160.6,117.6,150.3z"/>
	<path class="st0" d="M4.1,72.2c-4.1-1.8-3.5-8,1-8.6c0.1,0,0.3,0,0.5,0c16.8-0.9,18.2-1,37.5-0.4c1.4-0.1,2.8,0.3,3.9,1
		c1.8,1.4,1.8,5.2,2.3,7.4c6.7,25.7,13.1,44.5,25,65.6c1.3,2.3,3.2-0.2,4.1-1.5c2.4-3.7,4.5-7.5,7.2-11c0.8-1,7.5-10.7,8-10.5
		c3.2,1.2,5.4,6.8,4.3,10s-3.6,5.6-5.5,8.4c-7,9.7-12.6,25.7-15.3,37.3v0.1c-0.9,3.8-4.2,5.3-8.1,5.4l-21.6,0.2
		c-3.7,0.1-7-0.7-8.4-4.1l-6.9-31.2c-1.4-9.1-13.6-45.8-20.4-60.8c-1.4-3.1-3.9-5.5-7-6.8L4.1,72.2z"/>
	<path class="st0" d="M163.8,70c4.2-4,9.1-11.3,16.2-7.7c0.7,0.2,1.1,1,0.8,1.6c-0.1,0.4-0.4,0.6-0.7,0.8
		c-23.9,16.1-31.4,62.8-38.4,96.5c-0.8,4.1-3,11.4-4.9,13.1c-1.3,1.1-3.8,0.9-5.4,1c-9.4,0.3-8.8,0.1-19,0.1c-2.4,0.1-4.8-0.6-6.8-2
		c-1.1-0.9-1.8-2.2-2.2-3.6c-8.1-35.7-19.9-97.1-31-100.5c-1-0.3-1.3-1.6-1.4-2.6c-0.3-2.4,1.7-3.2,10.9-3.5l33-0.8
		c4.3,0.1,7-0.3,9.3-0.1s4.1,3,2.5,4.5c-5.3,4.8-6.5,10.9-5.9,14.6c3.1,16.8,3.2,30,9.9,55.7c0.2,0.7,0.9,1.2,1.7,1
		c0.4-0.1,0.8-0.4,1-0.9C138,124.1,152.5,80.9,163.8,70z"/>
	<path class="st0" d="M192.4,199.3c7.4,1.4,14.9,2,22.5,1.7c1.4,0,2.8-0.2,4.2-0.8c3.4-1.6,3.5-6.9,3.4-10.7s-0.5-8.1,0.8-11.4
		c1.3-3.5,3.6-3.7,8.9-4.2c2.5-0.2,4.9-0.7,7.2-1.5c3-0.9,6.2-3.3,5.8-8.4c-0.3-3.5-3.2-4.5-9.5-4.4s-12.4-0.7-13.9-12.1"/>
	<path class="st0" d="M181.8,140.6c-0.8,6-1.1,12-1,18c0,3.5-3.3,3.2-6.1,3.9c-3.1,0.7-6.3,1.6-8.4,3.9s-2.1,6.7,0.7,8.1
		c1.6,0.8,3.6,0.4,5.4,0.3c12.4-0.5,13.8,1.4,14.6,17.8l1.9,67.9c0.4,12.6,6.6,50.1-14.8,51.9c-13.4,1.1-18.5-5.5-21.1-13.8
		c-1.4-4.3-1.4-12.3,3.4-14.2c0.2-0.1,0.3,0,0.4,0.2c0,0.1,0,0.1,0,0.2c-0.4,1.3,1.4,4.1,1.8,4.8c2.6,4.7,9.2,5.4,13.9,3.9
		c3.5-1.1,7.2-3.3,8.8-6.1c3.6-6.2,3.1-14.6-0.5-20.7c-7.3-12.4-28.5-10.3-36.7,0c-4.2,5.4-6.7,11.9-7.1,18.6
		c-1,15,12.1,27.9,25.1,33.1c14.7,5.9,32.3,3.7,45.6-5c13.4-8.8,16.7-24.4,17.2-39.9c1-28.3-1-56.9-2.4-85.2
		c-1.1-21.9-0.6-43.9-0.5-65.9c0-4,0.5-8.1,1.4-12c2.7-9.7,9.4-17.8,18.5-22.2c21.7-9.9,49.8-6.3,58.5,18.6c1.1,3.2-2.1,0.2-5.9,3
		c-9.6,7.2-9.5,19.2-1.1,27.6c7.5,7.7,19.4,9,28.4,3c13.4-8.8,12.8-26.9,4.6-39C316.9,88.1,297.9,78,282,75.4
		c-22.6-3.6-45-0.4-65.3,10.8c-24.9,13.9-35.5,38.9-36,66.2"/>
	<path class="st0" d="M131.6,197.5c1.3-2.2,4.2-3.4,7-3.1c1.9,0.3,3.5,1.4,4.7,2.9c1.2,1.2,2.1,2.7,2.5,4.3c0.8,3.4-1.9,7.2-5.5,7.9
		c-5.1,0.9-8.6-4.4-9.4-8.6C130.8,199.7,131,198.5,131.6,197.5z"/>
	<path class="st0" d="M156.4,200c1-1.5,2.7-2.2,4.5-2c1.2,0.2,2.3,0.9,3,1.8c0.8,0.8,1.3,1.7,1.6,2.8c0.4,2.3-1.2,4.6-3.5,5
		c-3.2,0.6-5.5-2.8-5.9-5.4C156,201.4,156.1,200.7,156.4,200z"/>
	<path class="st0" d="M186.6,2.1c1.7-0.3,3.5,0.3,4.6,1.7c0.7,1,1,2.2,0.9,3.4c0,1.1-0.2,2.1-0.8,3.1c-1.4,2-4,2.5-6,1.1
		c-2.7-1.8-2-5.8-0.5-8C185.3,2.8,185.9,2.3,186.6,2.1z"/>
	<path class="st0" d="M168.3,11.7c1.5-0.3,3.1,0.3,4.1,1.5c0.6,0.9,0.9,1.9,0.8,3c0,1-0.2,1.9-0.7,2.8c-1.2,1.7-3.6,2.2-5.3,1
		c-2.4-1.6-1.8-5.2-0.4-7.2C167.1,12.3,167.7,11.9,168.3,11.7z"/>
</g>
</svg>
