<svg width="379" height="271" viewBox="0 0 379 271" fill="none" xmlns="http://www.w3.org/2000/svg">
<path d="M137.636 199.278C103.756 192.901 68.1965 198.107 36.9373 213.867C34.3592 215.169 34.7122 219.346 37.4616 220.115C52.5349 224.362 68.3677 225.344 83.7727 222.943C67.0305 226.445 49.6036 230.314 35.1294 239.72C31.5028 242.075 32.9256 248.251 37.1192 248.405C61.3392 249.328 85.6983 245.885 108.923 238.23L81.387 252.712C79.44 253.73 80.3386 256.972 82.4675 256.64C96.3534 254.416 109.982 250.322 122.97 244.441L112.432 256.699C109.972 259.563 112.464 264.236 115.909 263.195C124.671 260.545 133.208 256.972 141.349 252.523L138.642 258.332C136.492 262.947 144.59 267.478 147.372 268.685C155.021 271.986 164.017 268.543 171.699 267.064C175.389 266.354 179.219 265.29 182.118 262.568C184.226 260.592 187.852 255.694 184.397 253.15L176.887 247.624C188.697 254.132 200.893 259.776 213.367 264.509C215.068 265.159 216.48 262.935 215.367 261.373L211.077 255.362C221.69 263.16 234.763 266.721 247.439 265.396C250.114 265.112 251.355 261.586 249.568 259.373C247.086 256.285 244.038 253.741 240.657 251.978C263.839 253.398 287.236 250.133 309.38 242.394C312.194 241.412 312.215 237.035 309.423 235.946C303.807 233.769 297.955 232.349 292.028 231.734C319.533 231.947 363.854 228.48 377.098 223.806C378.938 223.156 379.633 220.612 378.328 219.038C376.467 216.79 372.434 215.737 369.278 215.82C346.962 216.388 324.657 216.956 302.341 217.523C326.679 216.293 350.781 209.773 372.915 198.497C375.793 197.03 374.776 192.238 371.599 192.321L143.231 198.616" fill="#EAA524"/>
<path d="M107.372 208.082C106.57 207.383 105.917 206.425 105.543 205.526C104.869 203.917 105.457 202.284 106.613 201.16C108.142 199.681 110.806 198.959 112.603 200.296C115.738 202.639 113.192 209.3 109.651 209.135C108.838 209.099 108.057 208.685 107.372 208.082Z" fill="white"/>
<path d="M86.8643 207.466C86.3722 207.028 85.955 206.437 85.7304 205.881C85.3132 204.875 85.6769 203.869 86.3936 203.171C87.3457 202.248 89.0039 201.799 90.1165 202.639C92.0635 204.094 90.4802 208.235 88.2765 208.129C87.7737 208.093 87.2816 207.833 86.8643 207.466Z" fill="white"/>
<path d="M370.401 222.351C370.037 222.031 369.738 221.594 369.567 221.179C369.256 220.446 369.524 219.689 370.059 219.18C370.765 218.505 371.984 218.174 372.808 218.789C374.242 219.866 373.075 222.919 371.449 222.836C371.075 222.812 370.711 222.623 370.401 222.351Z" fill="white"/>
<path d="M177.09 259.326C176.598 258.888 176.181 258.297 175.956 257.741C175.539 256.735 175.903 255.729 176.62 255.031C177.572 254.108 179.23 253.659 180.342 254.499C182.289 255.954 180.706 260.095 178.502 259.989C178.01 259.965 177.518 259.705 177.09 259.326Z" fill="white"/>
<path d="M169.805 263.03C169.409 262.675 169.077 262.201 168.885 261.752C168.553 260.947 168.842 260.131 169.42 259.563C170.19 258.817 171.517 258.462 172.415 259.137C173.988 260.308 172.704 263.645 170.939 263.562C170.543 263.538 170.147 263.325 169.805 263.03Z" fill="white"/>
<path d="M333.98 62.8733C333.866 63.1461 333.751 63.4188 333.637 63.6916C333.918 63.0141 333.584 63.8236 333.514 63.9731C333.32 64.4307 332.027 67.2463 331.587 68.2054C318.177 97.8134 297.579 102.239 277.5 115.552C253.761 131.284 239.859 152.128 232.908 179.88C229.855 192.084 228.236 204.93 229.591 217.495C229.776 219.193 230.884 220.645 232.741 220.645C234.316 220.645 236.076 219.184 235.891 217.495C235.574 214.538 235.416 211.564 235.416 208.59C235.416 196.096 237.818 184.007 241.733 172.023C248.077 152.604 258.046 137.954 275.151 126.506C289.484 116.907 305.665 109.991 318.177 97.8134C331.736 84.6064 340.298 67.6071 345.243 49.4375L333.98 62.8733Z" fill="#EAA524"/>
<path d="M301.347 131.971C279.922 136.696 264.488 143.779 252.064 161.86C246.75 169.586 238.171 191.768 240.036 202.141C246.028 193.818 253.807 187.834 268.061 185.811C277.044 184.535 286.477 186.497 295.055 183.558C303.951 180.514 311.14 173.457 315.522 165.142C319.903 156.827 322.068 133.819 322.27 124.421C322.27 124.421 314.272 129.12 301.347 131.971Z" fill="#EAA524"/>
<path d="M312.458 132.41C309.59 138.939 305.885 145.125 300.87 150.228C296.647 154.522 291.464 158.059 285.877 160.329C282.208 161.825 278.345 162.722 274.57 163.884C270.822 165.045 267.162 166.506 263.677 168.301C257.078 171.688 251.042 176.396 246.678 182.432C242.851 187.72 240.22 193.941 239.639 200.478C239.569 201.296 239.516 202.123 239.507 202.951C239.49 204.103 241.276 204.024 241.293 202.871C241.399 196.431 243.643 190.192 247.171 184.851C251.157 178.815 256.858 174.082 263.158 170.606C266.564 168.732 270.162 167.219 273.858 166.004C277.553 164.79 281.354 163.919 285.006 162.59C290.866 160.452 296.321 156.994 300.861 152.736C305.903 148.011 309.792 142.168 312.784 135.974C313.224 135.068 313.637 134.153 314.042 133.238C314.526 132.173 312.924 131.355 312.458 132.41Z" fill="#003A30"/>
<path d="M293.857 174.275C288.437 172.832 282.947 171.644 277.421 170.72C276.286 170.527 275.908 172.278 277.043 172.471C282.577 173.404 288.059 174.592 293.479 176.026C294.597 176.325 294.966 174.574 293.857 174.275Z" fill="#003A30"/>
<path d="M279.04 178.825C273.717 177.039 268.191 175.956 262.586 175.561C262.103 175.525 261.715 176.053 261.733 176.493C261.759 177.021 262.182 177.311 262.666 177.347C268.112 177.734 273.497 178.834 278.662 180.567C279.119 180.725 279.63 180.312 279.727 179.881C279.841 179.37 279.498 178.974 279.04 178.825Z" fill="#003A30"/>
<path d="M262.261 182.115C260.58 182.062 258.9 182.036 257.219 182.115C255.653 182.186 254.087 182.309 252.521 182.397C251.368 182.467 251.447 184.253 252.6 184.183C254.166 184.095 255.732 183.972 257.298 183.901C258.979 183.831 260.659 183.849 262.34 183.901C262.824 183.919 263.22 183.426 263.194 182.969C263.176 182.458 262.745 182.133 262.261 182.115Z" fill="#003A30"/>
<path d="M304.698 167.597C299.849 166.99 294.957 166.779 290.074 166.972C288.921 167.016 289.001 168.811 290.153 168.758C294.887 168.565 299.621 168.758 304.319 169.348C304.803 169.409 305.278 169.163 305.384 168.662C305.481 168.222 305.182 167.658 304.698 167.597Z" fill="#003A30"/>
<path d="M310.144 158.684C306.563 159.484 302.991 160.276 299.41 161.077C298.934 161.183 298.688 161.763 298.82 162.203C298.978 162.696 299.471 162.898 299.946 162.793C303.527 161.992 307.1 161.2 310.681 160.399C311.156 160.294 311.402 159.713 311.27 159.273C311.112 158.772 310.61 158.578 310.144 158.684Z" fill="#003A30"/>
<path d="M314.42 148.724C311.921 150.334 309.431 151.944 306.933 153.554C305.965 154.179 306.933 155.684 307.9 155.059C310.399 153.449 312.889 151.839 315.388 150.228C316.365 149.604 315.397 148.099 314.42 148.724Z" fill="#003A30"/>
<path d="M316.391 136.942C315.089 139.256 313.672 141.482 312.238 143.708C311.974 144.113 312.229 144.711 312.634 144.914C313.1 145.151 313.576 144.931 313.84 144.518C315.274 142.292 316.69 140.066 317.993 137.752C318.23 137.329 318.019 136.757 317.597 136.546C317.148 136.317 316.629 136.52 316.391 136.942Z" fill="#003A30"/>
<path d="M278.134 143.629C274.35 145.82 270.549 148.02 267.056 150.668C263.669 153.238 260.668 156.247 258.134 159.661C256.392 162.019 254.852 164.526 253.444 167.104C252.89 168.116 254.491 168.926 255.046 167.914C257.298 163.77 259.92 159.828 263.211 156.431C266.009 153.537 269.247 151.152 272.635 149.005C274.755 147.659 276.928 146.401 279.102 145.143C280.105 144.553 279.128 143.048 278.134 143.629Z" fill="#003A30"/>
<path d="M280.439 99.6086C289.546 74.1096 278.266 46.7453 259.032 33.0896C257.131 31.7433 250.664 44.0529 250.286 45.0472C248.121 50.8368 247.285 57.0927 247.584 63.2519C248.086 73.6433 252.776 83.0668 255.838 92.8423C259.234 103.7 258.873 113.704 255.53 124.544C255.794 123.673 261.231 121.544 262.076 121.016C266.863 118.007 271.306 114.311 274.826 109.868C277.28 106.762 279.119 103.287 280.439 99.6086Z" fill="#EAA524"/>
<path d="M262.63 48.892C261.205 54.1625 260.413 59.6354 260.932 65.0995C261.346 69.4901 262.534 73.7135 263.651 77.9633C264.945 82.8995 265.983 87.8972 266.194 93.0093C266.432 98.6669 265.569 104.333 263.73 109.692C261.671 115.71 258.345 121.297 253.999 125.943C253.022 126.99 254.588 128.557 255.565 127.509C263.528 118.992 268.165 107.554 268.438 95.8953C268.561 90.484 267.69 85.0728 266.414 79.8287C265.376 75.57 264.038 71.3642 263.378 67.0176C262.49 61.1136 263.22 55.2008 264.769 49.4728C265.147 48.1001 263.009 47.5194 262.63 48.892Z" fill="#003A30"/>
<path d="M258.442 78.2012C256.243 73.5906 254.905 68.4521 254.096 63.4279C253.682 60.8675 253.436 58.2542 253.576 55.6586C253.708 53.1597 254.28 50.6697 255.072 48.294C255.97 45.6015 257.219 42.8387 259.287 40.8326C260.308 39.8295 258.741 38.2633 257.721 39.2664C255.715 41.2197 254.404 43.7978 253.409 46.3846C252.406 48.9979 251.746 51.7607 251.456 54.5499C251.174 57.26 251.394 60.014 251.764 62.7064C252.16 65.6013 252.785 68.4609 253.585 71.2677C254.368 74.0129 255.301 76.7406 256.533 79.3186C256.788 79.8553 257.562 80.0049 258.055 79.7146C258.592 79.3978 258.697 78.7467 258.442 78.2012Z" fill="#003A30"/>
<path d="M275.741 70.863C275.723 76.6174 274.227 82.2223 272.468 87.6599C272.028 89.0238 274.175 89.6045 274.606 88.2495C276.418 82.627 277.94 76.8022 277.958 70.863C277.967 69.4376 275.749 69.4376 275.741 70.863Z" fill="#003A30"/>
<path d="M277.773 87.6862C276.286 92.7191 274.28 97.576 271.772 102.195C271.086 103.454 273.004 104.571 273.691 103.313C276.286 98.5351 278.38 93.4934 279.911 88.2757C280.316 86.9031 278.178 86.3224 277.773 87.6862Z" fill="#003A30"/>
<path d="M324.917 64.9589C328.199 55.5178 332.3 46.367 337.165 37.6386C338.714 34.867 341.063 31.7434 344.213 32.1129C345.876 32.3065 347.24 33.4767 348.718 34.2774C350.759 35.3861 353.161 35.87 354.904 37.4098C358.238 40.3486 357.702 45.6895 356.171 49.8601C353.118 58.1926 347.152 65.4164 339.55 69.9918L324.917 64.9589Z" fill="#F7B3A4"/>
<path d="M315.696 64.255C314.939 54.2947 315.054 44.2641 316.03 34.3214C316.338 31.1626 317.253 27.3615 320.298 26.4465C321.908 25.9625 323.615 26.4905 325.287 26.6312C327.601 26.8336 330.003 26.3233 332.211 27.0272C336.444 28.391 338.08 33.5031 338.344 37.9377C338.863 46.7981 336.276 55.7993 331.129 63.0319L315.696 64.255Z" fill="#F7B3A4"/>
<path d="M305.85 69.7627C301.82 60.6207 298.591 51.1268 296.216 41.4217C295.459 38.3333 295.054 34.453 297.615 32.5789C298.97 31.5846 300.756 31.5142 302.384 31.1007C304.636 30.5288 306.721 29.2441 309.044 29.1737C313.488 29.0506 316.734 33.3356 318.459 37.427C321.899 45.6099 322.445 54.9631 319.999 63.4891L305.85 69.7627Z" fill="#F7B3A4"/>
<path d="M333.294 70.5374C339.022 62.3457 345.454 54.6556 352.51 47.5813C354.754 45.3288 357.86 42.9707 360.799 44.185C362.347 44.8273 363.342 46.3231 364.538 47.4933C366.201 49.1123 368.383 50.2386 369.642 52.1831C372.052 55.9138 370.082 60.9115 367.477 64.5102C362.268 71.6989 354.56 77.0222 345.999 79.3626L333.294 70.5374Z" fill="#F7B3A4"/>
<path d="M320.685 61.6331C327.082 61.8882 334.781 63.1817 340.359 66.3141C345.568 69.2441 349.677 74.4266 349.739 80.2866C349.747 81.0521 349.237 81.7296 348.516 81.9847C347.574 82.3103 346.008 82.8382 345.647 82.0199C345.462 81.5976 345.084 82.7502 345.014 83.4013C344.653 86.8329 342.436 89.8685 339.629 91.8746C336.822 93.8807 333.47 94.9806 330.117 95.7813C325.084 96.9867 319.735 97.5762 314.781 96.098C309.827 94.6198 305.34 90.6868 304.425 85.5923C304.002 83.2254 304.346 80.7969 304.697 78.4212C305.076 75.8168 305.463 73.2123 305.841 70.6079C304.618 71.2502 303.193 69.6488 303.474 68.2938C303.756 66.9388 305.005 66.0325 306.202 65.355C310.575 62.8649 315.634 61.5627 320.685 61.6331Z" fill="#EAA524"/>
<path d="M351.718 82.0023C350.874 74.013 345.99 66.6572 338.784 62.9793C334.482 60.7796 329.686 60.1988 324.917 60.0581C319.928 59.9085 314.755 59.7501 309.88 60.9995C305.296 62.1698 300.958 64.827 298.582 69.0241C297.324 71.2414 300.747 73.2387 302.005 71.0214C306.132 63.7272 315.793 63.8591 323.061 63.9735C327.275 64.0439 331.631 64.1935 335.581 65.8301C338.67 67.1147 341.38 69.2616 343.474 71.8573C345.788 74.7257 347.363 78.3244 347.75 82.0023C347.865 83.067 348.577 83.982 349.73 83.982C350.724 83.982 351.833 83.067 351.718 82.0023Z" fill="#003A30"/>
<path d="M336.576 31.2769C336.76 41.6067 335.687 52.1829 330.267 61.2281C328.956 63.419 332.379 65.4163 333.69 63.2254C339.462 53.5907 340.729 42.293 340.535 31.2769C340.491 28.734 336.532 28.7252 336.576 31.2769Z" fill="#003A30"/>
<path d="M311.86 30.0981C315.828 33.2216 318.081 38.0786 319.136 42.9267C320.474 49.0683 319.48 55.4826 318.274 61.5538C317.781 64.0439 321.6 65.1086 322.093 62.6097C323.439 55.8082 324.451 48.7428 322.955 41.8797C321.776 36.4596 319.101 30.802 314.658 27.3088C313.822 26.6489 312.678 26.4905 311.86 27.3088C311.173 27.9863 311.015 29.4382 311.86 30.0981Z" fill="#003A30"/>
<path d="M359.153 40.5686C349.624 45.2672 341.688 53.0365 336.778 62.4513C335.599 64.7038 339.013 66.7099 340.201 64.4486C344.829 55.5706 352.185 48.4084 361.16 43.9825C363.439 42.8651 361.441 39.4512 359.153 40.5686Z" fill="#003A30"/>
<path d="M198.021 216.712C198.777 217.425 199.376 218.367 199.684 219.22C200.247 220.76 199.517 222.212 198.249 223.153C196.578 224.385 193.806 224.825 192.082 223.426C189.072 220.997 192.187 215.085 195.777 215.542C196.604 215.648 197.37 216.105 198.021 216.712Z" fill="#DD452C"/>
<path d="M261.73 199.962C262.342 200.538 262.826 201.3 263.075 201.99C263.531 203.235 262.94 204.41 261.915 205.171C260.563 206.168 258.321 206.523 256.926 205.392C254.492 203.428 257.012 198.645 259.916 199.015C260.585 199.1 261.204 199.47 261.73 199.962Z" fill="white"/>
<path d="M235.82 211.256C236.427 211.827 236.911 212.584 237.157 213.279C237.606 214.52 237.025 215.69 236.005 216.438C234.658 217.432 232.432 217.784 231.042 216.658C228.622 214.705 231.13 209.945 234.016 210.314C234.676 210.402 235.301 210.763 235.82 211.256Z" fill="white"/>
<path d="M220.449 215.322C220.827 215.683 221.126 216.149 221.285 216.581C221.566 217.355 221.206 218.076 220.572 218.543C219.736 219.159 218.355 219.379 217.484 218.683C215.979 217.469 217.537 214.513 219.331 214.742C219.736 214.794 220.123 215.023 220.449 215.322Z" fill="#DD452C"/>
<path d="M224.923 183.883C225.302 184.244 225.601 184.71 225.759 185.141C226.041 185.915 225.68 186.637 225.047 187.103C224.211 187.719 222.829 187.939 221.958 187.244C220.454 186.03 222.011 183.073 223.806 183.302C224.22 183.355 224.598 183.575 224.923 183.883Z" fill="white"/>
<path d="M272.533 199.588C272.911 199.949 273.21 200.415 273.369 200.846C273.65 201.62 273.289 202.342 272.656 202.808C271.82 203.424 270.439 203.644 269.567 202.949C268.063 201.735 269.62 198.778 271.415 199.007C271.82 199.06 272.207 199.28 272.533 199.588Z" fill="white"/>
<path d="M126.515 235.189C132.857 207.857 134.277 194.853 137.981 139.16C140.335 103.794 125.758 94.4463 131.378 59.4352C134.774 38.2558 145.115 4.42787 166.934 0.87825C224.213 -8.44542 221.184 91.0978 224.177 124.796C227.266 159.546 232.247 201.183 247.238 230.456" fill="#F7B3A4"/>
<path d="M146.535 17.1239C143.743 14.3434 140.939 11.5629 138.146 8.78234C137.247 7.89493 136.206 6.93653 134.94 6.98386C133.816 7.01936 132.881 7.8476 132.065 8.64035C129.58 11.0186 127.107 13.3968 124.622 15.7751C122.741 17.5854 120.801 19.4667 119.771 21.8568C117.866 26.282 119.428 31.3698 119.168 36.1854C118.304 52.0049 98.6864 61.3759 96.5448 77.077C96.0597 80.6385 96.5448 84.2591 96.4975 87.8561C96.4028 96.1503 93.5395 104.255 93.7288 112.55C93.9654 122.95 98.9349 132.569 101.573 142.627C105.277 156.731 105.218 173.414 116.233 182.974C120.126 186.346 126.326 188.263 130.278 184.962C132.006 183.518 132.952 181.353 133.65 179.211C137.756 166.823 136.017 153.264 138.631 140.473C141.72 125.328 150.901 111.059 149.257 95.7007C148.452 88.1755 145.068 81.1828 143.163 73.8587C139.069 58.0629 141.992 41.3797 145.518 25.4537" fill="#083618"/>
<path d="M144.784 21.2416C143.577 11.6103 131.461 13.0065 127.202 19.5851C123.711 24.9924 124.007 31.5355 123.617 37.6882C123.108 45.805 120.079 52.6202 115.772 59.4118C108.188 71.3741 101.065 81.7863 99.8696 96.3516C98.6391 111.355 102.118 126.606 105.443 141.148C108.708 155.441 110.542 169.959 121.783 180.04C122.209 180.418 125.451 180.56 125.64 180.04C130.42 166.457 126.705 151.891 129.308 138.024C131.793 124.737 143.648 115.33 145.163 101.842C145.778 96.3752 144.074 91.7252 140.986 87.3C136.466 80.8042 132.088 75.6454 132.668 67.15C133.165 59.8615 136.017 52.9515 137.022 45.734C138.016 38.6229 137.649 31.5237 136.206 24.5072C136.088 23.9393 135.378 23.8446 134.999 24.1878C131.449 27.4061 131.722 32.7424 130.976 37.1439C129.911 43.4622 128.267 49.6977 126.125 55.7321C123.818 62.2397 120.907 68.5344 117.44 74.5096C114.21 80.0706 109.939 85.1111 107.253 90.9798C102.224 101.972 105.372 114.253 108.412 125.328C110.4 132.558 112.412 139.775 114.423 146.993C115.263 150.034 115.63 155.772 119.546 156.482C119.889 156.541 123.676 155.405 123.735 154.991C124.954 146.141 124.185 137.787 125.664 128.973C126.456 124.263 126.042 120.134 128.409 115.945C130.219 112.739 132.609 109.887 134.467 106.705C140.146 96.9668 136.62 84.6142 125.391 81.029C125.155 80.9581 124.859 81.029 124.693 81.2184C112.778 94.0561 114.79 112.065 117.168 128.038C117.286 128.831 118.339 128.618 118.564 128.038C121.096 121.566 123.628 115.105 126.16 108.633C127.734 104.61 132.017 97.9016 130.574 93.3581C129.876 91.1455 127.261 89.1932 124.965 90.4829C121.771 92.2577 121.818 99.4279 121.215 102.469C121.037 103.38 122.433 103.77 122.611 102.847C122.93 101.238 123.238 99.6409 123.557 98.0317C123.711 97.2271 123.877 96.4226 124.031 95.6298C124.196 93.3817 125.971 93.2161 129.367 95.1447C130.266 97.7478 126.433 104.031 125.462 106.48C122.706 113.532 119.937 120.595 117.18 127.647C117.641 127.647 118.115 127.647 118.576 127.647C117.121 117.839 115.594 107.699 117.76 97.8661C118.612 93.997 120.008 90.1752 122.138 86.8149C123.593 84.5077 124.634 82.4134 127.77 83.5019C129.734 84.1882 131.52 86.2115 132.727 87.797C138.549 95.4523 135.271 103.214 130.42 110.278C126.018 116.691 123.664 122.915 122.493 130.629C121.877 134.711 121.357 138.817 120.801 142.911C120.517 145.029 120.221 147.135 119.937 149.253C119.677 151.193 119.878 155.429 117.712 152.944C116.6 151.667 116.316 148.318 115.843 146.614C115.263 144.508 114.707 142.65 114.127 140.544C112.873 136.036 113.453 131.564 112.199 127.056C109.643 117.815 107.478 109.734 109.312 100.079C110.897 91.7016 114.08 83.1233 118.292 75.9767C122.717 68.487 126.279 60.4649 128.87 52.1588C130.207 47.8992 131.284 43.5687 132.1 39.179C132.928 34.7656 132.538 28.4 136.052 25.2172C135.65 25.1107 135.247 25.0042 134.845 24.8977C136.537 33.1802 136.632 41.5454 134.857 49.8279C133.52 56.087 131.26 62.2989 131.189 68.771C131.035 82.5554 143.14 88.7081 140.146 102.966C137.425 115.898 129.746 125.873 127.699 139.231C125.652 152.625 129.012 166.374 124.409 179.425C124.812 179.318 125.214 179.212 125.616 179.105C114.163 168.835 109.809 153.867 106.567 139.326C103.005 123.364 99.0887 106.326 102.224 89.9623C105.099 74.9474 117.795 66.3809 123.759 52.8569C126.444 46.7752 127.225 37.2385 127.616 30.6954C127.864 26.424 126.089 23.9985 128.503 20.3305C131.816 15.2901 142.323 12.7225 143.388 21.2534C143.459 22.1527 144.902 22.1645 144.784 21.2416Z" fill="white"/>
<path d="M137.78 148.614C137.957 128.996 138.123 109.379 138.3 89.761C138.501 66.4518 138.75 42.7995 145.151 20.3777C147.778 11.1606 161.621 -0.600528 171.122 0.594511C179.996 1.70673 176.423 13.3968 177.618 22.259C181.949 54.4068 175.429 86.874 172.507 119.176C171.655 128.582 171.028 138.296 166.756 146.721C162.485 155.133 153.433 161.96 144.122 160.398" fill="#F7B3A4"/>
<path d="M133.473 197.87C131.213 207.88 130.479 217.156 122.93 224.102C119.629 227.131 117.085 227.805 112.66 228.563C111.56 228.752 110.4 228.823 109.442 229.391C108.483 229.959 107.821 233.224 108.365 234.195C108.921 235.2 110.306 235.271 111.453 235.236C126.007 234.668 129.284 235.425 143.838 234.857C148.523 234.68 153.422 234.431 157.492 232.112C161.882 229.604 164.721 223.629 166.106 218.777C167.49 213.914 167.608 208.803 167.715 203.751" fill="#F7B3A4"/>
<path d="M174.329 46.9287C170.566 46.9287 166.993 47.189 165.325 47.3783C162.319 47.7215 159.267 49.1768 157.776 51.8154C156.581 53.9215 156.522 56.489 156.723 58.9028C156.865 60.5593 157.279 62.4524 158.758 63.1978C159.574 63.6119 160.544 63.5646 161.467 63.5054C163.81 63.3516 166.141 63.2096 168.484 63.0558C174.376 62.6772 180.813 62.0738 185.037 57.9325C187.403 55.6134 188.657 51.4722 186.362 49.0703C184.741 47.3783 179.369 46.9287 174.329 46.9287Z" fill="#083618"/>
<path d="M161.325 32.6948C160.568 33.9135 160.048 35.3688 160.272 36.7768C160.497 38.1967 161.822 39.5101 163.23 39.2616C163.727 39.1788 165.952 38.741 166.378 38.4688C168.342 37.2146 168.993 34.6944 167.088 32.328C165.538 30.3875 162.58 30.6833 161.325 32.6948Z" fill="#083618"/>
<path d="M176.21 33.8779C175.82 34.505 175.548 35.2622 175.666 35.9958C175.784 36.7294 176.47 37.4157 177.204 37.2855C177.464 37.2382 178.624 37.0134 178.837 36.8714C179.854 36.2206 180.198 34.9073 179.204 33.6886C178.387 32.6828 176.861 32.8367 176.21 33.8779Z" fill="#083618"/>
<path d="M155.823 30.2454C156.995 27.524 158.699 25.2167 160.959 23.2999C162.26 22.1996 160.379 20.3419 159.089 21.4305C156.675 23.4656 154.794 26.0095 153.54 28.9083C152.877 30.4583 155.161 31.8072 155.823 30.2454Z" fill="#083618"/>
<path d="M182.363 24.2819C184.209 24.5777 185.723 25.4651 186.883 26.9323C187.936 28.2693 189.793 26.388 188.752 25.0628C187.344 23.288 185.297 22.093 183.061 21.7262C181.404 21.4659 180.683 24.0098 182.363 24.2819Z" fill="#083618"/>
<path d="M136.454 101.699C160.686 103.817 185.427 99.6049 207.601 89.595C207.896 92.2335 208.192 94.8721 208.488 97.4988C208.547 98.0549 208.606 98.6583 208.311 99.1316C207.885 99.8179 206.914 99.7351 206.157 100.019C196.467 103.746 186.693 106.397 176.399 108.1C165.798 109.851 154.912 109.982 144.228 109.698C142.004 109.638 139.069 109.934 137.436 108.065C135.626 105.994 138.064 104.101 135.662 102.752" fill="#DD452C"/>
<path d="M169.466 115.934C168.472 117.33 167.892 119.033 168.034 120.891C168.472 126.677 174.696 129.292 179.215 127.162C182.718 125.506 185.273 121.104 183.96 116.975C182.741 113.141 178.565 111.627 175.086 112.313C172.921 112.727 170.815 114.052 169.466 115.934Z" fill="#D69C36"/>
<path d="M172.542 114.573C172.507 114.36 172.507 114.348 172.53 114.537C172.519 114.419 172.507 114.312 172.495 114.194C172.471 113.969 172.459 113.733 172.448 113.508C172.436 113.046 172.448 112.585 172.483 112.135C172.483 112.064 172.578 111.39 172.519 111.757C172.554 111.532 172.59 111.307 172.649 111.082C172.743 110.633 172.862 110.195 173.015 109.757C173.086 109.556 173.157 109.343 173.24 109.142C173.063 109.58 173.311 109.012 173.347 108.941C173.43 108.775 173.524 108.609 173.619 108.456C173.666 108.373 174.033 107.911 173.749 108.254C173.867 108.112 173.986 107.982 174.116 107.852C174.175 107.793 174.246 107.734 174.317 107.675C174.128 107.817 174.116 107.828 174.282 107.722C174.353 107.675 174.435 107.627 174.506 107.592C174.684 107.509 174.66 107.509 174.447 107.616C174.471 107.592 175.015 107.45 174.743 107.521C174.494 107.58 174.991 107.521 175.062 107.521C175.264 107.545 175.252 107.533 175.003 107.509C175.098 107.533 175.181 107.545 175.275 107.58C175.37 107.604 175.453 107.639 175.536 107.675C175.335 107.592 175.323 107.58 175.5 107.675C175.666 107.781 175.832 107.864 175.985 107.982C175.642 107.746 176.115 108.112 176.175 108.172C176.234 108.231 176.589 108.692 176.364 108.373C176.612 108.716 176.802 109.083 176.991 109.473C177.074 109.662 177.074 109.662 177.003 109.485C177.038 109.58 177.086 109.686 177.121 109.781C177.192 109.982 177.263 110.183 177.334 110.384C177.464 110.798 177.583 111.212 177.701 111.638C177.973 112.585 178.245 113.532 178.517 114.478C178.778 115.366 179.783 116.016 180.706 115.72C181.617 115.425 182.221 114.49 181.949 113.532C181.475 111.899 181.085 110.195 180.47 108.609C179.819 106.953 178.837 105.356 177.18 104.551C175.394 103.675 173.489 103.865 171.927 105.107C170.649 106.125 169.927 107.734 169.478 109.248C168.862 111.307 168.803 113.449 169.135 115.555C169.277 116.478 170.483 117.069 171.324 116.797C172.294 116.442 172.696 115.567 172.542 114.573Z" fill="#D69C36"/>
<path d="M198.762 25.8792C198.443 20.0105 199.768 14.0471 202.501 9.08949C203.081 8.02461 203.791 6.95972 204.808 6.48644C206.37 5.76468 208.322 6.32079 209.636 7.55132C219.125 16.4135 230.058 19.833 235.004 31.2391C236.932 35.6762 240.92 39.1193 235.927 45.5323C234.59 47.2479 233.584 49.283 232.507 51.2235C228.827 57.8258 229.715 66.6289 232.341 73.9174C234.968 81.206 241.523 89.5002 244.375 96.6823C250.338 111.697 252.231 138.603 251.569 149.962C251.261 155.346 246.291 161.096 239.855 163.971C233.253 166.917 226.532 160.256 221.787 154.151C216.593 147.466 211.411 140.638 207.861 132.675C201.472 118.311 200.939 101.604 200.549 85.5247C200.146 68.8296 199.732 52.1227 199.33 35.4277" fill="#083618"/>
<path d="M204.773 19.4897C204.607 14.5793 207.506 14.5084 210.772 18.0343C211.718 18.8981 212.653 19.75 213.599 20.6137C214.546 21.4774 215.481 22.3294 216.427 23.1931C218.616 25.1927 221.006 27.0858 223.065 29.2629C228.768 35.2736 224.26 42.8698 223.562 50.1466C222.651 59.8015 224.899 69.705 228.674 78.3187C230.827 83.2409 233.761 87.2993 236.518 91.7481C239.263 96.2088 241.156 101.308 242.529 106.503C245.44 117.495 246.244 129.137 246.374 140.544C246.433 145.134 245.499 149.145 242.174 152.08C241.085 153.038 239.216 154.423 237.903 155.002C232.98 157.179 232.543 156.517 229.656 152.932C222.284 143.797 213.505 133.385 209.091 121.825C206.512 115.069 208.18 108.55 208.689 101.604C209.222 94.4103 208.642 87.1691 207.825 80.0225C206.323 66.9363 203.873 53.637 205.696 40.4324C206.145 37.1904 206.761 32.8362 208.204 29.961C210.286 25.8435 212.582 28.695 214.712 32.1973C218.273 38.0305 218.474 45.1771 218.533 52.016C218.581 58.1332 218.77 63.9782 220.166 69.9298C221.657 76.3073 224.059 82.3534 226.236 88.447C230.981 101.734 233.726 115.531 235.027 129.788C235.311 132.936 236.163 136.958 235.749 140.047C235.441 142.354 237.619 145.052 232.353 144.981C231.158 144.969 229.289 142.531 228.413 141.703C224.213 137.716 220.746 132.723 218.332 127.114C212.617 113.827 213.883 96.6111 212.996 81.9275C212.57 74.9584 212.156 68.0011 211.73 61.0321C211.564 58.2279 211.387 55.4237 211.221 52.6195C211.138 51.1641 210.511 48.5729 210.89 47.1767C211.103 46.3958 210.996 46.3721 212.061 45.9462C214.759 44.8813 214.286 50.8446 214.582 53.0809C215.481 60.121 216.486 67.1374 217.599 74.142C219.941 88.7783 222.793 103.344 226.532 117.613C227.372 120.808 229.277 124.783 229.431 128.025C229.525 128.333 229.62 128.652 229.703 128.96C228.035 133.196 226.52 133.515 225.183 129.895C224.272 128.392 223.479 126.747 222.769 125.103C220.935 120.808 219.764 116.063 219.35 111.318C219.22 109.839 219.563 104.539 219.468 104.397C220.722 106.242 220.959 111.247 221.444 113.46C222.048 116.24 222.651 119.009 223.254 121.79C223.432 122.618 224.544 122.239 224.355 121.411C223.598 117.932 222.84 114.442 222.083 110.963C221.562 108.585 221.491 104.385 219.681 102.835C219.421 102.61 219.113 102.574 218.865 102.858C216.735 105.26 218.096 111.2 218.557 114.265C219.421 120.039 221.302 125.742 224.213 130.593C225.337 132.462 227.372 135.752 229.762 134.852C232.649 133.764 231.182 129.8 230.543 127.647C222.509 100.646 218.001 72.4263 214.653 44.2542C214.605 43.8756 214.392 43.6271 214.061 43.6034C211.517 43.4733 209.861 45.5912 209.79 48.0404C209.659 52.8088 210.381 57.8374 210.677 62.5939C211.375 74.1302 212.262 85.6664 212.771 97.2145C213.174 106.266 212.996 115.27 215.871 123.896C218.735 132.51 223.657 142.863 230.306 148.045C238.707 154.588 238.021 136.189 237.548 130.12C236.566 117.483 235.453 105.71 231.774 93.6886C229.656 86.8023 225.668 80.8389 223.538 73.9527C221.172 66.2737 219.776 60.0973 219.705 52.016C219.622 42.0534 218.533 30.1267 209.375 25.7488C209.091 25.6187 208.748 25.666 208.594 26.0091C203.53 37.4507 203.353 50.253 204.595 62.8187C206.133 78.3305 208.547 92.7538 206.784 108.384C205.353 121.115 211.399 129.717 217.977 139.36C221.29 144.212 224.804 148.873 228.449 153.405C230.614 156.091 233.596 160.682 237.181 160.847C239.748 160.966 242.73 158.055 244.801 156.505C247.747 154.304 247.439 152.529 247.51 148.542C247.699 136.994 248.776 125.718 246.765 114.359C244.801 103.225 239.476 94.6706 233.82 85.5599C227.135 74.8046 222.805 60.4878 225.1 47.2714C225.976 42.2427 230.732 36.7408 228.2 31.7004C227.041 29.3931 223.988 25.7133 222.213 24.1042C219.397 21.5248 215.812 20.9213 212.972 18.3774C210.89 16.508 207.269 12.5561 204.382 14.887C202.513 16.3897 202.418 19.2175 204.217 20.6729C204.832 21.1461 205.376 19.9866 204.773 19.4897Z" fill="white"/>
<path d="M201.117 182.69C201.069 192.7 201.01 202.71 200.963 212.719C200.951 215.95 200.951 219.263 202.158 222.256C204.169 227.214 220.285 226.516 220.285 237.685C211.659 240.253 199.709 240.253 187.995 239.33C187.498 239.294 186.977 239.235 186.587 238.916C186.066 238.478 186.007 237.709 185.983 237.023C185.522 222.351 185.072 207.667 184.611 192.995" fill="#F7B3A4"/>
<path d="M200.123 182.69C200.087 189.186 200.052 195.669 200.028 202.165C200.016 205.36 199.993 208.543 199.981 211.737C199.969 214.719 199.886 217.76 200.608 220.671C200.986 222.185 201.483 223.522 202.714 224.516C203.672 225.285 204.773 225.818 205.897 226.303C208.642 227.474 211.541 228.338 214.144 229.817C217.173 231.532 219.255 234.088 219.291 237.697C219.539 237.378 219.776 237.058 220.024 236.739C215.729 238.005 211.245 238.537 206.784 238.762C201.685 239.022 196.573 238.904 191.485 238.584C190.326 238.513 189.154 238.466 187.995 238.336C187.474 238.277 187.155 238.241 187.036 237.685C186.894 237.058 186.965 236.348 186.942 235.697C186.859 232.941 186.764 230.184 186.681 227.427C186.516 222.02 186.338 216.612 186.173 211.205C185.983 205.135 185.794 176.513 185.605 170.444C185.569 169.166 183.57 169.166 183.617 170.444C183.972 181.861 184.327 215.843 184.682 227.261C184.777 230.124 184.859 233 184.954 235.863C184.99 236.952 184.883 238.206 185.51 239.164C186.173 240.194 187.368 240.276 188.468 240.359C193.864 240.773 199.283 240.998 204.69 240.832C210.014 240.667 215.41 240.158 220.545 238.644C220.959 238.525 221.278 238.123 221.278 237.685C221.255 234.301 219.74 231.402 217.066 229.355C214.629 227.486 211.706 226.433 208.867 225.344C207.648 224.883 206.406 224.421 205.258 223.794C204.82 223.558 204.276 223.226 203.992 223.002C203.59 222.67 203.365 222.434 203.175 222.079C202.607 221.026 202.371 219.677 202.205 218.505C201.992 217.038 201.969 215.559 201.957 214.08C201.945 210.874 201.98 207.667 202.004 204.461C202.04 197.196 202.075 189.943 202.111 182.678C202.122 181.412 200.135 181.4 200.123 182.69Z" fill="#EAA524"/>
<path d="M158.024 182.69C158.072 192.7 158.131 202.71 158.178 212.719C158.19 215.95 158.19 219.263 156.983 222.256C154.972 227.214 138.856 226.516 138.856 237.685C147.482 240.253 159.432 240.253 171.146 239.33C171.643 239.294 172.164 239.235 172.554 238.916C173.075 238.478 173.134 237.709 173.158 237.023C173.619 222.351 174.069 207.667 174.53 192.995" fill="#F7B3A4"/>
<path d="M157.03 182.69C157.066 189.186 157.101 195.67 157.125 202.165C157.137 205.36 157.161 208.543 157.172 211.738C157.184 214.731 157.303 217.819 156.462 220.718C156.332 221.168 156.202 221.629 155.989 222.043C155.847 222.315 155.823 222.339 155.693 222.493C155.327 222.907 155.031 223.12 154.605 223.392C153.575 224.043 152.44 224.516 151.304 224.954C148.464 226.066 145.506 227.036 142.938 228.74C139.815 230.823 137.886 233.875 137.862 237.685C137.862 238.123 138.17 238.525 138.596 238.644C143.104 239.969 147.825 240.513 152.511 240.75C157.823 241.022 163.148 240.868 168.46 240.513C169.679 240.43 171.099 240.501 172.282 240.146C173.37 239.815 173.938 238.928 174.092 237.851C174.27 236.549 174.222 235.189 174.258 233.875C174.305 232.444 174.353 231.012 174.388 229.568C174.566 223.83 174.743 218.091 174.92 212.353C175.122 205.892 175.323 179.542 175.524 173.082C175.559 171.804 173.572 171.804 173.536 173.082C173.193 184.003 172.85 214.838 172.519 225.759C172.436 228.409 172.353 231.059 172.27 233.71C172.235 234.952 172.306 236.254 172.14 237.484C172.069 238.017 171.939 238.218 171.406 238.312C170.708 238.443 169.963 238.431 169.253 238.478C164.177 238.833 159.089 239.01 154.001 238.833C148.996 238.656 143.956 238.147 139.128 236.739C139.377 237.058 139.614 237.378 139.862 237.697C139.921 230.87 146.938 228.835 152.179 226.752C154.238 225.936 156.865 224.954 157.847 222.777C159.054 220.103 159.172 216.991 159.184 214.104C159.196 210.897 159.16 207.691 159.136 204.484C159.101 197.22 159.065 189.967 159.03 182.702C159.006 181.412 157.019 181.4 157.03 182.69Z" fill="#EAA524"/>
<path d="M51.4528 253.268C41.3127 252.014 32.2612 245.743 25.9428 237.709C19.6245 229.675 15.7555 219.997 12.8093 210.211C12.0875 207.809 11.4131 205.301 11.7917 202.828C12.1703 200.355 13.886 197.906 16.3589 197.468C19.3524 196.948 21.9673 199.385 24.026 201.621C30.936 209.123 37.8814 216.66 43.3596 225.262C48.8379 233.852 52.8372 243.637 53.2276 253.824" fill="#BF421D"/>
<path d="M50.6837 253.777C39.7272 234.195 33.1131 207.939 42.9337 186.89C44.9688 182.524 47.1223 178.146 49.9383 174.218C52.565 170.574 59.4986 164.788 60.6582 172.656C62.4448 184.784 64.2433 197.101 64.3971 209.383C64.5272 219.748 61.7467 229.876 59.2383 239.839C58.1379 244.205 55.5112 249.482 51.0269 249.091" fill="#BF421D"/>
<path d="M48.341 252.641C55.2036 255.54 63.1784 252.759 69.4612 248.76C83.3166 239.945 93.1017 224.978 95.6101 208.756C95.7639 207.774 95.8822 206.756 95.6101 205.81C95.0421 203.81 92.8296 202.651 90.759 202.639C88.6883 202.627 86.7242 203.538 84.8784 204.485C68.6093 212.874 55.2036 226.693 47.3234 243.211" fill="#BF421D"/>
<path d="M56.1738 253.765C50.6837 253.777 37.2898 251.836 27.1971 249.494C22.4051 248.381 14.0161 244.039 9.75658 241.59C5.49703 239.141 1.85276 235.141 1.03635 230.29C0.894362 229.474 0.870708 228.563 1.37949 227.912C2.14857 226.93 3.65123 227.072 4.88177 227.32C21.7898 230.716 39.3013 234.384 53.1684 244.619" fill="#BF421D"/>
<path d="M53.9494 242.596C52.8608 226.433 50.4471 219.653 52.7662 203.621C53.4169 199.101 54.7185 186.334 54.7658 181.779C54.8013 178.407 53.9257 179.566 53.488 182.406C50.9677 198.545 48.5895 214.755 48.7078 231.083C48.7433 235.698 48.9089 240.312 49.2166 244.915C49.2994 246.181 51.2872 246.193 51.2043 244.915L53.9494 242.596Z" fill="white"/>
<path d="M50.0803 240.691C47.3471 238.679 44.6257 236.668 41.8925 234.644C39.2539 232.692 36.5444 230.811 34.036 228.693C29.6227 224.954 26.2268 220.162 24.2627 214.719C23.8368 213.524 21.9081 214.045 22.3459 215.252C23.9078 219.606 28.3566 227.817 29.7291 229.604C31.8589 232.385 37.5974 235.402 42.6261 238.301C45.3711 239.886 46.5307 240.525 49.0864 242.406C50.104 243.164 51.0979 241.436 50.0803 240.691Z" fill="white"/>
<path d="M49.1929 243.519C39.1475 242.667 29.2677 240.064 20.1215 235.828C18.962 235.295 18.9146 235.887 20.0742 236.419C35.0062 243.353 49.3112 245.885 50.5062 245.873C51.3227 245.861 50.4589 243.625 49.1929 243.519Z" fill="white"/>
<path d="M50.5062 245.873C55.8898 243.731 61.5456 240.087 66.0063 236.395C70.3605 232.787 70.6326 233.497 74.1941 229.131C76.2055 226.67 80.6189 219.499 82.5593 216.979C82.8906 216.553 83.6834 215.607 83.2574 215.358C82.7486 215.05 82.228 215.287 81.8967 215.713C75.2944 224.291 71.6265 231.864 62.3502 237.721C59.6406 239.436 53.6299 242.075 50.6601 243.27C49.4887 243.743 49.6189 244.228 49.9975 245.293L50.5062 245.873Z" fill="white"/>
<path d="M67.4024 234.574C68.4082 231.166 68.136 233.71 69.1891 227.829C69.2837 227.297 69.8162 223.167 69.2719 223.014C68.7868 222.883 68.1715 225.084 68.065 225.617C67.3669 229.095 66.3612 232.207 65.3555 235.615C64.9887 236.845 67.0356 235.804 67.4024 234.574Z" fill="white"/>
<path d="M50.66 226.693C49.536 223.037 48.4238 219.381 47.5719 215.642C46.7318 211.974 44.815 207.218 45.1108 203.443C45.2055 202.165 44.4364 203.124 44.3417 204.402C44.0459 208.247 44.886 216.825 45.312 219.18C45.9982 223.037 47.5009 225.617 48.7433 227.226C49.5242 228.243 51.0387 227.924 50.66 226.693Z" fill="white"/>
<path d="M40.449 233.497C38.828 231.462 37.0414 228.232 36.8757 227.462C36.7101 226.658 35.7043 224.303 35.1719 222.469C34.8051 221.239 34.5448 220.174 34.0715 220.304C33.5036 220.458 34.2963 223.108 34.3791 223.641C35.1364 228.444 36.0001 231.071 39.041 234.893C39.3723 235.319 40.094 235.236 40.449 234.893C40.8631 234.491 40.7803 233.911 40.449 233.497Z" fill="white"/>
</svg>
