<svg width="293" height="228" viewBox="0 0 293 228" fill="none" xmlns="http://www.w3.org/2000/svg">
<g clip-path="url(#clip0)">
<path d="M142.296 150.667C143.703 152.314 146.361 151.137 146.126 149.02L144.641 134.118C144.485 132.549 144.407 130.667 145.423 129.49C146.439 128.314 148.159 128.235 149.722 128.157C157.382 127.843 165.354 127.608 172.467 130.431C179.579 133.255 185.832 139.921 185.598 147.686C185.441 152.235 183.175 156.471 180.986 160.471C180.361 161.647 179.657 162.98 180.439 164.314C181.142 165.647 182.784 166.118 184.191 165.882C187.474 165.255 189.271 162.118 192.163 161.02C195.602 159.686 199.588 161.569 201.855 164.471C204.122 167.372 205.06 171.059 205.919 174.667C207.405 180.863 208.968 186.98 210.453 193.176C210.922 195.059 211.313 197.176 210.297 198.902C209.593 200 208.421 200.706 207.17 201.176C201.933 203.216 195.524 202.902 191.382 206.745C187.161 210.667 187.005 217.49 183.331 221.882C178.251 228.078 168.402 227.765 161.055 228.078C158.554 228.157 155.975 227.686 153.786 226.431C147.455 222.823 148.94 216.627 149.409 211.137C149.8 207.059 148.94 202.039 145.188 200.392C142.531 199.216 139.483 200.314 136.669 200.863C126.508 202.823 115.331 197.255 110.719 187.921C109.156 184.784 108.296 181.02 109.313 177.647C110.329 174.274 113.455 171.372 116.972 171.529C118.379 171.608 119.864 172.078 120.88 170.51C121.896 169.098 121.584 167.059 120.411 165.804C114.784 159.843 116.894 149.255 123.694 145.255C130.025 141.725 138.936 144.314 142.296 150.667Z" fill="#DE8C1C"/>
<path d="M162.227 163.451C158.007 161.255 153.473 158.98 148.784 159.451C141.906 160.157 136.903 166.588 134.48 173.098C133.855 174.667 133.386 176.392 133.699 178.118C134.168 181.098 136.982 183.137 139.483 184.863C145.736 188.941 152.067 192.863 158.476 196.549C159.492 197.098 160.43 197.647 161.524 197.882C164.025 198.431 166.605 197.098 168.715 195.686C173.17 192.627 177.078 188.706 180.204 184.235C180.595 183.608 181.064 182.98 181.064 182.196C181.064 181.255 180.517 180.471 179.97 179.765C175.593 174.274 170.513 169.333 164.885 165.255" fill="white"/>
<path d="M156.991 166.039C153.161 163.765 148.784 165.098 145.345 167.608C143.469 168.941 138.623 173.333 139.561 176.235C139.952 177.569 141.984 178.353 142.922 179.059C145.579 180.941 148.784 182.274 150.972 184.784C154.49 188.863 158.71 192.392 163.322 191.372C167.308 190.51 169.731 185.49 171.607 182.353C172.232 181.255 173.092 180.314 172.467 178.98C171.685 177.255 167.777 173.569 166.292 172.863C161.211 170.353 147.69 167.216 144.954 175.765C144.876 176 145.032 176.392 145.345 176.392C148.471 177.098 151.285 178.431 153.63 180.706C155.271 182.274 156.287 184.627 158.163 185.882C160.195 187.294 163.556 186.667 165.432 185.098C172.623 179.137 158.163 175.686 154.021 174.98C153.474 174.902 153.083 175.608 153.63 175.921C156.209 177.49 158.007 179.608 159.179 182.353C159.492 182.98 160.352 182.431 160.117 181.804C158.867 178.823 156.913 176.627 154.177 174.902C154.021 175.216 153.864 175.529 153.786 175.843C156.756 176.471 169.965 180.549 163.322 184.706C159.336 187.137 157.538 183.529 155.584 181.255C154.411 179.843 152.926 178.588 151.363 177.569C150.738 177.176 146.986 176 146.752 175.608C146.048 174.274 149.409 172.784 150.034 172.627C151.129 172.314 152.301 172.314 153.474 172.392C158.007 172.627 163.4 174.353 167.386 176.471C168.402 177.02 170.747 178.196 171.06 179.137C171.529 180.392 170.122 182.588 169.575 183.608C168.559 185.255 167.542 186.98 166.136 188.314C161.211 192.627 155.506 186.98 151.441 184C149.565 182.667 147.611 181.255 145.736 179.921C143.625 178.431 141.593 176.235 142.687 173.098C144.563 167.765 151.441 164.157 156.522 167.137C156.991 167.294 157.538 166.353 156.991 166.039Z" fill="#DE8C1C"/>
</g>
<g clip-path="url(#clip1)">
<path d="M66.532 93.9969C58.4011 95.7551 49.3963 90.2104 46.9666 86.0369C34.2175 64.0378 32.7566 37.244 42.7013 9.55367C48.3542 15.2934 50.4295 22.6657 52.4725 29.93C55.3883 40.1103 58.1813 50.3189 61.0971 60.4992C64.2068 71.3275 67.1938 82.1841 66.532 93.9969Z" fill="#083618"/>
<path d="M83.8454 131.684C81.3875 119.09 77.5958 95.0263 78.2959 81.5884C78.996 68.1505 83.1319 53.9208 92.6417 40.9927C97.5517 46.4419 97.4184 54.3231 97.1881 61.8804C96.5617 84.7681 95.3931 108.473 83.8454 131.684Z" fill="#083618"/>
<path d="M85.445 146.67C41.9496 135.45 16.9143 106.585 20.6955 71.887C44.8568 93.4499 72.2875 119.801 85.445 146.67Z" fill="#083618"/>
</g>
<path d="M94.5611 163.585C95.7611 164.287 97.2611 164.725 98.4611 164.901C100.761 165.164 102.461 163.848 103.361 162.093C104.461 159.812 104.261 156.39 101.761 154.722C97.5611 151.827 90.5611 157.179 92.2611 161.303C92.6611 162.181 93.4611 162.97 94.5611 163.585Z" fill="#F7B3A4"/>
<g clip-path="url(#clip2)">
<path d="M273.8 151.9C272.3 151.4 270.7 151.2 269.3 151.4C266.9 151.7 265.4 153.6 265.1 155.9C264.6 159 265.9 162.9 268.9 164.3C274.1 166.7 279.9 158.5 276.9 154.1C276.2 153.1 275.1 152.4 273.8 151.9Z" fill="#F7B3A4"/>
<path d="M290.2 189C289.5 188.7 288.6 188.7 288 188.7C286.8 188.8 286.1 189.8 285.9 191C285.6 192.5 286.3 194.5 287.8 195.2C290.4 196.4 293.3 192.3 291.8 190.1C291.3 189.6 290.8 189.2 290.2 189Z" fill="#F7B3A4"/>
<path d="M251.4 125.3C250.7 125 249.9 124.9 249.2 125C248 125.2 247.2 126.1 247.1 127.3C246.8 128.8 247.5 130.8 249 131.5C251.6 132.7 254.5 128.6 253 126.4C252.6 125.9 252 125.5 251.4 125.3Z" fill="#F7B3A4"/>
<path d="M262 182.4C261.3 182.1 260.4 182.1 259.8 182.1C258.6 182.2 257.9 183.2 257.7 184.4C257.4 185.9 258.1 187.9 259.6 188.6C262.2 189.8 265.1 185.7 263.6 183.5C263.1 182.9 262.6 182.6 262 182.4Z" fill="#F7B3A4"/>
</g>
<path d="M215.792 169.388C216.693 169.403 217.019 168.499 216.381 168.025L211.821 164.8C211.289 164.405 210.757 164.009 210.715 163.487C210.765 162.869 211.226 162.393 211.595 162.012C213.729 159.997 215.864 157.982 218.772 156.869C221.68 155.755 225.191 155.909 227.24 157.759C228.531 158.882 228.963 160.513 229.487 162.049C229.622 162.476 229.863 162.983 230.473 163.109C231.083 163.235 231.665 163.012 231.927 162.552C232.651 161.617 232.353 160.413 232.864 159.319C233.467 158.13 235.119 157.557 236.537 157.793C238.048 157.933 239.296 158.533 240.452 159.229C242.643 160.366 244.728 161.424 246.919 162.562C247.543 162.862 248.274 163.241 248.437 164.017C248.571 164.444 248.415 164.983 248.245 165.348C247.394 167.171 245.415 168.647 245.28 170.675C245.145 172.703 246.981 174.396 247.244 176.391C247.47 179.179 244.661 181.512 242.619 183.432C241.973 184.098 241.115 184.606 240.136 184.861C237.399 185.61 236.037 183.616 234.626 182.24C233.641 181.18 231.953 180.089 230.499 180.646C229.428 180.996 228.811 182.011 228.18 182.851C225.825 185.849 221.144 187.282 217.257 186.194C215.931 185.864 214.669 185.089 213.988 184.092C213.4 183 213.379 181.511 214.514 180.717C214.883 180.336 215.464 180.114 215.315 179.512C215.166 178.91 214.635 178.515 213.932 178.484C210.727 178.394 208.38 175.34 209.16 172.646C209.771 170.316 213.033 168.648 215.792 169.388Z" fill="#D35723"/>
<path d="M224.945 167.506C223.187 167.999 221.246 168.683 220.048 169.919C218.206 171.821 218.631 174.59 219.806 176.773C220.047 177.279 220.394 177.864 221.018 178.164C222.066 178.779 223.349 178.588 224.525 178.317C227.472 177.727 230.314 177.058 233.155 176.389C233.644 176.262 234.041 176.229 234.423 176.023C235.281 175.515 235.607 174.613 235.826 173.631C236.174 171.763 236.217 169.832 235.863 167.933C235.742 167.68 235.82 167.411 235.502 167.174C235.183 166.937 234.878 166.874 234.481 166.907C231.768 166.689 228.976 166.741 226.213 167.14" fill="white"/>
<defs>
<clipPath id="clip0">
<rect width="102" height="100" fill="white" transform="translate(109 128)"/>
</clipPath>
<clipPath id="clip1">
<rect width="84.3667" height="143.51" fill="white" transform="matrix(0.974463 -0.224547 0.286729 0.958012 0 19.3933)"/>
</clipPath>
<clipPath id="clip2">
<rect width="45.1" height="70.4" fill="white" transform="translate(247 125)"/>
</clipPath>
</defs>
</svg>
