<svg width="182" height="188" viewBox="0 0 182 188" fill="none" xmlns="http://www.w3.org/2000/svg">
<path d="M70.3091 170.968C70.8054 170.976 70.9853 170.478 70.6336 170.217L68.121 168.439C67.8279 168.222 67.5348 168.004 67.5114 167.716C67.5388 167.375 67.7929 167.113 67.9961 166.903C69.1726 165.793 70.3491 164.682 71.9515 164.069C73.5538 163.455 75.4883 163.54 76.6176 164.56C77.3287 165.178 77.567 166.077 77.8561 166.923C77.9303 167.159 78.0631 167.438 78.3992 167.508C78.7353 167.577 79.0557 167.454 79.2004 167.201C79.5991 166.685 79.435 166.022 79.7165 165.419C80.0488 164.764 80.9594 164.448 81.741 164.578C82.5734 164.656 83.2611 164.986 83.8981 165.369C85.1055 165.996 86.2544 166.579 87.4619 167.206C87.8058 167.371 88.2083 167.58 88.2981 168.008C88.3723 168.244 88.2863 168.54 88.1925 168.741C87.7234 169.746 86.6329 170.559 86.5585 171.677C86.4841 172.795 87.4961 173.727 87.6406 174.827C87.7654 176.363 86.2176 177.649 85.092 178.707C84.7363 179.074 84.2634 179.354 83.7241 179.494C82.2155 179.907 81.4653 178.808 80.6877 178.05C80.1446 177.466 79.2146 176.865 78.4134 177.171C77.8233 177.364 77.4832 177.923 77.1353 178.387C75.8376 180.038 73.2582 180.828 71.1167 180.229C70.3859 180.047 69.6904 179.62 69.3153 179.07C68.991 178.469 68.9794 177.648 69.6047 177.211C69.808 177.001 70.1285 176.878 70.0464 176.546C69.9644 176.215 69.6714 175.997 69.2845 175.98C67.5181 175.93 66.2247 174.247 66.6548 172.763C66.9911 171.479 68.7889 170.56 70.3091 170.968Z" fill="#D35723"/>
<path d="M75.3517 169.931C74.3834 170.203 73.3136 170.579 72.6537 171.26C71.6385 172.308 71.8725 173.834 72.5204 175.037C72.6531 175.316 72.8444 175.638 73.188 175.804C73.7657 176.143 74.4724 176.037 75.1205 175.888C76.7448 175.563 78.3104 175.194 79.8761 174.826C80.1455 174.755 80.3641 174.738 80.575 174.624C81.0474 174.344 81.2271 173.847 81.3482 173.306C81.5396 172.276 81.5632 171.212 81.3681 170.166C81.3018 170.027 81.3448 169.878 81.1691 169.748C80.9934 169.617 80.8255 169.582 80.6069 169.6C79.1116 169.48 77.5733 169.509 76.0506 169.729" fill="white"/>
<path d="M158.998 187.5C160.198 187.325 161.298 186.974 162.098 186.447C163.598 185.57 163.898 183.99 163.298 182.499C162.598 180.568 160.298 178.638 157.898 178.813C153.598 179.077 152.598 185.57 156.198 187.237C156.998 187.588 157.998 187.588 158.998 187.5Z" fill="#F7B3A4"/>
<path d="M49.9984 119.059C51.1984 118.884 52.2984 118.533 53.0984 118.006C54.5984 117.129 54.8984 115.55 54.2984 114.058C53.5984 112.128 51.2984 110.197 48.8984 110.373C44.5985 110.636 43.5985 117.129 47.1984 118.796C47.9984 119.147 48.9984 119.147 49.9984 119.059Z" fill="#F7B3A4"/>
<path d="M177.143 165.821C177.843 165.733 178.543 165.47 179.043 165.119C179.943 164.592 180.143 163.539 179.843 162.662C179.343 161.434 178.043 160.293 176.443 160.381C173.743 160.556 173.143 164.592 175.343 165.558C175.843 165.821 176.543 165.909 177.143 165.821Z" fill="#F7B3A4"/>
<path d="M112.473 140.633C107.772 134.623 104.535 127.696 103.215 120.32C102.171 114.295 103.351 106.584 109.69 104.19C113.368 102.837 117.626 103.83 120.7 105.931C123.774 108.031 125.874 111.07 127.574 114.18C130.056 118.485 132.12 123.039 133.776 127.753C143.791 116.243 158.82 108.347 174.713 106.291C175.811 106.161 176.992 106.214 177.945 106.613C182.141 108.318 180.705 113.34 178.535 116.634C173.729 124.005 167.042 130.309 159.21 135.046C160.875 135.21 162.533 135.462 164.099 135.621C170.941 136.462 172.851 143.865 167.814 148.28C159.457 155.581 149.676 153.36 136.291 154.993C137.183 159.405 133.729 171.566 129.457 174.052C126.019 176.04 121.866 177.193 117.953 176.751C113.942 176.304 110.187 174.084 108.602 170.8C106.184 165.784 109.068 160.024 111.888 154.974C105.255 155.124 98.5361 154.021 92.396 151.962C87.5035 150.316 82.128 146.328 83.7203 141.758C85.013 138.336 89.5918 136.845 93.5758 136.487C100.241 135.982 107.034 137.356 112.792 140.38" fill="#DE8C1C"/>
<path d="M125.375 150.698C124.629 150.219 123.988 149.656 123.462 148.92C121.612 146.431 120.84 142.922 122.656 140.242C124.359 137.734 127.712 136.637 130.714 136.147C133.512 135.738 136.133 136.211 138.015 138.344C140.25 140.938 140.491 144.869 138.561 147.723C136.972 150.057 134.087 151.443 131.191 151.848C129.194 152.115 127.065 151.664 125.375 150.698Z" fill="white"/>
<path d="M146.839 125.977C148.892 123.951 151.037 122.018 153.266 120.267C154.328 119.433 155.496 118.516 156.749 117.78C157.273 117.452 157.903 117.04 158.518 116.804C158.83 116.642 159.134 116.569 159.446 116.407C159.651 116.328 160.168 116.088 160.359 116.186C160.741 116.382 160.21 116.799 160.104 116.882C159.558 117.476 159.02 117.981 158.475 118.574C157.392 119.673 156.408 120.777 155.424 121.88C154.44 122.984 153.463 123.999 152.578 125.108C151.92 125.873 152.315 127.133 153.504 127.192C154.191 127.315 154.729 126.809 155.252 126.481C155.989 125.985 156.718 125.578 157.454 125.083C158.919 124.18 160.377 123.366 161.941 122.468C162.564 122.144 162.041 121.232 161.319 121.551C159.967 122.282 158.615 123.013 157.355 123.837C156.725 124.249 156.102 124.573 155.472 124.985C155.161 125.147 154.842 125.397 154.531 125.559C154.319 125.726 153.993 126.064 153.696 126.049C153.002 126.015 153.859 125.26 153.965 125.176C154.51 124.583 154.956 123.984 155.501 123.391C156.485 122.287 157.462 121.272 158.446 120.168C158.984 119.663 159.423 119.153 159.968 118.56C160.506 118.054 161.052 117.461 161.597 116.867C162.255 116.102 161.753 114.925 160.671 114.783C160.076 114.754 159.46 114.989 158.944 115.23C158.328 115.465 157.705 115.789 157.082 116.113C155.829 116.849 154.669 117.678 153.607 118.511C150.959 120.508 148.503 122.602 146.23 124.883C145.466 125.732 146.301 126.482 146.839 125.977Z" fill="white"/>
<path d="M116.854 128.404C115.465 125.949 114.493 123.249 114.021 120.485C113.733 119.144 113.649 117.726 113.663 116.312C113.67 116.224 113.692 115.96 113.699 115.872L113.706 115.784C113.508 115.774 113.402 115.857 113.205 115.847C113.205 115.847 113.29 116.028 113.282 116.116C113.452 116.478 113.522 116.835 113.691 117.197C113.938 117.828 114.283 118.464 114.53 119.095C115.707 121.717 117.095 124.173 118.681 126.638C119.027 127.274 119.478 127.827 119.922 128.467C120.183 128.922 120.549 129.294 121.135 129.411C122.002 129.719 123.124 129.333 123.582 128.56C123.928 127.958 123.886 127.249 123.837 126.627C123.795 125.918 123.661 125.116 123.521 124.402C123.147 122.88 122.471 121.432 121.794 119.985C121.449 119.349 120.511 119.921 120.757 120.552C121.349 121.819 121.941 123.086 122.329 124.431C122.476 125.057 122.617 125.772 122.666 126.393C122.723 126.926 122.765 127.635 122.532 128.066C122.412 128.325 122.003 128.482 121.713 128.379C121.227 128.267 120.881 127.631 120.712 127.269C119.916 126.08 119.119 124.892 118.428 123.62C116.941 121.159 115.757 118.625 114.686 115.92C114.524 115.47 114.285 114.751 113.586 114.805C112.888 114.859 112.747 115.383 112.704 115.911C112.689 117.325 112.781 118.655 113.062 120.084C113.505 123.2 114.555 126.169 116.113 128.987C116.162 129.608 117.199 129.04 116.854 128.404Z" fill="white"/>
<path d="M108.231 148.286C104.675 147.749 101.127 147.123 97.7275 145.874C97.244 145.67 96.7533 145.556 96.3694 145.357C96.0778 145.252 95.8858 145.153 95.5943 145.048C95.5019 144.954 95.3099 144.854 95.2103 144.849C95.1107 144.844 95.1179 144.755 95.0183 144.75C94.691 145.093 94.6768 145.272 94.9826 145.198C95.1817 145.208 95.4876 145.133 95.6867 145.143C95.9854 145.158 96.2912 145.083 96.4904 145.093C97.0949 145.033 97.6923 145.063 98.2897 145.093C100.587 145.117 102.962 145.415 105.231 145.798C107.791 146.286 110.337 146.952 112.882 147.619C113.665 147.838 113.949 146.772 113.167 146.554C108.175 145.225 103.084 143.892 97.8776 143.993C97.2802 143.963 96.5761 144.018 95.9716 144.078C95.4666 144.142 94.6701 144.103 94.1508 144.347C93.7383 144.506 93.603 144.949 93.6739 145.312C93.8302 145.86 94.6196 145.989 95.1031 146.193C97.1368 147.014 99.2772 147.75 101.432 148.307C103.487 148.86 105.663 149.148 107.839 149.436C108.636 149.476 108.921 148.411 108.231 148.286Z" fill="white"/>
<path d="M118.262 157.272C118.338 161.253 118.322 165.141 118.398 169.122C118.356 169.65 118.412 170.183 118.369 170.711C118.418 171.332 118.771 171.88 119.553 172.007C120.427 172.227 121.16 171.733 121.513 171.043C122.698 168.627 123.785 166.206 124.97 163.79C125.097 163.443 125.224 163.096 125.442 162.841C125.548 162.758 125.555 162.67 125.661 162.587C125.971 162.426 126.154 162.611 126.232 162.88C126.309 163.149 126.288 163.413 126.365 163.682C126.443 163.951 126.422 164.215 126.492 164.572C126.534 165.281 126.576 165.991 126.625 166.612C126.695 166.969 126.667 167.321 126.639 167.673C126.617 167.937 126.688 168.294 126.871 168.48C127.139 168.846 127.625 168.959 128.133 168.807C128.746 168.572 128.789 168.044 128.923 167.609C129.205 166.562 129.494 165.428 129.777 164.381C129.932 163.682 128.762 163.447 128.607 164.147C128.339 165.017 128.169 165.893 127.894 166.851C127.873 167.115 127.76 167.286 127.738 167.55C127.731 167.638 127.611 167.898 127.604 167.986C127.597 168.074 127.611 167.898 127.71 167.903C128.006 167.917 127.795 168.083 127.907 167.912C127.915 167.824 127.844 167.467 127.851 167.379C127.802 166.758 127.753 166.137 127.704 165.516C127.655 164.895 127.599 164.362 127.543 163.829C127.479 163.384 127.529 162.768 127.268 162.313C126.923 161.677 126.049 161.457 125.33 161.775C124.921 161.932 124.597 162.269 124.47 162.617C124.223 163.223 123.877 163.825 123.63 164.431C123.045 165.551 122.558 166.676 121.972 167.796C121.732 168.314 121.493 168.833 121.246 169.439C121.126 169.698 120.999 170.046 120.78 170.3C120.667 170.471 120.639 170.823 120.427 170.989C120.11 171.239 119.722 171.131 119.751 170.779C119.687 170.334 119.73 169.806 119.772 169.278C119.759 166.979 119.739 164.769 119.726 162.471C119.663 160.788 119.699 159.111 119.643 157.341C119.51 156.539 118.318 156.568 118.262 157.272Z" fill="white"/>
<path d="M149.02 148.49C150.71 148.485 152.309 148.387 153.999 148.381C154.997 148.342 155.895 148.298 156.885 148.347C157.083 148.356 157.182 148.361 157.38 148.371C158.08 148.317 158.604 147.989 158.753 147.376C158.902 146.763 158.654 146.131 157.982 145.832C157.792 145.734 157.593 145.724 157.304 145.621C156.427 145.401 155.542 145.269 154.666 145.048C153.591 144.818 152.515 144.588 151.44 144.358C151.051 144.25 150.754 144.235 150.365 144.127C150.266 144.122 149.969 144.108 149.877 144.015C149.786 143.922 149.8 143.745 149.906 143.662C150.012 143.578 150.309 143.593 150.415 143.51C150.719 143.436 151.115 143.456 151.42 143.382C152.721 143.269 153.924 143.151 155.225 143.038C156.123 142.994 157.213 143.048 157.595 142.004C157.722 141.656 157.652 141.298 157.482 140.935C157.214 140.568 156.634 140.362 156.259 140.078C155.976 139.886 155.566 140.043 155.445 140.303C155.226 140.558 155.403 140.833 155.686 141.024C155.877 141.122 157.022 141.71 156.308 141.94C156.103 142.019 155.805 142.004 155.607 141.994C155.31 141.98 155.105 142.058 154.907 142.048C154.306 142.107 153.705 142.166 153.202 142.23C152.099 142.353 150.996 142.475 149.991 142.603C149.284 142.745 148.753 143.162 148.696 143.868C148.647 144.485 149.099 145.039 149.785 145.162C149.884 145.167 150.082 145.176 150.174 145.269C151.058 145.402 151.836 145.617 152.72 145.749C153.795 145.98 154.87 146.21 155.853 146.347C156.341 146.46 156.836 146.484 157.317 146.685C157.607 146.788 157.678 147.146 157.275 147.214C157.176 147.209 156.978 147.2 156.879 147.195C156.079 147.244 155.188 147.2 154.389 147.249C152.592 147.338 150.704 147.333 148.907 147.422C148.207 147.476 148.221 148.539 149.02 148.49Z" fill="white"/>
<path d="M132.238 138.447C132.123 138.622 131.999 138.885 131.982 139.063C131.947 139.42 132.223 139.61 132.507 139.712C132.986 139.821 133.58 139.756 133.81 139.407C134.358 138.803 133.38 137.778 132.565 138.102C132.467 138.098 132.352 138.273 132.238 138.447Z" fill="#FCE4DD"/>
<path d="M124.374 144.694C124.259 144.868 124.136 145.132 124.118 145.31C124.084 145.667 124.359 145.857 124.643 145.958C125.122 146.068 125.716 146.002 125.946 145.654C126.495 145.049 125.517 144.024 124.701 144.349C124.595 144.434 124.489 144.519 124.374 144.694Z" fill="#FCE4DD"/>
<path d="M131.834 145.458C131.719 145.633 131.596 145.896 131.578 146.075C131.544 146.431 131.819 146.622 132.103 146.723C132.582 146.832 133.176 146.767 133.406 146.418C133.954 145.814 132.976 144.789 132.161 145.114C132.055 145.199 131.949 145.284 131.834 145.458Z" fill="#FCE4DD"/>
<path d="M132.164 143.453C132.058 143.538 132.049 143.627 132.041 143.717C132.023 143.895 132.112 143.988 132.299 144.085C132.485 144.182 132.787 144.105 132.999 143.935C133.229 143.586 132.784 143.12 132.377 143.283C132.279 143.279 132.27 143.368 132.164 143.453Z" fill="#FCE4DD"/>
<path d="M136.963 140.817C136.857 140.902 136.848 140.991 136.839 141.081C136.822 141.259 136.911 141.352 137.097 141.449C137.284 141.547 137.585 141.469 137.798 141.299C138.028 140.95 137.583 140.484 137.175 140.647C137.078 140.643 136.971 140.728 136.963 140.817Z" fill="#FCE4DD"/>
<path d="M124.157 140.548C124.05 140.633 124.042 140.723 124.033 140.812C124.016 140.99 124.105 141.083 124.291 141.18C124.478 141.278 124.779 141.2 124.992 141.03C125.221 140.681 124.777 140.215 124.369 140.378C124.272 140.374 124.263 140.463 124.157 140.548Z" fill="#FCE4DD"/>
<path d="M126.985 147.211C126.878 147.296 126.87 147.385 126.861 147.474C126.844 147.653 126.933 147.746 127.119 147.843C127.306 147.94 127.607 147.863 127.819 147.693C128.049 147.344 127.605 146.878 127.197 147.04C127.091 147.125 127.091 147.125 126.985 147.211Z" fill="#FCE4DD"/>
<path d="M119.799 145.406C119.693 145.492 119.685 145.581 119.676 145.67C119.659 145.848 119.748 145.942 119.934 146.039C120.121 146.136 120.422 146.059 120.634 145.888C120.864 145.54 120.42 145.074 120.012 145.236C119.906 145.321 119.906 145.321 119.799 145.406Z" fill="#FCE4DD"/>
<path d="M95.4211 62.7385C97.8682 56.1075 93.5661 46.2999 89.8259 42.8539C70.1859 24.4499 44.882 14.6249 17.5389 14.7845C22.4105 21.6541 29.2367 25.9031 35.9552 30.0315C45.3134 35.8194 54.7716 41.5345 64.1298 47.3224C74.119 53.4468 84.1467 59.6759 95.4211 62.7385Z" fill="#083618"/>
<path d="M132.016 89.4638C120.163 83.0635 97.4553 71.7688 84.4728 68.0384C71.4903 64.308 57.4174 63.3545 44.1321 67.8685C48.8913 74.0722 56.4665 76.6319 63.7147 78.8214C85.817 85.6696 108.601 92.2862 132.016 89.4638Z" fill="#083618"/>
<path d="M144.188 96.2176C138.129 55.0254 113.658 24.2962 80.6992 16.8583C98.4935 44.5815 120.405 76.5135 144.188 96.2176Z" fill="#083618"/>
</svg>
