<svg width="181" height="205" viewBox="0 0 181 205" fill="none" xmlns="http://www.w3.org/2000/svg">
<mask id="mask0" mask-type="alpha" maskUnits="userSpaceOnUse" x="0" y="0" width="181" height="155">
<path fill-rule="evenodd" clip-rule="evenodd" d="M0 0H180.795V154.591H0V0Z" fill="white"/>
</mask>
<g mask="url(#mask0)">
<path fill-rule="evenodd" clip-rule="evenodd" d="M123.462 152.27C68.5472 144.415 16.1712 116.027 0.702192 58.1596C-0.0428076 55.3736 -0.596808 52.1006 1.21519 49.8576C3.84319 46.6026 9.02219 48.0406 12.8062 49.8236C45.6942 65.3186 76.0972 86.0736 102.506 111.06C86.7522 80.1006 76.0472 46.5806 70.9402 12.2216C70.3032 7.9376 70.3252 2.4826 74.2122 0.570599C77.4222 -1.0104 81.1872 0.980598 84.1072 3.0486C109.505 21.0386 126.024 48.6916 141.8 75.5206C141.87 60.4676 142.205 45.4156 142.807 30.3746C142.975 26.1486 143.258 21.6466 145.762 18.2376C150.212 12.1786 160.048 12.5826 165.913 17.2846C171.779 21.9856 174.492 29.5416 176.286 36.8426C181.362 57.4886 188.339 154.372 158.131 154.585C146.676 154.666 135.013 153.922 123.462 152.27Z" fill="#FFDDD0"/>
</g>
<mask id="mask1" mask-type="alpha" maskUnits="userSpaceOnUse" x="59" y="112" width="78" height="93">
<path fill-rule="evenodd" clip-rule="evenodd" d="M59.4886 112.45H136.066V204.079H59.4886V112.45Z" fill="white"/>
</mask>
<g mask="url(#mask1)">
<path fill-rule="evenodd" clip-rule="evenodd" d="M83.8421 163.573C86.8041 162.136 87.8861 158.48 86.2101 155.647C81.3101 147.367 76.8701 138.815 72.9181 130.043C71.5261 126.949 66.5481 117.533 66.3631 113.14C66.3391 112.597 66.9301 112.265 67.3871 112.559C78.9021 119.971 88.0451 140.828 96.8541 150.953C97.5911 151.8 98.4341 152.667 99.5351 152.885C100.917 153.159 102.254 152.343 103.443 151.587C113.316 145.316 124.359 140.895 135.832 138.623C136.962 141.577 133.769 144.25 131.07 145.897C124.633 149.826 118.518 154.279 112.805 159.2C111.727 160.129 110.617 161.141 110.181 162.496C109.481 164.667 110.699 166.939 111.818 168.928C116.73 177.665 122.676 192.893 125.146 202.594C125.399 203.587 124.375 204.396 123.45 203.956C112.891 198.924 105.07 180.84 96.3431 172.665C95.4851 171.861 94.5491 171.07 93.4111 170.775C91.7451 170.344 90.0201 171.052 88.4461 171.746L63.2571 182.841C62.4121 183.212 61.4211 183.219 60.6291 182.744C59.0261 181.783 59.3181 179.796 60.2501 178.57C64.4811 173.01 69.8081 171.648 75.8791 167.436L83.8421 163.573Z" fill="#F5A300"/>
</g>
</svg>
